G75*
%MOIN*%
%OFA0B0*%
%FSLAX25Y25*%
%IPPOS*%
%LPD*%
%AMOC8*
5,1,8,0,0,1.08239X$1,22.5*
%
%ADD10C,0.00800*%
%ADD11C,0.00900*%
%ADD12C,0.00700*%
%ADD13C,0.04000*%
%ADD14R,0.06200X0.09980*%
%ADD15R,0.25820X0.05600*%
%ADD16R,0.38990X0.06430*%
%ADD17R,0.05330X0.03690*%
%ADD18R,0.04710X0.06360*%
%ADD19R,0.07790X0.59850*%
%ADD20R,0.09720X0.10240*%
%ADD21R,0.01160X0.00390*%
%ADD22R,0.03890X0.07050*%
%ADD23R,0.25820X0.50330*%
%ADD24R,0.21060X0.16030*%
%ADD25R,0.13680X0.28090*%
%ADD26R,0.32930X0.04680*%
%ADD27R,0.16910X0.00860*%
%ADD28R,0.09240X0.06380*%
%ADD29R,0.03940X0.03380*%
%ADD30R,0.06510X0.10170*%
%ADD31R,0.49750X0.64960*%
%ADD32R,0.18010X1.06140*%
%ADD33R,0.06960X0.20490*%
%ADD34R,0.13920X0.07580*%
%ADD35R,0.07370X0.11480*%
%ADD36R,0.17520X0.12120*%
%ADD37OC8,0.05200*%
%ADD38C,0.06000*%
%ADD39C,0.05200*%
%ADD40C,0.04400*%
%ADD41OC8,0.06300*%
%ADD42R,0.06000X0.06000*%
%ADD43OC8,0.06000*%
%ADD44C,0.06600*%
%ADD45C,0.10000*%
%ADD46R,0.09449X0.10236*%
%ADD47R,0.10236X0.10236*%
%ADD48R,0.03732X0.03732*%
%ADD49C,0.03732*%
%ADD50C,0.03819*%
%ADD51C,0.06693*%
%ADD52C,0.05000*%
%ADD53R,0.05315X0.05315*%
%ADD54C,0.03200*%
D10*
X0298435Y0046838D02*
X0304573Y0052976D01*
X0306108Y0052976D01*
X0307642Y0051441D01*
X0307642Y0048372D01*
X0306108Y0046838D01*
X0298435Y0046838D02*
X0298435Y0052976D01*
X0299969Y0056045D02*
X0306108Y0062184D01*
X0299969Y0062184D01*
X0298435Y0060649D01*
X0298435Y0057580D01*
X0299969Y0056045D01*
X0306108Y0056045D01*
X0307642Y0057580D01*
X0307642Y0060649D01*
X0306108Y0062184D01*
X0304573Y0065253D02*
X0307642Y0068323D01*
X0298435Y0068323D01*
X0298435Y0071392D02*
X0298435Y0065253D01*
X0298435Y0074461D02*
X0299969Y0074461D01*
X0306108Y0080600D01*
X0307642Y0080600D01*
X0307642Y0074461D01*
X0298435Y0083669D02*
X0307642Y0089808D01*
X0306108Y0092877D02*
X0307642Y0094411D01*
X0307642Y0097481D01*
X0306108Y0099015D01*
X0299969Y0092877D01*
X0298435Y0094411D01*
X0298435Y0097481D01*
X0299969Y0099015D01*
X0306108Y0099015D01*
X0306108Y0102085D02*
X0307642Y0103619D01*
X0307642Y0106689D01*
X0306108Y0108223D01*
X0299969Y0102085D01*
X0298435Y0103619D01*
X0298435Y0106689D01*
X0299969Y0108223D01*
X0306108Y0108223D01*
X0303038Y0111293D02*
X0303038Y0117431D01*
X0303038Y0120500D02*
X0303038Y0126639D01*
X0301504Y0129708D02*
X0298435Y0132778D01*
X0301504Y0135847D01*
X0307642Y0135847D01*
X0306108Y0138916D02*
X0307642Y0140451D01*
X0307642Y0143520D01*
X0306108Y0145055D01*
X0299969Y0138916D01*
X0298435Y0140451D01*
X0298435Y0143520D01*
X0299969Y0145055D01*
X0306108Y0145055D01*
X0304573Y0148124D02*
X0307642Y0151193D01*
X0298435Y0151193D01*
X0298435Y0148124D02*
X0298435Y0154263D01*
X0299969Y0138916D02*
X0306108Y0138916D01*
X0307642Y0129708D02*
X0301504Y0129708D01*
X0298435Y0115896D02*
X0307642Y0115896D01*
X0303038Y0111293D01*
X0299969Y0102085D02*
X0306108Y0102085D01*
X0306108Y0092877D02*
X0299969Y0092877D01*
D11*
X0286284Y0092314D02*
X0286284Y0088673D01*
X0282644Y0088673D02*
X0280824Y0086853D01*
X0279004Y0088673D01*
X0279004Y0094134D01*
X0284464Y0094134D01*
X0286284Y0092314D01*
X0282644Y0094134D02*
X0282644Y0088673D01*
X0280824Y0083258D02*
X0279004Y0081438D01*
X0279004Y0077798D01*
X0280824Y0075978D01*
X0288104Y0075978D01*
X0289924Y0077798D01*
X0289924Y0081438D01*
X0288104Y0083258D01*
X0286284Y0097729D02*
X0279004Y0097729D01*
X0282644Y0097729D02*
X0286284Y0101369D01*
X0286284Y0103189D01*
X0289924Y0106792D02*
X0289924Y0108612D01*
X0279004Y0108612D01*
X0279004Y0106792D02*
X0279004Y0110432D01*
X0277184Y0061492D02*
X0284464Y0061492D01*
X0284464Y0057852D01*
X0282644Y0057852D02*
X0282644Y0061492D01*
D12*
X0287981Y0121712D02*
X0287981Y0126983D01*
X0284028Y0129631D02*
X0285346Y0130948D01*
X0285346Y0133584D01*
X0284028Y0134902D01*
X0282710Y0134902D01*
X0282710Y0129631D01*
X0281392Y0129631D02*
X0284028Y0129631D01*
X0281392Y0129631D02*
X0280075Y0130948D01*
X0280075Y0133584D01*
X0280075Y0137549D02*
X0285346Y0137549D01*
X0282710Y0137549D02*
X0285346Y0140185D01*
X0285346Y0141503D01*
X0285346Y0144148D02*
X0280075Y0144148D01*
X0285346Y0144148D02*
X0285346Y0148102D01*
X0284028Y0149420D01*
X0280075Y0149420D01*
X0281392Y0152067D02*
X0282710Y0153385D01*
X0282710Y0157338D01*
X0284028Y0157338D02*
X0280075Y0157338D01*
X0280075Y0153385D01*
X0281392Y0152067D01*
X0285346Y0153385D02*
X0285346Y0156021D01*
X0284028Y0157338D01*
X0285346Y0159986D02*
X0280075Y0159986D01*
X0282710Y0159986D02*
X0285346Y0162622D01*
X0285346Y0163939D01*
X0285346Y0166585D02*
X0281392Y0166585D01*
X0280075Y0167903D01*
X0280075Y0171856D01*
X0278757Y0171856D02*
X0277439Y0170538D01*
X0277439Y0169221D01*
X0278757Y0171856D02*
X0285346Y0171856D01*
X0286664Y0182422D02*
X0281392Y0182422D01*
X0280075Y0183740D01*
X0280075Y0186376D01*
X0281392Y0187694D01*
X0280075Y0190341D02*
X0280075Y0192977D01*
X0280075Y0191659D02*
X0287981Y0191659D01*
X0287981Y0190341D01*
X0286664Y0187694D02*
X0287981Y0186376D01*
X0287981Y0183740D01*
X0286664Y0182422D01*
X0284028Y0195620D02*
X0281392Y0195620D01*
X0280075Y0196938D01*
X0280075Y0199574D01*
X0281392Y0200892D01*
X0284028Y0200892D01*
X0285346Y0199574D01*
X0285346Y0196938D01*
X0284028Y0195620D01*
X0284028Y0203539D02*
X0281392Y0203539D01*
X0280075Y0204857D01*
X0280075Y0208810D01*
X0280075Y0211458D02*
X0287981Y0211458D01*
X0285346Y0208810D02*
X0285346Y0204857D01*
X0284028Y0203539D01*
X0282710Y0211458D02*
X0285346Y0215411D01*
X0282710Y0211458D02*
X0280075Y0215411D01*
X0280075Y0124348D02*
X0287981Y0124348D01*
D13*
X0007174Y0017000D02*
X0007177Y0017252D01*
X0007186Y0017503D01*
X0007202Y0017755D01*
X0007223Y0018006D01*
X0007251Y0018256D01*
X0007285Y0018505D01*
X0007325Y0018754D01*
X0007371Y0019001D01*
X0007423Y0019248D01*
X0007481Y0019493D01*
X0007546Y0019736D01*
X0007616Y0019978D01*
X0007692Y0020218D01*
X0007774Y0020456D01*
X0007861Y0020692D01*
X0007955Y0020926D01*
X0008054Y0021157D01*
X0008159Y0021386D01*
X0008269Y0021613D01*
X0008385Y0021836D01*
X0008507Y0022057D01*
X0008634Y0022274D01*
X0008766Y0022489D01*
X0008903Y0022700D01*
X0009045Y0022907D01*
X0009193Y0023111D01*
X0009345Y0023312D01*
X0009503Y0023508D01*
X0009665Y0023701D01*
X0009832Y0023890D01*
X0010003Y0024074D01*
X0010179Y0024254D01*
X0010359Y0024430D01*
X0010543Y0024601D01*
X0010732Y0024768D01*
X0010925Y0024930D01*
X0011121Y0025088D01*
X0011322Y0025240D01*
X0011526Y0025388D01*
X0011733Y0025530D01*
X0011944Y0025667D01*
X0012159Y0025799D01*
X0012376Y0025926D01*
X0012597Y0026048D01*
X0012820Y0026164D01*
X0013047Y0026274D01*
X0013276Y0026379D01*
X0013507Y0026478D01*
X0013741Y0026572D01*
X0013977Y0026659D01*
X0014215Y0026741D01*
X0014455Y0026817D01*
X0014697Y0026887D01*
X0014940Y0026952D01*
X0015185Y0027010D01*
X0015432Y0027062D01*
X0015679Y0027108D01*
X0015928Y0027148D01*
X0016177Y0027182D01*
X0016427Y0027210D01*
X0016678Y0027231D01*
X0016930Y0027247D01*
X0017181Y0027256D01*
X0017433Y0027259D01*
X0017685Y0027256D01*
X0017936Y0027247D01*
X0018188Y0027231D01*
X0018439Y0027210D01*
X0018689Y0027182D01*
X0018938Y0027148D01*
X0019187Y0027108D01*
X0019434Y0027062D01*
X0019681Y0027010D01*
X0019926Y0026952D01*
X0020169Y0026887D01*
X0020411Y0026817D01*
X0020651Y0026741D01*
X0020889Y0026659D01*
X0021125Y0026572D01*
X0021359Y0026478D01*
X0021590Y0026379D01*
X0021819Y0026274D01*
X0022046Y0026164D01*
X0022269Y0026048D01*
X0022490Y0025926D01*
X0022707Y0025799D01*
X0022922Y0025667D01*
X0023133Y0025530D01*
X0023340Y0025388D01*
X0023544Y0025240D01*
X0023745Y0025088D01*
X0023941Y0024930D01*
X0024134Y0024768D01*
X0024323Y0024601D01*
X0024507Y0024430D01*
X0024687Y0024254D01*
X0024863Y0024074D01*
X0025034Y0023890D01*
X0025201Y0023701D01*
X0025363Y0023508D01*
X0025521Y0023312D01*
X0025673Y0023111D01*
X0025821Y0022907D01*
X0025963Y0022700D01*
X0026100Y0022489D01*
X0026232Y0022274D01*
X0026359Y0022057D01*
X0026481Y0021836D01*
X0026597Y0021613D01*
X0026707Y0021386D01*
X0026812Y0021157D01*
X0026911Y0020926D01*
X0027005Y0020692D01*
X0027092Y0020456D01*
X0027174Y0020218D01*
X0027250Y0019978D01*
X0027320Y0019736D01*
X0027385Y0019493D01*
X0027443Y0019248D01*
X0027495Y0019001D01*
X0027541Y0018754D01*
X0027581Y0018505D01*
X0027615Y0018256D01*
X0027643Y0018006D01*
X0027664Y0017755D01*
X0027680Y0017503D01*
X0027689Y0017252D01*
X0027692Y0017000D01*
X0027689Y0016748D01*
X0027680Y0016497D01*
X0027664Y0016245D01*
X0027643Y0015994D01*
X0027615Y0015744D01*
X0027581Y0015495D01*
X0027541Y0015246D01*
X0027495Y0014999D01*
X0027443Y0014752D01*
X0027385Y0014507D01*
X0027320Y0014264D01*
X0027250Y0014022D01*
X0027174Y0013782D01*
X0027092Y0013544D01*
X0027005Y0013308D01*
X0026911Y0013074D01*
X0026812Y0012843D01*
X0026707Y0012614D01*
X0026597Y0012387D01*
X0026481Y0012164D01*
X0026359Y0011943D01*
X0026232Y0011726D01*
X0026100Y0011511D01*
X0025963Y0011300D01*
X0025821Y0011093D01*
X0025673Y0010889D01*
X0025521Y0010688D01*
X0025363Y0010492D01*
X0025201Y0010299D01*
X0025034Y0010110D01*
X0024863Y0009926D01*
X0024687Y0009746D01*
X0024507Y0009570D01*
X0024323Y0009399D01*
X0024134Y0009232D01*
X0023941Y0009070D01*
X0023745Y0008912D01*
X0023544Y0008760D01*
X0023340Y0008612D01*
X0023133Y0008470D01*
X0022922Y0008333D01*
X0022707Y0008201D01*
X0022490Y0008074D01*
X0022269Y0007952D01*
X0022046Y0007836D01*
X0021819Y0007726D01*
X0021590Y0007621D01*
X0021359Y0007522D01*
X0021125Y0007428D01*
X0020889Y0007341D01*
X0020651Y0007259D01*
X0020411Y0007183D01*
X0020169Y0007113D01*
X0019926Y0007048D01*
X0019681Y0006990D01*
X0019434Y0006938D01*
X0019187Y0006892D01*
X0018938Y0006852D01*
X0018689Y0006818D01*
X0018439Y0006790D01*
X0018188Y0006769D01*
X0017936Y0006753D01*
X0017685Y0006744D01*
X0017433Y0006741D01*
X0017181Y0006744D01*
X0016930Y0006753D01*
X0016678Y0006769D01*
X0016427Y0006790D01*
X0016177Y0006818D01*
X0015928Y0006852D01*
X0015679Y0006892D01*
X0015432Y0006938D01*
X0015185Y0006990D01*
X0014940Y0007048D01*
X0014697Y0007113D01*
X0014455Y0007183D01*
X0014215Y0007259D01*
X0013977Y0007341D01*
X0013741Y0007428D01*
X0013507Y0007522D01*
X0013276Y0007621D01*
X0013047Y0007726D01*
X0012820Y0007836D01*
X0012597Y0007952D01*
X0012376Y0008074D01*
X0012159Y0008201D01*
X0011944Y0008333D01*
X0011733Y0008470D01*
X0011526Y0008612D01*
X0011322Y0008760D01*
X0011121Y0008912D01*
X0010925Y0009070D01*
X0010732Y0009232D01*
X0010543Y0009399D01*
X0010359Y0009570D01*
X0010179Y0009746D01*
X0010003Y0009926D01*
X0009832Y0010110D01*
X0009665Y0010299D01*
X0009503Y0010492D01*
X0009345Y0010688D01*
X0009193Y0010889D01*
X0009045Y0011093D01*
X0008903Y0011300D01*
X0008766Y0011511D01*
X0008634Y0011726D01*
X0008507Y0011943D01*
X0008385Y0012164D01*
X0008269Y0012387D01*
X0008159Y0012614D01*
X0008054Y0012843D01*
X0007955Y0013074D01*
X0007861Y0013308D01*
X0007774Y0013544D01*
X0007692Y0013782D01*
X0007616Y0014022D01*
X0007546Y0014264D01*
X0007481Y0014507D01*
X0007423Y0014752D01*
X0007371Y0014999D01*
X0007325Y0015246D01*
X0007285Y0015495D01*
X0007251Y0015744D01*
X0007223Y0015994D01*
X0007202Y0016245D01*
X0007186Y0016497D01*
X0007177Y0016748D01*
X0007174Y0017000D01*
X0007174Y0174480D02*
X0007177Y0174732D01*
X0007186Y0174983D01*
X0007202Y0175235D01*
X0007223Y0175486D01*
X0007251Y0175736D01*
X0007285Y0175985D01*
X0007325Y0176234D01*
X0007371Y0176481D01*
X0007423Y0176728D01*
X0007481Y0176973D01*
X0007546Y0177216D01*
X0007616Y0177458D01*
X0007692Y0177698D01*
X0007774Y0177936D01*
X0007861Y0178172D01*
X0007955Y0178406D01*
X0008054Y0178637D01*
X0008159Y0178866D01*
X0008269Y0179093D01*
X0008385Y0179316D01*
X0008507Y0179537D01*
X0008634Y0179754D01*
X0008766Y0179969D01*
X0008903Y0180180D01*
X0009045Y0180387D01*
X0009193Y0180591D01*
X0009345Y0180792D01*
X0009503Y0180988D01*
X0009665Y0181181D01*
X0009832Y0181370D01*
X0010003Y0181554D01*
X0010179Y0181734D01*
X0010359Y0181910D01*
X0010543Y0182081D01*
X0010732Y0182248D01*
X0010925Y0182410D01*
X0011121Y0182568D01*
X0011322Y0182720D01*
X0011526Y0182868D01*
X0011733Y0183010D01*
X0011944Y0183147D01*
X0012159Y0183279D01*
X0012376Y0183406D01*
X0012597Y0183528D01*
X0012820Y0183644D01*
X0013047Y0183754D01*
X0013276Y0183859D01*
X0013507Y0183958D01*
X0013741Y0184052D01*
X0013977Y0184139D01*
X0014215Y0184221D01*
X0014455Y0184297D01*
X0014697Y0184367D01*
X0014940Y0184432D01*
X0015185Y0184490D01*
X0015432Y0184542D01*
X0015679Y0184588D01*
X0015928Y0184628D01*
X0016177Y0184662D01*
X0016427Y0184690D01*
X0016678Y0184711D01*
X0016930Y0184727D01*
X0017181Y0184736D01*
X0017433Y0184739D01*
X0017685Y0184736D01*
X0017936Y0184727D01*
X0018188Y0184711D01*
X0018439Y0184690D01*
X0018689Y0184662D01*
X0018938Y0184628D01*
X0019187Y0184588D01*
X0019434Y0184542D01*
X0019681Y0184490D01*
X0019926Y0184432D01*
X0020169Y0184367D01*
X0020411Y0184297D01*
X0020651Y0184221D01*
X0020889Y0184139D01*
X0021125Y0184052D01*
X0021359Y0183958D01*
X0021590Y0183859D01*
X0021819Y0183754D01*
X0022046Y0183644D01*
X0022269Y0183528D01*
X0022490Y0183406D01*
X0022707Y0183279D01*
X0022922Y0183147D01*
X0023133Y0183010D01*
X0023340Y0182868D01*
X0023544Y0182720D01*
X0023745Y0182568D01*
X0023941Y0182410D01*
X0024134Y0182248D01*
X0024323Y0182081D01*
X0024507Y0181910D01*
X0024687Y0181734D01*
X0024863Y0181554D01*
X0025034Y0181370D01*
X0025201Y0181181D01*
X0025363Y0180988D01*
X0025521Y0180792D01*
X0025673Y0180591D01*
X0025821Y0180387D01*
X0025963Y0180180D01*
X0026100Y0179969D01*
X0026232Y0179754D01*
X0026359Y0179537D01*
X0026481Y0179316D01*
X0026597Y0179093D01*
X0026707Y0178866D01*
X0026812Y0178637D01*
X0026911Y0178406D01*
X0027005Y0178172D01*
X0027092Y0177936D01*
X0027174Y0177698D01*
X0027250Y0177458D01*
X0027320Y0177216D01*
X0027385Y0176973D01*
X0027443Y0176728D01*
X0027495Y0176481D01*
X0027541Y0176234D01*
X0027581Y0175985D01*
X0027615Y0175736D01*
X0027643Y0175486D01*
X0027664Y0175235D01*
X0027680Y0174983D01*
X0027689Y0174732D01*
X0027692Y0174480D01*
X0027689Y0174228D01*
X0027680Y0173977D01*
X0027664Y0173725D01*
X0027643Y0173474D01*
X0027615Y0173224D01*
X0027581Y0172975D01*
X0027541Y0172726D01*
X0027495Y0172479D01*
X0027443Y0172232D01*
X0027385Y0171987D01*
X0027320Y0171744D01*
X0027250Y0171502D01*
X0027174Y0171262D01*
X0027092Y0171024D01*
X0027005Y0170788D01*
X0026911Y0170554D01*
X0026812Y0170323D01*
X0026707Y0170094D01*
X0026597Y0169867D01*
X0026481Y0169644D01*
X0026359Y0169423D01*
X0026232Y0169206D01*
X0026100Y0168991D01*
X0025963Y0168780D01*
X0025821Y0168573D01*
X0025673Y0168369D01*
X0025521Y0168168D01*
X0025363Y0167972D01*
X0025201Y0167779D01*
X0025034Y0167590D01*
X0024863Y0167406D01*
X0024687Y0167226D01*
X0024507Y0167050D01*
X0024323Y0166879D01*
X0024134Y0166712D01*
X0023941Y0166550D01*
X0023745Y0166392D01*
X0023544Y0166240D01*
X0023340Y0166092D01*
X0023133Y0165950D01*
X0022922Y0165813D01*
X0022707Y0165681D01*
X0022490Y0165554D01*
X0022269Y0165432D01*
X0022046Y0165316D01*
X0021819Y0165206D01*
X0021590Y0165101D01*
X0021359Y0165002D01*
X0021125Y0164908D01*
X0020889Y0164821D01*
X0020651Y0164739D01*
X0020411Y0164663D01*
X0020169Y0164593D01*
X0019926Y0164528D01*
X0019681Y0164470D01*
X0019434Y0164418D01*
X0019187Y0164372D01*
X0018938Y0164332D01*
X0018689Y0164298D01*
X0018439Y0164270D01*
X0018188Y0164249D01*
X0017936Y0164233D01*
X0017685Y0164224D01*
X0017433Y0164221D01*
X0017181Y0164224D01*
X0016930Y0164233D01*
X0016678Y0164249D01*
X0016427Y0164270D01*
X0016177Y0164298D01*
X0015928Y0164332D01*
X0015679Y0164372D01*
X0015432Y0164418D01*
X0015185Y0164470D01*
X0014940Y0164528D01*
X0014697Y0164593D01*
X0014455Y0164663D01*
X0014215Y0164739D01*
X0013977Y0164821D01*
X0013741Y0164908D01*
X0013507Y0165002D01*
X0013276Y0165101D01*
X0013047Y0165206D01*
X0012820Y0165316D01*
X0012597Y0165432D01*
X0012376Y0165554D01*
X0012159Y0165681D01*
X0011944Y0165813D01*
X0011733Y0165950D01*
X0011526Y0166092D01*
X0011322Y0166240D01*
X0011121Y0166392D01*
X0010925Y0166550D01*
X0010732Y0166712D01*
X0010543Y0166879D01*
X0010359Y0167050D01*
X0010179Y0167226D01*
X0010003Y0167406D01*
X0009832Y0167590D01*
X0009665Y0167779D01*
X0009503Y0167972D01*
X0009345Y0168168D01*
X0009193Y0168369D01*
X0009045Y0168573D01*
X0008903Y0168780D01*
X0008766Y0168991D01*
X0008634Y0169206D01*
X0008507Y0169423D01*
X0008385Y0169644D01*
X0008269Y0169867D01*
X0008159Y0170094D01*
X0008054Y0170323D01*
X0007955Y0170554D01*
X0007861Y0170788D01*
X0007774Y0171024D01*
X0007692Y0171262D01*
X0007616Y0171502D01*
X0007546Y0171744D01*
X0007481Y0171987D01*
X0007423Y0172232D01*
X0007371Y0172479D01*
X0007325Y0172726D01*
X0007285Y0172975D01*
X0007251Y0173224D01*
X0007223Y0173474D01*
X0007202Y0173725D01*
X0007186Y0173977D01*
X0007177Y0174228D01*
X0007174Y0174480D01*
X0322134Y0174480D02*
X0322137Y0174732D01*
X0322146Y0174983D01*
X0322162Y0175235D01*
X0322183Y0175486D01*
X0322211Y0175736D01*
X0322245Y0175985D01*
X0322285Y0176234D01*
X0322331Y0176481D01*
X0322383Y0176728D01*
X0322441Y0176973D01*
X0322506Y0177216D01*
X0322576Y0177458D01*
X0322652Y0177698D01*
X0322734Y0177936D01*
X0322821Y0178172D01*
X0322915Y0178406D01*
X0323014Y0178637D01*
X0323119Y0178866D01*
X0323229Y0179093D01*
X0323345Y0179316D01*
X0323467Y0179537D01*
X0323594Y0179754D01*
X0323726Y0179969D01*
X0323863Y0180180D01*
X0324005Y0180387D01*
X0324153Y0180591D01*
X0324305Y0180792D01*
X0324463Y0180988D01*
X0324625Y0181181D01*
X0324792Y0181370D01*
X0324963Y0181554D01*
X0325139Y0181734D01*
X0325319Y0181910D01*
X0325503Y0182081D01*
X0325692Y0182248D01*
X0325885Y0182410D01*
X0326081Y0182568D01*
X0326282Y0182720D01*
X0326486Y0182868D01*
X0326693Y0183010D01*
X0326904Y0183147D01*
X0327119Y0183279D01*
X0327336Y0183406D01*
X0327557Y0183528D01*
X0327780Y0183644D01*
X0328007Y0183754D01*
X0328236Y0183859D01*
X0328467Y0183958D01*
X0328701Y0184052D01*
X0328937Y0184139D01*
X0329175Y0184221D01*
X0329415Y0184297D01*
X0329657Y0184367D01*
X0329900Y0184432D01*
X0330145Y0184490D01*
X0330392Y0184542D01*
X0330639Y0184588D01*
X0330888Y0184628D01*
X0331137Y0184662D01*
X0331387Y0184690D01*
X0331638Y0184711D01*
X0331890Y0184727D01*
X0332141Y0184736D01*
X0332393Y0184739D01*
X0332645Y0184736D01*
X0332896Y0184727D01*
X0333148Y0184711D01*
X0333399Y0184690D01*
X0333649Y0184662D01*
X0333898Y0184628D01*
X0334147Y0184588D01*
X0334394Y0184542D01*
X0334641Y0184490D01*
X0334886Y0184432D01*
X0335129Y0184367D01*
X0335371Y0184297D01*
X0335611Y0184221D01*
X0335849Y0184139D01*
X0336085Y0184052D01*
X0336319Y0183958D01*
X0336550Y0183859D01*
X0336779Y0183754D01*
X0337006Y0183644D01*
X0337229Y0183528D01*
X0337450Y0183406D01*
X0337667Y0183279D01*
X0337882Y0183147D01*
X0338093Y0183010D01*
X0338300Y0182868D01*
X0338504Y0182720D01*
X0338705Y0182568D01*
X0338901Y0182410D01*
X0339094Y0182248D01*
X0339283Y0182081D01*
X0339467Y0181910D01*
X0339647Y0181734D01*
X0339823Y0181554D01*
X0339994Y0181370D01*
X0340161Y0181181D01*
X0340323Y0180988D01*
X0340481Y0180792D01*
X0340633Y0180591D01*
X0340781Y0180387D01*
X0340923Y0180180D01*
X0341060Y0179969D01*
X0341192Y0179754D01*
X0341319Y0179537D01*
X0341441Y0179316D01*
X0341557Y0179093D01*
X0341667Y0178866D01*
X0341772Y0178637D01*
X0341871Y0178406D01*
X0341965Y0178172D01*
X0342052Y0177936D01*
X0342134Y0177698D01*
X0342210Y0177458D01*
X0342280Y0177216D01*
X0342345Y0176973D01*
X0342403Y0176728D01*
X0342455Y0176481D01*
X0342501Y0176234D01*
X0342541Y0175985D01*
X0342575Y0175736D01*
X0342603Y0175486D01*
X0342624Y0175235D01*
X0342640Y0174983D01*
X0342649Y0174732D01*
X0342652Y0174480D01*
X0342649Y0174228D01*
X0342640Y0173977D01*
X0342624Y0173725D01*
X0342603Y0173474D01*
X0342575Y0173224D01*
X0342541Y0172975D01*
X0342501Y0172726D01*
X0342455Y0172479D01*
X0342403Y0172232D01*
X0342345Y0171987D01*
X0342280Y0171744D01*
X0342210Y0171502D01*
X0342134Y0171262D01*
X0342052Y0171024D01*
X0341965Y0170788D01*
X0341871Y0170554D01*
X0341772Y0170323D01*
X0341667Y0170094D01*
X0341557Y0169867D01*
X0341441Y0169644D01*
X0341319Y0169423D01*
X0341192Y0169206D01*
X0341060Y0168991D01*
X0340923Y0168780D01*
X0340781Y0168573D01*
X0340633Y0168369D01*
X0340481Y0168168D01*
X0340323Y0167972D01*
X0340161Y0167779D01*
X0339994Y0167590D01*
X0339823Y0167406D01*
X0339647Y0167226D01*
X0339467Y0167050D01*
X0339283Y0166879D01*
X0339094Y0166712D01*
X0338901Y0166550D01*
X0338705Y0166392D01*
X0338504Y0166240D01*
X0338300Y0166092D01*
X0338093Y0165950D01*
X0337882Y0165813D01*
X0337667Y0165681D01*
X0337450Y0165554D01*
X0337229Y0165432D01*
X0337006Y0165316D01*
X0336779Y0165206D01*
X0336550Y0165101D01*
X0336319Y0165002D01*
X0336085Y0164908D01*
X0335849Y0164821D01*
X0335611Y0164739D01*
X0335371Y0164663D01*
X0335129Y0164593D01*
X0334886Y0164528D01*
X0334641Y0164470D01*
X0334394Y0164418D01*
X0334147Y0164372D01*
X0333898Y0164332D01*
X0333649Y0164298D01*
X0333399Y0164270D01*
X0333148Y0164249D01*
X0332896Y0164233D01*
X0332645Y0164224D01*
X0332393Y0164221D01*
X0332141Y0164224D01*
X0331890Y0164233D01*
X0331638Y0164249D01*
X0331387Y0164270D01*
X0331137Y0164298D01*
X0330888Y0164332D01*
X0330639Y0164372D01*
X0330392Y0164418D01*
X0330145Y0164470D01*
X0329900Y0164528D01*
X0329657Y0164593D01*
X0329415Y0164663D01*
X0329175Y0164739D01*
X0328937Y0164821D01*
X0328701Y0164908D01*
X0328467Y0165002D01*
X0328236Y0165101D01*
X0328007Y0165206D01*
X0327780Y0165316D01*
X0327557Y0165432D01*
X0327336Y0165554D01*
X0327119Y0165681D01*
X0326904Y0165813D01*
X0326693Y0165950D01*
X0326486Y0166092D01*
X0326282Y0166240D01*
X0326081Y0166392D01*
X0325885Y0166550D01*
X0325692Y0166712D01*
X0325503Y0166879D01*
X0325319Y0167050D01*
X0325139Y0167226D01*
X0324963Y0167406D01*
X0324792Y0167590D01*
X0324625Y0167779D01*
X0324463Y0167972D01*
X0324305Y0168168D01*
X0324153Y0168369D01*
X0324005Y0168573D01*
X0323863Y0168780D01*
X0323726Y0168991D01*
X0323594Y0169206D01*
X0323467Y0169423D01*
X0323345Y0169644D01*
X0323229Y0169867D01*
X0323119Y0170094D01*
X0323014Y0170323D01*
X0322915Y0170554D01*
X0322821Y0170788D01*
X0322734Y0171024D01*
X0322652Y0171262D01*
X0322576Y0171502D01*
X0322506Y0171744D01*
X0322441Y0171987D01*
X0322383Y0172232D01*
X0322331Y0172479D01*
X0322285Y0172726D01*
X0322245Y0172975D01*
X0322211Y0173224D01*
X0322183Y0173474D01*
X0322162Y0173725D01*
X0322146Y0173977D01*
X0322137Y0174228D01*
X0322134Y0174480D01*
X0322134Y0017000D02*
X0322137Y0017252D01*
X0322146Y0017503D01*
X0322162Y0017755D01*
X0322183Y0018006D01*
X0322211Y0018256D01*
X0322245Y0018505D01*
X0322285Y0018754D01*
X0322331Y0019001D01*
X0322383Y0019248D01*
X0322441Y0019493D01*
X0322506Y0019736D01*
X0322576Y0019978D01*
X0322652Y0020218D01*
X0322734Y0020456D01*
X0322821Y0020692D01*
X0322915Y0020926D01*
X0323014Y0021157D01*
X0323119Y0021386D01*
X0323229Y0021613D01*
X0323345Y0021836D01*
X0323467Y0022057D01*
X0323594Y0022274D01*
X0323726Y0022489D01*
X0323863Y0022700D01*
X0324005Y0022907D01*
X0324153Y0023111D01*
X0324305Y0023312D01*
X0324463Y0023508D01*
X0324625Y0023701D01*
X0324792Y0023890D01*
X0324963Y0024074D01*
X0325139Y0024254D01*
X0325319Y0024430D01*
X0325503Y0024601D01*
X0325692Y0024768D01*
X0325885Y0024930D01*
X0326081Y0025088D01*
X0326282Y0025240D01*
X0326486Y0025388D01*
X0326693Y0025530D01*
X0326904Y0025667D01*
X0327119Y0025799D01*
X0327336Y0025926D01*
X0327557Y0026048D01*
X0327780Y0026164D01*
X0328007Y0026274D01*
X0328236Y0026379D01*
X0328467Y0026478D01*
X0328701Y0026572D01*
X0328937Y0026659D01*
X0329175Y0026741D01*
X0329415Y0026817D01*
X0329657Y0026887D01*
X0329900Y0026952D01*
X0330145Y0027010D01*
X0330392Y0027062D01*
X0330639Y0027108D01*
X0330888Y0027148D01*
X0331137Y0027182D01*
X0331387Y0027210D01*
X0331638Y0027231D01*
X0331890Y0027247D01*
X0332141Y0027256D01*
X0332393Y0027259D01*
X0332645Y0027256D01*
X0332896Y0027247D01*
X0333148Y0027231D01*
X0333399Y0027210D01*
X0333649Y0027182D01*
X0333898Y0027148D01*
X0334147Y0027108D01*
X0334394Y0027062D01*
X0334641Y0027010D01*
X0334886Y0026952D01*
X0335129Y0026887D01*
X0335371Y0026817D01*
X0335611Y0026741D01*
X0335849Y0026659D01*
X0336085Y0026572D01*
X0336319Y0026478D01*
X0336550Y0026379D01*
X0336779Y0026274D01*
X0337006Y0026164D01*
X0337229Y0026048D01*
X0337450Y0025926D01*
X0337667Y0025799D01*
X0337882Y0025667D01*
X0338093Y0025530D01*
X0338300Y0025388D01*
X0338504Y0025240D01*
X0338705Y0025088D01*
X0338901Y0024930D01*
X0339094Y0024768D01*
X0339283Y0024601D01*
X0339467Y0024430D01*
X0339647Y0024254D01*
X0339823Y0024074D01*
X0339994Y0023890D01*
X0340161Y0023701D01*
X0340323Y0023508D01*
X0340481Y0023312D01*
X0340633Y0023111D01*
X0340781Y0022907D01*
X0340923Y0022700D01*
X0341060Y0022489D01*
X0341192Y0022274D01*
X0341319Y0022057D01*
X0341441Y0021836D01*
X0341557Y0021613D01*
X0341667Y0021386D01*
X0341772Y0021157D01*
X0341871Y0020926D01*
X0341965Y0020692D01*
X0342052Y0020456D01*
X0342134Y0020218D01*
X0342210Y0019978D01*
X0342280Y0019736D01*
X0342345Y0019493D01*
X0342403Y0019248D01*
X0342455Y0019001D01*
X0342501Y0018754D01*
X0342541Y0018505D01*
X0342575Y0018256D01*
X0342603Y0018006D01*
X0342624Y0017755D01*
X0342640Y0017503D01*
X0342649Y0017252D01*
X0342652Y0017000D01*
X0342649Y0016748D01*
X0342640Y0016497D01*
X0342624Y0016245D01*
X0342603Y0015994D01*
X0342575Y0015744D01*
X0342541Y0015495D01*
X0342501Y0015246D01*
X0342455Y0014999D01*
X0342403Y0014752D01*
X0342345Y0014507D01*
X0342280Y0014264D01*
X0342210Y0014022D01*
X0342134Y0013782D01*
X0342052Y0013544D01*
X0341965Y0013308D01*
X0341871Y0013074D01*
X0341772Y0012843D01*
X0341667Y0012614D01*
X0341557Y0012387D01*
X0341441Y0012164D01*
X0341319Y0011943D01*
X0341192Y0011726D01*
X0341060Y0011511D01*
X0340923Y0011300D01*
X0340781Y0011093D01*
X0340633Y0010889D01*
X0340481Y0010688D01*
X0340323Y0010492D01*
X0340161Y0010299D01*
X0339994Y0010110D01*
X0339823Y0009926D01*
X0339647Y0009746D01*
X0339467Y0009570D01*
X0339283Y0009399D01*
X0339094Y0009232D01*
X0338901Y0009070D01*
X0338705Y0008912D01*
X0338504Y0008760D01*
X0338300Y0008612D01*
X0338093Y0008470D01*
X0337882Y0008333D01*
X0337667Y0008201D01*
X0337450Y0008074D01*
X0337229Y0007952D01*
X0337006Y0007836D01*
X0336779Y0007726D01*
X0336550Y0007621D01*
X0336319Y0007522D01*
X0336085Y0007428D01*
X0335849Y0007341D01*
X0335611Y0007259D01*
X0335371Y0007183D01*
X0335129Y0007113D01*
X0334886Y0007048D01*
X0334641Y0006990D01*
X0334394Y0006938D01*
X0334147Y0006892D01*
X0333898Y0006852D01*
X0333649Y0006818D01*
X0333399Y0006790D01*
X0333148Y0006769D01*
X0332896Y0006753D01*
X0332645Y0006744D01*
X0332393Y0006741D01*
X0332141Y0006744D01*
X0331890Y0006753D01*
X0331638Y0006769D01*
X0331387Y0006790D01*
X0331137Y0006818D01*
X0330888Y0006852D01*
X0330639Y0006892D01*
X0330392Y0006938D01*
X0330145Y0006990D01*
X0329900Y0007048D01*
X0329657Y0007113D01*
X0329415Y0007183D01*
X0329175Y0007259D01*
X0328937Y0007341D01*
X0328701Y0007428D01*
X0328467Y0007522D01*
X0328236Y0007621D01*
X0328007Y0007726D01*
X0327780Y0007836D01*
X0327557Y0007952D01*
X0327336Y0008074D01*
X0327119Y0008201D01*
X0326904Y0008333D01*
X0326693Y0008470D01*
X0326486Y0008612D01*
X0326282Y0008760D01*
X0326081Y0008912D01*
X0325885Y0009070D01*
X0325692Y0009232D01*
X0325503Y0009399D01*
X0325319Y0009570D01*
X0325139Y0009746D01*
X0324963Y0009926D01*
X0324792Y0010110D01*
X0324625Y0010299D01*
X0324463Y0010492D01*
X0324305Y0010688D01*
X0324153Y0010889D01*
X0324005Y0011093D01*
X0323863Y0011300D01*
X0323726Y0011511D01*
X0323594Y0011726D01*
X0323467Y0011943D01*
X0323345Y0012164D01*
X0323229Y0012387D01*
X0323119Y0012614D01*
X0323014Y0012843D01*
X0322915Y0013074D01*
X0322821Y0013308D01*
X0322734Y0013544D01*
X0322652Y0013782D01*
X0322576Y0014022D01*
X0322506Y0014264D01*
X0322441Y0014507D01*
X0322383Y0014752D01*
X0322331Y0014999D01*
X0322285Y0015246D01*
X0322245Y0015495D01*
X0322211Y0015744D01*
X0322183Y0015994D01*
X0322162Y0016245D01*
X0322146Y0016497D01*
X0322137Y0016748D01*
X0322134Y0017000D01*
D14*
X0041895Y0112622D03*
D15*
X0243735Y0053362D03*
D16*
X0258010Y0042897D03*
D17*
X0210150Y0192887D03*
D18*
X0212910Y0190942D03*
D19*
X0011310Y0108037D03*
D20*
X0125175Y0135792D03*
D21*
X0213325Y0194137D03*
D22*
X0046030Y0112417D03*
D23*
X0150745Y0150947D03*
D24*
X0174005Y0168007D03*
D25*
X0170315Y0146217D03*
D26*
X0193260Y0135322D03*
D27*
X0171190Y0176002D03*
D28*
X0122095Y0191122D03*
D29*
X0118925Y0186572D03*
D30*
X0110180Y0188567D03*
D31*
X0237220Y0162002D03*
D32*
X0256160Y0136692D03*
D33*
X0244285Y0119687D03*
D34*
X0234255Y0126142D03*
D35*
X0238140Y0121122D03*
D36*
X0266295Y0047562D03*
D37*
X0183577Y0109549D03*
X0153577Y0109549D03*
X0144768Y0109524D03*
X0144768Y0129524D03*
X0122855Y0130592D03*
X0115253Y0141003D03*
X0095253Y0141003D03*
X0092855Y0130592D03*
X0070783Y0117620D03*
X0060903Y0107140D03*
X0040783Y0117620D03*
X0030903Y0107140D03*
X0044493Y0083890D03*
X0044493Y0063890D03*
X0071803Y0016780D03*
X0101803Y0016780D03*
X0048476Y0184680D03*
X0038476Y0184680D03*
X0053713Y0189833D03*
X0083713Y0189833D03*
D38*
X0023183Y0156816D02*
X0023183Y0150816D01*
X0005383Y0150816D02*
X0005383Y0156816D01*
X0005383Y0131216D02*
X0005383Y0125216D01*
X0023183Y0125216D02*
X0023183Y0131216D01*
X0091125Y0117442D02*
X0091125Y0111442D01*
X0101125Y0111442D02*
X0101125Y0117442D01*
X0111125Y0117442D02*
X0111125Y0111442D01*
X0121125Y0111442D02*
X0121125Y0117442D01*
X0131125Y0117442D02*
X0131125Y0111442D01*
X0080903Y0055580D02*
X0080903Y0049580D01*
X0070903Y0049580D02*
X0070903Y0055580D01*
X0061023Y0045450D02*
X0061023Y0039450D01*
X0043223Y0039450D02*
X0043223Y0045450D01*
X0023183Y0040665D02*
X0023183Y0034665D01*
X0005383Y0034665D02*
X0005383Y0040665D01*
X0005383Y0060265D02*
X0005383Y0066265D01*
X0023183Y0066265D02*
X0023183Y0060265D01*
X0043223Y0019850D02*
X0043223Y0013850D01*
X0061023Y0013850D02*
X0061023Y0019850D01*
X0187265Y0045002D02*
X0187265Y0051002D01*
X0197265Y0051002D02*
X0197265Y0045002D01*
X0216094Y0031811D02*
X0216094Y0025811D01*
X0226094Y0025811D02*
X0226094Y0031811D01*
X0236094Y0031811D02*
X0236094Y0025811D01*
D39*
X0190853Y0062260D02*
X0190853Y0067460D01*
X0180853Y0067460D02*
X0180853Y0062260D01*
X0170853Y0062260D02*
X0170853Y0067460D01*
X0160853Y0067460D02*
X0160853Y0062260D01*
X0150853Y0062260D02*
X0150853Y0067460D01*
X0140853Y0067460D02*
X0140853Y0062260D01*
X0130853Y0062260D02*
X0130853Y0067460D01*
X0120853Y0067460D02*
X0120853Y0062260D01*
X0110853Y0062260D02*
X0110853Y0067460D01*
X0100853Y0067460D02*
X0100853Y0062260D01*
X0090853Y0062260D02*
X0090853Y0067460D01*
X0080853Y0067460D02*
X0080853Y0062260D01*
X0070853Y0062260D02*
X0070853Y0067460D01*
X0060853Y0067460D02*
X0060853Y0062260D01*
X0060853Y0092260D02*
X0060853Y0097460D01*
X0070853Y0097460D02*
X0070853Y0092260D01*
X0080853Y0092260D02*
X0080853Y0097460D01*
X0090853Y0097460D02*
X0090853Y0092260D01*
X0100853Y0092260D02*
X0100853Y0097460D01*
X0110853Y0097460D02*
X0110853Y0092260D01*
X0120853Y0092260D02*
X0120853Y0097460D01*
X0130853Y0097460D02*
X0130853Y0092260D01*
X0140853Y0092260D02*
X0140853Y0097460D01*
X0150853Y0097460D02*
X0150853Y0092260D01*
X0160853Y0092260D02*
X0160853Y0097460D01*
X0170853Y0097460D02*
X0170853Y0092260D01*
X0180853Y0092260D02*
X0180853Y0097460D01*
X0190853Y0097460D02*
X0190853Y0092260D01*
X0117653Y0151883D02*
X0112453Y0151883D01*
X0112453Y0161883D02*
X0117653Y0161883D01*
X0117653Y0171883D02*
X0112453Y0171883D01*
X0112453Y0181883D02*
X0117653Y0181883D01*
X0087653Y0181883D02*
X0082453Y0181883D01*
X0082453Y0171883D02*
X0087653Y0171883D01*
X0087653Y0161883D02*
X0082453Y0161883D01*
X0082453Y0151883D02*
X0087653Y0151883D01*
D40*
X0140943Y0039930D02*
X0140943Y0035530D01*
X0160943Y0035530D02*
X0160943Y0039930D01*
D41*
X0140933Y0052960D03*
X0130933Y0052960D03*
X0130847Y0022480D03*
X0140847Y0022480D03*
D42*
X0226483Y0071620D03*
D43*
X0236483Y0071620D03*
X0246483Y0071620D03*
X0246483Y0081620D03*
X0236483Y0081620D03*
X0226483Y0081620D03*
X0049915Y0053162D03*
D44*
X0078665Y0126486D03*
X0078665Y0138298D03*
X0126273Y0151963D03*
X0126273Y0161963D03*
D45*
X0189992Y0150460D02*
X0199992Y0150460D01*
X0247866Y0150460D02*
X0257866Y0150460D01*
D46*
X0259952Y0150460D03*
D47*
X0187118Y0150460D03*
D48*
X0267288Y0028929D03*
D49*
X0271225Y0031488D03*
X0267288Y0034047D03*
X0271225Y0036606D03*
X0267288Y0039165D03*
D50*
X0266245Y0048122D02*
X0270064Y0048122D01*
X0270064Y0019972D02*
X0266245Y0019972D01*
D51*
X0249115Y0013052D03*
X0219115Y0013052D03*
D52*
X0219115Y0012932D01*
X0216094Y0012932D01*
X0216094Y0028811D01*
X0216055Y0038812D01*
X0221820Y0046312D02*
X0209747Y0046312D01*
X0206005Y0042570D01*
X0206005Y0038354D01*
X0203832Y0036182D01*
X0183896Y0036182D01*
X0170853Y0049226D01*
X0170853Y0064860D01*
X0180853Y0064860D02*
X0180853Y0054414D01*
X0187265Y0048002D01*
X0197265Y0048002D02*
X0202915Y0053652D01*
X0231084Y0053652D01*
X0236615Y0048122D01*
X0236094Y0048122D01*
X0236094Y0028811D01*
X0226094Y0028811D02*
X0226094Y0042038D01*
X0221820Y0046312D01*
X0236615Y0048122D02*
X0258923Y0048122D01*
X0258923Y0062490D01*
X0258965Y0057642D02*
X0267768Y0057642D01*
X0275135Y0050275D01*
X0275135Y0048802D01*
X0272245Y0048802D01*
X0272245Y0053102D01*
X0261935Y0053102D01*
X0261935Y0052852D01*
X0259455Y0057142D02*
X0259535Y0057642D01*
X0268018Y0057642D01*
X0279654Y0045983D01*
X0279613Y0023243D01*
X0269245Y0012892D01*
X0258965Y0012892D01*
X0258965Y0016074D01*
X0262883Y0019992D01*
X0268785Y0019992D01*
X0268785Y0019662D01*
X0268375Y0019662D01*
X0268155Y0019972D02*
X0276579Y0019972D01*
X0279635Y0023027D01*
X0279635Y0045204D01*
X0276666Y0048172D01*
X0268155Y0048172D01*
X0268155Y0048122D01*
X0258923Y0048122D01*
X0268533Y0071525D02*
X0288030Y0051891D01*
X0287938Y0017905D01*
X0274955Y0004973D01*
X0078988Y0005196D01*
X0071912Y0012103D01*
X0071803Y0016780D01*
X0061023Y0016780D01*
X0061023Y0016850D01*
X0037376Y0029390D02*
X0090051Y0029390D01*
X0100953Y0040292D01*
X0100953Y0064860D01*
X0100853Y0064860D01*
X0090853Y0064860D02*
X0090743Y0064860D01*
X0090743Y0071125D01*
X0086508Y0075360D01*
X0033611Y0075360D01*
X0023183Y0085788D01*
X0023183Y0128216D01*
X0005383Y0128216D02*
X0005383Y0136361D01*
X0009394Y0140372D01*
X0026772Y0140372D01*
X0038535Y0152134D01*
X0038535Y0184680D01*
X0038476Y0184680D01*
X0038535Y0184680D02*
X0038535Y0187609D01*
X0047670Y0196744D01*
X0115013Y0196744D01*
X0258027Y0196744D01*
X0267075Y0187696D01*
X0267075Y0150460D01*
X0252866Y0150460D01*
X0267075Y0150460D02*
X0267075Y0087488D01*
X0261158Y0081572D01*
X0258893Y0081572D01*
X0258893Y0081620D01*
X0246483Y0081620D01*
X0246465Y0081442D02*
X0246465Y0106581D01*
X0221664Y0131382D01*
X0210855Y0131382D01*
X0209665Y0132572D01*
X0209615Y0132572D01*
X0211585Y0131402D02*
X0211585Y0186742D01*
X0202582Y0195745D01*
X0202575Y0195762D01*
X0198505Y0194812D02*
X0207545Y0185772D01*
X0207545Y0167512D01*
X0204005Y0164032D02*
X0204005Y0184874D01*
X0192107Y0196772D01*
X0183125Y0196772D01*
X0187405Y0186332D02*
X0194983Y0178754D01*
X0194992Y0150460D01*
X0212425Y0139822D02*
X0175715Y0139822D01*
X0175715Y0161702D01*
X0186695Y0161702D01*
X0186695Y0171697D01*
X0179849Y0178542D01*
X0143806Y0178542D01*
X0135405Y0170141D01*
X0135405Y0125062D01*
X0134055Y0125062D01*
X0132535Y0123412D02*
X0132535Y0123202D01*
X0132535Y0123412D02*
X0158135Y0123412D01*
X0166125Y0131402D01*
X0211585Y0131402D01*
X0206255Y0131812D02*
X0212605Y0138162D01*
X0212425Y0139642D02*
X0212425Y0139822D01*
X0215623Y0120900D02*
X0179852Y0120900D01*
X0170787Y0111801D01*
X0170853Y0094860D01*
X0160853Y0094860D02*
X0160853Y0089029D01*
X0165422Y0084460D01*
X0201805Y0084460D01*
X0209033Y0077233D01*
X0209033Y0073470D01*
X0210883Y0071620D01*
X0226483Y0071620D01*
X0236483Y0071620D02*
X0236973Y0071620D01*
X0236973Y0064885D01*
X0232927Y0060840D01*
X0204084Y0060840D01*
X0201533Y0063392D01*
X0201533Y0069512D01*
X0195375Y0075670D01*
X0159411Y0075670D01*
X0150853Y0084228D01*
X0150853Y0094860D01*
X0140853Y0094860D02*
X0140853Y0105609D01*
X0144768Y0109524D01*
X0153577Y0109524D01*
X0153577Y0109549D01*
X0131115Y0108758D02*
X0131115Y0114442D01*
X0131125Y0114442D01*
X0131125Y0130672D01*
X0131045Y0130592D01*
X0131045Y0129524D01*
X0144768Y0129524D01*
X0131125Y0130672D02*
X0131125Y0141252D01*
X0131044Y0141333D01*
X0124364Y0141013D01*
X0120324Y0142694D01*
X0118214Y0144822D01*
X0109053Y0144822D01*
X0105564Y0148300D01*
X0105477Y0177576D01*
X0109770Y0181883D01*
X0115013Y0181883D01*
X0115013Y0196744D01*
X0115645Y0195202D02*
X0105415Y0195202D01*
X0105415Y0173202D01*
X0115053Y0171883D02*
X0122482Y0171883D01*
X0136931Y0186332D01*
X0187405Y0186332D01*
X0204005Y0164032D02*
X0219025Y0164032D01*
X0215623Y0120900D02*
X0236483Y0100040D01*
X0236483Y0081620D01*
X0226483Y0081572D02*
X0226483Y0081620D01*
X0226487Y0093815D01*
X0210757Y0109549D01*
X0183577Y0109549D01*
X0216055Y0081572D02*
X0226483Y0081572D01*
X0246483Y0071620D02*
X0268533Y0071525D01*
X0263775Y0028852D02*
X0255282Y0028852D01*
X0249115Y0022685D01*
X0249115Y0013052D01*
X0260775Y0016852D02*
X0269035Y0016852D01*
X0269035Y0016522D01*
X0216094Y0012932D02*
X0124633Y0012932D01*
X0120853Y0016712D01*
X0101803Y0016712D01*
X0101803Y0016780D01*
X0120853Y0016712D02*
X0120853Y0064860D01*
X0120853Y0072010D01*
X0108683Y0084180D01*
X0050495Y0084180D01*
X0044493Y0084180D01*
X0044493Y0083890D01*
X0050495Y0084180D02*
X0050495Y0097392D01*
X0050495Y0107140D01*
X0030903Y0107140D01*
X0040783Y0117620D02*
X0050502Y0117611D01*
X0050475Y0117611D01*
X0050475Y0175014D01*
X0065123Y0189662D01*
X0083635Y0189662D01*
X0083635Y0189833D01*
X0083713Y0189833D01*
X0083635Y0189662D02*
X0092413Y0189662D01*
X0095150Y0186924D01*
X0095150Y0150476D01*
X0095155Y0151913D01*
X0095013Y0151883D01*
X0095155Y0151913D02*
X0085053Y0151883D01*
X0095150Y0150476D02*
X0095194Y0141378D01*
X0095194Y0141003D01*
X0095253Y0141003D01*
X0099623Y0138292D01*
X0078665Y0138298D01*
X0080685Y0130592D02*
X0078665Y0128572D01*
X0080853Y0128572D01*
X0080853Y0094860D01*
X0090853Y0094860D02*
X0090853Y0100713D01*
X0094682Y0104542D01*
X0101165Y0111025D01*
X0101165Y0114442D01*
X0101125Y0114442D01*
X0091435Y0114752D02*
X0091125Y0114442D01*
X0091125Y0116942D01*
X0091435Y0119022D02*
X0091435Y0114752D01*
X0091435Y0119022D02*
X0099623Y0127210D01*
X0099623Y0138292D01*
X0095115Y0138302D02*
X0095194Y0141378D01*
X0115253Y0141003D02*
X0124364Y0141013D01*
X0121275Y0142262D02*
X0132535Y0142262D01*
X0131125Y0141792D02*
X0131125Y0141252D01*
X0126273Y0151883D02*
X0115053Y0151883D01*
X0126273Y0151883D02*
X0126273Y0151963D01*
X0126273Y0161883D02*
X0115053Y0161883D01*
X0126273Y0161883D02*
X0126273Y0161963D01*
X0117755Y0181742D02*
X0114845Y0181742D01*
X0115013Y0181883D02*
X0115053Y0181883D01*
X0117755Y0181742D02*
X0132575Y0196562D01*
X0107485Y0187982D02*
X0107485Y0187272D01*
X0107485Y0187982D02*
X0098805Y0196662D01*
X0085053Y0181883D02*
X0070645Y0181883D01*
X0070745Y0181882D01*
X0066258Y0171820D02*
X0061022Y0166578D01*
X0060853Y0094860D01*
X0060903Y0107140D01*
X0050495Y0097392D02*
X0050502Y0117611D01*
X0070783Y0117620D02*
X0070765Y0161942D01*
X0066258Y0171820D02*
X0085053Y0171883D01*
X0053713Y0189833D02*
X0053629Y0189833D01*
X0048476Y0184680D01*
X0080685Y0130592D02*
X0092855Y0130592D01*
X0078665Y0128572D02*
X0078665Y0126486D01*
X0070783Y0117620D02*
X0070853Y0094860D01*
X0100853Y0094860D02*
X0100853Y0100160D01*
X0105325Y0104632D01*
X0111145Y0110452D01*
X0111145Y0114442D01*
X0111125Y0114442D01*
X0121125Y0114442D02*
X0121135Y0114442D01*
X0121135Y0109926D01*
X0115841Y0104632D01*
X0110853Y0099644D01*
X0110853Y0094860D01*
X0120853Y0094860D02*
X0121263Y0094860D01*
X0121263Y0098906D01*
X0131115Y0108758D01*
X0121263Y0094860D02*
X0121263Y0086214D01*
X0130853Y0076624D01*
X0130853Y0064860D01*
X0130853Y0053040D01*
X0130933Y0052960D01*
X0130933Y0022566D01*
X0130847Y0022480D01*
X0140847Y0022480D02*
X0150853Y0032486D01*
X0150853Y0037692D01*
X0150891Y0037730D01*
X0160943Y0037730D01*
X0150853Y0037692D02*
X0150853Y0064860D01*
X0140853Y0064860D02*
X0140853Y0053040D01*
X0140933Y0052960D01*
X0140933Y0037740D01*
X0140943Y0037730D01*
X0080903Y0052580D02*
X0080903Y0064860D01*
X0080853Y0064860D01*
X0070903Y0064860D02*
X0070903Y0052580D01*
X0061023Y0042450D02*
X0060853Y0042450D01*
X0060853Y0064860D01*
X0070853Y0064860D02*
X0070903Y0064860D01*
X0049915Y0053162D02*
X0043223Y0053162D01*
X0043223Y0053112D01*
X0043223Y0042450D01*
X0031313Y0044526D02*
X0031313Y0035453D01*
X0037376Y0029390D01*
X0031313Y0044526D02*
X0025659Y0050180D01*
X0011322Y0050180D01*
X0005383Y0044241D01*
X0005383Y0037665D01*
X0043223Y0053162D02*
X0043223Y0063890D01*
X0044493Y0063890D01*
X0043143Y0063265D02*
X0023183Y0063265D01*
X0023347Y0063265D01*
X0023347Y0069488D01*
X0013955Y0078880D01*
X0008150Y0078880D01*
X0005383Y0081647D01*
X0005383Y0128216D01*
X0122855Y0130592D02*
X0131045Y0130592D01*
D53*
X0070765Y0161942D03*
X0070745Y0181882D03*
X0216055Y0081572D03*
X0258893Y0081620D03*
X0258923Y0062490D03*
X0216055Y0038812D03*
D54*
X0263775Y0028929D02*
X0267288Y0028929D01*
X0263775Y0028852D02*
X0263775Y0028929D01*
X0267288Y0039165D02*
X0267288Y0048122D01*
X0268155Y0048122D01*
M02*
