G75*
%MOIN*%
%OFA0B0*%
%FSLAX25Y25*%
%IPPOS*%
%LPD*%
%AMOC8*
5,1,8,0,0,1.08239X$1,22.5*
%
%ADD10OC8,0.05200*%
%ADD11C,0.06000*%
%ADD12C,0.05200*%
%ADD13C,0.04400*%
%ADD14OC8,0.06300*%
%ADD15R,0.06000X0.06000*%
%ADD16OC8,0.06000*%
%ADD17C,0.06600*%
%ADD18C,0.10000*%
%ADD19R,0.09449X0.10236*%
%ADD20R,0.10236X0.10236*%
%ADD21R,0.03732X0.03732*%
%ADD22C,0.03732*%
%ADD23C,0.03819*%
%ADD24C,0.06693*%
%ADD25R,0.05315X0.05315*%
%ADD26C,0.05000*%
D10*
X0071803Y0016780D03*
X0101803Y0016780D03*
X0044493Y0063890D03*
X0044493Y0083890D03*
X0030903Y0107140D03*
X0040783Y0117620D03*
X0060903Y0107140D03*
X0070783Y0117620D03*
X0092855Y0130592D03*
X0095253Y0141003D03*
X0115253Y0141003D03*
X0122855Y0130592D03*
X0144768Y0129524D03*
X0144768Y0109524D03*
X0153577Y0109549D03*
X0183577Y0109549D03*
X0048476Y0184680D03*
X0038476Y0184680D03*
X0053713Y0189833D03*
X0083713Y0189833D03*
D11*
X0043223Y0019850D02*
X0043223Y0013850D01*
X0061023Y0013850D02*
X0061023Y0019850D01*
X0061023Y0039450D02*
X0061023Y0045450D01*
X0070903Y0049580D02*
X0070903Y0055580D01*
X0080903Y0055580D02*
X0080903Y0049580D01*
X0043223Y0045450D02*
X0043223Y0039450D01*
X0023183Y0040665D02*
X0023183Y0034665D01*
X0005383Y0034665D02*
X0005383Y0040665D01*
X0005383Y0060265D02*
X0005383Y0066265D01*
X0023183Y0066265D02*
X0023183Y0060265D01*
X0091125Y0111442D02*
X0091125Y0117442D01*
X0101125Y0117442D02*
X0101125Y0111442D01*
X0111125Y0111442D02*
X0111125Y0117442D01*
X0121125Y0117442D02*
X0121125Y0111442D01*
X0131125Y0111442D02*
X0131125Y0117442D01*
X0023183Y0125216D02*
X0023183Y0131216D01*
X0005383Y0131216D02*
X0005383Y0125216D01*
X0005383Y0150816D02*
X0005383Y0156816D01*
X0023183Y0156816D02*
X0023183Y0150816D01*
X0187265Y0051002D02*
X0187265Y0045002D01*
X0197265Y0045002D02*
X0197265Y0051002D01*
X0216094Y0031811D02*
X0216094Y0025811D01*
X0226094Y0025811D02*
X0226094Y0031811D01*
X0236094Y0031811D02*
X0236094Y0025811D01*
D12*
X0190853Y0062260D02*
X0190853Y0067460D01*
X0180853Y0067460D02*
X0180853Y0062260D01*
X0170853Y0062260D02*
X0170853Y0067460D01*
X0160853Y0067460D02*
X0160853Y0062260D01*
X0150853Y0062260D02*
X0150853Y0067460D01*
X0140853Y0067460D02*
X0140853Y0062260D01*
X0130853Y0062260D02*
X0130853Y0067460D01*
X0120853Y0067460D02*
X0120853Y0062260D01*
X0110853Y0062260D02*
X0110853Y0067460D01*
X0100853Y0067460D02*
X0100853Y0062260D01*
X0090853Y0062260D02*
X0090853Y0067460D01*
X0080853Y0067460D02*
X0080853Y0062260D01*
X0070853Y0062260D02*
X0070853Y0067460D01*
X0060853Y0067460D02*
X0060853Y0062260D01*
X0060853Y0092260D02*
X0060853Y0097460D01*
X0070853Y0097460D02*
X0070853Y0092260D01*
X0080853Y0092260D02*
X0080853Y0097460D01*
X0090853Y0097460D02*
X0090853Y0092260D01*
X0100853Y0092260D02*
X0100853Y0097460D01*
X0110853Y0097460D02*
X0110853Y0092260D01*
X0120853Y0092260D02*
X0120853Y0097460D01*
X0130853Y0097460D02*
X0130853Y0092260D01*
X0140853Y0092260D02*
X0140853Y0097460D01*
X0150853Y0097460D02*
X0150853Y0092260D01*
X0160853Y0092260D02*
X0160853Y0097460D01*
X0170853Y0097460D02*
X0170853Y0092260D01*
X0180853Y0092260D02*
X0180853Y0097460D01*
X0190853Y0097460D02*
X0190853Y0092260D01*
X0117653Y0151883D02*
X0112453Y0151883D01*
X0112453Y0161883D02*
X0117653Y0161883D01*
X0117653Y0171883D02*
X0112453Y0171883D01*
X0112453Y0181883D02*
X0117653Y0181883D01*
X0087653Y0181883D02*
X0082453Y0181883D01*
X0082453Y0171883D02*
X0087653Y0171883D01*
X0087653Y0161883D02*
X0082453Y0161883D01*
X0082453Y0151883D02*
X0087653Y0151883D01*
D13*
X0140943Y0039930D02*
X0140943Y0035530D01*
X0160943Y0035530D02*
X0160943Y0039930D01*
D14*
X0140933Y0052960D03*
X0130933Y0052960D03*
X0130847Y0022480D03*
X0140847Y0022480D03*
D15*
X0226483Y0071620D03*
D16*
X0236483Y0071620D03*
X0246483Y0071620D03*
X0246483Y0081620D03*
X0236483Y0081620D03*
X0226483Y0081620D03*
X0049915Y0053162D03*
D17*
X0078665Y0126486D03*
X0078665Y0138298D03*
X0126273Y0151963D03*
X0126273Y0161963D03*
D18*
X0189992Y0150460D02*
X0199992Y0150460D01*
X0247866Y0150460D02*
X0257866Y0150460D01*
D19*
X0259952Y0150460D03*
D20*
X0187118Y0150460D03*
D21*
X0267288Y0028929D03*
D22*
X0271225Y0031488D03*
X0267288Y0034047D03*
X0271225Y0036606D03*
X0267288Y0039165D03*
D23*
X0266245Y0048122D02*
X0270064Y0048122D01*
X0270064Y0019972D02*
X0266245Y0019972D01*
D24*
X0249115Y0013052D03*
X0219115Y0013052D03*
D25*
X0216055Y0038812D03*
X0258923Y0062490D03*
X0258893Y0081620D03*
X0216055Y0081572D03*
X0070765Y0161942D03*
X0070745Y0181882D03*
D26*
X0070765Y0161942D01*
X0216055Y0081572D02*
X0216055Y0038812D01*
X0258923Y0062490D02*
X0258923Y0081620D01*
X0258893Y0081620D01*
M02*
