%
M48
M72
T01C0.01378
T02C0.01732
T03C0.02400
T04C0.03200
T05C0.03543
T06C0.03937
T07C0.04000
T08C0.04331
T09C0.04724
T10C0.12598
%
T01
X268155Y19972
X268155Y48122
T02
X267288Y39165
X271225Y36606
X267288Y34047
X271225Y31488
X267288Y28929
T03
X160943Y37730
X140943Y37730
T04
X140847Y22480
X130847Y22480
X101803Y16780
X71803Y16780
X130933Y52960
X140933Y52960
X140853Y64860
X150853Y64860
X160853Y64860
X170853Y64860
X180853Y64860
X190853Y64860
X190853Y94860
X180853Y94860
X170853Y94860
X160853Y94860
X150853Y94860
X140853Y94860
X130853Y94860
X120853Y94860
X110853Y94860
X100853Y94860
X90853Y94860
X80853Y94860
X70853Y94860
X60853Y94860
X60903Y107140
X70783Y117620
X92855Y130592
X95253Y141003
X85053Y151883
X85053Y161883
X85053Y171883
X85053Y181883
X83713Y189833
X53713Y189833
X48476Y184680
X38476Y184680
X115053Y181883
X115053Y171883
X115053Y161883
X126273Y161963
X126273Y151963
X115053Y151883
X115253Y141003
X122855Y130592
X144768Y129524
X144768Y109524
X153577Y109549
X183577Y109549
X130853Y64860
X120853Y64860
X110853Y64860
X100853Y64860
X90853Y64860
X80853Y64860
X70853Y64860
X60853Y64860
X44493Y63890
X44493Y83890
X30903Y107140
X40783Y117620
T05
X78665Y126486
X78665Y138298
X70765Y161942
X70745Y181882
X216055Y81572
X258893Y81620
X258923Y62490
X216055Y38812
T06
X209559Y150460
X239086Y150460
T07
X131125Y114442
X121125Y114442
X111125Y114442
X101125Y114442
X91125Y114442
X23183Y128216
X5383Y128216
X5383Y153816
X23183Y153816
X23183Y63265
X5383Y63265
X43223Y42450
X49915Y53162
X61023Y42450
X70903Y52580
X80903Y52580
X23183Y37665
X5383Y37665
X43223Y16850
X61023Y16850
X187265Y48002
X197265Y48002
X216094Y28811
X226094Y28811
X236094Y28811
X236483Y71620
X246483Y71620
X246483Y81620
X236483Y81620
X226483Y81620
X226483Y71620
T08
X219115Y13052
X249115Y13052
T09
X252866Y150460
X194992Y150460
T10
X17433Y17000
X17433Y174480
X332393Y174480
X332393Y17000
M30
