%
M48
M72
T01C0.02362
T02C0.02400
T03C0.03200
T04C0.03543
T05C0.03937
T06C0.04000
T07C0.04331
T08C0.04724
T09C0.12598
%
T01
X267288Y28929
X267288Y39165
T02
X140943Y37730
X160943Y37730
T03
X71803Y16780
X101803Y16780
X130847Y22480
X140847Y22480
X140933Y52960
X130933Y52960
X130853Y64860
X140853Y64860
X150853Y64860
X160853Y64860
X170853Y64860
X180853Y64860
X190853Y64860
X190853Y94860
X180853Y94860
X170853Y94860
X160853Y94860
X150853Y94860
X140853Y94860
X130853Y94860
X120853Y94860
X110853Y94860
X100853Y94860
X90853Y94860
X80853Y94860
X70853Y94860
X60853Y94860
X60903Y107140
X70783Y117620
X92855Y130592
X95253Y141003
X85053Y151883
X85053Y161883
X85053Y171883
X85053Y181883
X83713Y189833
X53713Y189833
X48476Y184680
X38476Y184680
X40783Y117620
X30903Y107140
X44493Y83890
X44493Y63890
X60853Y64860
X70853Y64860
X80853Y64860
X90853Y64860
X100853Y64860
X110853Y64860
X120853Y64860
X144768Y109524
X153577Y109549
X144768Y129524
X122855Y130592
X115253Y141003
X115053Y151883
X126273Y151963
X126273Y161963
X115053Y161883
X115053Y171883
X115053Y181883
X183577Y109549
T04
X258923Y62490
X258893Y81620
X216055Y81572
X183285Y109472
X154105Y109472
X144865Y109472
X122825Y130692
X115475Y141202
X95325Y141412
X78665Y138298
X78665Y138242
X78665Y126532
X78665Y126486
X70755Y117662
X60675Y107372
X40735Y118082
X30865Y107162
X44515Y84042
X44505Y63902
X71805Y16802
X101615Y16802
X130835Y22482
X140885Y22422
X140945Y52942
X130955Y52942
X216055Y38812
X151291Y144953
X151335Y145002
X151291Y168575
X151295Y168602
X83675Y189832
X70745Y181882
X53705Y189792
X48455Y184652
X38425Y184682
X70765Y161942
T05
X90935Y52462
X226455Y81652
X236475Y81582
X246455Y81622
X246455Y71582
X236515Y71672
X209559Y150460
X239086Y150460
T06
X43223Y16850
X61023Y16850
X23183Y37665
X5383Y37665
X43223Y42450
X61023Y42450
X70903Y52580
X80903Y52580
X90945Y52442
X23183Y63265
X5383Y63265
X91125Y114442
X101125Y114442
X111125Y114442
X121125Y114442
X131125Y114442
X246483Y81620
X236483Y81620
X226483Y81620
X226483Y71620
X236483Y71620
X246483Y71620
X197265Y48002
X187265Y48002
X216094Y28811
X226094Y28811
X236094Y28811
X23183Y128216
X5383Y128216
X5383Y153816
X23183Y153816
T07
X219115Y13052
X219155Y13042
X249065Y13002
X249115Y13052
T08
X202472Y150460
X244992Y150460
X268155Y48122
X268155Y19972
T09
X17433Y17000
X332393Y174480
X332393Y17000
X17433Y174480
M30
