G75*
%MOIN*%
%OFA0B0*%
%FSLAX25Y25*%
%IPPOS*%
%LPD*%
%AMOC8*
5,1,8,0,0,1.08239X$1,22.5*
%
%ADD10C,0.04343*%
%ADD11C,0.13398*%
%ADD12OC8,0.06000*%
%ADD13C,0.06800*%
%ADD14C,0.06000*%
%ADD15C,0.05200*%
%ADD16OC8,0.07100*%
%ADD17R,0.06800X0.06800*%
%ADD18OC8,0.06800*%
%ADD19C,0.07400*%
%ADD20C,0.10800*%
%ADD21C,0.04737*%
%ADD22R,0.05524X0.05524*%
%ADD23C,0.05524*%
%ADD24C,0.07887*%
%ADD25C,0.07493*%
%ADD26R,0.06115X0.06115*%
%ADD27OC8,0.07800*%
%ADD28R,0.07800X0.07800*%
D10*
X0151291Y0144953D03*
X0151291Y0168575D03*
D11*
X0017433Y0017000D03*
X0017433Y0174480D03*
X0332393Y0174480D03*
X0332393Y0017000D03*
D12*
X0183577Y0109549D03*
X0153577Y0109549D03*
X0144768Y0109524D03*
X0144768Y0129524D03*
X0122855Y0130592D03*
X0115253Y0141003D03*
X0095253Y0141003D03*
X0092855Y0130592D03*
X0070783Y0117620D03*
X0060903Y0107140D03*
X0040783Y0117620D03*
X0030903Y0107140D03*
X0044493Y0083890D03*
X0044493Y0063890D03*
X0071803Y0016780D03*
X0101803Y0016780D03*
X0048476Y0184680D03*
X0038476Y0184680D03*
X0053713Y0189833D03*
X0083713Y0189833D03*
D13*
X0023183Y0156816D02*
X0023183Y0150816D01*
X0005383Y0150816D02*
X0005383Y0156816D01*
X0005383Y0131216D02*
X0005383Y0125216D01*
X0023183Y0125216D02*
X0023183Y0131216D01*
X0091125Y0117442D02*
X0091125Y0111442D01*
X0101125Y0111442D02*
X0101125Y0117442D01*
X0111125Y0117442D02*
X0111125Y0111442D01*
X0121125Y0111442D02*
X0121125Y0117442D01*
X0131125Y0117442D02*
X0131125Y0111442D01*
X0080903Y0055580D02*
X0080903Y0049580D01*
X0070903Y0049580D02*
X0070903Y0055580D01*
X0061023Y0045450D02*
X0061023Y0039450D01*
X0043223Y0039450D02*
X0043223Y0045450D01*
X0023183Y0040665D02*
X0023183Y0034665D01*
X0005383Y0034665D02*
X0005383Y0040665D01*
X0005383Y0060265D02*
X0005383Y0066265D01*
X0023183Y0066265D02*
X0023183Y0060265D01*
X0043223Y0019850D02*
X0043223Y0013850D01*
X0061023Y0013850D02*
X0061023Y0019850D01*
X0187265Y0045002D02*
X0187265Y0051002D01*
X0197265Y0051002D02*
X0197265Y0045002D01*
X0216094Y0031811D02*
X0216094Y0025811D01*
X0226094Y0025811D02*
X0226094Y0031811D01*
X0236094Y0031811D02*
X0236094Y0025811D01*
D14*
X0190853Y0062260D02*
X0190853Y0067460D01*
X0180853Y0067460D02*
X0180853Y0062260D01*
X0170853Y0062260D02*
X0170853Y0067460D01*
X0160853Y0067460D02*
X0160853Y0062260D01*
X0150853Y0062260D02*
X0150853Y0067460D01*
X0140853Y0067460D02*
X0140853Y0062260D01*
X0130853Y0062260D02*
X0130853Y0067460D01*
X0120853Y0067460D02*
X0120853Y0062260D01*
X0110853Y0062260D02*
X0110853Y0067460D01*
X0100853Y0067460D02*
X0100853Y0062260D01*
X0090853Y0062260D02*
X0090853Y0067460D01*
X0080853Y0067460D02*
X0080853Y0062260D01*
X0070853Y0062260D02*
X0070853Y0067460D01*
X0060853Y0067460D02*
X0060853Y0062260D01*
X0060853Y0092260D02*
X0060853Y0097460D01*
X0070853Y0097460D02*
X0070853Y0092260D01*
X0080853Y0092260D02*
X0080853Y0097460D01*
X0090853Y0097460D02*
X0090853Y0092260D01*
X0100853Y0092260D02*
X0100853Y0097460D01*
X0110853Y0097460D02*
X0110853Y0092260D01*
X0120853Y0092260D02*
X0120853Y0097460D01*
X0130853Y0097460D02*
X0130853Y0092260D01*
X0140853Y0092260D02*
X0140853Y0097460D01*
X0150853Y0097460D02*
X0150853Y0092260D01*
X0160853Y0092260D02*
X0160853Y0097460D01*
X0170853Y0097460D02*
X0170853Y0092260D01*
X0180853Y0092260D02*
X0180853Y0097460D01*
X0190853Y0097460D02*
X0190853Y0092260D01*
X0117653Y0151883D02*
X0112453Y0151883D01*
X0112453Y0161883D02*
X0117653Y0161883D01*
X0117653Y0171883D02*
X0112453Y0171883D01*
X0112453Y0181883D02*
X0117653Y0181883D01*
X0087653Y0181883D02*
X0082453Y0181883D01*
X0082453Y0171883D02*
X0087653Y0171883D01*
X0087653Y0161883D02*
X0082453Y0161883D01*
X0082453Y0151883D02*
X0087653Y0151883D01*
D15*
X0140943Y0039930D02*
X0140943Y0035530D01*
X0160943Y0035530D02*
X0160943Y0039930D01*
D16*
X0140933Y0052960D03*
X0130933Y0052960D03*
X0130847Y0022480D03*
X0140847Y0022480D03*
D17*
X0226483Y0071620D03*
D18*
X0236483Y0071620D03*
X0246483Y0071620D03*
X0246483Y0081620D03*
X0236483Y0081620D03*
X0226483Y0081620D03*
X0090945Y0052442D03*
D19*
X0078665Y0126486D03*
X0078665Y0138298D03*
X0126273Y0151963D03*
X0126273Y0161963D03*
D20*
X0197472Y0150460D02*
X0207472Y0150460D01*
X0239992Y0150460D02*
X0249992Y0150460D01*
D21*
X0239086Y0150460D03*
X0209559Y0150460D03*
D22*
X0267288Y0028929D03*
D23*
X0267288Y0039165D03*
D24*
X0264611Y0048122D02*
X0271698Y0048122D01*
X0271698Y0019972D02*
X0264611Y0019972D01*
D25*
X0249115Y0013052D03*
X0219115Y0013052D03*
D26*
X0216055Y0038812D03*
X0258923Y0062490D03*
X0258893Y0081620D03*
X0216055Y0081572D03*
X0070765Y0161942D03*
X0070745Y0181882D03*
D27*
X0083675Y0189832D03*
X0053705Y0189792D03*
X0048455Y0184652D03*
X0038425Y0184682D03*
X0095325Y0141412D03*
X0078665Y0138242D03*
X0078665Y0126532D03*
X0070755Y0117662D03*
X0060675Y0107372D03*
X0040735Y0118082D03*
X0030865Y0107162D03*
X0044515Y0084042D03*
X0044505Y0063902D03*
X0090935Y0052462D03*
X0130955Y0052942D03*
X0140945Y0052942D03*
X0140885Y0022422D03*
X0130835Y0022482D03*
X0101615Y0016802D03*
X0071805Y0016802D03*
X0219155Y0013042D03*
X0249065Y0013002D03*
X0246455Y0071582D03*
X0236515Y0071672D03*
X0236475Y0081582D03*
X0246455Y0081622D03*
X0226455Y0081652D03*
X0183285Y0109472D03*
X0154105Y0109472D03*
X0144865Y0109472D03*
X0122825Y0130692D03*
X0115475Y0141202D03*
D28*
X0151335Y0145002D03*
X0151295Y0168602D03*
M02*
