%
M48
M72
T01C0.03200
T02C0.04000
T03C0.12598
%
T01
X96423Y40591
X96423Y60591
X199885Y43403
X199885Y23403
X356009Y23453
X356009Y43453
X215173Y132039
X215173Y140039
X201223Y180958
X201223Y200958
X97518Y198393
X97518Y218393
X59216Y305912
X59216Y335912
X96798Y355964
X96798Y375964
X202933Y358749
X202933Y338749
X360107Y338601
X360107Y358601
X517806Y358909
X517806Y338909
X517727Y200626
X517727Y180626
X360206Y180879
X360206Y200879
X514312Y44076
X514312Y24076
T02
X264937Y130921
X254937Y130921
X244937Y130921
X42355Y310753
X42355Y320753
X42355Y330753
T03
X148638Y276591
X148638Y119110
X463598Y119110
X463598Y276591
M30
