G75*
%MOIN*%
%OFA0B0*%
%FSLAX25Y25*%
%IPPOS*%
%LPD*%
%AMOC8*
5,1,8,0,0,1.08239X$1,22.5*
%
%ADD10C,0.13398*%
%ADD11R,0.06706X0.04343*%
%ADD12OC8,0.06000*%
%ADD13C,0.06800*%
%ADD14C,0.06000*%
D10*
X0148638Y0119110D03*
X0148638Y0276591D03*
X0463598Y0276591D03*
X0463598Y0119110D03*
D11*
X0060252Y0033874D03*
X0060252Y0046866D03*
X0079543Y0046866D03*
X0079543Y0033874D03*
X0217732Y0033874D03*
X0217732Y0046866D03*
X0237024Y0046866D03*
X0237024Y0033874D03*
X0375213Y0033874D03*
X0375213Y0046866D03*
X0394504Y0046866D03*
X0394504Y0033874D03*
X0532693Y0033874D03*
X0532693Y0046866D03*
X0551984Y0046866D03*
X0551984Y0033874D03*
X0551984Y0191354D03*
X0551984Y0204346D03*
X0532693Y0204346D03*
X0532693Y0191354D03*
X0394504Y0191354D03*
X0394504Y0204346D03*
X0375213Y0204346D03*
X0375213Y0191354D03*
X0237024Y0191354D03*
X0237024Y0204346D03*
X0217732Y0204346D03*
X0217732Y0191354D03*
X0079543Y0191354D03*
X0079543Y0204346D03*
X0060252Y0204346D03*
X0060252Y0191354D03*
X0060252Y0348835D03*
X0060252Y0361827D03*
X0079543Y0361827D03*
X0079543Y0348835D03*
X0217732Y0348835D03*
X0217732Y0361827D03*
X0237024Y0361827D03*
X0237024Y0348835D03*
X0375213Y0348835D03*
X0375213Y0361827D03*
X0394504Y0361827D03*
X0394504Y0348835D03*
X0532693Y0348835D03*
X0532693Y0361827D03*
X0551984Y0361827D03*
X0551984Y0348835D03*
D12*
X0517806Y0338909D03*
X0517806Y0358909D03*
X0360107Y0358601D03*
X0360107Y0338601D03*
X0202933Y0338749D03*
X0202933Y0358749D03*
X0096798Y0355964D03*
X0096798Y0375964D03*
X0059216Y0335912D03*
X0059216Y0305912D03*
X0097518Y0218393D03*
X0097518Y0198393D03*
X0201223Y0200958D03*
X0201223Y0180958D03*
X0215173Y0140039D03*
X0096423Y0060591D03*
X0096423Y0040591D03*
X0199885Y0043403D03*
X0199885Y0023403D03*
X0356009Y0023453D03*
X0356009Y0043453D03*
X0514312Y0044076D03*
X0514312Y0024076D03*
X0517727Y0180626D03*
X0517727Y0200626D03*
X0360206Y0200879D03*
X0360206Y0180879D03*
D13*
X0264937Y0133921D02*
X0264937Y0127921D01*
X0254937Y0127921D02*
X0254937Y0133921D01*
X0244937Y0133921D02*
X0244937Y0127921D01*
X0045355Y0310753D02*
X0039355Y0310753D01*
X0039355Y0320753D02*
X0045355Y0320753D01*
X0045355Y0330753D02*
X0039355Y0330753D01*
D14*
X0215173Y0132039D03*
M02*
