G75*
%MOIN*%
%OFA0B0*%
%FSLAX25Y25*%
%IPPOS*%
%LPD*%
%AMOC8*
5,1,8,0,0,1.08239X$1,22.5*
%
%ADD10C,0.02000*%
%ADD11C,0.01200*%
%ADD12C,0.04000*%
%ADD13C,0.01600*%
%ADD14R,4.70472X0.13780*%
%ADD15R,4.72441X0.07874*%
%ADD16R,0.17717X0.17520*%
%ADD17R,0.17717X0.17402*%
%ADD18R,0.11811X0.35433*%
%ADD19R,0.74803X0.70866*%
%ADD20R,0.90551X0.19685*%
%ADD21R,0.98425X0.25591*%
%ADD22R,0.05906X0.19685*%
%ADD23R,0.59055X0.59055*%
%ADD24R,0.51181X0.05906*%
%ADD25R,0.15748X0.13386*%
%ADD26R,0.14173X0.08661*%
%ADD27R,0.55512X0.37008*%
%ADD28R,0.45276X0.18504*%
%ADD29R,0.07480X0.06693*%
%ADD30R,0.57087X0.24016*%
%ADD31R,0.07874X0.07874*%
%ADD32R,0.79921X0.31102*%
%ADD33R,0.05906X0.06693*%
%ADD34R,0.03150X0.02362*%
%ADD35R,0.07874X0.24409*%
%ADD36R,0.07087X0.16929*%
%ADD37R,0.05906X0.11024*%
%ADD38R,0.06299X0.07087*%
%ADD39R,0.05906X0.03543*%
%ADD40OC8,0.05200*%
%ADD41C,0.06000*%
%ADD42C,0.05200*%
%ADD43C,0.08600*%
%ADD44C,0.05600*%
%ADD45C,0.06600*%
%ADD46C,0.07600*%
%ADD47C,0.05000*%
D10*
X0323733Y0111897D02*
X0331539Y0111897D01*
X0331539Y0115800D02*
X0331539Y0100187D01*
X0331539Y0115800D02*
X0323733Y0115800D01*
X0362713Y0107994D02*
X0366616Y0104090D01*
X0374423Y0104090D01*
X0378326Y0107994D01*
X0386101Y0107994D02*
X0390004Y0104090D01*
X0401714Y0104090D01*
X0401714Y0115800D01*
X0397811Y0119704D01*
X0390004Y0119704D01*
X0390004Y0111897D02*
X0401714Y0111897D01*
X0409489Y0111897D02*
X0417295Y0119704D01*
X0421199Y0119704D01*
X0428979Y0127510D02*
X0432882Y0127510D01*
X0432882Y0104090D01*
X0428979Y0104090D02*
X0436785Y0104090D01*
X0409489Y0104090D02*
X0409489Y0119704D01*
X0390004Y0111897D02*
X0386101Y0107994D01*
X0378326Y0123607D02*
X0374423Y0127510D01*
X0366616Y0127510D01*
X0362713Y0123607D01*
X0362713Y0107994D01*
X0360985Y0292990D02*
X0368792Y0300797D01*
X0368792Y0316410D01*
X0376567Y0312507D02*
X0380470Y0316410D01*
X0388277Y0316410D01*
X0392180Y0312507D01*
X0376567Y0296893D01*
X0380470Y0292990D01*
X0388277Y0292990D01*
X0392180Y0296893D01*
X0392180Y0312507D01*
X0399955Y0308603D02*
X0407761Y0316410D01*
X0407761Y0292990D01*
X0399955Y0292990D02*
X0415568Y0292990D01*
X0376567Y0296893D02*
X0376567Y0312507D01*
X0353179Y0316410D02*
X0353179Y0300797D01*
X0360985Y0292990D01*
X0345404Y0304700D02*
X0329791Y0304700D01*
X0322016Y0300797D02*
X0322016Y0296893D01*
X0318113Y0292990D01*
X0310306Y0292990D01*
X0306403Y0296893D01*
X0298628Y0296893D02*
X0294725Y0292990D01*
X0286918Y0292990D01*
X0283015Y0296893D01*
X0298628Y0312507D01*
X0298628Y0296893D01*
X0283015Y0296893D02*
X0283015Y0312507D01*
X0286918Y0316410D01*
X0294725Y0316410D01*
X0298628Y0312507D01*
X0306403Y0312507D02*
X0310306Y0316410D01*
X0318113Y0316410D01*
X0322016Y0312507D01*
X0322016Y0308603D01*
X0318113Y0304700D01*
X0322016Y0300797D01*
X0318113Y0304700D02*
X0314209Y0304700D01*
X0275240Y0296893D02*
X0271337Y0292990D01*
X0263530Y0292990D01*
X0259627Y0296893D01*
X0275240Y0312507D01*
X0275240Y0296893D01*
X0259627Y0296893D02*
X0259627Y0312507D01*
X0263530Y0316410D01*
X0271337Y0316410D01*
X0275240Y0312507D01*
X0251852Y0316410D02*
X0236239Y0292990D01*
X0228464Y0312507D02*
X0212851Y0296893D01*
X0212851Y0292990D01*
X0205076Y0292990D02*
X0189463Y0292990D01*
X0181688Y0296893D02*
X0177785Y0292990D01*
X0169978Y0292990D01*
X0166075Y0296893D01*
X0181688Y0312507D01*
X0181688Y0296893D01*
X0189463Y0308603D02*
X0197269Y0316410D01*
X0197269Y0292990D01*
X0181688Y0312507D02*
X0177785Y0316410D01*
X0169978Y0316410D01*
X0166075Y0312507D01*
X0166075Y0296893D01*
X0158300Y0292990D02*
X0142687Y0292990D01*
X0158300Y0308603D01*
X0158300Y0312507D01*
X0154397Y0316410D01*
X0146590Y0316410D01*
X0142687Y0312507D01*
X0212851Y0316410D02*
X0228464Y0316410D01*
X0228464Y0312507D01*
D11*
X0285410Y0154522D02*
X0285410Y0140710D01*
X0294618Y0140710D01*
X0299222Y0140710D02*
X0308430Y0140710D01*
X0313034Y0140710D02*
X0319940Y0140710D01*
X0322242Y0143012D01*
X0322242Y0152220D01*
X0319940Y0154522D01*
X0313034Y0154522D01*
X0313034Y0140710D01*
X0303826Y0147616D02*
X0299222Y0147616D01*
X0299222Y0154522D02*
X0299222Y0140710D01*
X0299222Y0154522D02*
X0308430Y0154522D01*
X0340658Y0149918D02*
X0342960Y0149918D01*
X0342960Y0140710D01*
X0340658Y0140710D02*
X0345262Y0140710D01*
X0349866Y0140710D02*
X0349866Y0149918D01*
X0356771Y0149918D01*
X0359073Y0147616D01*
X0359073Y0140710D01*
X0365979Y0143012D02*
X0368281Y0140710D01*
X0365979Y0143012D02*
X0365979Y0152220D01*
X0363677Y0149918D02*
X0368281Y0149918D01*
X0372885Y0147616D02*
X0375187Y0149918D01*
X0379791Y0149918D01*
X0382093Y0147616D01*
X0382093Y0145314D01*
X0372885Y0145314D01*
X0372885Y0143012D02*
X0372885Y0147616D01*
X0372885Y0143012D02*
X0375187Y0140710D01*
X0379791Y0140710D01*
X0386697Y0140710D02*
X0386697Y0149918D01*
X0391301Y0149918D02*
X0393603Y0149918D01*
X0391301Y0149918D02*
X0386697Y0145314D01*
X0398207Y0147616D02*
X0402811Y0147616D01*
X0400509Y0152220D02*
X0402811Y0154522D01*
X0400509Y0152220D02*
X0400509Y0140710D01*
X0407415Y0143012D02*
X0409717Y0145314D01*
X0416623Y0145314D01*
X0416623Y0147616D02*
X0414321Y0149918D01*
X0409717Y0149918D01*
X0407415Y0143012D02*
X0409717Y0140710D01*
X0416623Y0140710D01*
X0416623Y0147616D01*
X0421227Y0147616D02*
X0421227Y0143012D01*
X0423528Y0140710D01*
X0430434Y0140710D01*
X0435038Y0143012D02*
X0435038Y0147616D01*
X0437340Y0149918D01*
X0441944Y0149918D01*
X0444246Y0147616D01*
X0444246Y0145314D01*
X0435038Y0145314D01*
X0435038Y0143012D02*
X0437340Y0140710D01*
X0441944Y0140710D01*
X0430434Y0149918D02*
X0423528Y0149918D01*
X0421227Y0147616D01*
X0462662Y0149918D02*
X0469568Y0149918D01*
X0471870Y0147616D01*
X0471870Y0143012D01*
X0469568Y0140710D01*
X0462662Y0140710D01*
X0462662Y0154522D01*
X0476474Y0147616D02*
X0476474Y0143012D01*
X0478776Y0140710D01*
X0483380Y0140710D01*
X0485682Y0143012D01*
X0485682Y0147616D01*
X0483380Y0149918D01*
X0478776Y0149918D01*
X0476474Y0147616D01*
X0490285Y0143012D02*
X0492587Y0140710D01*
X0499493Y0140710D01*
X0499493Y0147616D01*
X0497191Y0149918D01*
X0492587Y0149918D01*
X0492587Y0145314D02*
X0499493Y0145314D01*
X0504097Y0145314D02*
X0508701Y0149918D01*
X0511003Y0149918D01*
X0515607Y0147616D02*
X0515607Y0143012D01*
X0517909Y0140710D01*
X0524815Y0140710D01*
X0524815Y0154522D01*
X0524815Y0149918D02*
X0517909Y0149918D01*
X0515607Y0147616D01*
X0504097Y0149918D02*
X0504097Y0140710D01*
X0492587Y0145314D02*
X0490285Y0143012D01*
X0342960Y0154522D02*
X0342960Y0156824D01*
D12*
X0453339Y0119110D02*
X0453342Y0119362D01*
X0453351Y0119613D01*
X0453367Y0119865D01*
X0453388Y0120116D01*
X0453416Y0120366D01*
X0453450Y0120615D01*
X0453490Y0120864D01*
X0453536Y0121111D01*
X0453588Y0121358D01*
X0453646Y0121603D01*
X0453711Y0121846D01*
X0453781Y0122088D01*
X0453857Y0122328D01*
X0453939Y0122566D01*
X0454026Y0122802D01*
X0454120Y0123036D01*
X0454219Y0123267D01*
X0454324Y0123496D01*
X0454434Y0123723D01*
X0454550Y0123946D01*
X0454672Y0124167D01*
X0454799Y0124384D01*
X0454931Y0124599D01*
X0455068Y0124810D01*
X0455210Y0125017D01*
X0455358Y0125221D01*
X0455510Y0125422D01*
X0455668Y0125618D01*
X0455830Y0125811D01*
X0455997Y0126000D01*
X0456168Y0126184D01*
X0456344Y0126364D01*
X0456524Y0126540D01*
X0456708Y0126711D01*
X0456897Y0126878D01*
X0457090Y0127040D01*
X0457286Y0127198D01*
X0457487Y0127350D01*
X0457691Y0127498D01*
X0457898Y0127640D01*
X0458109Y0127777D01*
X0458324Y0127909D01*
X0458541Y0128036D01*
X0458762Y0128158D01*
X0458985Y0128274D01*
X0459212Y0128384D01*
X0459441Y0128489D01*
X0459672Y0128588D01*
X0459906Y0128682D01*
X0460142Y0128769D01*
X0460380Y0128851D01*
X0460620Y0128927D01*
X0460862Y0128997D01*
X0461105Y0129062D01*
X0461350Y0129120D01*
X0461597Y0129172D01*
X0461844Y0129218D01*
X0462093Y0129258D01*
X0462342Y0129292D01*
X0462592Y0129320D01*
X0462843Y0129341D01*
X0463095Y0129357D01*
X0463346Y0129366D01*
X0463598Y0129369D01*
X0463850Y0129366D01*
X0464101Y0129357D01*
X0464353Y0129341D01*
X0464604Y0129320D01*
X0464854Y0129292D01*
X0465103Y0129258D01*
X0465352Y0129218D01*
X0465599Y0129172D01*
X0465846Y0129120D01*
X0466091Y0129062D01*
X0466334Y0128997D01*
X0466576Y0128927D01*
X0466816Y0128851D01*
X0467054Y0128769D01*
X0467290Y0128682D01*
X0467524Y0128588D01*
X0467755Y0128489D01*
X0467984Y0128384D01*
X0468211Y0128274D01*
X0468434Y0128158D01*
X0468655Y0128036D01*
X0468872Y0127909D01*
X0469087Y0127777D01*
X0469298Y0127640D01*
X0469505Y0127498D01*
X0469709Y0127350D01*
X0469910Y0127198D01*
X0470106Y0127040D01*
X0470299Y0126878D01*
X0470488Y0126711D01*
X0470672Y0126540D01*
X0470852Y0126364D01*
X0471028Y0126184D01*
X0471199Y0126000D01*
X0471366Y0125811D01*
X0471528Y0125618D01*
X0471686Y0125422D01*
X0471838Y0125221D01*
X0471986Y0125017D01*
X0472128Y0124810D01*
X0472265Y0124599D01*
X0472397Y0124384D01*
X0472524Y0124167D01*
X0472646Y0123946D01*
X0472762Y0123723D01*
X0472872Y0123496D01*
X0472977Y0123267D01*
X0473076Y0123036D01*
X0473170Y0122802D01*
X0473257Y0122566D01*
X0473339Y0122328D01*
X0473415Y0122088D01*
X0473485Y0121846D01*
X0473550Y0121603D01*
X0473608Y0121358D01*
X0473660Y0121111D01*
X0473706Y0120864D01*
X0473746Y0120615D01*
X0473780Y0120366D01*
X0473808Y0120116D01*
X0473829Y0119865D01*
X0473845Y0119613D01*
X0473854Y0119362D01*
X0473857Y0119110D01*
X0473854Y0118858D01*
X0473845Y0118607D01*
X0473829Y0118355D01*
X0473808Y0118104D01*
X0473780Y0117854D01*
X0473746Y0117605D01*
X0473706Y0117356D01*
X0473660Y0117109D01*
X0473608Y0116862D01*
X0473550Y0116617D01*
X0473485Y0116374D01*
X0473415Y0116132D01*
X0473339Y0115892D01*
X0473257Y0115654D01*
X0473170Y0115418D01*
X0473076Y0115184D01*
X0472977Y0114953D01*
X0472872Y0114724D01*
X0472762Y0114497D01*
X0472646Y0114274D01*
X0472524Y0114053D01*
X0472397Y0113836D01*
X0472265Y0113621D01*
X0472128Y0113410D01*
X0471986Y0113203D01*
X0471838Y0112999D01*
X0471686Y0112798D01*
X0471528Y0112602D01*
X0471366Y0112409D01*
X0471199Y0112220D01*
X0471028Y0112036D01*
X0470852Y0111856D01*
X0470672Y0111680D01*
X0470488Y0111509D01*
X0470299Y0111342D01*
X0470106Y0111180D01*
X0469910Y0111022D01*
X0469709Y0110870D01*
X0469505Y0110722D01*
X0469298Y0110580D01*
X0469087Y0110443D01*
X0468872Y0110311D01*
X0468655Y0110184D01*
X0468434Y0110062D01*
X0468211Y0109946D01*
X0467984Y0109836D01*
X0467755Y0109731D01*
X0467524Y0109632D01*
X0467290Y0109538D01*
X0467054Y0109451D01*
X0466816Y0109369D01*
X0466576Y0109293D01*
X0466334Y0109223D01*
X0466091Y0109158D01*
X0465846Y0109100D01*
X0465599Y0109048D01*
X0465352Y0109002D01*
X0465103Y0108962D01*
X0464854Y0108928D01*
X0464604Y0108900D01*
X0464353Y0108879D01*
X0464101Y0108863D01*
X0463850Y0108854D01*
X0463598Y0108851D01*
X0463346Y0108854D01*
X0463095Y0108863D01*
X0462843Y0108879D01*
X0462592Y0108900D01*
X0462342Y0108928D01*
X0462093Y0108962D01*
X0461844Y0109002D01*
X0461597Y0109048D01*
X0461350Y0109100D01*
X0461105Y0109158D01*
X0460862Y0109223D01*
X0460620Y0109293D01*
X0460380Y0109369D01*
X0460142Y0109451D01*
X0459906Y0109538D01*
X0459672Y0109632D01*
X0459441Y0109731D01*
X0459212Y0109836D01*
X0458985Y0109946D01*
X0458762Y0110062D01*
X0458541Y0110184D01*
X0458324Y0110311D01*
X0458109Y0110443D01*
X0457898Y0110580D01*
X0457691Y0110722D01*
X0457487Y0110870D01*
X0457286Y0111022D01*
X0457090Y0111180D01*
X0456897Y0111342D01*
X0456708Y0111509D01*
X0456524Y0111680D01*
X0456344Y0111856D01*
X0456168Y0112036D01*
X0455997Y0112220D01*
X0455830Y0112409D01*
X0455668Y0112602D01*
X0455510Y0112798D01*
X0455358Y0112999D01*
X0455210Y0113203D01*
X0455068Y0113410D01*
X0454931Y0113621D01*
X0454799Y0113836D01*
X0454672Y0114053D01*
X0454550Y0114274D01*
X0454434Y0114497D01*
X0454324Y0114724D01*
X0454219Y0114953D01*
X0454120Y0115184D01*
X0454026Y0115418D01*
X0453939Y0115654D01*
X0453857Y0115892D01*
X0453781Y0116132D01*
X0453711Y0116374D01*
X0453646Y0116617D01*
X0453588Y0116862D01*
X0453536Y0117109D01*
X0453490Y0117356D01*
X0453450Y0117605D01*
X0453416Y0117854D01*
X0453388Y0118104D01*
X0453367Y0118355D01*
X0453351Y0118607D01*
X0453342Y0118858D01*
X0453339Y0119110D01*
X0453339Y0276591D02*
X0453342Y0276843D01*
X0453351Y0277094D01*
X0453367Y0277346D01*
X0453388Y0277597D01*
X0453416Y0277847D01*
X0453450Y0278096D01*
X0453490Y0278345D01*
X0453536Y0278592D01*
X0453588Y0278839D01*
X0453646Y0279084D01*
X0453711Y0279327D01*
X0453781Y0279569D01*
X0453857Y0279809D01*
X0453939Y0280047D01*
X0454026Y0280283D01*
X0454120Y0280517D01*
X0454219Y0280748D01*
X0454324Y0280977D01*
X0454434Y0281204D01*
X0454550Y0281427D01*
X0454672Y0281648D01*
X0454799Y0281865D01*
X0454931Y0282080D01*
X0455068Y0282291D01*
X0455210Y0282498D01*
X0455358Y0282702D01*
X0455510Y0282903D01*
X0455668Y0283099D01*
X0455830Y0283292D01*
X0455997Y0283481D01*
X0456168Y0283665D01*
X0456344Y0283845D01*
X0456524Y0284021D01*
X0456708Y0284192D01*
X0456897Y0284359D01*
X0457090Y0284521D01*
X0457286Y0284679D01*
X0457487Y0284831D01*
X0457691Y0284979D01*
X0457898Y0285121D01*
X0458109Y0285258D01*
X0458324Y0285390D01*
X0458541Y0285517D01*
X0458762Y0285639D01*
X0458985Y0285755D01*
X0459212Y0285865D01*
X0459441Y0285970D01*
X0459672Y0286069D01*
X0459906Y0286163D01*
X0460142Y0286250D01*
X0460380Y0286332D01*
X0460620Y0286408D01*
X0460862Y0286478D01*
X0461105Y0286543D01*
X0461350Y0286601D01*
X0461597Y0286653D01*
X0461844Y0286699D01*
X0462093Y0286739D01*
X0462342Y0286773D01*
X0462592Y0286801D01*
X0462843Y0286822D01*
X0463095Y0286838D01*
X0463346Y0286847D01*
X0463598Y0286850D01*
X0463850Y0286847D01*
X0464101Y0286838D01*
X0464353Y0286822D01*
X0464604Y0286801D01*
X0464854Y0286773D01*
X0465103Y0286739D01*
X0465352Y0286699D01*
X0465599Y0286653D01*
X0465846Y0286601D01*
X0466091Y0286543D01*
X0466334Y0286478D01*
X0466576Y0286408D01*
X0466816Y0286332D01*
X0467054Y0286250D01*
X0467290Y0286163D01*
X0467524Y0286069D01*
X0467755Y0285970D01*
X0467984Y0285865D01*
X0468211Y0285755D01*
X0468434Y0285639D01*
X0468655Y0285517D01*
X0468872Y0285390D01*
X0469087Y0285258D01*
X0469298Y0285121D01*
X0469505Y0284979D01*
X0469709Y0284831D01*
X0469910Y0284679D01*
X0470106Y0284521D01*
X0470299Y0284359D01*
X0470488Y0284192D01*
X0470672Y0284021D01*
X0470852Y0283845D01*
X0471028Y0283665D01*
X0471199Y0283481D01*
X0471366Y0283292D01*
X0471528Y0283099D01*
X0471686Y0282903D01*
X0471838Y0282702D01*
X0471986Y0282498D01*
X0472128Y0282291D01*
X0472265Y0282080D01*
X0472397Y0281865D01*
X0472524Y0281648D01*
X0472646Y0281427D01*
X0472762Y0281204D01*
X0472872Y0280977D01*
X0472977Y0280748D01*
X0473076Y0280517D01*
X0473170Y0280283D01*
X0473257Y0280047D01*
X0473339Y0279809D01*
X0473415Y0279569D01*
X0473485Y0279327D01*
X0473550Y0279084D01*
X0473608Y0278839D01*
X0473660Y0278592D01*
X0473706Y0278345D01*
X0473746Y0278096D01*
X0473780Y0277847D01*
X0473808Y0277597D01*
X0473829Y0277346D01*
X0473845Y0277094D01*
X0473854Y0276843D01*
X0473857Y0276591D01*
X0473854Y0276339D01*
X0473845Y0276088D01*
X0473829Y0275836D01*
X0473808Y0275585D01*
X0473780Y0275335D01*
X0473746Y0275086D01*
X0473706Y0274837D01*
X0473660Y0274590D01*
X0473608Y0274343D01*
X0473550Y0274098D01*
X0473485Y0273855D01*
X0473415Y0273613D01*
X0473339Y0273373D01*
X0473257Y0273135D01*
X0473170Y0272899D01*
X0473076Y0272665D01*
X0472977Y0272434D01*
X0472872Y0272205D01*
X0472762Y0271978D01*
X0472646Y0271755D01*
X0472524Y0271534D01*
X0472397Y0271317D01*
X0472265Y0271102D01*
X0472128Y0270891D01*
X0471986Y0270684D01*
X0471838Y0270480D01*
X0471686Y0270279D01*
X0471528Y0270083D01*
X0471366Y0269890D01*
X0471199Y0269701D01*
X0471028Y0269517D01*
X0470852Y0269337D01*
X0470672Y0269161D01*
X0470488Y0268990D01*
X0470299Y0268823D01*
X0470106Y0268661D01*
X0469910Y0268503D01*
X0469709Y0268351D01*
X0469505Y0268203D01*
X0469298Y0268061D01*
X0469087Y0267924D01*
X0468872Y0267792D01*
X0468655Y0267665D01*
X0468434Y0267543D01*
X0468211Y0267427D01*
X0467984Y0267317D01*
X0467755Y0267212D01*
X0467524Y0267113D01*
X0467290Y0267019D01*
X0467054Y0266932D01*
X0466816Y0266850D01*
X0466576Y0266774D01*
X0466334Y0266704D01*
X0466091Y0266639D01*
X0465846Y0266581D01*
X0465599Y0266529D01*
X0465352Y0266483D01*
X0465103Y0266443D01*
X0464854Y0266409D01*
X0464604Y0266381D01*
X0464353Y0266360D01*
X0464101Y0266344D01*
X0463850Y0266335D01*
X0463598Y0266332D01*
X0463346Y0266335D01*
X0463095Y0266344D01*
X0462843Y0266360D01*
X0462592Y0266381D01*
X0462342Y0266409D01*
X0462093Y0266443D01*
X0461844Y0266483D01*
X0461597Y0266529D01*
X0461350Y0266581D01*
X0461105Y0266639D01*
X0460862Y0266704D01*
X0460620Y0266774D01*
X0460380Y0266850D01*
X0460142Y0266932D01*
X0459906Y0267019D01*
X0459672Y0267113D01*
X0459441Y0267212D01*
X0459212Y0267317D01*
X0458985Y0267427D01*
X0458762Y0267543D01*
X0458541Y0267665D01*
X0458324Y0267792D01*
X0458109Y0267924D01*
X0457898Y0268061D01*
X0457691Y0268203D01*
X0457487Y0268351D01*
X0457286Y0268503D01*
X0457090Y0268661D01*
X0456897Y0268823D01*
X0456708Y0268990D01*
X0456524Y0269161D01*
X0456344Y0269337D01*
X0456168Y0269517D01*
X0455997Y0269701D01*
X0455830Y0269890D01*
X0455668Y0270083D01*
X0455510Y0270279D01*
X0455358Y0270480D01*
X0455210Y0270684D01*
X0455068Y0270891D01*
X0454931Y0271102D01*
X0454799Y0271317D01*
X0454672Y0271534D01*
X0454550Y0271755D01*
X0454434Y0271978D01*
X0454324Y0272205D01*
X0454219Y0272434D01*
X0454120Y0272665D01*
X0454026Y0272899D01*
X0453939Y0273135D01*
X0453857Y0273373D01*
X0453781Y0273613D01*
X0453711Y0273855D01*
X0453646Y0274098D01*
X0453588Y0274343D01*
X0453536Y0274590D01*
X0453490Y0274837D01*
X0453450Y0275086D01*
X0453416Y0275335D01*
X0453388Y0275585D01*
X0453367Y0275836D01*
X0453351Y0276088D01*
X0453342Y0276339D01*
X0453339Y0276591D01*
X0138379Y0276591D02*
X0138382Y0276843D01*
X0138391Y0277094D01*
X0138407Y0277346D01*
X0138428Y0277597D01*
X0138456Y0277847D01*
X0138490Y0278096D01*
X0138530Y0278345D01*
X0138576Y0278592D01*
X0138628Y0278839D01*
X0138686Y0279084D01*
X0138751Y0279327D01*
X0138821Y0279569D01*
X0138897Y0279809D01*
X0138979Y0280047D01*
X0139066Y0280283D01*
X0139160Y0280517D01*
X0139259Y0280748D01*
X0139364Y0280977D01*
X0139474Y0281204D01*
X0139590Y0281427D01*
X0139712Y0281648D01*
X0139839Y0281865D01*
X0139971Y0282080D01*
X0140108Y0282291D01*
X0140250Y0282498D01*
X0140398Y0282702D01*
X0140550Y0282903D01*
X0140708Y0283099D01*
X0140870Y0283292D01*
X0141037Y0283481D01*
X0141208Y0283665D01*
X0141384Y0283845D01*
X0141564Y0284021D01*
X0141748Y0284192D01*
X0141937Y0284359D01*
X0142130Y0284521D01*
X0142326Y0284679D01*
X0142527Y0284831D01*
X0142731Y0284979D01*
X0142938Y0285121D01*
X0143149Y0285258D01*
X0143364Y0285390D01*
X0143581Y0285517D01*
X0143802Y0285639D01*
X0144025Y0285755D01*
X0144252Y0285865D01*
X0144481Y0285970D01*
X0144712Y0286069D01*
X0144946Y0286163D01*
X0145182Y0286250D01*
X0145420Y0286332D01*
X0145660Y0286408D01*
X0145902Y0286478D01*
X0146145Y0286543D01*
X0146390Y0286601D01*
X0146637Y0286653D01*
X0146884Y0286699D01*
X0147133Y0286739D01*
X0147382Y0286773D01*
X0147632Y0286801D01*
X0147883Y0286822D01*
X0148135Y0286838D01*
X0148386Y0286847D01*
X0148638Y0286850D01*
X0148890Y0286847D01*
X0149141Y0286838D01*
X0149393Y0286822D01*
X0149644Y0286801D01*
X0149894Y0286773D01*
X0150143Y0286739D01*
X0150392Y0286699D01*
X0150639Y0286653D01*
X0150886Y0286601D01*
X0151131Y0286543D01*
X0151374Y0286478D01*
X0151616Y0286408D01*
X0151856Y0286332D01*
X0152094Y0286250D01*
X0152330Y0286163D01*
X0152564Y0286069D01*
X0152795Y0285970D01*
X0153024Y0285865D01*
X0153251Y0285755D01*
X0153474Y0285639D01*
X0153695Y0285517D01*
X0153912Y0285390D01*
X0154127Y0285258D01*
X0154338Y0285121D01*
X0154545Y0284979D01*
X0154749Y0284831D01*
X0154950Y0284679D01*
X0155146Y0284521D01*
X0155339Y0284359D01*
X0155528Y0284192D01*
X0155712Y0284021D01*
X0155892Y0283845D01*
X0156068Y0283665D01*
X0156239Y0283481D01*
X0156406Y0283292D01*
X0156568Y0283099D01*
X0156726Y0282903D01*
X0156878Y0282702D01*
X0157026Y0282498D01*
X0157168Y0282291D01*
X0157305Y0282080D01*
X0157437Y0281865D01*
X0157564Y0281648D01*
X0157686Y0281427D01*
X0157802Y0281204D01*
X0157912Y0280977D01*
X0158017Y0280748D01*
X0158116Y0280517D01*
X0158210Y0280283D01*
X0158297Y0280047D01*
X0158379Y0279809D01*
X0158455Y0279569D01*
X0158525Y0279327D01*
X0158590Y0279084D01*
X0158648Y0278839D01*
X0158700Y0278592D01*
X0158746Y0278345D01*
X0158786Y0278096D01*
X0158820Y0277847D01*
X0158848Y0277597D01*
X0158869Y0277346D01*
X0158885Y0277094D01*
X0158894Y0276843D01*
X0158897Y0276591D01*
X0158894Y0276339D01*
X0158885Y0276088D01*
X0158869Y0275836D01*
X0158848Y0275585D01*
X0158820Y0275335D01*
X0158786Y0275086D01*
X0158746Y0274837D01*
X0158700Y0274590D01*
X0158648Y0274343D01*
X0158590Y0274098D01*
X0158525Y0273855D01*
X0158455Y0273613D01*
X0158379Y0273373D01*
X0158297Y0273135D01*
X0158210Y0272899D01*
X0158116Y0272665D01*
X0158017Y0272434D01*
X0157912Y0272205D01*
X0157802Y0271978D01*
X0157686Y0271755D01*
X0157564Y0271534D01*
X0157437Y0271317D01*
X0157305Y0271102D01*
X0157168Y0270891D01*
X0157026Y0270684D01*
X0156878Y0270480D01*
X0156726Y0270279D01*
X0156568Y0270083D01*
X0156406Y0269890D01*
X0156239Y0269701D01*
X0156068Y0269517D01*
X0155892Y0269337D01*
X0155712Y0269161D01*
X0155528Y0268990D01*
X0155339Y0268823D01*
X0155146Y0268661D01*
X0154950Y0268503D01*
X0154749Y0268351D01*
X0154545Y0268203D01*
X0154338Y0268061D01*
X0154127Y0267924D01*
X0153912Y0267792D01*
X0153695Y0267665D01*
X0153474Y0267543D01*
X0153251Y0267427D01*
X0153024Y0267317D01*
X0152795Y0267212D01*
X0152564Y0267113D01*
X0152330Y0267019D01*
X0152094Y0266932D01*
X0151856Y0266850D01*
X0151616Y0266774D01*
X0151374Y0266704D01*
X0151131Y0266639D01*
X0150886Y0266581D01*
X0150639Y0266529D01*
X0150392Y0266483D01*
X0150143Y0266443D01*
X0149894Y0266409D01*
X0149644Y0266381D01*
X0149393Y0266360D01*
X0149141Y0266344D01*
X0148890Y0266335D01*
X0148638Y0266332D01*
X0148386Y0266335D01*
X0148135Y0266344D01*
X0147883Y0266360D01*
X0147632Y0266381D01*
X0147382Y0266409D01*
X0147133Y0266443D01*
X0146884Y0266483D01*
X0146637Y0266529D01*
X0146390Y0266581D01*
X0146145Y0266639D01*
X0145902Y0266704D01*
X0145660Y0266774D01*
X0145420Y0266850D01*
X0145182Y0266932D01*
X0144946Y0267019D01*
X0144712Y0267113D01*
X0144481Y0267212D01*
X0144252Y0267317D01*
X0144025Y0267427D01*
X0143802Y0267543D01*
X0143581Y0267665D01*
X0143364Y0267792D01*
X0143149Y0267924D01*
X0142938Y0268061D01*
X0142731Y0268203D01*
X0142527Y0268351D01*
X0142326Y0268503D01*
X0142130Y0268661D01*
X0141937Y0268823D01*
X0141748Y0268990D01*
X0141564Y0269161D01*
X0141384Y0269337D01*
X0141208Y0269517D01*
X0141037Y0269701D01*
X0140870Y0269890D01*
X0140708Y0270083D01*
X0140550Y0270279D01*
X0140398Y0270480D01*
X0140250Y0270684D01*
X0140108Y0270891D01*
X0139971Y0271102D01*
X0139839Y0271317D01*
X0139712Y0271534D01*
X0139590Y0271755D01*
X0139474Y0271978D01*
X0139364Y0272205D01*
X0139259Y0272434D01*
X0139160Y0272665D01*
X0139066Y0272899D01*
X0138979Y0273135D01*
X0138897Y0273373D01*
X0138821Y0273613D01*
X0138751Y0273855D01*
X0138686Y0274098D01*
X0138628Y0274343D01*
X0138576Y0274590D01*
X0138530Y0274837D01*
X0138490Y0275086D01*
X0138456Y0275335D01*
X0138428Y0275585D01*
X0138407Y0275836D01*
X0138391Y0276088D01*
X0138382Y0276339D01*
X0138379Y0276591D01*
X0138379Y0119110D02*
X0138382Y0119362D01*
X0138391Y0119613D01*
X0138407Y0119865D01*
X0138428Y0120116D01*
X0138456Y0120366D01*
X0138490Y0120615D01*
X0138530Y0120864D01*
X0138576Y0121111D01*
X0138628Y0121358D01*
X0138686Y0121603D01*
X0138751Y0121846D01*
X0138821Y0122088D01*
X0138897Y0122328D01*
X0138979Y0122566D01*
X0139066Y0122802D01*
X0139160Y0123036D01*
X0139259Y0123267D01*
X0139364Y0123496D01*
X0139474Y0123723D01*
X0139590Y0123946D01*
X0139712Y0124167D01*
X0139839Y0124384D01*
X0139971Y0124599D01*
X0140108Y0124810D01*
X0140250Y0125017D01*
X0140398Y0125221D01*
X0140550Y0125422D01*
X0140708Y0125618D01*
X0140870Y0125811D01*
X0141037Y0126000D01*
X0141208Y0126184D01*
X0141384Y0126364D01*
X0141564Y0126540D01*
X0141748Y0126711D01*
X0141937Y0126878D01*
X0142130Y0127040D01*
X0142326Y0127198D01*
X0142527Y0127350D01*
X0142731Y0127498D01*
X0142938Y0127640D01*
X0143149Y0127777D01*
X0143364Y0127909D01*
X0143581Y0128036D01*
X0143802Y0128158D01*
X0144025Y0128274D01*
X0144252Y0128384D01*
X0144481Y0128489D01*
X0144712Y0128588D01*
X0144946Y0128682D01*
X0145182Y0128769D01*
X0145420Y0128851D01*
X0145660Y0128927D01*
X0145902Y0128997D01*
X0146145Y0129062D01*
X0146390Y0129120D01*
X0146637Y0129172D01*
X0146884Y0129218D01*
X0147133Y0129258D01*
X0147382Y0129292D01*
X0147632Y0129320D01*
X0147883Y0129341D01*
X0148135Y0129357D01*
X0148386Y0129366D01*
X0148638Y0129369D01*
X0148890Y0129366D01*
X0149141Y0129357D01*
X0149393Y0129341D01*
X0149644Y0129320D01*
X0149894Y0129292D01*
X0150143Y0129258D01*
X0150392Y0129218D01*
X0150639Y0129172D01*
X0150886Y0129120D01*
X0151131Y0129062D01*
X0151374Y0128997D01*
X0151616Y0128927D01*
X0151856Y0128851D01*
X0152094Y0128769D01*
X0152330Y0128682D01*
X0152564Y0128588D01*
X0152795Y0128489D01*
X0153024Y0128384D01*
X0153251Y0128274D01*
X0153474Y0128158D01*
X0153695Y0128036D01*
X0153912Y0127909D01*
X0154127Y0127777D01*
X0154338Y0127640D01*
X0154545Y0127498D01*
X0154749Y0127350D01*
X0154950Y0127198D01*
X0155146Y0127040D01*
X0155339Y0126878D01*
X0155528Y0126711D01*
X0155712Y0126540D01*
X0155892Y0126364D01*
X0156068Y0126184D01*
X0156239Y0126000D01*
X0156406Y0125811D01*
X0156568Y0125618D01*
X0156726Y0125422D01*
X0156878Y0125221D01*
X0157026Y0125017D01*
X0157168Y0124810D01*
X0157305Y0124599D01*
X0157437Y0124384D01*
X0157564Y0124167D01*
X0157686Y0123946D01*
X0157802Y0123723D01*
X0157912Y0123496D01*
X0158017Y0123267D01*
X0158116Y0123036D01*
X0158210Y0122802D01*
X0158297Y0122566D01*
X0158379Y0122328D01*
X0158455Y0122088D01*
X0158525Y0121846D01*
X0158590Y0121603D01*
X0158648Y0121358D01*
X0158700Y0121111D01*
X0158746Y0120864D01*
X0158786Y0120615D01*
X0158820Y0120366D01*
X0158848Y0120116D01*
X0158869Y0119865D01*
X0158885Y0119613D01*
X0158894Y0119362D01*
X0158897Y0119110D01*
X0158894Y0118858D01*
X0158885Y0118607D01*
X0158869Y0118355D01*
X0158848Y0118104D01*
X0158820Y0117854D01*
X0158786Y0117605D01*
X0158746Y0117356D01*
X0158700Y0117109D01*
X0158648Y0116862D01*
X0158590Y0116617D01*
X0158525Y0116374D01*
X0158455Y0116132D01*
X0158379Y0115892D01*
X0158297Y0115654D01*
X0158210Y0115418D01*
X0158116Y0115184D01*
X0158017Y0114953D01*
X0157912Y0114724D01*
X0157802Y0114497D01*
X0157686Y0114274D01*
X0157564Y0114053D01*
X0157437Y0113836D01*
X0157305Y0113621D01*
X0157168Y0113410D01*
X0157026Y0113203D01*
X0156878Y0112999D01*
X0156726Y0112798D01*
X0156568Y0112602D01*
X0156406Y0112409D01*
X0156239Y0112220D01*
X0156068Y0112036D01*
X0155892Y0111856D01*
X0155712Y0111680D01*
X0155528Y0111509D01*
X0155339Y0111342D01*
X0155146Y0111180D01*
X0154950Y0111022D01*
X0154749Y0110870D01*
X0154545Y0110722D01*
X0154338Y0110580D01*
X0154127Y0110443D01*
X0153912Y0110311D01*
X0153695Y0110184D01*
X0153474Y0110062D01*
X0153251Y0109946D01*
X0153024Y0109836D01*
X0152795Y0109731D01*
X0152564Y0109632D01*
X0152330Y0109538D01*
X0152094Y0109451D01*
X0151856Y0109369D01*
X0151616Y0109293D01*
X0151374Y0109223D01*
X0151131Y0109158D01*
X0150886Y0109100D01*
X0150639Y0109048D01*
X0150392Y0109002D01*
X0150143Y0108962D01*
X0149894Y0108928D01*
X0149644Y0108900D01*
X0149393Y0108879D01*
X0149141Y0108863D01*
X0148890Y0108854D01*
X0148638Y0108851D01*
X0148386Y0108854D01*
X0148135Y0108863D01*
X0147883Y0108879D01*
X0147632Y0108900D01*
X0147382Y0108928D01*
X0147133Y0108962D01*
X0146884Y0109002D01*
X0146637Y0109048D01*
X0146390Y0109100D01*
X0146145Y0109158D01*
X0145902Y0109223D01*
X0145660Y0109293D01*
X0145420Y0109369D01*
X0145182Y0109451D01*
X0144946Y0109538D01*
X0144712Y0109632D01*
X0144481Y0109731D01*
X0144252Y0109836D01*
X0144025Y0109946D01*
X0143802Y0110062D01*
X0143581Y0110184D01*
X0143364Y0110311D01*
X0143149Y0110443D01*
X0142938Y0110580D01*
X0142731Y0110722D01*
X0142527Y0110870D01*
X0142326Y0111022D01*
X0142130Y0111180D01*
X0141937Y0111342D01*
X0141748Y0111509D01*
X0141564Y0111680D01*
X0141384Y0111856D01*
X0141208Y0112036D01*
X0141037Y0112220D01*
X0140870Y0112409D01*
X0140708Y0112602D01*
X0140550Y0112798D01*
X0140398Y0112999D01*
X0140250Y0113203D01*
X0140108Y0113410D01*
X0139971Y0113621D01*
X0139839Y0113836D01*
X0139712Y0114053D01*
X0139590Y0114274D01*
X0139474Y0114497D01*
X0139364Y0114724D01*
X0139259Y0114953D01*
X0139160Y0115184D01*
X0139066Y0115418D01*
X0138979Y0115654D01*
X0138897Y0115892D01*
X0138821Y0116132D01*
X0138751Y0116374D01*
X0138686Y0116617D01*
X0138628Y0116862D01*
X0138576Y0117109D01*
X0138530Y0117356D01*
X0138490Y0117605D01*
X0138456Y0117854D01*
X0138428Y0118104D01*
X0138407Y0118355D01*
X0138391Y0118607D01*
X0138382Y0118858D01*
X0138379Y0119110D01*
D13*
X0332507Y0252969D02*
X0335576Y0252969D01*
X0338645Y0256038D01*
X0338645Y0271385D01*
X0326368Y0271385D02*
X0326368Y0262177D01*
X0329438Y0259107D01*
X0338645Y0259107D01*
X0320230Y0271385D02*
X0317160Y0271385D01*
X0311022Y0265246D01*
X0311022Y0259107D02*
X0311022Y0271385D01*
X0304883Y0268315D02*
X0304883Y0259107D01*
X0295675Y0259107D01*
X0292606Y0262177D01*
X0295675Y0265246D01*
X0304883Y0265246D01*
X0304883Y0268315D02*
X0301814Y0271385D01*
X0295675Y0271385D01*
X0286468Y0268315D02*
X0286468Y0259107D01*
X0286468Y0268315D02*
X0283398Y0271385D01*
X0274190Y0271385D01*
X0274190Y0259107D01*
X0258844Y0259107D02*
X0258844Y0271385D01*
X0264982Y0271385D02*
X0258844Y0265246D01*
X0252705Y0265246D02*
X0240428Y0265246D01*
X0240428Y0262177D02*
X0240428Y0268315D01*
X0243497Y0271385D01*
X0249636Y0271385D01*
X0252705Y0268315D01*
X0252705Y0265246D01*
X0249636Y0259107D02*
X0243497Y0259107D01*
X0240428Y0262177D01*
X0228151Y0259107D02*
X0228151Y0277523D01*
X0222012Y0277523D02*
X0234290Y0277523D01*
X0264982Y0271385D02*
X0268052Y0271385D01*
X0363200Y0274454D02*
X0363200Y0262177D01*
X0366269Y0259107D01*
X0372408Y0259107D01*
X0375477Y0262177D01*
X0381615Y0259107D02*
X0387754Y0259107D01*
X0384685Y0259107D02*
X0384685Y0277523D01*
X0381615Y0277523D01*
X0375477Y0274454D02*
X0372408Y0277523D01*
X0366269Y0277523D01*
X0363200Y0274454D01*
X0393893Y0268315D02*
X0393893Y0262177D01*
X0396962Y0259107D01*
X0403101Y0259107D01*
X0406170Y0262177D01*
X0406170Y0268315D01*
X0403101Y0271385D01*
X0396962Y0271385D01*
X0393893Y0268315D01*
X0412308Y0268315D02*
X0412308Y0262177D01*
X0415378Y0259107D01*
X0424586Y0259107D01*
X0430724Y0259107D02*
X0430724Y0277523D01*
X0424586Y0271385D02*
X0415378Y0271385D01*
X0412308Y0268315D01*
X0430724Y0265246D02*
X0439932Y0271385D01*
X0430724Y0265246D02*
X0439932Y0259107D01*
D14*
X0316945Y0173244D03*
D15*
X0317929Y0333677D03*
D16*
X0088598Y0344406D03*
D17*
X0088598Y0186866D03*
D18*
X0268717Y0148638D03*
D19*
X0300213Y0126984D03*
D20*
X0221472Y0103362D03*
D21*
X0130921Y0313008D03*
D22*
X0181118Y0315961D03*
D23*
X0522654Y0296276D03*
D24*
X0520685Y0263795D03*
D25*
X0087614Y0031315D03*
D26*
X0555724Y0049031D03*
D27*
X0098441Y0277378D03*
D28*
X0057496Y0271276D03*
D29*
X0068520Y0282299D03*
D30*
X0465764Y0313008D03*
D31*
X0489583Y0299031D03*
D32*
X0082693Y0124819D03*
D33*
X0124819Y0135843D03*
D34*
X0128165Y0138008D03*
D35*
X0039583Y0122654D03*
D36*
X0032890Y0118913D03*
D37*
X0027181Y0115567D03*
D38*
X0021866Y0112811D03*
D39*
X0060252Y0046866D03*
X0060252Y0033874D03*
X0079543Y0033874D03*
X0079543Y0046866D03*
X0217732Y0046866D03*
X0217732Y0033874D03*
X0237024Y0033874D03*
X0237024Y0046866D03*
X0375213Y0046866D03*
X0375213Y0033874D03*
X0394504Y0033874D03*
X0394504Y0046866D03*
X0532693Y0046866D03*
X0532693Y0033874D03*
X0551984Y0033874D03*
X0551984Y0046866D03*
X0551984Y0191354D03*
X0551984Y0204346D03*
X0532693Y0204346D03*
X0532693Y0191354D03*
X0394504Y0191354D03*
X0394504Y0204346D03*
X0375213Y0204346D03*
X0375213Y0191354D03*
X0237024Y0191354D03*
X0237024Y0204346D03*
X0217732Y0204346D03*
X0217732Y0191354D03*
X0079543Y0191354D03*
X0079543Y0204346D03*
X0060252Y0204346D03*
X0060252Y0191354D03*
X0060252Y0348835D03*
X0060252Y0361827D03*
X0079543Y0361827D03*
X0079543Y0348835D03*
X0217732Y0348835D03*
X0217732Y0361827D03*
X0237024Y0361827D03*
X0237024Y0348835D03*
X0375213Y0348835D03*
X0375213Y0361827D03*
X0394504Y0361827D03*
X0394504Y0348835D03*
X0532693Y0348835D03*
X0532693Y0361827D03*
X0551984Y0361827D03*
X0551984Y0348835D03*
D40*
X0517806Y0338909D03*
X0517806Y0358909D03*
X0360107Y0358601D03*
X0360107Y0338601D03*
X0202933Y0338749D03*
X0202933Y0358749D03*
X0096798Y0355964D03*
X0096798Y0375964D03*
X0059216Y0335912D03*
X0059216Y0305912D03*
X0097518Y0218393D03*
X0097518Y0198393D03*
X0201223Y0200958D03*
X0201223Y0180958D03*
X0215173Y0140039D03*
X0096423Y0060591D03*
X0096423Y0040591D03*
X0199885Y0043403D03*
X0199885Y0023403D03*
X0356009Y0023453D03*
X0356009Y0043453D03*
X0514312Y0044076D03*
X0514312Y0024076D03*
X0517727Y0180626D03*
X0517727Y0200626D03*
X0360206Y0200879D03*
X0360206Y0180879D03*
D41*
X0264937Y0133921D02*
X0264937Y0127921D01*
X0254937Y0127921D02*
X0254937Y0133921D01*
X0244937Y0133921D02*
X0244937Y0127921D01*
X0045355Y0310753D02*
X0039355Y0310753D01*
X0039355Y0320753D02*
X0045355Y0320753D01*
X0045355Y0330753D02*
X0039355Y0330753D01*
D42*
X0215173Y0132039D03*
D43*
X0201223Y0164386D02*
X0237024Y0164386D01*
X0237024Y0191354D01*
X0237024Y0204346D02*
X0240370Y0207693D01*
X0289780Y0207693D01*
X0306118Y0191354D01*
X0375213Y0191354D01*
X0375213Y0204346D02*
X0363673Y0204346D01*
X0375213Y0204346D02*
X0375213Y0225409D01*
X0532496Y0225409D01*
X0585646Y0225409D01*
X0585646Y0100290D01*
X0572418Y0087062D01*
X0549348Y0063992D01*
X0532496Y0063992D01*
X0532496Y0046866D01*
X0517102Y0046866D01*
X0532496Y0046866D02*
X0532693Y0046866D01*
X0532693Y0033874D02*
X0467535Y0033874D01*
X0451197Y0050213D01*
X0397850Y0050213D01*
X0394504Y0046866D01*
X0394504Y0033874D02*
X0394504Y0020685D01*
X0514312Y0020685D01*
X0545956Y0020685D01*
X0552181Y0026910D01*
X0552181Y0033874D01*
X0551984Y0033874D01*
X0532496Y0063992D02*
X0375213Y0063992D01*
X0375213Y0046866D01*
X0359423Y0046866D01*
X0375213Y0033874D02*
X0312024Y0033874D01*
X0295685Y0050213D01*
X0240370Y0050213D01*
X0237024Y0046866D01*
X0237024Y0033874D02*
X0237024Y0020685D01*
X0356009Y0020685D01*
X0394504Y0020685D01*
X0375213Y0063992D02*
X0217732Y0063992D01*
X0217732Y0046866D01*
X0203348Y0046866D01*
X0217732Y0033874D02*
X0148638Y0033874D01*
X0132299Y0050213D01*
X0082890Y0050213D01*
X0079543Y0046866D01*
X0079543Y0033874D02*
X0079543Y0020685D01*
X0044723Y0020685D01*
X0030528Y0034880D01*
X0030528Y0067847D01*
X0054231Y0091551D01*
X0215567Y0091551D01*
X0526972Y0091551D01*
X0552181Y0116760D01*
X0552181Y0164386D01*
X0552181Y0191354D01*
X0551984Y0191354D01*
X0563527Y0205724D02*
X0567929Y0201323D01*
X0567929Y0108394D01*
X0537306Y0077772D01*
X0061650Y0077772D01*
X0046276Y0062397D01*
X0046276Y0040310D01*
X0052712Y0033874D01*
X0060252Y0033874D01*
X0060252Y0046866D02*
X0060252Y0057002D01*
X0067242Y0063992D01*
X0096423Y0063992D01*
X0217732Y0063992D01*
X0199885Y0020685D02*
X0237024Y0020685D01*
X0199885Y0020685D02*
X0096423Y0020685D01*
X0079543Y0020685D01*
X0079543Y0164386D02*
X0053484Y0164386D01*
X0030528Y0187342D01*
X0030528Y0272654D01*
X0042339Y0284465D01*
X0064320Y0284465D01*
X0079543Y0299688D01*
X0079543Y0327772D01*
X0079543Y0348835D01*
X0079543Y0361827D02*
X0082890Y0365173D01*
X0128362Y0365173D01*
X0144701Y0348835D01*
X0217732Y0348835D01*
X0217732Y0361827D02*
X0206010Y0361827D01*
X0217535Y0361827D02*
X0217732Y0361827D01*
X0217535Y0361827D02*
X0217535Y0380921D01*
X0375213Y0380921D01*
X0375213Y0361827D01*
X0363333Y0361827D01*
X0375213Y0348835D02*
X0308087Y0348835D01*
X0291748Y0365173D01*
X0240370Y0365173D01*
X0237024Y0361827D01*
X0237024Y0348835D02*
X0237024Y0327772D01*
X0360107Y0327772D01*
X0394504Y0327772D01*
X0394504Y0348835D01*
X0394504Y0361827D02*
X0397850Y0365173D01*
X0447260Y0365173D01*
X0463598Y0348835D01*
X0532693Y0348835D01*
X0532693Y0361827D02*
X0520723Y0361827D01*
X0532693Y0361827D02*
X0532693Y0380921D01*
X0564353Y0380921D01*
X0585646Y0359629D01*
X0585646Y0225409D01*
X0563527Y0205724D02*
X0553362Y0205724D01*
X0551984Y0204346D01*
X0532693Y0204346D02*
X0532496Y0204346D01*
X0521447Y0204346D01*
X0532496Y0204346D02*
X0532496Y0225409D01*
X0552555Y0243126D02*
X0567929Y0258500D01*
X0567929Y0356980D01*
X0561704Y0363205D01*
X0553362Y0363205D01*
X0551984Y0361827D01*
X0551984Y0348835D02*
X0552181Y0348638D01*
X0552181Y0347457D01*
X0552181Y0327772D01*
X0517806Y0327772D01*
X0394504Y0327772D01*
X0375213Y0380921D02*
X0532693Y0380921D01*
X0552555Y0243126D02*
X0061650Y0243126D01*
X0046276Y0227751D01*
X0046276Y0196050D01*
X0050971Y0191354D01*
X0060252Y0191354D01*
X0060252Y0204346D02*
X0060252Y0217196D01*
X0068466Y0225409D01*
X0097518Y0225409D01*
X0217732Y0225409D01*
X0217732Y0204346D01*
X0204612Y0204346D01*
X0217732Y0191354D02*
X0136827Y0191354D01*
X0120488Y0207693D01*
X0082890Y0207693D01*
X0079543Y0204346D01*
X0079543Y0191354D02*
X0079543Y0164386D01*
X0097518Y0164386D01*
X0201223Y0164386D01*
X0237024Y0164386D02*
X0252969Y0164386D01*
X0276591Y0164386D01*
X0360206Y0164386D01*
X0394504Y0164386D01*
X0394504Y0191354D01*
X0394504Y0204346D02*
X0397850Y0207693D01*
X0445291Y0207693D01*
X0461630Y0191354D01*
X0532693Y0191354D01*
X0517727Y0164386D02*
X0552181Y0164386D01*
X0517727Y0164386D02*
X0394504Y0164386D01*
X0375213Y0225409D02*
X0217732Y0225409D01*
X0202933Y0327772D02*
X0096798Y0327772D01*
X0079543Y0327772D01*
X0059216Y0335912D02*
X0059216Y0347799D01*
X0060252Y0348835D01*
X0060252Y0361827D02*
X0060252Y0372708D01*
X0068466Y0380921D01*
X0096798Y0380921D01*
X0217535Y0380921D01*
X0202933Y0327772D02*
X0237024Y0327772D01*
X0042355Y0310055D02*
X0042339Y0310055D01*
D44*
X0016748Y0029799D02*
X0037674Y0008874D01*
X0554347Y0008874D01*
X0573835Y0028361D01*
X0573835Y0087062D01*
X0572418Y0087062D01*
X0517102Y0046866D02*
X0514312Y0044076D01*
X0514312Y0024076D02*
X0514312Y0020685D01*
X0359423Y0046866D02*
X0356009Y0043453D01*
X0356009Y0023453D02*
X0356009Y0020685D01*
X0215173Y0091551D02*
X0215173Y0128165D01*
X0215173Y0132039D01*
X0215567Y0140764D02*
X0044587Y0140764D01*
X0016748Y0112925D01*
X0016748Y0029799D01*
X0017142Y0075409D02*
X0017142Y0081315D01*
X0041551Y0105724D01*
X0035252Y0105724D01*
X0019110Y0089583D01*
X0019110Y0095094D01*
X0030528Y0106512D01*
X0024622Y0106512D01*
X0019504Y0101394D01*
X0017535Y0108480D02*
X0017535Y0110055D01*
X0017535Y0108480D02*
X0121866Y0108480D01*
X0121866Y0127378D01*
X0134858Y0140370D01*
X0097518Y0164386D02*
X0097518Y0198393D01*
X0097518Y0218393D02*
X0097518Y0225409D01*
X0045094Y0256512D02*
X0038008Y0256512D01*
X0034071Y0252575D01*
X0030921Y0259661D02*
X0030921Y0265173D01*
X0030921Y0259661D02*
X0123835Y0259661D01*
X0123835Y0289189D01*
X0134071Y0299425D01*
X0174904Y0298244D02*
X0079740Y0298244D01*
X0059216Y0305912D02*
X0059216Y0316561D01*
X0055024Y0320753D01*
X0042355Y0320753D01*
X0033970Y0320753D01*
X0030528Y0317311D01*
X0030528Y0292339D01*
X0016748Y0278559D01*
X0016748Y0178584D01*
X0044726Y0150606D01*
X0246585Y0150606D01*
X0254937Y0142255D01*
X0254937Y0130921D01*
X0244937Y0130921D02*
X0244937Y0134750D01*
X0238923Y0140764D01*
X0215567Y0140764D01*
X0201223Y0164386D02*
X0201223Y0180958D01*
X0201223Y0200958D02*
X0204612Y0204346D01*
X0252969Y0164386D02*
X0252969Y0161242D01*
X0265573Y0148638D01*
X0266748Y0148638D01*
X0262811Y0156512D02*
X0262811Y0160449D01*
X0258874Y0160449D01*
X0276591Y0164386D02*
X0276591Y0130921D01*
X0264937Y0130921D01*
X0268717Y0115173D02*
X0180453Y0115173D01*
X0174228Y0108948D01*
X0174228Y0093520D01*
X0203348Y0046866D02*
X0199885Y0043403D01*
X0199885Y0023403D02*
X0199885Y0020685D01*
X0096423Y0020685D02*
X0096423Y0040591D01*
X0096423Y0060591D02*
X0096423Y0063992D01*
X0051000Y0109268D02*
X0017142Y0075409D01*
X0051000Y0109268D02*
X0051000Y0110449D01*
X0030921Y0237220D02*
X0030921Y0242339D01*
X0045094Y0256512D01*
X0054150Y0260449D02*
X0030921Y0237220D01*
X0054150Y0260449D02*
X0058480Y0260449D01*
X0096798Y0327772D02*
X0096798Y0355964D01*
X0174904Y0298244D02*
X0186039Y0309380D01*
X0186039Y0325803D01*
X0184071Y0325803D01*
X0202933Y0327772D02*
X0202933Y0338749D01*
X0202933Y0358749D02*
X0206010Y0361827D01*
X0360107Y0358601D02*
X0363333Y0361827D01*
X0435252Y0326591D02*
X0435252Y0299425D01*
X0483677Y0299425D01*
X0498638Y0284465D01*
X0498638Y0282890D01*
X0493126Y0258874D02*
X0493126Y0325803D01*
X0517806Y0327772D02*
X0517806Y0338909D01*
X0517806Y0358909D02*
X0520723Y0361827D01*
X0552181Y0349425D02*
X0552181Y0347457D01*
X0552181Y0349425D02*
X0554150Y0349425D01*
X0554150Y0270352D01*
X0542671Y0258874D01*
X0493126Y0258874D01*
X0521447Y0204346D02*
X0517727Y0200626D01*
X0517727Y0180626D02*
X0517727Y0164386D01*
X0363673Y0204346D02*
X0360206Y0200879D01*
X0360206Y0180879D02*
X0360206Y0164386D01*
D45*
X0360107Y0327772D02*
X0360107Y0338601D01*
X0096798Y0375964D02*
X0096798Y0380921D01*
D46*
X0060252Y0361827D02*
X0053904Y0361827D01*
X0042355Y0350277D01*
X0042355Y0330753D01*
X0042339Y0310055D02*
X0042339Y0284465D01*
D47*
X0215173Y0140764D02*
X0215567Y0140764D01*
X0215173Y0140764D02*
X0215173Y0140039D01*
X0215173Y0128165D02*
X0223835Y0119504D01*
X0210055Y0119504D01*
X0201394Y0114386D02*
X0215173Y0128165D01*
X0223835Y0119504D02*
X0226984Y0116354D01*
X0215567Y0091551D02*
X0215173Y0091551D01*
M02*
