G75*
%MOIN*%
%OFA0B0*%
%FSLAX25Y25*%
%IPPOS*%
%LPD*%
%AMOC8*
5,1,8,0,0,1.08239X$1,22.5*
%
%ADD10C,0.00000*%
%ADD11C,0.00600*%
%ADD12C,0.00800*%
%ADD13C,0.00500*%
%ADD14C,0.00300*%
%ADD15C,0.01200*%
D10*
X0020685Y0001000D02*
X0591551Y0001000D01*
X0592027Y0001006D01*
X0592502Y0001023D01*
X0592977Y0001052D01*
X0593451Y0001092D01*
X0593924Y0001144D01*
X0594395Y0001207D01*
X0594865Y0001281D01*
X0595333Y0001367D01*
X0595799Y0001464D01*
X0596262Y0001572D01*
X0596722Y0001691D01*
X0597180Y0001822D01*
X0597634Y0001963D01*
X0598085Y0002116D01*
X0598531Y0002279D01*
X0598974Y0002453D01*
X0599412Y0002638D01*
X0599846Y0002833D01*
X0600275Y0003039D01*
X0600699Y0003255D01*
X0601118Y0003481D01*
X0601531Y0003717D01*
X0601938Y0003963D01*
X0602339Y0004219D01*
X0602733Y0004485D01*
X0603122Y0004760D01*
X0603503Y0005044D01*
X0603877Y0005337D01*
X0604245Y0005639D01*
X0604605Y0005951D01*
X0604957Y0006270D01*
X0605301Y0006598D01*
X0605638Y0006935D01*
X0605966Y0007279D01*
X0606285Y0007631D01*
X0606597Y0007991D01*
X0606899Y0008359D01*
X0607192Y0008733D01*
X0607476Y0009114D01*
X0607751Y0009503D01*
X0608017Y0009897D01*
X0608273Y0010298D01*
X0608519Y0010705D01*
X0608755Y0011118D01*
X0608981Y0011537D01*
X0609197Y0011961D01*
X0609403Y0012390D01*
X0609598Y0012824D01*
X0609783Y0013262D01*
X0609957Y0013705D01*
X0610120Y0014151D01*
X0610273Y0014602D01*
X0610414Y0015056D01*
X0610545Y0015514D01*
X0610664Y0015974D01*
X0610772Y0016437D01*
X0610869Y0016903D01*
X0610955Y0017371D01*
X0611029Y0017841D01*
X0611092Y0018312D01*
X0611144Y0018785D01*
X0611184Y0019259D01*
X0611213Y0019734D01*
X0611230Y0020209D01*
X0611236Y0020685D01*
X0611236Y0375016D01*
X0611230Y0375492D01*
X0611213Y0375967D01*
X0611184Y0376442D01*
X0611144Y0376916D01*
X0611092Y0377389D01*
X0611029Y0377860D01*
X0610955Y0378330D01*
X0610869Y0378798D01*
X0610772Y0379264D01*
X0610664Y0379727D01*
X0610545Y0380187D01*
X0610414Y0380645D01*
X0610273Y0381099D01*
X0610120Y0381550D01*
X0609957Y0381996D01*
X0609783Y0382439D01*
X0609598Y0382877D01*
X0609403Y0383311D01*
X0609197Y0383740D01*
X0608981Y0384164D01*
X0608755Y0384583D01*
X0608519Y0384996D01*
X0608273Y0385403D01*
X0608017Y0385804D01*
X0607751Y0386198D01*
X0607476Y0386587D01*
X0607192Y0386968D01*
X0606899Y0387342D01*
X0606597Y0387710D01*
X0606285Y0388070D01*
X0605966Y0388422D01*
X0605638Y0388766D01*
X0605301Y0389103D01*
X0604957Y0389431D01*
X0604605Y0389750D01*
X0604245Y0390062D01*
X0603877Y0390364D01*
X0603503Y0390657D01*
X0603122Y0390941D01*
X0602733Y0391216D01*
X0602339Y0391482D01*
X0601938Y0391738D01*
X0601531Y0391984D01*
X0601118Y0392220D01*
X0600699Y0392446D01*
X0600275Y0392662D01*
X0599846Y0392868D01*
X0599412Y0393063D01*
X0598974Y0393248D01*
X0598531Y0393422D01*
X0598085Y0393585D01*
X0597634Y0393738D01*
X0597180Y0393879D01*
X0596722Y0394010D01*
X0596262Y0394129D01*
X0595799Y0394237D01*
X0595333Y0394334D01*
X0594865Y0394420D01*
X0594395Y0394494D01*
X0593924Y0394557D01*
X0593451Y0394609D01*
X0592977Y0394649D01*
X0592502Y0394678D01*
X0592027Y0394695D01*
X0591551Y0394701D01*
X0020685Y0394701D01*
X0020209Y0394695D01*
X0019734Y0394678D01*
X0019259Y0394649D01*
X0018785Y0394609D01*
X0018312Y0394557D01*
X0017841Y0394494D01*
X0017371Y0394420D01*
X0016903Y0394334D01*
X0016437Y0394237D01*
X0015974Y0394129D01*
X0015514Y0394010D01*
X0015056Y0393879D01*
X0014602Y0393738D01*
X0014151Y0393585D01*
X0013705Y0393422D01*
X0013262Y0393248D01*
X0012824Y0393063D01*
X0012390Y0392868D01*
X0011961Y0392662D01*
X0011537Y0392446D01*
X0011118Y0392220D01*
X0010705Y0391984D01*
X0010298Y0391738D01*
X0009897Y0391482D01*
X0009503Y0391216D01*
X0009114Y0390941D01*
X0008733Y0390657D01*
X0008359Y0390364D01*
X0007991Y0390062D01*
X0007631Y0389750D01*
X0007279Y0389431D01*
X0006935Y0389103D01*
X0006598Y0388766D01*
X0006270Y0388422D01*
X0005951Y0388070D01*
X0005639Y0387710D01*
X0005337Y0387342D01*
X0005044Y0386968D01*
X0004760Y0386587D01*
X0004485Y0386198D01*
X0004219Y0385804D01*
X0003963Y0385403D01*
X0003717Y0384996D01*
X0003481Y0384583D01*
X0003255Y0384164D01*
X0003039Y0383740D01*
X0002833Y0383311D01*
X0002638Y0382877D01*
X0002453Y0382439D01*
X0002279Y0381996D01*
X0002116Y0381550D01*
X0001963Y0381099D01*
X0001822Y0380645D01*
X0001691Y0380187D01*
X0001572Y0379727D01*
X0001464Y0379264D01*
X0001367Y0378798D01*
X0001281Y0378330D01*
X0001207Y0377860D01*
X0001144Y0377389D01*
X0001092Y0376916D01*
X0001052Y0376442D01*
X0001023Y0375967D01*
X0001006Y0375492D01*
X0001000Y0375016D01*
X0001000Y0355808D01*
X0001002Y0355606D01*
X0001010Y0355404D01*
X0001022Y0355203D01*
X0001039Y0355002D01*
X0001061Y0354801D01*
X0001088Y0354601D01*
X0001119Y0354402D01*
X0001156Y0354203D01*
X0001197Y0354006D01*
X0001243Y0353809D01*
X0001293Y0353614D01*
X0001349Y0353420D01*
X0001409Y0353227D01*
X0001473Y0353036D01*
X0001543Y0352846D01*
X0001617Y0352659D01*
X0001695Y0352473D01*
X0001778Y0352288D01*
X0001865Y0352106D01*
X0001957Y0351927D01*
X0002053Y0351749D01*
X0002153Y0351574D01*
X0002257Y0351401D01*
X0002366Y0351231D01*
X0002478Y0351064D01*
X0002595Y0350899D01*
X0002716Y0350737D01*
X0002840Y0350578D01*
X0002968Y0350422D01*
X0003100Y0350270D01*
X0003236Y0350120D01*
X0003375Y0349974D01*
X0003518Y0349831D01*
X0003664Y0349692D01*
X0003814Y0349556D01*
X0003966Y0349424D01*
X0004122Y0349296D01*
X0004281Y0349172D01*
X0004443Y0349051D01*
X0004608Y0348934D01*
X0004775Y0348822D01*
X0004945Y0348713D01*
X0005118Y0348609D01*
X0005293Y0348509D01*
X0005471Y0348413D01*
X0005650Y0348321D01*
X0005832Y0348234D01*
X0006017Y0348151D01*
X0006203Y0348073D01*
X0006390Y0347999D01*
X0006580Y0347929D01*
X0006771Y0347865D01*
X0006964Y0347805D01*
X0007158Y0347749D01*
X0007353Y0347699D01*
X0007550Y0347653D01*
X0007747Y0347612D01*
X0007946Y0347575D01*
X0008145Y0347544D01*
X0008345Y0347517D01*
X0008546Y0347495D01*
X0008747Y0347478D01*
X0008948Y0347466D01*
X0009150Y0347458D01*
X0009352Y0347456D01*
X0009352Y0347457D02*
X0015112Y0347457D01*
X0015112Y0347456D02*
X0015394Y0347453D01*
X0015675Y0347442D01*
X0015956Y0347425D01*
X0016237Y0347401D01*
X0016517Y0347370D01*
X0016796Y0347332D01*
X0017074Y0347287D01*
X0017351Y0347235D01*
X0017627Y0347177D01*
X0017901Y0347112D01*
X0018173Y0347040D01*
X0018444Y0346962D01*
X0018712Y0346877D01*
X0018979Y0346785D01*
X0019243Y0346687D01*
X0019504Y0346582D01*
X0019763Y0346471D01*
X0020019Y0346354D01*
X0020273Y0346230D01*
X0020523Y0346101D01*
X0020769Y0345965D01*
X0021013Y0345823D01*
X0021253Y0345675D01*
X0021489Y0345522D01*
X0021721Y0345362D01*
X0021949Y0345197D01*
X0022174Y0345027D01*
X0022394Y0344851D01*
X0022609Y0344669D01*
X0022820Y0344483D01*
X0023027Y0344291D01*
X0023228Y0344094D01*
X0023425Y0343893D01*
X0023617Y0343686D01*
X0023803Y0343475D01*
X0023985Y0343260D01*
X0024161Y0343040D01*
X0024331Y0342815D01*
X0024496Y0342587D01*
X0024656Y0342355D01*
X0024809Y0342119D01*
X0024957Y0341879D01*
X0025099Y0341635D01*
X0025235Y0341389D01*
X0025364Y0341139D01*
X0025488Y0340885D01*
X0025605Y0340629D01*
X0025716Y0340370D01*
X0025821Y0340109D01*
X0025919Y0339845D01*
X0026011Y0339578D01*
X0026096Y0339310D01*
X0026174Y0339039D01*
X0026246Y0338767D01*
X0026311Y0338493D01*
X0026369Y0338217D01*
X0026421Y0337940D01*
X0026466Y0337662D01*
X0026504Y0337383D01*
X0026535Y0337103D01*
X0026559Y0336822D01*
X0026576Y0336541D01*
X0026587Y0336260D01*
X0026590Y0335978D01*
X0026591Y0335978D02*
X0026591Y0302181D01*
X0026588Y0301943D01*
X0026580Y0301705D01*
X0026565Y0301468D01*
X0026545Y0301231D01*
X0026519Y0300995D01*
X0026488Y0300759D01*
X0026451Y0300524D01*
X0026408Y0300290D01*
X0026359Y0300057D01*
X0026305Y0299825D01*
X0026245Y0299595D01*
X0026180Y0299366D01*
X0026109Y0299139D01*
X0026033Y0298914D01*
X0025951Y0298691D01*
X0025864Y0298469D01*
X0025772Y0298250D01*
X0025674Y0298033D01*
X0025572Y0297819D01*
X0025464Y0297607D01*
X0025350Y0297397D01*
X0025232Y0297191D01*
X0025109Y0296987D01*
X0024981Y0296787D01*
X0024849Y0296590D01*
X0024711Y0296395D01*
X0024569Y0296205D01*
X0024422Y0296017D01*
X0024271Y0295834D01*
X0024116Y0295654D01*
X0023956Y0295478D01*
X0023792Y0295306D01*
X0023623Y0295137D01*
X0023451Y0294973D01*
X0023275Y0294813D01*
X0023095Y0294658D01*
X0022912Y0294507D01*
X0022724Y0294360D01*
X0022534Y0294218D01*
X0022339Y0294080D01*
X0022142Y0293948D01*
X0021942Y0293820D01*
X0021738Y0293697D01*
X0021532Y0293579D01*
X0021322Y0293465D01*
X0021110Y0293357D01*
X0020896Y0293255D01*
X0020679Y0293157D01*
X0020460Y0293065D01*
X0020238Y0292978D01*
X0020015Y0292896D01*
X0019790Y0292820D01*
X0019563Y0292749D01*
X0019334Y0292684D01*
X0019104Y0292624D01*
X0018872Y0292570D01*
X0018639Y0292521D01*
X0018405Y0292478D01*
X0018170Y0292441D01*
X0017934Y0292410D01*
X0017698Y0292384D01*
X0017461Y0292364D01*
X0017224Y0292349D01*
X0016986Y0292341D01*
X0016748Y0292338D01*
X0016748Y0292339D02*
X0012136Y0292339D01*
X0011867Y0292336D01*
X0011598Y0292326D01*
X0011329Y0292310D01*
X0011061Y0292287D01*
X0010794Y0292258D01*
X0010527Y0292222D01*
X0010261Y0292180D01*
X0009996Y0292132D01*
X0009733Y0292077D01*
X0009471Y0292015D01*
X0009210Y0291948D01*
X0008952Y0291874D01*
X0008695Y0291794D01*
X0008440Y0291708D01*
X0008187Y0291615D01*
X0007937Y0291517D01*
X0007689Y0291412D01*
X0007443Y0291302D01*
X0007201Y0291186D01*
X0006961Y0291063D01*
X0006724Y0290936D01*
X0006490Y0290802D01*
X0006260Y0290663D01*
X0006033Y0290518D01*
X0005810Y0290368D01*
X0005590Y0290212D01*
X0005375Y0290051D01*
X0005163Y0289885D01*
X0004955Y0289714D01*
X0004751Y0289538D01*
X0004552Y0289358D01*
X0004357Y0289172D01*
X0004167Y0288982D01*
X0003981Y0288787D01*
X0003801Y0288588D01*
X0003625Y0288384D01*
X0003454Y0288176D01*
X0003288Y0287964D01*
X0003127Y0287749D01*
X0002971Y0287529D01*
X0002821Y0287306D01*
X0002676Y0287079D01*
X0002537Y0286849D01*
X0002403Y0286615D01*
X0002276Y0286378D01*
X0002153Y0286138D01*
X0002037Y0285896D01*
X0001927Y0285650D01*
X0001822Y0285402D01*
X0001724Y0285152D01*
X0001631Y0284899D01*
X0001545Y0284644D01*
X0001465Y0284387D01*
X0001391Y0284129D01*
X0001324Y0283868D01*
X0001262Y0283606D01*
X0001207Y0283343D01*
X0001159Y0283078D01*
X0001117Y0282812D01*
X0001081Y0282545D01*
X0001052Y0282278D01*
X0001029Y0282010D01*
X0001013Y0281741D01*
X0001003Y0281472D01*
X0001000Y0281203D01*
X0001000Y0020685D01*
X0001006Y0020209D01*
X0001023Y0019734D01*
X0001052Y0019259D01*
X0001092Y0018785D01*
X0001144Y0018312D01*
X0001207Y0017841D01*
X0001281Y0017371D01*
X0001367Y0016903D01*
X0001464Y0016437D01*
X0001572Y0015974D01*
X0001691Y0015514D01*
X0001822Y0015056D01*
X0001963Y0014602D01*
X0002116Y0014151D01*
X0002279Y0013705D01*
X0002453Y0013262D01*
X0002638Y0012824D01*
X0002833Y0012390D01*
X0003039Y0011961D01*
X0003255Y0011537D01*
X0003481Y0011118D01*
X0003717Y0010705D01*
X0003963Y0010298D01*
X0004219Y0009897D01*
X0004485Y0009503D01*
X0004760Y0009114D01*
X0005044Y0008733D01*
X0005337Y0008359D01*
X0005639Y0007991D01*
X0005951Y0007631D01*
X0006270Y0007279D01*
X0006598Y0006935D01*
X0006935Y0006598D01*
X0007279Y0006270D01*
X0007631Y0005951D01*
X0007991Y0005639D01*
X0008359Y0005337D01*
X0008733Y0005044D01*
X0009114Y0004760D01*
X0009503Y0004485D01*
X0009897Y0004219D01*
X0010298Y0003963D01*
X0010705Y0003717D01*
X0011118Y0003481D01*
X0011537Y0003255D01*
X0011961Y0003039D01*
X0012390Y0002833D01*
X0012824Y0002638D01*
X0013262Y0002453D01*
X0013705Y0002279D01*
X0014151Y0002116D01*
X0014602Y0001963D01*
X0015056Y0001822D01*
X0015514Y0001691D01*
X0015974Y0001572D01*
X0016437Y0001464D01*
X0016903Y0001367D01*
X0017371Y0001281D01*
X0017841Y0001207D01*
X0018312Y0001144D01*
X0018785Y0001092D01*
X0019259Y0001052D01*
X0019734Y0001023D01*
X0020209Y0001006D01*
X0020685Y0001000D01*
X0142339Y0119110D02*
X0142341Y0119268D01*
X0142347Y0119426D01*
X0142357Y0119584D01*
X0142371Y0119742D01*
X0142389Y0119899D01*
X0142410Y0120056D01*
X0142436Y0120212D01*
X0142466Y0120368D01*
X0142499Y0120523D01*
X0142537Y0120676D01*
X0142578Y0120829D01*
X0142623Y0120981D01*
X0142672Y0121132D01*
X0142725Y0121281D01*
X0142781Y0121429D01*
X0142841Y0121575D01*
X0142905Y0121720D01*
X0142973Y0121863D01*
X0143044Y0122005D01*
X0143118Y0122145D01*
X0143196Y0122282D01*
X0143278Y0122418D01*
X0143362Y0122552D01*
X0143451Y0122683D01*
X0143542Y0122812D01*
X0143637Y0122939D01*
X0143734Y0123064D01*
X0143835Y0123186D01*
X0143939Y0123305D01*
X0144046Y0123422D01*
X0144156Y0123536D01*
X0144269Y0123647D01*
X0144384Y0123756D01*
X0144502Y0123861D01*
X0144623Y0123963D01*
X0144746Y0124063D01*
X0144872Y0124159D01*
X0145000Y0124252D01*
X0145130Y0124342D01*
X0145263Y0124428D01*
X0145398Y0124512D01*
X0145534Y0124591D01*
X0145673Y0124668D01*
X0145814Y0124740D01*
X0145956Y0124810D01*
X0146100Y0124875D01*
X0146246Y0124937D01*
X0146393Y0124995D01*
X0146542Y0125050D01*
X0146692Y0125101D01*
X0146843Y0125148D01*
X0146995Y0125191D01*
X0147148Y0125230D01*
X0147303Y0125266D01*
X0147458Y0125297D01*
X0147614Y0125325D01*
X0147770Y0125349D01*
X0147927Y0125369D01*
X0148085Y0125385D01*
X0148242Y0125397D01*
X0148401Y0125405D01*
X0148559Y0125409D01*
X0148717Y0125409D01*
X0148875Y0125405D01*
X0149034Y0125397D01*
X0149191Y0125385D01*
X0149349Y0125369D01*
X0149506Y0125349D01*
X0149662Y0125325D01*
X0149818Y0125297D01*
X0149973Y0125266D01*
X0150128Y0125230D01*
X0150281Y0125191D01*
X0150433Y0125148D01*
X0150584Y0125101D01*
X0150734Y0125050D01*
X0150883Y0124995D01*
X0151030Y0124937D01*
X0151176Y0124875D01*
X0151320Y0124810D01*
X0151462Y0124740D01*
X0151603Y0124668D01*
X0151742Y0124591D01*
X0151878Y0124512D01*
X0152013Y0124428D01*
X0152146Y0124342D01*
X0152276Y0124252D01*
X0152404Y0124159D01*
X0152530Y0124063D01*
X0152653Y0123963D01*
X0152774Y0123861D01*
X0152892Y0123756D01*
X0153007Y0123647D01*
X0153120Y0123536D01*
X0153230Y0123422D01*
X0153337Y0123305D01*
X0153441Y0123186D01*
X0153542Y0123064D01*
X0153639Y0122939D01*
X0153734Y0122812D01*
X0153825Y0122683D01*
X0153914Y0122552D01*
X0153998Y0122418D01*
X0154080Y0122282D01*
X0154158Y0122145D01*
X0154232Y0122005D01*
X0154303Y0121863D01*
X0154371Y0121720D01*
X0154435Y0121575D01*
X0154495Y0121429D01*
X0154551Y0121281D01*
X0154604Y0121132D01*
X0154653Y0120981D01*
X0154698Y0120829D01*
X0154739Y0120676D01*
X0154777Y0120523D01*
X0154810Y0120368D01*
X0154840Y0120212D01*
X0154866Y0120056D01*
X0154887Y0119899D01*
X0154905Y0119742D01*
X0154919Y0119584D01*
X0154929Y0119426D01*
X0154935Y0119268D01*
X0154937Y0119110D01*
X0154935Y0118952D01*
X0154929Y0118794D01*
X0154919Y0118636D01*
X0154905Y0118478D01*
X0154887Y0118321D01*
X0154866Y0118164D01*
X0154840Y0118008D01*
X0154810Y0117852D01*
X0154777Y0117697D01*
X0154739Y0117544D01*
X0154698Y0117391D01*
X0154653Y0117239D01*
X0154604Y0117088D01*
X0154551Y0116939D01*
X0154495Y0116791D01*
X0154435Y0116645D01*
X0154371Y0116500D01*
X0154303Y0116357D01*
X0154232Y0116215D01*
X0154158Y0116075D01*
X0154080Y0115938D01*
X0153998Y0115802D01*
X0153914Y0115668D01*
X0153825Y0115537D01*
X0153734Y0115408D01*
X0153639Y0115281D01*
X0153542Y0115156D01*
X0153441Y0115034D01*
X0153337Y0114915D01*
X0153230Y0114798D01*
X0153120Y0114684D01*
X0153007Y0114573D01*
X0152892Y0114464D01*
X0152774Y0114359D01*
X0152653Y0114257D01*
X0152530Y0114157D01*
X0152404Y0114061D01*
X0152276Y0113968D01*
X0152146Y0113878D01*
X0152013Y0113792D01*
X0151878Y0113708D01*
X0151742Y0113629D01*
X0151603Y0113552D01*
X0151462Y0113480D01*
X0151320Y0113410D01*
X0151176Y0113345D01*
X0151030Y0113283D01*
X0150883Y0113225D01*
X0150734Y0113170D01*
X0150584Y0113119D01*
X0150433Y0113072D01*
X0150281Y0113029D01*
X0150128Y0112990D01*
X0149973Y0112954D01*
X0149818Y0112923D01*
X0149662Y0112895D01*
X0149506Y0112871D01*
X0149349Y0112851D01*
X0149191Y0112835D01*
X0149034Y0112823D01*
X0148875Y0112815D01*
X0148717Y0112811D01*
X0148559Y0112811D01*
X0148401Y0112815D01*
X0148242Y0112823D01*
X0148085Y0112835D01*
X0147927Y0112851D01*
X0147770Y0112871D01*
X0147614Y0112895D01*
X0147458Y0112923D01*
X0147303Y0112954D01*
X0147148Y0112990D01*
X0146995Y0113029D01*
X0146843Y0113072D01*
X0146692Y0113119D01*
X0146542Y0113170D01*
X0146393Y0113225D01*
X0146246Y0113283D01*
X0146100Y0113345D01*
X0145956Y0113410D01*
X0145814Y0113480D01*
X0145673Y0113552D01*
X0145534Y0113629D01*
X0145398Y0113708D01*
X0145263Y0113792D01*
X0145130Y0113878D01*
X0145000Y0113968D01*
X0144872Y0114061D01*
X0144746Y0114157D01*
X0144623Y0114257D01*
X0144502Y0114359D01*
X0144384Y0114464D01*
X0144269Y0114573D01*
X0144156Y0114684D01*
X0144046Y0114798D01*
X0143939Y0114915D01*
X0143835Y0115034D01*
X0143734Y0115156D01*
X0143637Y0115281D01*
X0143542Y0115408D01*
X0143451Y0115537D01*
X0143362Y0115668D01*
X0143278Y0115802D01*
X0143196Y0115938D01*
X0143118Y0116075D01*
X0143044Y0116215D01*
X0142973Y0116357D01*
X0142905Y0116500D01*
X0142841Y0116645D01*
X0142781Y0116791D01*
X0142725Y0116939D01*
X0142672Y0117088D01*
X0142623Y0117239D01*
X0142578Y0117391D01*
X0142537Y0117544D01*
X0142499Y0117697D01*
X0142466Y0117852D01*
X0142436Y0118008D01*
X0142410Y0118164D01*
X0142389Y0118321D01*
X0142371Y0118478D01*
X0142357Y0118636D01*
X0142347Y0118794D01*
X0142341Y0118952D01*
X0142339Y0119110D01*
X0142339Y0276591D02*
X0142341Y0276749D01*
X0142347Y0276907D01*
X0142357Y0277065D01*
X0142371Y0277223D01*
X0142389Y0277380D01*
X0142410Y0277537D01*
X0142436Y0277693D01*
X0142466Y0277849D01*
X0142499Y0278004D01*
X0142537Y0278157D01*
X0142578Y0278310D01*
X0142623Y0278462D01*
X0142672Y0278613D01*
X0142725Y0278762D01*
X0142781Y0278910D01*
X0142841Y0279056D01*
X0142905Y0279201D01*
X0142973Y0279344D01*
X0143044Y0279486D01*
X0143118Y0279626D01*
X0143196Y0279763D01*
X0143278Y0279899D01*
X0143362Y0280033D01*
X0143451Y0280164D01*
X0143542Y0280293D01*
X0143637Y0280420D01*
X0143734Y0280545D01*
X0143835Y0280667D01*
X0143939Y0280786D01*
X0144046Y0280903D01*
X0144156Y0281017D01*
X0144269Y0281128D01*
X0144384Y0281237D01*
X0144502Y0281342D01*
X0144623Y0281444D01*
X0144746Y0281544D01*
X0144872Y0281640D01*
X0145000Y0281733D01*
X0145130Y0281823D01*
X0145263Y0281909D01*
X0145398Y0281993D01*
X0145534Y0282072D01*
X0145673Y0282149D01*
X0145814Y0282221D01*
X0145956Y0282291D01*
X0146100Y0282356D01*
X0146246Y0282418D01*
X0146393Y0282476D01*
X0146542Y0282531D01*
X0146692Y0282582D01*
X0146843Y0282629D01*
X0146995Y0282672D01*
X0147148Y0282711D01*
X0147303Y0282747D01*
X0147458Y0282778D01*
X0147614Y0282806D01*
X0147770Y0282830D01*
X0147927Y0282850D01*
X0148085Y0282866D01*
X0148242Y0282878D01*
X0148401Y0282886D01*
X0148559Y0282890D01*
X0148717Y0282890D01*
X0148875Y0282886D01*
X0149034Y0282878D01*
X0149191Y0282866D01*
X0149349Y0282850D01*
X0149506Y0282830D01*
X0149662Y0282806D01*
X0149818Y0282778D01*
X0149973Y0282747D01*
X0150128Y0282711D01*
X0150281Y0282672D01*
X0150433Y0282629D01*
X0150584Y0282582D01*
X0150734Y0282531D01*
X0150883Y0282476D01*
X0151030Y0282418D01*
X0151176Y0282356D01*
X0151320Y0282291D01*
X0151462Y0282221D01*
X0151603Y0282149D01*
X0151742Y0282072D01*
X0151878Y0281993D01*
X0152013Y0281909D01*
X0152146Y0281823D01*
X0152276Y0281733D01*
X0152404Y0281640D01*
X0152530Y0281544D01*
X0152653Y0281444D01*
X0152774Y0281342D01*
X0152892Y0281237D01*
X0153007Y0281128D01*
X0153120Y0281017D01*
X0153230Y0280903D01*
X0153337Y0280786D01*
X0153441Y0280667D01*
X0153542Y0280545D01*
X0153639Y0280420D01*
X0153734Y0280293D01*
X0153825Y0280164D01*
X0153914Y0280033D01*
X0153998Y0279899D01*
X0154080Y0279763D01*
X0154158Y0279626D01*
X0154232Y0279486D01*
X0154303Y0279344D01*
X0154371Y0279201D01*
X0154435Y0279056D01*
X0154495Y0278910D01*
X0154551Y0278762D01*
X0154604Y0278613D01*
X0154653Y0278462D01*
X0154698Y0278310D01*
X0154739Y0278157D01*
X0154777Y0278004D01*
X0154810Y0277849D01*
X0154840Y0277693D01*
X0154866Y0277537D01*
X0154887Y0277380D01*
X0154905Y0277223D01*
X0154919Y0277065D01*
X0154929Y0276907D01*
X0154935Y0276749D01*
X0154937Y0276591D01*
X0154935Y0276433D01*
X0154929Y0276275D01*
X0154919Y0276117D01*
X0154905Y0275959D01*
X0154887Y0275802D01*
X0154866Y0275645D01*
X0154840Y0275489D01*
X0154810Y0275333D01*
X0154777Y0275178D01*
X0154739Y0275025D01*
X0154698Y0274872D01*
X0154653Y0274720D01*
X0154604Y0274569D01*
X0154551Y0274420D01*
X0154495Y0274272D01*
X0154435Y0274126D01*
X0154371Y0273981D01*
X0154303Y0273838D01*
X0154232Y0273696D01*
X0154158Y0273556D01*
X0154080Y0273419D01*
X0153998Y0273283D01*
X0153914Y0273149D01*
X0153825Y0273018D01*
X0153734Y0272889D01*
X0153639Y0272762D01*
X0153542Y0272637D01*
X0153441Y0272515D01*
X0153337Y0272396D01*
X0153230Y0272279D01*
X0153120Y0272165D01*
X0153007Y0272054D01*
X0152892Y0271945D01*
X0152774Y0271840D01*
X0152653Y0271738D01*
X0152530Y0271638D01*
X0152404Y0271542D01*
X0152276Y0271449D01*
X0152146Y0271359D01*
X0152013Y0271273D01*
X0151878Y0271189D01*
X0151742Y0271110D01*
X0151603Y0271033D01*
X0151462Y0270961D01*
X0151320Y0270891D01*
X0151176Y0270826D01*
X0151030Y0270764D01*
X0150883Y0270706D01*
X0150734Y0270651D01*
X0150584Y0270600D01*
X0150433Y0270553D01*
X0150281Y0270510D01*
X0150128Y0270471D01*
X0149973Y0270435D01*
X0149818Y0270404D01*
X0149662Y0270376D01*
X0149506Y0270352D01*
X0149349Y0270332D01*
X0149191Y0270316D01*
X0149034Y0270304D01*
X0148875Y0270296D01*
X0148717Y0270292D01*
X0148559Y0270292D01*
X0148401Y0270296D01*
X0148242Y0270304D01*
X0148085Y0270316D01*
X0147927Y0270332D01*
X0147770Y0270352D01*
X0147614Y0270376D01*
X0147458Y0270404D01*
X0147303Y0270435D01*
X0147148Y0270471D01*
X0146995Y0270510D01*
X0146843Y0270553D01*
X0146692Y0270600D01*
X0146542Y0270651D01*
X0146393Y0270706D01*
X0146246Y0270764D01*
X0146100Y0270826D01*
X0145956Y0270891D01*
X0145814Y0270961D01*
X0145673Y0271033D01*
X0145534Y0271110D01*
X0145398Y0271189D01*
X0145263Y0271273D01*
X0145130Y0271359D01*
X0145000Y0271449D01*
X0144872Y0271542D01*
X0144746Y0271638D01*
X0144623Y0271738D01*
X0144502Y0271840D01*
X0144384Y0271945D01*
X0144269Y0272054D01*
X0144156Y0272165D01*
X0144046Y0272279D01*
X0143939Y0272396D01*
X0143835Y0272515D01*
X0143734Y0272637D01*
X0143637Y0272762D01*
X0143542Y0272889D01*
X0143451Y0273018D01*
X0143362Y0273149D01*
X0143278Y0273283D01*
X0143196Y0273419D01*
X0143118Y0273556D01*
X0143044Y0273696D01*
X0142973Y0273838D01*
X0142905Y0273981D01*
X0142841Y0274126D01*
X0142781Y0274272D01*
X0142725Y0274420D01*
X0142672Y0274569D01*
X0142623Y0274720D01*
X0142578Y0274872D01*
X0142537Y0275025D01*
X0142499Y0275178D01*
X0142466Y0275333D01*
X0142436Y0275489D01*
X0142410Y0275645D01*
X0142389Y0275802D01*
X0142371Y0275959D01*
X0142357Y0276117D01*
X0142347Y0276275D01*
X0142341Y0276433D01*
X0142339Y0276591D01*
X0457299Y0276591D02*
X0457301Y0276749D01*
X0457307Y0276907D01*
X0457317Y0277065D01*
X0457331Y0277223D01*
X0457349Y0277380D01*
X0457370Y0277537D01*
X0457396Y0277693D01*
X0457426Y0277849D01*
X0457459Y0278004D01*
X0457497Y0278157D01*
X0457538Y0278310D01*
X0457583Y0278462D01*
X0457632Y0278613D01*
X0457685Y0278762D01*
X0457741Y0278910D01*
X0457801Y0279056D01*
X0457865Y0279201D01*
X0457933Y0279344D01*
X0458004Y0279486D01*
X0458078Y0279626D01*
X0458156Y0279763D01*
X0458238Y0279899D01*
X0458322Y0280033D01*
X0458411Y0280164D01*
X0458502Y0280293D01*
X0458597Y0280420D01*
X0458694Y0280545D01*
X0458795Y0280667D01*
X0458899Y0280786D01*
X0459006Y0280903D01*
X0459116Y0281017D01*
X0459229Y0281128D01*
X0459344Y0281237D01*
X0459462Y0281342D01*
X0459583Y0281444D01*
X0459706Y0281544D01*
X0459832Y0281640D01*
X0459960Y0281733D01*
X0460090Y0281823D01*
X0460223Y0281909D01*
X0460358Y0281993D01*
X0460494Y0282072D01*
X0460633Y0282149D01*
X0460774Y0282221D01*
X0460916Y0282291D01*
X0461060Y0282356D01*
X0461206Y0282418D01*
X0461353Y0282476D01*
X0461502Y0282531D01*
X0461652Y0282582D01*
X0461803Y0282629D01*
X0461955Y0282672D01*
X0462108Y0282711D01*
X0462263Y0282747D01*
X0462418Y0282778D01*
X0462574Y0282806D01*
X0462730Y0282830D01*
X0462887Y0282850D01*
X0463045Y0282866D01*
X0463202Y0282878D01*
X0463361Y0282886D01*
X0463519Y0282890D01*
X0463677Y0282890D01*
X0463835Y0282886D01*
X0463994Y0282878D01*
X0464151Y0282866D01*
X0464309Y0282850D01*
X0464466Y0282830D01*
X0464622Y0282806D01*
X0464778Y0282778D01*
X0464933Y0282747D01*
X0465088Y0282711D01*
X0465241Y0282672D01*
X0465393Y0282629D01*
X0465544Y0282582D01*
X0465694Y0282531D01*
X0465843Y0282476D01*
X0465990Y0282418D01*
X0466136Y0282356D01*
X0466280Y0282291D01*
X0466422Y0282221D01*
X0466563Y0282149D01*
X0466702Y0282072D01*
X0466838Y0281993D01*
X0466973Y0281909D01*
X0467106Y0281823D01*
X0467236Y0281733D01*
X0467364Y0281640D01*
X0467490Y0281544D01*
X0467613Y0281444D01*
X0467734Y0281342D01*
X0467852Y0281237D01*
X0467967Y0281128D01*
X0468080Y0281017D01*
X0468190Y0280903D01*
X0468297Y0280786D01*
X0468401Y0280667D01*
X0468502Y0280545D01*
X0468599Y0280420D01*
X0468694Y0280293D01*
X0468785Y0280164D01*
X0468874Y0280033D01*
X0468958Y0279899D01*
X0469040Y0279763D01*
X0469118Y0279626D01*
X0469192Y0279486D01*
X0469263Y0279344D01*
X0469331Y0279201D01*
X0469395Y0279056D01*
X0469455Y0278910D01*
X0469511Y0278762D01*
X0469564Y0278613D01*
X0469613Y0278462D01*
X0469658Y0278310D01*
X0469699Y0278157D01*
X0469737Y0278004D01*
X0469770Y0277849D01*
X0469800Y0277693D01*
X0469826Y0277537D01*
X0469847Y0277380D01*
X0469865Y0277223D01*
X0469879Y0277065D01*
X0469889Y0276907D01*
X0469895Y0276749D01*
X0469897Y0276591D01*
X0469895Y0276433D01*
X0469889Y0276275D01*
X0469879Y0276117D01*
X0469865Y0275959D01*
X0469847Y0275802D01*
X0469826Y0275645D01*
X0469800Y0275489D01*
X0469770Y0275333D01*
X0469737Y0275178D01*
X0469699Y0275025D01*
X0469658Y0274872D01*
X0469613Y0274720D01*
X0469564Y0274569D01*
X0469511Y0274420D01*
X0469455Y0274272D01*
X0469395Y0274126D01*
X0469331Y0273981D01*
X0469263Y0273838D01*
X0469192Y0273696D01*
X0469118Y0273556D01*
X0469040Y0273419D01*
X0468958Y0273283D01*
X0468874Y0273149D01*
X0468785Y0273018D01*
X0468694Y0272889D01*
X0468599Y0272762D01*
X0468502Y0272637D01*
X0468401Y0272515D01*
X0468297Y0272396D01*
X0468190Y0272279D01*
X0468080Y0272165D01*
X0467967Y0272054D01*
X0467852Y0271945D01*
X0467734Y0271840D01*
X0467613Y0271738D01*
X0467490Y0271638D01*
X0467364Y0271542D01*
X0467236Y0271449D01*
X0467106Y0271359D01*
X0466973Y0271273D01*
X0466838Y0271189D01*
X0466702Y0271110D01*
X0466563Y0271033D01*
X0466422Y0270961D01*
X0466280Y0270891D01*
X0466136Y0270826D01*
X0465990Y0270764D01*
X0465843Y0270706D01*
X0465694Y0270651D01*
X0465544Y0270600D01*
X0465393Y0270553D01*
X0465241Y0270510D01*
X0465088Y0270471D01*
X0464933Y0270435D01*
X0464778Y0270404D01*
X0464622Y0270376D01*
X0464466Y0270352D01*
X0464309Y0270332D01*
X0464151Y0270316D01*
X0463994Y0270304D01*
X0463835Y0270296D01*
X0463677Y0270292D01*
X0463519Y0270292D01*
X0463361Y0270296D01*
X0463202Y0270304D01*
X0463045Y0270316D01*
X0462887Y0270332D01*
X0462730Y0270352D01*
X0462574Y0270376D01*
X0462418Y0270404D01*
X0462263Y0270435D01*
X0462108Y0270471D01*
X0461955Y0270510D01*
X0461803Y0270553D01*
X0461652Y0270600D01*
X0461502Y0270651D01*
X0461353Y0270706D01*
X0461206Y0270764D01*
X0461060Y0270826D01*
X0460916Y0270891D01*
X0460774Y0270961D01*
X0460633Y0271033D01*
X0460494Y0271110D01*
X0460358Y0271189D01*
X0460223Y0271273D01*
X0460090Y0271359D01*
X0459960Y0271449D01*
X0459832Y0271542D01*
X0459706Y0271638D01*
X0459583Y0271738D01*
X0459462Y0271840D01*
X0459344Y0271945D01*
X0459229Y0272054D01*
X0459116Y0272165D01*
X0459006Y0272279D01*
X0458899Y0272396D01*
X0458795Y0272515D01*
X0458694Y0272637D01*
X0458597Y0272762D01*
X0458502Y0272889D01*
X0458411Y0273018D01*
X0458322Y0273149D01*
X0458238Y0273283D01*
X0458156Y0273419D01*
X0458078Y0273556D01*
X0458004Y0273696D01*
X0457933Y0273838D01*
X0457865Y0273981D01*
X0457801Y0274126D01*
X0457741Y0274272D01*
X0457685Y0274420D01*
X0457632Y0274569D01*
X0457583Y0274720D01*
X0457538Y0274872D01*
X0457497Y0275025D01*
X0457459Y0275178D01*
X0457426Y0275333D01*
X0457396Y0275489D01*
X0457370Y0275645D01*
X0457349Y0275802D01*
X0457331Y0275959D01*
X0457317Y0276117D01*
X0457307Y0276275D01*
X0457301Y0276433D01*
X0457299Y0276591D01*
X0457299Y0119110D02*
X0457301Y0119268D01*
X0457307Y0119426D01*
X0457317Y0119584D01*
X0457331Y0119742D01*
X0457349Y0119899D01*
X0457370Y0120056D01*
X0457396Y0120212D01*
X0457426Y0120368D01*
X0457459Y0120523D01*
X0457497Y0120676D01*
X0457538Y0120829D01*
X0457583Y0120981D01*
X0457632Y0121132D01*
X0457685Y0121281D01*
X0457741Y0121429D01*
X0457801Y0121575D01*
X0457865Y0121720D01*
X0457933Y0121863D01*
X0458004Y0122005D01*
X0458078Y0122145D01*
X0458156Y0122282D01*
X0458238Y0122418D01*
X0458322Y0122552D01*
X0458411Y0122683D01*
X0458502Y0122812D01*
X0458597Y0122939D01*
X0458694Y0123064D01*
X0458795Y0123186D01*
X0458899Y0123305D01*
X0459006Y0123422D01*
X0459116Y0123536D01*
X0459229Y0123647D01*
X0459344Y0123756D01*
X0459462Y0123861D01*
X0459583Y0123963D01*
X0459706Y0124063D01*
X0459832Y0124159D01*
X0459960Y0124252D01*
X0460090Y0124342D01*
X0460223Y0124428D01*
X0460358Y0124512D01*
X0460494Y0124591D01*
X0460633Y0124668D01*
X0460774Y0124740D01*
X0460916Y0124810D01*
X0461060Y0124875D01*
X0461206Y0124937D01*
X0461353Y0124995D01*
X0461502Y0125050D01*
X0461652Y0125101D01*
X0461803Y0125148D01*
X0461955Y0125191D01*
X0462108Y0125230D01*
X0462263Y0125266D01*
X0462418Y0125297D01*
X0462574Y0125325D01*
X0462730Y0125349D01*
X0462887Y0125369D01*
X0463045Y0125385D01*
X0463202Y0125397D01*
X0463361Y0125405D01*
X0463519Y0125409D01*
X0463677Y0125409D01*
X0463835Y0125405D01*
X0463994Y0125397D01*
X0464151Y0125385D01*
X0464309Y0125369D01*
X0464466Y0125349D01*
X0464622Y0125325D01*
X0464778Y0125297D01*
X0464933Y0125266D01*
X0465088Y0125230D01*
X0465241Y0125191D01*
X0465393Y0125148D01*
X0465544Y0125101D01*
X0465694Y0125050D01*
X0465843Y0124995D01*
X0465990Y0124937D01*
X0466136Y0124875D01*
X0466280Y0124810D01*
X0466422Y0124740D01*
X0466563Y0124668D01*
X0466702Y0124591D01*
X0466838Y0124512D01*
X0466973Y0124428D01*
X0467106Y0124342D01*
X0467236Y0124252D01*
X0467364Y0124159D01*
X0467490Y0124063D01*
X0467613Y0123963D01*
X0467734Y0123861D01*
X0467852Y0123756D01*
X0467967Y0123647D01*
X0468080Y0123536D01*
X0468190Y0123422D01*
X0468297Y0123305D01*
X0468401Y0123186D01*
X0468502Y0123064D01*
X0468599Y0122939D01*
X0468694Y0122812D01*
X0468785Y0122683D01*
X0468874Y0122552D01*
X0468958Y0122418D01*
X0469040Y0122282D01*
X0469118Y0122145D01*
X0469192Y0122005D01*
X0469263Y0121863D01*
X0469331Y0121720D01*
X0469395Y0121575D01*
X0469455Y0121429D01*
X0469511Y0121281D01*
X0469564Y0121132D01*
X0469613Y0120981D01*
X0469658Y0120829D01*
X0469699Y0120676D01*
X0469737Y0120523D01*
X0469770Y0120368D01*
X0469800Y0120212D01*
X0469826Y0120056D01*
X0469847Y0119899D01*
X0469865Y0119742D01*
X0469879Y0119584D01*
X0469889Y0119426D01*
X0469895Y0119268D01*
X0469897Y0119110D01*
X0469895Y0118952D01*
X0469889Y0118794D01*
X0469879Y0118636D01*
X0469865Y0118478D01*
X0469847Y0118321D01*
X0469826Y0118164D01*
X0469800Y0118008D01*
X0469770Y0117852D01*
X0469737Y0117697D01*
X0469699Y0117544D01*
X0469658Y0117391D01*
X0469613Y0117239D01*
X0469564Y0117088D01*
X0469511Y0116939D01*
X0469455Y0116791D01*
X0469395Y0116645D01*
X0469331Y0116500D01*
X0469263Y0116357D01*
X0469192Y0116215D01*
X0469118Y0116075D01*
X0469040Y0115938D01*
X0468958Y0115802D01*
X0468874Y0115668D01*
X0468785Y0115537D01*
X0468694Y0115408D01*
X0468599Y0115281D01*
X0468502Y0115156D01*
X0468401Y0115034D01*
X0468297Y0114915D01*
X0468190Y0114798D01*
X0468080Y0114684D01*
X0467967Y0114573D01*
X0467852Y0114464D01*
X0467734Y0114359D01*
X0467613Y0114257D01*
X0467490Y0114157D01*
X0467364Y0114061D01*
X0467236Y0113968D01*
X0467106Y0113878D01*
X0466973Y0113792D01*
X0466838Y0113708D01*
X0466702Y0113629D01*
X0466563Y0113552D01*
X0466422Y0113480D01*
X0466280Y0113410D01*
X0466136Y0113345D01*
X0465990Y0113283D01*
X0465843Y0113225D01*
X0465694Y0113170D01*
X0465544Y0113119D01*
X0465393Y0113072D01*
X0465241Y0113029D01*
X0465088Y0112990D01*
X0464933Y0112954D01*
X0464778Y0112923D01*
X0464622Y0112895D01*
X0464466Y0112871D01*
X0464309Y0112851D01*
X0464151Y0112835D01*
X0463994Y0112823D01*
X0463835Y0112815D01*
X0463677Y0112811D01*
X0463519Y0112811D01*
X0463361Y0112815D01*
X0463202Y0112823D01*
X0463045Y0112835D01*
X0462887Y0112851D01*
X0462730Y0112871D01*
X0462574Y0112895D01*
X0462418Y0112923D01*
X0462263Y0112954D01*
X0462108Y0112990D01*
X0461955Y0113029D01*
X0461803Y0113072D01*
X0461652Y0113119D01*
X0461502Y0113170D01*
X0461353Y0113225D01*
X0461206Y0113283D01*
X0461060Y0113345D01*
X0460916Y0113410D01*
X0460774Y0113480D01*
X0460633Y0113552D01*
X0460494Y0113629D01*
X0460358Y0113708D01*
X0460223Y0113792D01*
X0460090Y0113878D01*
X0459960Y0113968D01*
X0459832Y0114061D01*
X0459706Y0114157D01*
X0459583Y0114257D01*
X0459462Y0114359D01*
X0459344Y0114464D01*
X0459229Y0114573D01*
X0459116Y0114684D01*
X0459006Y0114798D01*
X0458899Y0114915D01*
X0458795Y0115034D01*
X0458694Y0115156D01*
X0458597Y0115281D01*
X0458502Y0115408D01*
X0458411Y0115537D01*
X0458322Y0115668D01*
X0458238Y0115802D01*
X0458156Y0115938D01*
X0458078Y0116075D01*
X0458004Y0116215D01*
X0457933Y0116357D01*
X0457865Y0116500D01*
X0457801Y0116645D01*
X0457741Y0116791D01*
X0457685Y0116939D01*
X0457632Y0117088D01*
X0457583Y0117239D01*
X0457538Y0117391D01*
X0457497Y0117544D01*
X0457459Y0117697D01*
X0457426Y0117852D01*
X0457396Y0118008D01*
X0457370Y0118164D01*
X0457349Y0118321D01*
X0457331Y0118478D01*
X0457317Y0118636D01*
X0457307Y0118794D01*
X0457301Y0118952D01*
X0457299Y0119110D01*
D11*
X0450098Y0119110D02*
X0450102Y0119441D01*
X0450114Y0119772D01*
X0450135Y0120103D01*
X0450163Y0120433D01*
X0450200Y0120763D01*
X0450244Y0121091D01*
X0450297Y0121418D01*
X0450357Y0121744D01*
X0450426Y0122068D01*
X0450503Y0122390D01*
X0450587Y0122711D01*
X0450679Y0123029D01*
X0450779Y0123345D01*
X0450887Y0123658D01*
X0451003Y0123969D01*
X0451126Y0124276D01*
X0451256Y0124581D01*
X0451394Y0124882D01*
X0451539Y0125180D01*
X0451692Y0125474D01*
X0451852Y0125764D01*
X0452019Y0126050D01*
X0452192Y0126332D01*
X0452373Y0126610D01*
X0452561Y0126883D01*
X0452755Y0127152D01*
X0452955Y0127416D01*
X0453162Y0127674D01*
X0453376Y0127928D01*
X0453595Y0128176D01*
X0453821Y0128419D01*
X0454052Y0128656D01*
X0454289Y0128887D01*
X0454532Y0129113D01*
X0454780Y0129332D01*
X0455034Y0129546D01*
X0455292Y0129753D01*
X0455556Y0129953D01*
X0455825Y0130147D01*
X0456098Y0130335D01*
X0456376Y0130516D01*
X0456658Y0130689D01*
X0456944Y0130856D01*
X0457234Y0131016D01*
X0457528Y0131169D01*
X0457826Y0131314D01*
X0458127Y0131452D01*
X0458432Y0131582D01*
X0458739Y0131705D01*
X0459050Y0131821D01*
X0459363Y0131929D01*
X0459679Y0132029D01*
X0459997Y0132121D01*
X0460318Y0132205D01*
X0460640Y0132282D01*
X0460964Y0132351D01*
X0461290Y0132411D01*
X0461617Y0132464D01*
X0461945Y0132508D01*
X0462275Y0132545D01*
X0462605Y0132573D01*
X0462936Y0132594D01*
X0463267Y0132606D01*
X0463598Y0132610D01*
X0463929Y0132606D01*
X0464260Y0132594D01*
X0464591Y0132573D01*
X0464921Y0132545D01*
X0465251Y0132508D01*
X0465579Y0132464D01*
X0465906Y0132411D01*
X0466232Y0132351D01*
X0466556Y0132282D01*
X0466878Y0132205D01*
X0467199Y0132121D01*
X0467517Y0132029D01*
X0467833Y0131929D01*
X0468146Y0131821D01*
X0468457Y0131705D01*
X0468764Y0131582D01*
X0469069Y0131452D01*
X0469370Y0131314D01*
X0469668Y0131169D01*
X0469962Y0131016D01*
X0470252Y0130856D01*
X0470538Y0130689D01*
X0470820Y0130516D01*
X0471098Y0130335D01*
X0471371Y0130147D01*
X0471640Y0129953D01*
X0471904Y0129753D01*
X0472162Y0129546D01*
X0472416Y0129332D01*
X0472664Y0129113D01*
X0472907Y0128887D01*
X0473144Y0128656D01*
X0473375Y0128419D01*
X0473601Y0128176D01*
X0473820Y0127928D01*
X0474034Y0127674D01*
X0474241Y0127416D01*
X0474441Y0127152D01*
X0474635Y0126883D01*
X0474823Y0126610D01*
X0475004Y0126332D01*
X0475177Y0126050D01*
X0475344Y0125764D01*
X0475504Y0125474D01*
X0475657Y0125180D01*
X0475802Y0124882D01*
X0475940Y0124581D01*
X0476070Y0124276D01*
X0476193Y0123969D01*
X0476309Y0123658D01*
X0476417Y0123345D01*
X0476517Y0123029D01*
X0476609Y0122711D01*
X0476693Y0122390D01*
X0476770Y0122068D01*
X0476839Y0121744D01*
X0476899Y0121418D01*
X0476952Y0121091D01*
X0476996Y0120763D01*
X0477033Y0120433D01*
X0477061Y0120103D01*
X0477082Y0119772D01*
X0477094Y0119441D01*
X0477098Y0119110D01*
X0477094Y0118779D01*
X0477082Y0118448D01*
X0477061Y0118117D01*
X0477033Y0117787D01*
X0476996Y0117457D01*
X0476952Y0117129D01*
X0476899Y0116802D01*
X0476839Y0116476D01*
X0476770Y0116152D01*
X0476693Y0115830D01*
X0476609Y0115509D01*
X0476517Y0115191D01*
X0476417Y0114875D01*
X0476309Y0114562D01*
X0476193Y0114251D01*
X0476070Y0113944D01*
X0475940Y0113639D01*
X0475802Y0113338D01*
X0475657Y0113040D01*
X0475504Y0112746D01*
X0475344Y0112456D01*
X0475177Y0112170D01*
X0475004Y0111888D01*
X0474823Y0111610D01*
X0474635Y0111337D01*
X0474441Y0111068D01*
X0474241Y0110804D01*
X0474034Y0110546D01*
X0473820Y0110292D01*
X0473601Y0110044D01*
X0473375Y0109801D01*
X0473144Y0109564D01*
X0472907Y0109333D01*
X0472664Y0109107D01*
X0472416Y0108888D01*
X0472162Y0108674D01*
X0471904Y0108467D01*
X0471640Y0108267D01*
X0471371Y0108073D01*
X0471098Y0107885D01*
X0470820Y0107704D01*
X0470538Y0107531D01*
X0470252Y0107364D01*
X0469962Y0107204D01*
X0469668Y0107051D01*
X0469370Y0106906D01*
X0469069Y0106768D01*
X0468764Y0106638D01*
X0468457Y0106515D01*
X0468146Y0106399D01*
X0467833Y0106291D01*
X0467517Y0106191D01*
X0467199Y0106099D01*
X0466878Y0106015D01*
X0466556Y0105938D01*
X0466232Y0105869D01*
X0465906Y0105809D01*
X0465579Y0105756D01*
X0465251Y0105712D01*
X0464921Y0105675D01*
X0464591Y0105647D01*
X0464260Y0105626D01*
X0463929Y0105614D01*
X0463598Y0105610D01*
X0463267Y0105614D01*
X0462936Y0105626D01*
X0462605Y0105647D01*
X0462275Y0105675D01*
X0461945Y0105712D01*
X0461617Y0105756D01*
X0461290Y0105809D01*
X0460964Y0105869D01*
X0460640Y0105938D01*
X0460318Y0106015D01*
X0459997Y0106099D01*
X0459679Y0106191D01*
X0459363Y0106291D01*
X0459050Y0106399D01*
X0458739Y0106515D01*
X0458432Y0106638D01*
X0458127Y0106768D01*
X0457826Y0106906D01*
X0457528Y0107051D01*
X0457234Y0107204D01*
X0456944Y0107364D01*
X0456658Y0107531D01*
X0456376Y0107704D01*
X0456098Y0107885D01*
X0455825Y0108073D01*
X0455556Y0108267D01*
X0455292Y0108467D01*
X0455034Y0108674D01*
X0454780Y0108888D01*
X0454532Y0109107D01*
X0454289Y0109333D01*
X0454052Y0109564D01*
X0453821Y0109801D01*
X0453595Y0110044D01*
X0453376Y0110292D01*
X0453162Y0110546D01*
X0452955Y0110804D01*
X0452755Y0111068D01*
X0452561Y0111337D01*
X0452373Y0111610D01*
X0452192Y0111888D01*
X0452019Y0112170D01*
X0451852Y0112456D01*
X0451692Y0112746D01*
X0451539Y0113040D01*
X0451394Y0113338D01*
X0451256Y0113639D01*
X0451126Y0113944D01*
X0451003Y0114251D01*
X0450887Y0114562D01*
X0450779Y0114875D01*
X0450679Y0115191D01*
X0450587Y0115509D01*
X0450503Y0115830D01*
X0450426Y0116152D01*
X0450357Y0116476D01*
X0450297Y0116802D01*
X0450244Y0117129D01*
X0450200Y0117457D01*
X0450163Y0117787D01*
X0450135Y0118117D01*
X0450114Y0118448D01*
X0450102Y0118779D01*
X0450098Y0119110D01*
X0512727Y0177126D02*
X0512727Y0204126D01*
X0512729Y0204186D01*
X0512734Y0204247D01*
X0512743Y0204306D01*
X0512756Y0204365D01*
X0512772Y0204424D01*
X0512792Y0204481D01*
X0512815Y0204536D01*
X0512842Y0204591D01*
X0512871Y0204643D01*
X0512904Y0204694D01*
X0512940Y0204743D01*
X0512978Y0204789D01*
X0513020Y0204833D01*
X0513064Y0204875D01*
X0513110Y0204913D01*
X0513159Y0204949D01*
X0513210Y0204982D01*
X0513262Y0205011D01*
X0513317Y0205038D01*
X0513372Y0205061D01*
X0513429Y0205081D01*
X0513488Y0205097D01*
X0513547Y0205110D01*
X0513606Y0205119D01*
X0513667Y0205124D01*
X0513727Y0205126D01*
X0521727Y0205126D01*
X0521787Y0205124D01*
X0521848Y0205119D01*
X0521907Y0205110D01*
X0521966Y0205097D01*
X0522025Y0205081D01*
X0522082Y0205061D01*
X0522137Y0205038D01*
X0522192Y0205011D01*
X0522244Y0204982D01*
X0522295Y0204949D01*
X0522344Y0204913D01*
X0522390Y0204875D01*
X0522434Y0204833D01*
X0522476Y0204789D01*
X0522514Y0204743D01*
X0522550Y0204694D01*
X0522583Y0204643D01*
X0522612Y0204591D01*
X0522639Y0204536D01*
X0522662Y0204481D01*
X0522682Y0204424D01*
X0522698Y0204365D01*
X0522711Y0204306D01*
X0522720Y0204247D01*
X0522725Y0204186D01*
X0522727Y0204126D01*
X0522727Y0177126D01*
X0522725Y0177066D01*
X0522720Y0177005D01*
X0522711Y0176946D01*
X0522698Y0176887D01*
X0522682Y0176828D01*
X0522662Y0176771D01*
X0522639Y0176716D01*
X0522612Y0176661D01*
X0522583Y0176609D01*
X0522550Y0176558D01*
X0522514Y0176509D01*
X0522476Y0176463D01*
X0522434Y0176419D01*
X0522390Y0176377D01*
X0522344Y0176339D01*
X0522295Y0176303D01*
X0522244Y0176270D01*
X0522192Y0176241D01*
X0522137Y0176214D01*
X0522082Y0176191D01*
X0522025Y0176171D01*
X0521966Y0176155D01*
X0521907Y0176142D01*
X0521848Y0176133D01*
X0521787Y0176128D01*
X0521727Y0176126D01*
X0513727Y0176126D01*
X0513667Y0176128D01*
X0513606Y0176133D01*
X0513547Y0176142D01*
X0513488Y0176155D01*
X0513429Y0176171D01*
X0513372Y0176191D01*
X0513317Y0176214D01*
X0513262Y0176241D01*
X0513210Y0176270D01*
X0513159Y0176303D01*
X0513110Y0176339D01*
X0513064Y0176377D01*
X0513020Y0176419D01*
X0512978Y0176463D01*
X0512940Y0176509D01*
X0512904Y0176558D01*
X0512871Y0176609D01*
X0512842Y0176661D01*
X0512815Y0176716D01*
X0512792Y0176771D01*
X0512772Y0176828D01*
X0512756Y0176887D01*
X0512743Y0176946D01*
X0512734Y0177005D01*
X0512729Y0177066D01*
X0512727Y0177126D01*
X0517727Y0184626D02*
X0517727Y0189426D01*
X0517727Y0191926D02*
X0517727Y0196626D01*
X0450098Y0276591D02*
X0450102Y0276922D01*
X0450114Y0277253D01*
X0450135Y0277584D01*
X0450163Y0277914D01*
X0450200Y0278244D01*
X0450244Y0278572D01*
X0450297Y0278899D01*
X0450357Y0279225D01*
X0450426Y0279549D01*
X0450503Y0279871D01*
X0450587Y0280192D01*
X0450679Y0280510D01*
X0450779Y0280826D01*
X0450887Y0281139D01*
X0451003Y0281450D01*
X0451126Y0281757D01*
X0451256Y0282062D01*
X0451394Y0282363D01*
X0451539Y0282661D01*
X0451692Y0282955D01*
X0451852Y0283245D01*
X0452019Y0283531D01*
X0452192Y0283813D01*
X0452373Y0284091D01*
X0452561Y0284364D01*
X0452755Y0284633D01*
X0452955Y0284897D01*
X0453162Y0285155D01*
X0453376Y0285409D01*
X0453595Y0285657D01*
X0453821Y0285900D01*
X0454052Y0286137D01*
X0454289Y0286368D01*
X0454532Y0286594D01*
X0454780Y0286813D01*
X0455034Y0287027D01*
X0455292Y0287234D01*
X0455556Y0287434D01*
X0455825Y0287628D01*
X0456098Y0287816D01*
X0456376Y0287997D01*
X0456658Y0288170D01*
X0456944Y0288337D01*
X0457234Y0288497D01*
X0457528Y0288650D01*
X0457826Y0288795D01*
X0458127Y0288933D01*
X0458432Y0289063D01*
X0458739Y0289186D01*
X0459050Y0289302D01*
X0459363Y0289410D01*
X0459679Y0289510D01*
X0459997Y0289602D01*
X0460318Y0289686D01*
X0460640Y0289763D01*
X0460964Y0289832D01*
X0461290Y0289892D01*
X0461617Y0289945D01*
X0461945Y0289989D01*
X0462275Y0290026D01*
X0462605Y0290054D01*
X0462936Y0290075D01*
X0463267Y0290087D01*
X0463598Y0290091D01*
X0463929Y0290087D01*
X0464260Y0290075D01*
X0464591Y0290054D01*
X0464921Y0290026D01*
X0465251Y0289989D01*
X0465579Y0289945D01*
X0465906Y0289892D01*
X0466232Y0289832D01*
X0466556Y0289763D01*
X0466878Y0289686D01*
X0467199Y0289602D01*
X0467517Y0289510D01*
X0467833Y0289410D01*
X0468146Y0289302D01*
X0468457Y0289186D01*
X0468764Y0289063D01*
X0469069Y0288933D01*
X0469370Y0288795D01*
X0469668Y0288650D01*
X0469962Y0288497D01*
X0470252Y0288337D01*
X0470538Y0288170D01*
X0470820Y0287997D01*
X0471098Y0287816D01*
X0471371Y0287628D01*
X0471640Y0287434D01*
X0471904Y0287234D01*
X0472162Y0287027D01*
X0472416Y0286813D01*
X0472664Y0286594D01*
X0472907Y0286368D01*
X0473144Y0286137D01*
X0473375Y0285900D01*
X0473601Y0285657D01*
X0473820Y0285409D01*
X0474034Y0285155D01*
X0474241Y0284897D01*
X0474441Y0284633D01*
X0474635Y0284364D01*
X0474823Y0284091D01*
X0475004Y0283813D01*
X0475177Y0283531D01*
X0475344Y0283245D01*
X0475504Y0282955D01*
X0475657Y0282661D01*
X0475802Y0282363D01*
X0475940Y0282062D01*
X0476070Y0281757D01*
X0476193Y0281450D01*
X0476309Y0281139D01*
X0476417Y0280826D01*
X0476517Y0280510D01*
X0476609Y0280192D01*
X0476693Y0279871D01*
X0476770Y0279549D01*
X0476839Y0279225D01*
X0476899Y0278899D01*
X0476952Y0278572D01*
X0476996Y0278244D01*
X0477033Y0277914D01*
X0477061Y0277584D01*
X0477082Y0277253D01*
X0477094Y0276922D01*
X0477098Y0276591D01*
X0477094Y0276260D01*
X0477082Y0275929D01*
X0477061Y0275598D01*
X0477033Y0275268D01*
X0476996Y0274938D01*
X0476952Y0274610D01*
X0476899Y0274283D01*
X0476839Y0273957D01*
X0476770Y0273633D01*
X0476693Y0273311D01*
X0476609Y0272990D01*
X0476517Y0272672D01*
X0476417Y0272356D01*
X0476309Y0272043D01*
X0476193Y0271732D01*
X0476070Y0271425D01*
X0475940Y0271120D01*
X0475802Y0270819D01*
X0475657Y0270521D01*
X0475504Y0270227D01*
X0475344Y0269937D01*
X0475177Y0269651D01*
X0475004Y0269369D01*
X0474823Y0269091D01*
X0474635Y0268818D01*
X0474441Y0268549D01*
X0474241Y0268285D01*
X0474034Y0268027D01*
X0473820Y0267773D01*
X0473601Y0267525D01*
X0473375Y0267282D01*
X0473144Y0267045D01*
X0472907Y0266814D01*
X0472664Y0266588D01*
X0472416Y0266369D01*
X0472162Y0266155D01*
X0471904Y0265948D01*
X0471640Y0265748D01*
X0471371Y0265554D01*
X0471098Y0265366D01*
X0470820Y0265185D01*
X0470538Y0265012D01*
X0470252Y0264845D01*
X0469962Y0264685D01*
X0469668Y0264532D01*
X0469370Y0264387D01*
X0469069Y0264249D01*
X0468764Y0264119D01*
X0468457Y0263996D01*
X0468146Y0263880D01*
X0467833Y0263772D01*
X0467517Y0263672D01*
X0467199Y0263580D01*
X0466878Y0263496D01*
X0466556Y0263419D01*
X0466232Y0263350D01*
X0465906Y0263290D01*
X0465579Y0263237D01*
X0465251Y0263193D01*
X0464921Y0263156D01*
X0464591Y0263128D01*
X0464260Y0263107D01*
X0463929Y0263095D01*
X0463598Y0263091D01*
X0463267Y0263095D01*
X0462936Y0263107D01*
X0462605Y0263128D01*
X0462275Y0263156D01*
X0461945Y0263193D01*
X0461617Y0263237D01*
X0461290Y0263290D01*
X0460964Y0263350D01*
X0460640Y0263419D01*
X0460318Y0263496D01*
X0459997Y0263580D01*
X0459679Y0263672D01*
X0459363Y0263772D01*
X0459050Y0263880D01*
X0458739Y0263996D01*
X0458432Y0264119D01*
X0458127Y0264249D01*
X0457826Y0264387D01*
X0457528Y0264532D01*
X0457234Y0264685D01*
X0456944Y0264845D01*
X0456658Y0265012D01*
X0456376Y0265185D01*
X0456098Y0265366D01*
X0455825Y0265554D01*
X0455556Y0265748D01*
X0455292Y0265948D01*
X0455034Y0266155D01*
X0454780Y0266369D01*
X0454532Y0266588D01*
X0454289Y0266814D01*
X0454052Y0267045D01*
X0453821Y0267282D01*
X0453595Y0267525D01*
X0453376Y0267773D01*
X0453162Y0268027D01*
X0452955Y0268285D01*
X0452755Y0268549D01*
X0452561Y0268818D01*
X0452373Y0269091D01*
X0452192Y0269369D01*
X0452019Y0269651D01*
X0451852Y0269937D01*
X0451692Y0270227D01*
X0451539Y0270521D01*
X0451394Y0270819D01*
X0451256Y0271120D01*
X0451126Y0271425D01*
X0451003Y0271732D01*
X0450887Y0272043D01*
X0450779Y0272356D01*
X0450679Y0272672D01*
X0450587Y0272990D01*
X0450503Y0273311D01*
X0450426Y0273633D01*
X0450357Y0273957D01*
X0450297Y0274283D01*
X0450244Y0274610D01*
X0450200Y0274938D01*
X0450163Y0275268D01*
X0450135Y0275598D01*
X0450114Y0275929D01*
X0450102Y0276260D01*
X0450098Y0276591D01*
X0512806Y0335409D02*
X0512806Y0362409D01*
X0512808Y0362469D01*
X0512813Y0362530D01*
X0512822Y0362589D01*
X0512835Y0362648D01*
X0512851Y0362707D01*
X0512871Y0362764D01*
X0512894Y0362819D01*
X0512921Y0362874D01*
X0512950Y0362926D01*
X0512983Y0362977D01*
X0513019Y0363026D01*
X0513057Y0363072D01*
X0513099Y0363116D01*
X0513143Y0363158D01*
X0513189Y0363196D01*
X0513238Y0363232D01*
X0513289Y0363265D01*
X0513341Y0363294D01*
X0513396Y0363321D01*
X0513451Y0363344D01*
X0513508Y0363364D01*
X0513567Y0363380D01*
X0513626Y0363393D01*
X0513685Y0363402D01*
X0513746Y0363407D01*
X0513806Y0363409D01*
X0521806Y0363409D01*
X0521866Y0363407D01*
X0521927Y0363402D01*
X0521986Y0363393D01*
X0522045Y0363380D01*
X0522104Y0363364D01*
X0522161Y0363344D01*
X0522216Y0363321D01*
X0522271Y0363294D01*
X0522323Y0363265D01*
X0522374Y0363232D01*
X0522423Y0363196D01*
X0522469Y0363158D01*
X0522513Y0363116D01*
X0522555Y0363072D01*
X0522593Y0363026D01*
X0522629Y0362977D01*
X0522662Y0362926D01*
X0522691Y0362874D01*
X0522718Y0362819D01*
X0522741Y0362764D01*
X0522761Y0362707D01*
X0522777Y0362648D01*
X0522790Y0362589D01*
X0522799Y0362530D01*
X0522804Y0362469D01*
X0522806Y0362409D01*
X0522806Y0335409D01*
X0522804Y0335349D01*
X0522799Y0335288D01*
X0522790Y0335229D01*
X0522777Y0335170D01*
X0522761Y0335111D01*
X0522741Y0335054D01*
X0522718Y0334999D01*
X0522691Y0334944D01*
X0522662Y0334892D01*
X0522629Y0334841D01*
X0522593Y0334792D01*
X0522555Y0334746D01*
X0522513Y0334702D01*
X0522469Y0334660D01*
X0522423Y0334622D01*
X0522374Y0334586D01*
X0522323Y0334553D01*
X0522271Y0334524D01*
X0522216Y0334497D01*
X0522161Y0334474D01*
X0522104Y0334454D01*
X0522045Y0334438D01*
X0521986Y0334425D01*
X0521927Y0334416D01*
X0521866Y0334411D01*
X0521806Y0334409D01*
X0513806Y0334409D01*
X0513746Y0334411D01*
X0513685Y0334416D01*
X0513626Y0334425D01*
X0513567Y0334438D01*
X0513508Y0334454D01*
X0513451Y0334474D01*
X0513396Y0334497D01*
X0513341Y0334524D01*
X0513289Y0334553D01*
X0513238Y0334586D01*
X0513189Y0334622D01*
X0513143Y0334660D01*
X0513099Y0334702D01*
X0513057Y0334746D01*
X0513019Y0334792D01*
X0512983Y0334841D01*
X0512950Y0334892D01*
X0512921Y0334944D01*
X0512894Y0334999D01*
X0512871Y0335054D01*
X0512851Y0335111D01*
X0512835Y0335170D01*
X0512822Y0335229D01*
X0512813Y0335288D01*
X0512808Y0335349D01*
X0512806Y0335409D01*
X0517806Y0342909D02*
X0517806Y0347709D01*
X0517806Y0350209D02*
X0517806Y0354909D01*
X0365107Y0362101D02*
X0365107Y0335101D01*
X0365105Y0335041D01*
X0365100Y0334980D01*
X0365091Y0334921D01*
X0365078Y0334862D01*
X0365062Y0334803D01*
X0365042Y0334746D01*
X0365019Y0334691D01*
X0364992Y0334636D01*
X0364963Y0334584D01*
X0364930Y0334533D01*
X0364894Y0334484D01*
X0364856Y0334438D01*
X0364814Y0334394D01*
X0364770Y0334352D01*
X0364724Y0334314D01*
X0364675Y0334278D01*
X0364624Y0334245D01*
X0364572Y0334216D01*
X0364517Y0334189D01*
X0364462Y0334166D01*
X0364405Y0334146D01*
X0364346Y0334130D01*
X0364287Y0334117D01*
X0364228Y0334108D01*
X0364167Y0334103D01*
X0364107Y0334101D01*
X0356107Y0334101D01*
X0356047Y0334103D01*
X0355986Y0334108D01*
X0355927Y0334117D01*
X0355868Y0334130D01*
X0355809Y0334146D01*
X0355752Y0334166D01*
X0355697Y0334189D01*
X0355642Y0334216D01*
X0355590Y0334245D01*
X0355539Y0334278D01*
X0355490Y0334314D01*
X0355444Y0334352D01*
X0355400Y0334394D01*
X0355358Y0334438D01*
X0355320Y0334484D01*
X0355284Y0334533D01*
X0355251Y0334584D01*
X0355222Y0334636D01*
X0355195Y0334691D01*
X0355172Y0334746D01*
X0355152Y0334803D01*
X0355136Y0334862D01*
X0355123Y0334921D01*
X0355114Y0334980D01*
X0355109Y0335041D01*
X0355107Y0335101D01*
X0355107Y0362101D01*
X0355109Y0362161D01*
X0355114Y0362222D01*
X0355123Y0362281D01*
X0355136Y0362340D01*
X0355152Y0362399D01*
X0355172Y0362456D01*
X0355195Y0362511D01*
X0355222Y0362566D01*
X0355251Y0362618D01*
X0355284Y0362669D01*
X0355320Y0362718D01*
X0355358Y0362764D01*
X0355400Y0362808D01*
X0355444Y0362850D01*
X0355490Y0362888D01*
X0355539Y0362924D01*
X0355590Y0362957D01*
X0355642Y0362986D01*
X0355697Y0363013D01*
X0355752Y0363036D01*
X0355809Y0363056D01*
X0355868Y0363072D01*
X0355927Y0363085D01*
X0355986Y0363094D01*
X0356047Y0363099D01*
X0356107Y0363101D01*
X0364107Y0363101D01*
X0364167Y0363099D01*
X0364228Y0363094D01*
X0364287Y0363085D01*
X0364346Y0363072D01*
X0364405Y0363056D01*
X0364462Y0363036D01*
X0364517Y0363013D01*
X0364572Y0362986D01*
X0364624Y0362957D01*
X0364675Y0362924D01*
X0364724Y0362888D01*
X0364770Y0362850D01*
X0364814Y0362808D01*
X0364856Y0362764D01*
X0364894Y0362718D01*
X0364930Y0362669D01*
X0364963Y0362618D01*
X0364992Y0362566D01*
X0365019Y0362511D01*
X0365042Y0362456D01*
X0365062Y0362399D01*
X0365078Y0362340D01*
X0365091Y0362281D01*
X0365100Y0362222D01*
X0365105Y0362161D01*
X0365107Y0362101D01*
X0360107Y0354601D02*
X0360107Y0349901D01*
X0360107Y0347401D02*
X0360107Y0342601D01*
X0207933Y0335249D02*
X0207933Y0362249D01*
X0207931Y0362309D01*
X0207926Y0362370D01*
X0207917Y0362429D01*
X0207904Y0362488D01*
X0207888Y0362547D01*
X0207868Y0362604D01*
X0207845Y0362659D01*
X0207818Y0362714D01*
X0207789Y0362766D01*
X0207756Y0362817D01*
X0207720Y0362866D01*
X0207682Y0362912D01*
X0207640Y0362956D01*
X0207596Y0362998D01*
X0207550Y0363036D01*
X0207501Y0363072D01*
X0207450Y0363105D01*
X0207398Y0363134D01*
X0207343Y0363161D01*
X0207288Y0363184D01*
X0207231Y0363204D01*
X0207172Y0363220D01*
X0207113Y0363233D01*
X0207054Y0363242D01*
X0206993Y0363247D01*
X0206933Y0363249D01*
X0198933Y0363249D01*
X0198873Y0363247D01*
X0198812Y0363242D01*
X0198753Y0363233D01*
X0198694Y0363220D01*
X0198635Y0363204D01*
X0198578Y0363184D01*
X0198523Y0363161D01*
X0198468Y0363134D01*
X0198416Y0363105D01*
X0198365Y0363072D01*
X0198316Y0363036D01*
X0198270Y0362998D01*
X0198226Y0362956D01*
X0198184Y0362912D01*
X0198146Y0362866D01*
X0198110Y0362817D01*
X0198077Y0362766D01*
X0198048Y0362714D01*
X0198021Y0362659D01*
X0197998Y0362604D01*
X0197978Y0362547D01*
X0197962Y0362488D01*
X0197949Y0362429D01*
X0197940Y0362370D01*
X0197935Y0362309D01*
X0197933Y0362249D01*
X0197933Y0335249D01*
X0197935Y0335189D01*
X0197940Y0335128D01*
X0197949Y0335069D01*
X0197962Y0335010D01*
X0197978Y0334951D01*
X0197998Y0334894D01*
X0198021Y0334839D01*
X0198048Y0334784D01*
X0198077Y0334732D01*
X0198110Y0334681D01*
X0198146Y0334632D01*
X0198184Y0334586D01*
X0198226Y0334542D01*
X0198270Y0334500D01*
X0198316Y0334462D01*
X0198365Y0334426D01*
X0198416Y0334393D01*
X0198468Y0334364D01*
X0198523Y0334337D01*
X0198578Y0334314D01*
X0198635Y0334294D01*
X0198694Y0334278D01*
X0198753Y0334265D01*
X0198812Y0334256D01*
X0198873Y0334251D01*
X0198933Y0334249D01*
X0206933Y0334249D01*
X0206993Y0334251D01*
X0207054Y0334256D01*
X0207113Y0334265D01*
X0207172Y0334278D01*
X0207231Y0334294D01*
X0207288Y0334314D01*
X0207343Y0334337D01*
X0207398Y0334364D01*
X0207450Y0334393D01*
X0207501Y0334426D01*
X0207550Y0334462D01*
X0207596Y0334500D01*
X0207640Y0334542D01*
X0207682Y0334586D01*
X0207720Y0334632D01*
X0207756Y0334681D01*
X0207789Y0334732D01*
X0207818Y0334784D01*
X0207845Y0334839D01*
X0207868Y0334894D01*
X0207888Y0334951D01*
X0207904Y0335010D01*
X0207917Y0335069D01*
X0207926Y0335128D01*
X0207931Y0335189D01*
X0207933Y0335249D01*
X0202933Y0342749D02*
X0202933Y0347549D01*
X0202933Y0350049D02*
X0202933Y0354749D01*
X0101798Y0352464D02*
X0101798Y0379464D01*
X0101796Y0379524D01*
X0101791Y0379585D01*
X0101782Y0379644D01*
X0101769Y0379703D01*
X0101753Y0379762D01*
X0101733Y0379819D01*
X0101710Y0379874D01*
X0101683Y0379929D01*
X0101654Y0379981D01*
X0101621Y0380032D01*
X0101585Y0380081D01*
X0101547Y0380127D01*
X0101505Y0380171D01*
X0101461Y0380213D01*
X0101415Y0380251D01*
X0101366Y0380287D01*
X0101315Y0380320D01*
X0101263Y0380349D01*
X0101208Y0380376D01*
X0101153Y0380399D01*
X0101096Y0380419D01*
X0101037Y0380435D01*
X0100978Y0380448D01*
X0100919Y0380457D01*
X0100858Y0380462D01*
X0100798Y0380464D01*
X0092798Y0380464D01*
X0092738Y0380462D01*
X0092677Y0380457D01*
X0092618Y0380448D01*
X0092559Y0380435D01*
X0092500Y0380419D01*
X0092443Y0380399D01*
X0092388Y0380376D01*
X0092333Y0380349D01*
X0092281Y0380320D01*
X0092230Y0380287D01*
X0092181Y0380251D01*
X0092135Y0380213D01*
X0092091Y0380171D01*
X0092049Y0380127D01*
X0092011Y0380081D01*
X0091975Y0380032D01*
X0091942Y0379981D01*
X0091913Y0379929D01*
X0091886Y0379874D01*
X0091863Y0379819D01*
X0091843Y0379762D01*
X0091827Y0379703D01*
X0091814Y0379644D01*
X0091805Y0379585D01*
X0091800Y0379524D01*
X0091798Y0379464D01*
X0091798Y0352464D01*
X0091800Y0352404D01*
X0091805Y0352343D01*
X0091814Y0352284D01*
X0091827Y0352225D01*
X0091843Y0352166D01*
X0091863Y0352109D01*
X0091886Y0352054D01*
X0091913Y0351999D01*
X0091942Y0351947D01*
X0091975Y0351896D01*
X0092011Y0351847D01*
X0092049Y0351801D01*
X0092091Y0351757D01*
X0092135Y0351715D01*
X0092181Y0351677D01*
X0092230Y0351641D01*
X0092281Y0351608D01*
X0092333Y0351579D01*
X0092388Y0351552D01*
X0092443Y0351529D01*
X0092500Y0351509D01*
X0092559Y0351493D01*
X0092618Y0351480D01*
X0092677Y0351471D01*
X0092738Y0351466D01*
X0092798Y0351464D01*
X0100798Y0351464D01*
X0100858Y0351466D01*
X0100919Y0351471D01*
X0100978Y0351480D01*
X0101037Y0351493D01*
X0101096Y0351509D01*
X0101153Y0351529D01*
X0101208Y0351552D01*
X0101263Y0351579D01*
X0101315Y0351608D01*
X0101366Y0351641D01*
X0101415Y0351677D01*
X0101461Y0351715D01*
X0101505Y0351757D01*
X0101547Y0351801D01*
X0101585Y0351847D01*
X0101621Y0351896D01*
X0101654Y0351947D01*
X0101683Y0351999D01*
X0101710Y0352054D01*
X0101733Y0352109D01*
X0101753Y0352166D01*
X0101769Y0352225D01*
X0101782Y0352284D01*
X0101791Y0352343D01*
X0101796Y0352404D01*
X0101798Y0352464D01*
X0096798Y0359964D02*
X0096798Y0364764D01*
X0096798Y0367264D02*
X0096798Y0371964D01*
X0063716Y0332412D02*
X0063716Y0330912D01*
X0063216Y0330412D01*
X0063216Y0311412D01*
X0063716Y0310912D01*
X0063716Y0309412D01*
X0063714Y0309352D01*
X0063709Y0309291D01*
X0063700Y0309232D01*
X0063687Y0309173D01*
X0063671Y0309114D01*
X0063651Y0309057D01*
X0063628Y0309002D01*
X0063601Y0308947D01*
X0063572Y0308895D01*
X0063539Y0308844D01*
X0063503Y0308795D01*
X0063465Y0308749D01*
X0063423Y0308705D01*
X0063379Y0308663D01*
X0063333Y0308625D01*
X0063284Y0308589D01*
X0063233Y0308556D01*
X0063181Y0308527D01*
X0063126Y0308500D01*
X0063071Y0308477D01*
X0063014Y0308457D01*
X0062955Y0308441D01*
X0062896Y0308428D01*
X0062837Y0308419D01*
X0062776Y0308414D01*
X0062716Y0308412D01*
X0055716Y0308412D02*
X0055656Y0308414D01*
X0055595Y0308419D01*
X0055536Y0308428D01*
X0055477Y0308441D01*
X0055418Y0308457D01*
X0055361Y0308477D01*
X0055306Y0308500D01*
X0055251Y0308527D01*
X0055199Y0308556D01*
X0055148Y0308589D01*
X0055099Y0308625D01*
X0055053Y0308663D01*
X0055009Y0308705D01*
X0054967Y0308749D01*
X0054929Y0308795D01*
X0054893Y0308844D01*
X0054860Y0308895D01*
X0054831Y0308947D01*
X0054804Y0309002D01*
X0054781Y0309057D01*
X0054761Y0309114D01*
X0054745Y0309173D01*
X0054732Y0309232D01*
X0054723Y0309291D01*
X0054718Y0309352D01*
X0054716Y0309412D01*
X0054716Y0310912D01*
X0055216Y0311412D01*
X0055216Y0330412D01*
X0054716Y0330912D01*
X0054716Y0332412D01*
X0054718Y0332472D01*
X0054723Y0332533D01*
X0054732Y0332592D01*
X0054745Y0332651D01*
X0054761Y0332710D01*
X0054781Y0332767D01*
X0054804Y0332822D01*
X0054831Y0332877D01*
X0054860Y0332929D01*
X0054893Y0332980D01*
X0054929Y0333029D01*
X0054967Y0333075D01*
X0055009Y0333119D01*
X0055053Y0333161D01*
X0055099Y0333199D01*
X0055148Y0333235D01*
X0055199Y0333268D01*
X0055251Y0333297D01*
X0055306Y0333324D01*
X0055361Y0333347D01*
X0055418Y0333367D01*
X0055477Y0333383D01*
X0055536Y0333396D01*
X0055595Y0333405D01*
X0055656Y0333410D01*
X0055716Y0333412D01*
X0062716Y0333412D02*
X0062776Y0333410D01*
X0062837Y0333405D01*
X0062896Y0333396D01*
X0062955Y0333383D01*
X0063014Y0333367D01*
X0063071Y0333347D01*
X0063126Y0333324D01*
X0063181Y0333297D01*
X0063233Y0333268D01*
X0063284Y0333235D01*
X0063333Y0333199D01*
X0063379Y0333161D01*
X0063423Y0333119D01*
X0063465Y0333075D01*
X0063503Y0333029D01*
X0063539Y0332980D01*
X0063572Y0332929D01*
X0063601Y0332877D01*
X0063628Y0332822D01*
X0063651Y0332767D01*
X0063671Y0332710D01*
X0063687Y0332651D01*
X0063700Y0332592D01*
X0063709Y0332533D01*
X0063714Y0332472D01*
X0063716Y0332412D01*
X0047355Y0333253D02*
X0047355Y0328253D01*
X0044855Y0325753D01*
X0047355Y0323253D01*
X0047355Y0318253D01*
X0044855Y0315753D01*
X0047355Y0313253D01*
X0047355Y0308253D01*
X0044855Y0305753D01*
X0039855Y0305753D01*
X0037355Y0308253D01*
X0037355Y0313253D01*
X0039855Y0315753D01*
X0037355Y0318253D01*
X0037355Y0323253D01*
X0039855Y0325753D01*
X0037355Y0328253D01*
X0037355Y0333253D01*
X0039855Y0335753D01*
X0044855Y0335753D01*
X0047355Y0333253D01*
X0135138Y0276591D02*
X0135142Y0276922D01*
X0135154Y0277253D01*
X0135175Y0277584D01*
X0135203Y0277914D01*
X0135240Y0278244D01*
X0135284Y0278572D01*
X0135337Y0278899D01*
X0135397Y0279225D01*
X0135466Y0279549D01*
X0135543Y0279871D01*
X0135627Y0280192D01*
X0135719Y0280510D01*
X0135819Y0280826D01*
X0135927Y0281139D01*
X0136043Y0281450D01*
X0136166Y0281757D01*
X0136296Y0282062D01*
X0136434Y0282363D01*
X0136579Y0282661D01*
X0136732Y0282955D01*
X0136892Y0283245D01*
X0137059Y0283531D01*
X0137232Y0283813D01*
X0137413Y0284091D01*
X0137601Y0284364D01*
X0137795Y0284633D01*
X0137995Y0284897D01*
X0138202Y0285155D01*
X0138416Y0285409D01*
X0138635Y0285657D01*
X0138861Y0285900D01*
X0139092Y0286137D01*
X0139329Y0286368D01*
X0139572Y0286594D01*
X0139820Y0286813D01*
X0140074Y0287027D01*
X0140332Y0287234D01*
X0140596Y0287434D01*
X0140865Y0287628D01*
X0141138Y0287816D01*
X0141416Y0287997D01*
X0141698Y0288170D01*
X0141984Y0288337D01*
X0142274Y0288497D01*
X0142568Y0288650D01*
X0142866Y0288795D01*
X0143167Y0288933D01*
X0143472Y0289063D01*
X0143779Y0289186D01*
X0144090Y0289302D01*
X0144403Y0289410D01*
X0144719Y0289510D01*
X0145037Y0289602D01*
X0145358Y0289686D01*
X0145680Y0289763D01*
X0146004Y0289832D01*
X0146330Y0289892D01*
X0146657Y0289945D01*
X0146985Y0289989D01*
X0147315Y0290026D01*
X0147645Y0290054D01*
X0147976Y0290075D01*
X0148307Y0290087D01*
X0148638Y0290091D01*
X0148969Y0290087D01*
X0149300Y0290075D01*
X0149631Y0290054D01*
X0149961Y0290026D01*
X0150291Y0289989D01*
X0150619Y0289945D01*
X0150946Y0289892D01*
X0151272Y0289832D01*
X0151596Y0289763D01*
X0151918Y0289686D01*
X0152239Y0289602D01*
X0152557Y0289510D01*
X0152873Y0289410D01*
X0153186Y0289302D01*
X0153497Y0289186D01*
X0153804Y0289063D01*
X0154109Y0288933D01*
X0154410Y0288795D01*
X0154708Y0288650D01*
X0155002Y0288497D01*
X0155292Y0288337D01*
X0155578Y0288170D01*
X0155860Y0287997D01*
X0156138Y0287816D01*
X0156411Y0287628D01*
X0156680Y0287434D01*
X0156944Y0287234D01*
X0157202Y0287027D01*
X0157456Y0286813D01*
X0157704Y0286594D01*
X0157947Y0286368D01*
X0158184Y0286137D01*
X0158415Y0285900D01*
X0158641Y0285657D01*
X0158860Y0285409D01*
X0159074Y0285155D01*
X0159281Y0284897D01*
X0159481Y0284633D01*
X0159675Y0284364D01*
X0159863Y0284091D01*
X0160044Y0283813D01*
X0160217Y0283531D01*
X0160384Y0283245D01*
X0160544Y0282955D01*
X0160697Y0282661D01*
X0160842Y0282363D01*
X0160980Y0282062D01*
X0161110Y0281757D01*
X0161233Y0281450D01*
X0161349Y0281139D01*
X0161457Y0280826D01*
X0161557Y0280510D01*
X0161649Y0280192D01*
X0161733Y0279871D01*
X0161810Y0279549D01*
X0161879Y0279225D01*
X0161939Y0278899D01*
X0161992Y0278572D01*
X0162036Y0278244D01*
X0162073Y0277914D01*
X0162101Y0277584D01*
X0162122Y0277253D01*
X0162134Y0276922D01*
X0162138Y0276591D01*
X0162134Y0276260D01*
X0162122Y0275929D01*
X0162101Y0275598D01*
X0162073Y0275268D01*
X0162036Y0274938D01*
X0161992Y0274610D01*
X0161939Y0274283D01*
X0161879Y0273957D01*
X0161810Y0273633D01*
X0161733Y0273311D01*
X0161649Y0272990D01*
X0161557Y0272672D01*
X0161457Y0272356D01*
X0161349Y0272043D01*
X0161233Y0271732D01*
X0161110Y0271425D01*
X0160980Y0271120D01*
X0160842Y0270819D01*
X0160697Y0270521D01*
X0160544Y0270227D01*
X0160384Y0269937D01*
X0160217Y0269651D01*
X0160044Y0269369D01*
X0159863Y0269091D01*
X0159675Y0268818D01*
X0159481Y0268549D01*
X0159281Y0268285D01*
X0159074Y0268027D01*
X0158860Y0267773D01*
X0158641Y0267525D01*
X0158415Y0267282D01*
X0158184Y0267045D01*
X0157947Y0266814D01*
X0157704Y0266588D01*
X0157456Y0266369D01*
X0157202Y0266155D01*
X0156944Y0265948D01*
X0156680Y0265748D01*
X0156411Y0265554D01*
X0156138Y0265366D01*
X0155860Y0265185D01*
X0155578Y0265012D01*
X0155292Y0264845D01*
X0155002Y0264685D01*
X0154708Y0264532D01*
X0154410Y0264387D01*
X0154109Y0264249D01*
X0153804Y0264119D01*
X0153497Y0263996D01*
X0153186Y0263880D01*
X0152873Y0263772D01*
X0152557Y0263672D01*
X0152239Y0263580D01*
X0151918Y0263496D01*
X0151596Y0263419D01*
X0151272Y0263350D01*
X0150946Y0263290D01*
X0150619Y0263237D01*
X0150291Y0263193D01*
X0149961Y0263156D01*
X0149631Y0263128D01*
X0149300Y0263107D01*
X0148969Y0263095D01*
X0148638Y0263091D01*
X0148307Y0263095D01*
X0147976Y0263107D01*
X0147645Y0263128D01*
X0147315Y0263156D01*
X0146985Y0263193D01*
X0146657Y0263237D01*
X0146330Y0263290D01*
X0146004Y0263350D01*
X0145680Y0263419D01*
X0145358Y0263496D01*
X0145037Y0263580D01*
X0144719Y0263672D01*
X0144403Y0263772D01*
X0144090Y0263880D01*
X0143779Y0263996D01*
X0143472Y0264119D01*
X0143167Y0264249D01*
X0142866Y0264387D01*
X0142568Y0264532D01*
X0142274Y0264685D01*
X0141984Y0264845D01*
X0141698Y0265012D01*
X0141416Y0265185D01*
X0141138Y0265366D01*
X0140865Y0265554D01*
X0140596Y0265748D01*
X0140332Y0265948D01*
X0140074Y0266155D01*
X0139820Y0266369D01*
X0139572Y0266588D01*
X0139329Y0266814D01*
X0139092Y0267045D01*
X0138861Y0267282D01*
X0138635Y0267525D01*
X0138416Y0267773D01*
X0138202Y0268027D01*
X0137995Y0268285D01*
X0137795Y0268549D01*
X0137601Y0268818D01*
X0137413Y0269091D01*
X0137232Y0269369D01*
X0137059Y0269651D01*
X0136892Y0269937D01*
X0136732Y0270227D01*
X0136579Y0270521D01*
X0136434Y0270819D01*
X0136296Y0271120D01*
X0136166Y0271425D01*
X0136043Y0271732D01*
X0135927Y0272043D01*
X0135819Y0272356D01*
X0135719Y0272672D01*
X0135627Y0272990D01*
X0135543Y0273311D01*
X0135466Y0273633D01*
X0135397Y0273957D01*
X0135337Y0274283D01*
X0135284Y0274610D01*
X0135240Y0274938D01*
X0135203Y0275268D01*
X0135175Y0275598D01*
X0135154Y0275929D01*
X0135142Y0276260D01*
X0135138Y0276591D01*
X0101518Y0222893D02*
X0093518Y0222893D01*
X0093458Y0222891D01*
X0093397Y0222886D01*
X0093338Y0222877D01*
X0093279Y0222864D01*
X0093220Y0222848D01*
X0093163Y0222828D01*
X0093108Y0222805D01*
X0093053Y0222778D01*
X0093001Y0222749D01*
X0092950Y0222716D01*
X0092901Y0222680D01*
X0092855Y0222642D01*
X0092811Y0222600D01*
X0092769Y0222556D01*
X0092731Y0222510D01*
X0092695Y0222461D01*
X0092662Y0222410D01*
X0092633Y0222358D01*
X0092606Y0222303D01*
X0092583Y0222248D01*
X0092563Y0222191D01*
X0092547Y0222132D01*
X0092534Y0222073D01*
X0092525Y0222014D01*
X0092520Y0221953D01*
X0092518Y0221893D01*
X0092518Y0194893D01*
X0092520Y0194833D01*
X0092525Y0194772D01*
X0092534Y0194713D01*
X0092547Y0194654D01*
X0092563Y0194595D01*
X0092583Y0194538D01*
X0092606Y0194483D01*
X0092633Y0194428D01*
X0092662Y0194376D01*
X0092695Y0194325D01*
X0092731Y0194276D01*
X0092769Y0194230D01*
X0092811Y0194186D01*
X0092855Y0194144D01*
X0092901Y0194106D01*
X0092950Y0194070D01*
X0093001Y0194037D01*
X0093053Y0194008D01*
X0093108Y0193981D01*
X0093163Y0193958D01*
X0093220Y0193938D01*
X0093279Y0193922D01*
X0093338Y0193909D01*
X0093397Y0193900D01*
X0093458Y0193895D01*
X0093518Y0193893D01*
X0101518Y0193893D01*
X0101578Y0193895D01*
X0101639Y0193900D01*
X0101698Y0193909D01*
X0101757Y0193922D01*
X0101816Y0193938D01*
X0101873Y0193958D01*
X0101928Y0193981D01*
X0101983Y0194008D01*
X0102035Y0194037D01*
X0102086Y0194070D01*
X0102135Y0194106D01*
X0102181Y0194144D01*
X0102225Y0194186D01*
X0102267Y0194230D01*
X0102305Y0194276D01*
X0102341Y0194325D01*
X0102374Y0194376D01*
X0102403Y0194428D01*
X0102430Y0194483D01*
X0102453Y0194538D01*
X0102473Y0194595D01*
X0102489Y0194654D01*
X0102502Y0194713D01*
X0102511Y0194772D01*
X0102516Y0194833D01*
X0102518Y0194893D01*
X0102518Y0221893D01*
X0102516Y0221953D01*
X0102511Y0222014D01*
X0102502Y0222073D01*
X0102489Y0222132D01*
X0102473Y0222191D01*
X0102453Y0222248D01*
X0102430Y0222303D01*
X0102403Y0222358D01*
X0102374Y0222410D01*
X0102341Y0222461D01*
X0102305Y0222510D01*
X0102267Y0222556D01*
X0102225Y0222600D01*
X0102181Y0222642D01*
X0102135Y0222680D01*
X0102086Y0222716D01*
X0102035Y0222749D01*
X0101983Y0222778D01*
X0101928Y0222805D01*
X0101873Y0222828D01*
X0101816Y0222848D01*
X0101757Y0222864D01*
X0101698Y0222877D01*
X0101639Y0222886D01*
X0101578Y0222891D01*
X0101518Y0222893D01*
X0097518Y0214393D02*
X0097518Y0209693D01*
X0097518Y0207193D02*
X0097518Y0202393D01*
X0196223Y0204458D02*
X0196223Y0177458D01*
X0196225Y0177398D01*
X0196230Y0177337D01*
X0196239Y0177278D01*
X0196252Y0177219D01*
X0196268Y0177160D01*
X0196288Y0177103D01*
X0196311Y0177048D01*
X0196338Y0176993D01*
X0196367Y0176941D01*
X0196400Y0176890D01*
X0196436Y0176841D01*
X0196474Y0176795D01*
X0196516Y0176751D01*
X0196560Y0176709D01*
X0196606Y0176671D01*
X0196655Y0176635D01*
X0196706Y0176602D01*
X0196758Y0176573D01*
X0196813Y0176546D01*
X0196868Y0176523D01*
X0196925Y0176503D01*
X0196984Y0176487D01*
X0197043Y0176474D01*
X0197102Y0176465D01*
X0197163Y0176460D01*
X0197223Y0176458D01*
X0205223Y0176458D01*
X0205283Y0176460D01*
X0205344Y0176465D01*
X0205403Y0176474D01*
X0205462Y0176487D01*
X0205521Y0176503D01*
X0205578Y0176523D01*
X0205633Y0176546D01*
X0205688Y0176573D01*
X0205740Y0176602D01*
X0205791Y0176635D01*
X0205840Y0176671D01*
X0205886Y0176709D01*
X0205930Y0176751D01*
X0205972Y0176795D01*
X0206010Y0176841D01*
X0206046Y0176890D01*
X0206079Y0176941D01*
X0206108Y0176993D01*
X0206135Y0177048D01*
X0206158Y0177103D01*
X0206178Y0177160D01*
X0206194Y0177219D01*
X0206207Y0177278D01*
X0206216Y0177337D01*
X0206221Y0177398D01*
X0206223Y0177458D01*
X0206223Y0204458D01*
X0206221Y0204518D01*
X0206216Y0204579D01*
X0206207Y0204638D01*
X0206194Y0204697D01*
X0206178Y0204756D01*
X0206158Y0204813D01*
X0206135Y0204868D01*
X0206108Y0204923D01*
X0206079Y0204975D01*
X0206046Y0205026D01*
X0206010Y0205075D01*
X0205972Y0205121D01*
X0205930Y0205165D01*
X0205886Y0205207D01*
X0205840Y0205245D01*
X0205791Y0205281D01*
X0205740Y0205314D01*
X0205688Y0205343D01*
X0205633Y0205370D01*
X0205578Y0205393D01*
X0205521Y0205413D01*
X0205462Y0205429D01*
X0205403Y0205442D01*
X0205344Y0205451D01*
X0205283Y0205456D01*
X0205223Y0205458D01*
X0197223Y0205458D01*
X0197163Y0205456D01*
X0197102Y0205451D01*
X0197043Y0205442D01*
X0196984Y0205429D01*
X0196925Y0205413D01*
X0196868Y0205393D01*
X0196813Y0205370D01*
X0196758Y0205343D01*
X0196706Y0205314D01*
X0196655Y0205281D01*
X0196606Y0205245D01*
X0196560Y0205207D01*
X0196516Y0205165D01*
X0196474Y0205121D01*
X0196436Y0205075D01*
X0196400Y0205026D01*
X0196367Y0204975D01*
X0196338Y0204923D01*
X0196311Y0204868D01*
X0196288Y0204813D01*
X0196268Y0204756D01*
X0196252Y0204697D01*
X0196239Y0204638D01*
X0196230Y0204579D01*
X0196225Y0204518D01*
X0196223Y0204458D01*
X0201223Y0196958D02*
X0201223Y0192258D01*
X0201223Y0189758D02*
X0201223Y0184958D01*
X0205173Y0136039D02*
X0205176Y0136284D01*
X0205185Y0136530D01*
X0205200Y0136775D01*
X0205221Y0137019D01*
X0205248Y0137263D01*
X0205281Y0137506D01*
X0205320Y0137749D01*
X0205365Y0137990D01*
X0205416Y0138230D01*
X0205473Y0138469D01*
X0205535Y0138706D01*
X0205604Y0138942D01*
X0205678Y0139176D01*
X0205758Y0139408D01*
X0205843Y0139638D01*
X0205934Y0139866D01*
X0206031Y0140091D01*
X0206133Y0140315D01*
X0206241Y0140535D01*
X0206354Y0140753D01*
X0206472Y0140968D01*
X0206596Y0141180D01*
X0206724Y0141389D01*
X0206858Y0141595D01*
X0206997Y0141797D01*
X0207141Y0141996D01*
X0207290Y0142191D01*
X0207443Y0142383D01*
X0207601Y0142571D01*
X0207763Y0142755D01*
X0207931Y0142934D01*
X0208102Y0143110D01*
X0208278Y0143281D01*
X0208457Y0143449D01*
X0208641Y0143611D01*
X0208829Y0143769D01*
X0209021Y0143922D01*
X0209216Y0144071D01*
X0209415Y0144215D01*
X0209617Y0144354D01*
X0209823Y0144488D01*
X0210032Y0144616D01*
X0210244Y0144740D01*
X0210459Y0144858D01*
X0210677Y0144971D01*
X0210897Y0145079D01*
X0211121Y0145181D01*
X0211346Y0145278D01*
X0211574Y0145369D01*
X0211804Y0145454D01*
X0212036Y0145534D01*
X0212270Y0145608D01*
X0212506Y0145677D01*
X0212743Y0145739D01*
X0212982Y0145796D01*
X0213222Y0145847D01*
X0213463Y0145892D01*
X0213706Y0145931D01*
X0213949Y0145964D01*
X0214193Y0145991D01*
X0214437Y0146012D01*
X0214682Y0146027D01*
X0214928Y0146036D01*
X0215173Y0146039D01*
X0215418Y0146036D01*
X0215664Y0146027D01*
X0215909Y0146012D01*
X0216153Y0145991D01*
X0216397Y0145964D01*
X0216640Y0145931D01*
X0216883Y0145892D01*
X0217124Y0145847D01*
X0217364Y0145796D01*
X0217603Y0145739D01*
X0217840Y0145677D01*
X0218076Y0145608D01*
X0218310Y0145534D01*
X0218542Y0145454D01*
X0218772Y0145369D01*
X0219000Y0145278D01*
X0219225Y0145181D01*
X0219449Y0145079D01*
X0219669Y0144971D01*
X0219887Y0144858D01*
X0220102Y0144740D01*
X0220314Y0144616D01*
X0220523Y0144488D01*
X0220729Y0144354D01*
X0220931Y0144215D01*
X0221130Y0144071D01*
X0221325Y0143922D01*
X0221517Y0143769D01*
X0221705Y0143611D01*
X0221889Y0143449D01*
X0222068Y0143281D01*
X0222244Y0143110D01*
X0222415Y0142934D01*
X0222583Y0142755D01*
X0222745Y0142571D01*
X0222903Y0142383D01*
X0223056Y0142191D01*
X0223205Y0141996D01*
X0223349Y0141797D01*
X0223488Y0141595D01*
X0223622Y0141389D01*
X0223750Y0141180D01*
X0223874Y0140968D01*
X0223992Y0140753D01*
X0224105Y0140535D01*
X0224213Y0140315D01*
X0224315Y0140091D01*
X0224412Y0139866D01*
X0224503Y0139638D01*
X0224588Y0139408D01*
X0224668Y0139176D01*
X0224742Y0138942D01*
X0224811Y0138706D01*
X0224873Y0138469D01*
X0224930Y0138230D01*
X0224981Y0137990D01*
X0225026Y0137749D01*
X0225065Y0137506D01*
X0225098Y0137263D01*
X0225125Y0137019D01*
X0225146Y0136775D01*
X0225161Y0136530D01*
X0225170Y0136284D01*
X0225173Y0136039D01*
X0225170Y0135794D01*
X0225161Y0135548D01*
X0225146Y0135303D01*
X0225125Y0135059D01*
X0225098Y0134815D01*
X0225065Y0134572D01*
X0225026Y0134329D01*
X0224981Y0134088D01*
X0224930Y0133848D01*
X0224873Y0133609D01*
X0224811Y0133372D01*
X0224742Y0133136D01*
X0224668Y0132902D01*
X0224588Y0132670D01*
X0224503Y0132440D01*
X0224412Y0132212D01*
X0224315Y0131987D01*
X0224213Y0131763D01*
X0224105Y0131543D01*
X0223992Y0131325D01*
X0223874Y0131110D01*
X0223750Y0130898D01*
X0223622Y0130689D01*
X0223488Y0130483D01*
X0223349Y0130281D01*
X0223205Y0130082D01*
X0223056Y0129887D01*
X0222903Y0129695D01*
X0222745Y0129507D01*
X0222583Y0129323D01*
X0222415Y0129144D01*
X0222244Y0128968D01*
X0222068Y0128797D01*
X0221889Y0128629D01*
X0221705Y0128467D01*
X0221517Y0128309D01*
X0221325Y0128156D01*
X0221130Y0128007D01*
X0220931Y0127863D01*
X0220729Y0127724D01*
X0220523Y0127590D01*
X0220314Y0127462D01*
X0220102Y0127338D01*
X0219887Y0127220D01*
X0219669Y0127107D01*
X0219449Y0126999D01*
X0219225Y0126897D01*
X0219000Y0126800D01*
X0218772Y0126709D01*
X0218542Y0126624D01*
X0218310Y0126544D01*
X0218076Y0126470D01*
X0217840Y0126401D01*
X0217603Y0126339D01*
X0217364Y0126282D01*
X0217124Y0126231D01*
X0216883Y0126186D01*
X0216640Y0126147D01*
X0216397Y0126114D01*
X0216153Y0126087D01*
X0215909Y0126066D01*
X0215664Y0126051D01*
X0215418Y0126042D01*
X0215173Y0126039D01*
X0214928Y0126042D01*
X0214682Y0126051D01*
X0214437Y0126066D01*
X0214193Y0126087D01*
X0213949Y0126114D01*
X0213706Y0126147D01*
X0213463Y0126186D01*
X0213222Y0126231D01*
X0212982Y0126282D01*
X0212743Y0126339D01*
X0212506Y0126401D01*
X0212270Y0126470D01*
X0212036Y0126544D01*
X0211804Y0126624D01*
X0211574Y0126709D01*
X0211346Y0126800D01*
X0211121Y0126897D01*
X0210897Y0126999D01*
X0210677Y0127107D01*
X0210459Y0127220D01*
X0210244Y0127338D01*
X0210032Y0127462D01*
X0209823Y0127590D01*
X0209617Y0127724D01*
X0209415Y0127863D01*
X0209216Y0128007D01*
X0209021Y0128156D01*
X0208829Y0128309D01*
X0208641Y0128467D01*
X0208457Y0128629D01*
X0208278Y0128797D01*
X0208102Y0128968D01*
X0207931Y0129144D01*
X0207763Y0129323D01*
X0207601Y0129507D01*
X0207443Y0129695D01*
X0207290Y0129887D01*
X0207141Y0130082D01*
X0206997Y0130281D01*
X0206858Y0130483D01*
X0206724Y0130689D01*
X0206596Y0130898D01*
X0206472Y0131110D01*
X0206354Y0131325D01*
X0206241Y0131543D01*
X0206133Y0131763D01*
X0206031Y0131987D01*
X0205934Y0132212D01*
X0205843Y0132440D01*
X0205758Y0132670D01*
X0205678Y0132902D01*
X0205604Y0133136D01*
X0205535Y0133372D01*
X0205473Y0133609D01*
X0205416Y0133848D01*
X0205365Y0134088D01*
X0205320Y0134329D01*
X0205281Y0134572D01*
X0205248Y0134815D01*
X0205221Y0135059D01*
X0205200Y0135303D01*
X0205185Y0135548D01*
X0205176Y0135794D01*
X0205173Y0136039D01*
X0208173Y0133039D02*
X0208173Y0131039D01*
X0209173Y0132039D02*
X0207173Y0132039D01*
X0239937Y0133421D02*
X0239937Y0128421D01*
X0242437Y0125921D01*
X0247437Y0125921D01*
X0249937Y0128421D01*
X0252437Y0125921D01*
X0257437Y0125921D01*
X0259937Y0128421D01*
X0262437Y0125921D01*
X0267437Y0125921D01*
X0269937Y0128421D01*
X0269937Y0133421D01*
X0267437Y0135921D01*
X0262437Y0135921D01*
X0259937Y0133421D01*
X0257437Y0135921D01*
X0252437Y0135921D01*
X0249937Y0133421D01*
X0247437Y0135921D01*
X0242437Y0135921D01*
X0239937Y0133421D01*
X0135138Y0119110D02*
X0135142Y0119441D01*
X0135154Y0119772D01*
X0135175Y0120103D01*
X0135203Y0120433D01*
X0135240Y0120763D01*
X0135284Y0121091D01*
X0135337Y0121418D01*
X0135397Y0121744D01*
X0135466Y0122068D01*
X0135543Y0122390D01*
X0135627Y0122711D01*
X0135719Y0123029D01*
X0135819Y0123345D01*
X0135927Y0123658D01*
X0136043Y0123969D01*
X0136166Y0124276D01*
X0136296Y0124581D01*
X0136434Y0124882D01*
X0136579Y0125180D01*
X0136732Y0125474D01*
X0136892Y0125764D01*
X0137059Y0126050D01*
X0137232Y0126332D01*
X0137413Y0126610D01*
X0137601Y0126883D01*
X0137795Y0127152D01*
X0137995Y0127416D01*
X0138202Y0127674D01*
X0138416Y0127928D01*
X0138635Y0128176D01*
X0138861Y0128419D01*
X0139092Y0128656D01*
X0139329Y0128887D01*
X0139572Y0129113D01*
X0139820Y0129332D01*
X0140074Y0129546D01*
X0140332Y0129753D01*
X0140596Y0129953D01*
X0140865Y0130147D01*
X0141138Y0130335D01*
X0141416Y0130516D01*
X0141698Y0130689D01*
X0141984Y0130856D01*
X0142274Y0131016D01*
X0142568Y0131169D01*
X0142866Y0131314D01*
X0143167Y0131452D01*
X0143472Y0131582D01*
X0143779Y0131705D01*
X0144090Y0131821D01*
X0144403Y0131929D01*
X0144719Y0132029D01*
X0145037Y0132121D01*
X0145358Y0132205D01*
X0145680Y0132282D01*
X0146004Y0132351D01*
X0146330Y0132411D01*
X0146657Y0132464D01*
X0146985Y0132508D01*
X0147315Y0132545D01*
X0147645Y0132573D01*
X0147976Y0132594D01*
X0148307Y0132606D01*
X0148638Y0132610D01*
X0148969Y0132606D01*
X0149300Y0132594D01*
X0149631Y0132573D01*
X0149961Y0132545D01*
X0150291Y0132508D01*
X0150619Y0132464D01*
X0150946Y0132411D01*
X0151272Y0132351D01*
X0151596Y0132282D01*
X0151918Y0132205D01*
X0152239Y0132121D01*
X0152557Y0132029D01*
X0152873Y0131929D01*
X0153186Y0131821D01*
X0153497Y0131705D01*
X0153804Y0131582D01*
X0154109Y0131452D01*
X0154410Y0131314D01*
X0154708Y0131169D01*
X0155002Y0131016D01*
X0155292Y0130856D01*
X0155578Y0130689D01*
X0155860Y0130516D01*
X0156138Y0130335D01*
X0156411Y0130147D01*
X0156680Y0129953D01*
X0156944Y0129753D01*
X0157202Y0129546D01*
X0157456Y0129332D01*
X0157704Y0129113D01*
X0157947Y0128887D01*
X0158184Y0128656D01*
X0158415Y0128419D01*
X0158641Y0128176D01*
X0158860Y0127928D01*
X0159074Y0127674D01*
X0159281Y0127416D01*
X0159481Y0127152D01*
X0159675Y0126883D01*
X0159863Y0126610D01*
X0160044Y0126332D01*
X0160217Y0126050D01*
X0160384Y0125764D01*
X0160544Y0125474D01*
X0160697Y0125180D01*
X0160842Y0124882D01*
X0160980Y0124581D01*
X0161110Y0124276D01*
X0161233Y0123969D01*
X0161349Y0123658D01*
X0161457Y0123345D01*
X0161557Y0123029D01*
X0161649Y0122711D01*
X0161733Y0122390D01*
X0161810Y0122068D01*
X0161879Y0121744D01*
X0161939Y0121418D01*
X0161992Y0121091D01*
X0162036Y0120763D01*
X0162073Y0120433D01*
X0162101Y0120103D01*
X0162122Y0119772D01*
X0162134Y0119441D01*
X0162138Y0119110D01*
X0162134Y0118779D01*
X0162122Y0118448D01*
X0162101Y0118117D01*
X0162073Y0117787D01*
X0162036Y0117457D01*
X0161992Y0117129D01*
X0161939Y0116802D01*
X0161879Y0116476D01*
X0161810Y0116152D01*
X0161733Y0115830D01*
X0161649Y0115509D01*
X0161557Y0115191D01*
X0161457Y0114875D01*
X0161349Y0114562D01*
X0161233Y0114251D01*
X0161110Y0113944D01*
X0160980Y0113639D01*
X0160842Y0113338D01*
X0160697Y0113040D01*
X0160544Y0112746D01*
X0160384Y0112456D01*
X0160217Y0112170D01*
X0160044Y0111888D01*
X0159863Y0111610D01*
X0159675Y0111337D01*
X0159481Y0111068D01*
X0159281Y0110804D01*
X0159074Y0110546D01*
X0158860Y0110292D01*
X0158641Y0110044D01*
X0158415Y0109801D01*
X0158184Y0109564D01*
X0157947Y0109333D01*
X0157704Y0109107D01*
X0157456Y0108888D01*
X0157202Y0108674D01*
X0156944Y0108467D01*
X0156680Y0108267D01*
X0156411Y0108073D01*
X0156138Y0107885D01*
X0155860Y0107704D01*
X0155578Y0107531D01*
X0155292Y0107364D01*
X0155002Y0107204D01*
X0154708Y0107051D01*
X0154410Y0106906D01*
X0154109Y0106768D01*
X0153804Y0106638D01*
X0153497Y0106515D01*
X0153186Y0106399D01*
X0152873Y0106291D01*
X0152557Y0106191D01*
X0152239Y0106099D01*
X0151918Y0106015D01*
X0151596Y0105938D01*
X0151272Y0105869D01*
X0150946Y0105809D01*
X0150619Y0105756D01*
X0150291Y0105712D01*
X0149961Y0105675D01*
X0149631Y0105647D01*
X0149300Y0105626D01*
X0148969Y0105614D01*
X0148638Y0105610D01*
X0148307Y0105614D01*
X0147976Y0105626D01*
X0147645Y0105647D01*
X0147315Y0105675D01*
X0146985Y0105712D01*
X0146657Y0105756D01*
X0146330Y0105809D01*
X0146004Y0105869D01*
X0145680Y0105938D01*
X0145358Y0106015D01*
X0145037Y0106099D01*
X0144719Y0106191D01*
X0144403Y0106291D01*
X0144090Y0106399D01*
X0143779Y0106515D01*
X0143472Y0106638D01*
X0143167Y0106768D01*
X0142866Y0106906D01*
X0142568Y0107051D01*
X0142274Y0107204D01*
X0141984Y0107364D01*
X0141698Y0107531D01*
X0141416Y0107704D01*
X0141138Y0107885D01*
X0140865Y0108073D01*
X0140596Y0108267D01*
X0140332Y0108467D01*
X0140074Y0108674D01*
X0139820Y0108888D01*
X0139572Y0109107D01*
X0139329Y0109333D01*
X0139092Y0109564D01*
X0138861Y0109801D01*
X0138635Y0110044D01*
X0138416Y0110292D01*
X0138202Y0110546D01*
X0137995Y0110804D01*
X0137795Y0111068D01*
X0137601Y0111337D01*
X0137413Y0111610D01*
X0137232Y0111888D01*
X0137059Y0112170D01*
X0136892Y0112456D01*
X0136732Y0112746D01*
X0136579Y0113040D01*
X0136434Y0113338D01*
X0136296Y0113639D01*
X0136166Y0113944D01*
X0136043Y0114251D01*
X0135927Y0114562D01*
X0135819Y0114875D01*
X0135719Y0115191D01*
X0135627Y0115509D01*
X0135543Y0115830D01*
X0135466Y0116152D01*
X0135397Y0116476D01*
X0135337Y0116802D01*
X0135284Y0117129D01*
X0135240Y0117457D01*
X0135203Y0117787D01*
X0135175Y0118117D01*
X0135154Y0118448D01*
X0135142Y0118779D01*
X0135138Y0119110D01*
X0100423Y0065091D02*
X0092423Y0065091D01*
X0092363Y0065089D01*
X0092302Y0065084D01*
X0092243Y0065075D01*
X0092184Y0065062D01*
X0092125Y0065046D01*
X0092068Y0065026D01*
X0092013Y0065003D01*
X0091958Y0064976D01*
X0091906Y0064947D01*
X0091855Y0064914D01*
X0091806Y0064878D01*
X0091760Y0064840D01*
X0091716Y0064798D01*
X0091674Y0064754D01*
X0091636Y0064708D01*
X0091600Y0064659D01*
X0091567Y0064608D01*
X0091538Y0064556D01*
X0091511Y0064501D01*
X0091488Y0064446D01*
X0091468Y0064389D01*
X0091452Y0064330D01*
X0091439Y0064271D01*
X0091430Y0064212D01*
X0091425Y0064151D01*
X0091423Y0064091D01*
X0091423Y0037091D01*
X0091425Y0037031D01*
X0091430Y0036970D01*
X0091439Y0036911D01*
X0091452Y0036852D01*
X0091468Y0036793D01*
X0091488Y0036736D01*
X0091511Y0036681D01*
X0091538Y0036626D01*
X0091567Y0036574D01*
X0091600Y0036523D01*
X0091636Y0036474D01*
X0091674Y0036428D01*
X0091716Y0036384D01*
X0091760Y0036342D01*
X0091806Y0036304D01*
X0091855Y0036268D01*
X0091906Y0036235D01*
X0091958Y0036206D01*
X0092013Y0036179D01*
X0092068Y0036156D01*
X0092125Y0036136D01*
X0092184Y0036120D01*
X0092243Y0036107D01*
X0092302Y0036098D01*
X0092363Y0036093D01*
X0092423Y0036091D01*
X0100423Y0036091D01*
X0100483Y0036093D01*
X0100544Y0036098D01*
X0100603Y0036107D01*
X0100662Y0036120D01*
X0100721Y0036136D01*
X0100778Y0036156D01*
X0100833Y0036179D01*
X0100888Y0036206D01*
X0100940Y0036235D01*
X0100991Y0036268D01*
X0101040Y0036304D01*
X0101086Y0036342D01*
X0101130Y0036384D01*
X0101172Y0036428D01*
X0101210Y0036474D01*
X0101246Y0036523D01*
X0101279Y0036574D01*
X0101308Y0036626D01*
X0101335Y0036681D01*
X0101358Y0036736D01*
X0101378Y0036793D01*
X0101394Y0036852D01*
X0101407Y0036911D01*
X0101416Y0036970D01*
X0101421Y0037031D01*
X0101423Y0037091D01*
X0101423Y0064091D01*
X0101421Y0064151D01*
X0101416Y0064212D01*
X0101407Y0064271D01*
X0101394Y0064330D01*
X0101378Y0064389D01*
X0101358Y0064446D01*
X0101335Y0064501D01*
X0101308Y0064556D01*
X0101279Y0064608D01*
X0101246Y0064659D01*
X0101210Y0064708D01*
X0101172Y0064754D01*
X0101130Y0064798D01*
X0101086Y0064840D01*
X0101040Y0064878D01*
X0100991Y0064914D01*
X0100940Y0064947D01*
X0100888Y0064976D01*
X0100833Y0065003D01*
X0100778Y0065026D01*
X0100721Y0065046D01*
X0100662Y0065062D01*
X0100603Y0065075D01*
X0100544Y0065084D01*
X0100483Y0065089D01*
X0100423Y0065091D01*
X0096423Y0056591D02*
X0096423Y0051891D01*
X0096423Y0049391D02*
X0096423Y0044591D01*
X0194885Y0046903D02*
X0194885Y0019903D01*
X0194887Y0019843D01*
X0194892Y0019782D01*
X0194901Y0019723D01*
X0194914Y0019664D01*
X0194930Y0019605D01*
X0194950Y0019548D01*
X0194973Y0019493D01*
X0195000Y0019438D01*
X0195029Y0019386D01*
X0195062Y0019335D01*
X0195098Y0019286D01*
X0195136Y0019240D01*
X0195178Y0019196D01*
X0195222Y0019154D01*
X0195268Y0019116D01*
X0195317Y0019080D01*
X0195368Y0019047D01*
X0195420Y0019018D01*
X0195475Y0018991D01*
X0195530Y0018968D01*
X0195587Y0018948D01*
X0195646Y0018932D01*
X0195705Y0018919D01*
X0195764Y0018910D01*
X0195825Y0018905D01*
X0195885Y0018903D01*
X0203885Y0018903D01*
X0203945Y0018905D01*
X0204006Y0018910D01*
X0204065Y0018919D01*
X0204124Y0018932D01*
X0204183Y0018948D01*
X0204240Y0018968D01*
X0204295Y0018991D01*
X0204350Y0019018D01*
X0204402Y0019047D01*
X0204453Y0019080D01*
X0204502Y0019116D01*
X0204548Y0019154D01*
X0204592Y0019196D01*
X0204634Y0019240D01*
X0204672Y0019286D01*
X0204708Y0019335D01*
X0204741Y0019386D01*
X0204770Y0019438D01*
X0204797Y0019493D01*
X0204820Y0019548D01*
X0204840Y0019605D01*
X0204856Y0019664D01*
X0204869Y0019723D01*
X0204878Y0019782D01*
X0204883Y0019843D01*
X0204885Y0019903D01*
X0204885Y0046903D01*
X0204883Y0046963D01*
X0204878Y0047024D01*
X0204869Y0047083D01*
X0204856Y0047142D01*
X0204840Y0047201D01*
X0204820Y0047258D01*
X0204797Y0047313D01*
X0204770Y0047368D01*
X0204741Y0047420D01*
X0204708Y0047471D01*
X0204672Y0047520D01*
X0204634Y0047566D01*
X0204592Y0047610D01*
X0204548Y0047652D01*
X0204502Y0047690D01*
X0204453Y0047726D01*
X0204402Y0047759D01*
X0204350Y0047788D01*
X0204295Y0047815D01*
X0204240Y0047838D01*
X0204183Y0047858D01*
X0204124Y0047874D01*
X0204065Y0047887D01*
X0204006Y0047896D01*
X0203945Y0047901D01*
X0203885Y0047903D01*
X0195885Y0047903D01*
X0195825Y0047901D01*
X0195764Y0047896D01*
X0195705Y0047887D01*
X0195646Y0047874D01*
X0195587Y0047858D01*
X0195530Y0047838D01*
X0195475Y0047815D01*
X0195420Y0047788D01*
X0195368Y0047759D01*
X0195317Y0047726D01*
X0195268Y0047690D01*
X0195222Y0047652D01*
X0195178Y0047610D01*
X0195136Y0047566D01*
X0195098Y0047520D01*
X0195062Y0047471D01*
X0195029Y0047420D01*
X0195000Y0047368D01*
X0194973Y0047313D01*
X0194950Y0047258D01*
X0194930Y0047201D01*
X0194914Y0047142D01*
X0194901Y0047083D01*
X0194892Y0047024D01*
X0194887Y0046963D01*
X0194885Y0046903D01*
X0199885Y0039403D02*
X0199885Y0034703D01*
X0199885Y0032203D02*
X0199885Y0027403D01*
X0351009Y0019953D02*
X0351009Y0046953D01*
X0351011Y0047013D01*
X0351016Y0047074D01*
X0351025Y0047133D01*
X0351038Y0047192D01*
X0351054Y0047251D01*
X0351074Y0047308D01*
X0351097Y0047363D01*
X0351124Y0047418D01*
X0351153Y0047470D01*
X0351186Y0047521D01*
X0351222Y0047570D01*
X0351260Y0047616D01*
X0351302Y0047660D01*
X0351346Y0047702D01*
X0351392Y0047740D01*
X0351441Y0047776D01*
X0351492Y0047809D01*
X0351544Y0047838D01*
X0351599Y0047865D01*
X0351654Y0047888D01*
X0351711Y0047908D01*
X0351770Y0047924D01*
X0351829Y0047937D01*
X0351888Y0047946D01*
X0351949Y0047951D01*
X0352009Y0047953D01*
X0360009Y0047953D01*
X0360069Y0047951D01*
X0360130Y0047946D01*
X0360189Y0047937D01*
X0360248Y0047924D01*
X0360307Y0047908D01*
X0360364Y0047888D01*
X0360419Y0047865D01*
X0360474Y0047838D01*
X0360526Y0047809D01*
X0360577Y0047776D01*
X0360626Y0047740D01*
X0360672Y0047702D01*
X0360716Y0047660D01*
X0360758Y0047616D01*
X0360796Y0047570D01*
X0360832Y0047521D01*
X0360865Y0047470D01*
X0360894Y0047418D01*
X0360921Y0047363D01*
X0360944Y0047308D01*
X0360964Y0047251D01*
X0360980Y0047192D01*
X0360993Y0047133D01*
X0361002Y0047074D01*
X0361007Y0047013D01*
X0361009Y0046953D01*
X0361009Y0019953D01*
X0361007Y0019893D01*
X0361002Y0019832D01*
X0360993Y0019773D01*
X0360980Y0019714D01*
X0360964Y0019655D01*
X0360944Y0019598D01*
X0360921Y0019543D01*
X0360894Y0019488D01*
X0360865Y0019436D01*
X0360832Y0019385D01*
X0360796Y0019336D01*
X0360758Y0019290D01*
X0360716Y0019246D01*
X0360672Y0019204D01*
X0360626Y0019166D01*
X0360577Y0019130D01*
X0360526Y0019097D01*
X0360474Y0019068D01*
X0360419Y0019041D01*
X0360364Y0019018D01*
X0360307Y0018998D01*
X0360248Y0018982D01*
X0360189Y0018969D01*
X0360130Y0018960D01*
X0360069Y0018955D01*
X0360009Y0018953D01*
X0352009Y0018953D01*
X0351949Y0018955D01*
X0351888Y0018960D01*
X0351829Y0018969D01*
X0351770Y0018982D01*
X0351711Y0018998D01*
X0351654Y0019018D01*
X0351599Y0019041D01*
X0351544Y0019068D01*
X0351492Y0019097D01*
X0351441Y0019130D01*
X0351392Y0019166D01*
X0351346Y0019204D01*
X0351302Y0019246D01*
X0351260Y0019290D01*
X0351222Y0019336D01*
X0351186Y0019385D01*
X0351153Y0019436D01*
X0351124Y0019488D01*
X0351097Y0019543D01*
X0351074Y0019598D01*
X0351054Y0019655D01*
X0351038Y0019714D01*
X0351025Y0019773D01*
X0351016Y0019832D01*
X0351011Y0019893D01*
X0351009Y0019953D01*
X0356009Y0027453D02*
X0356009Y0032253D01*
X0356009Y0034753D02*
X0356009Y0039453D01*
X0509312Y0047576D02*
X0509312Y0020576D01*
X0509314Y0020516D01*
X0509319Y0020455D01*
X0509328Y0020396D01*
X0509341Y0020337D01*
X0509357Y0020278D01*
X0509377Y0020221D01*
X0509400Y0020166D01*
X0509427Y0020111D01*
X0509456Y0020059D01*
X0509489Y0020008D01*
X0509525Y0019959D01*
X0509563Y0019913D01*
X0509605Y0019869D01*
X0509649Y0019827D01*
X0509695Y0019789D01*
X0509744Y0019753D01*
X0509795Y0019720D01*
X0509847Y0019691D01*
X0509902Y0019664D01*
X0509957Y0019641D01*
X0510014Y0019621D01*
X0510073Y0019605D01*
X0510132Y0019592D01*
X0510191Y0019583D01*
X0510252Y0019578D01*
X0510312Y0019576D01*
X0518312Y0019576D01*
X0518372Y0019578D01*
X0518433Y0019583D01*
X0518492Y0019592D01*
X0518551Y0019605D01*
X0518610Y0019621D01*
X0518667Y0019641D01*
X0518722Y0019664D01*
X0518777Y0019691D01*
X0518829Y0019720D01*
X0518880Y0019753D01*
X0518929Y0019789D01*
X0518975Y0019827D01*
X0519019Y0019869D01*
X0519061Y0019913D01*
X0519099Y0019959D01*
X0519135Y0020008D01*
X0519168Y0020059D01*
X0519197Y0020111D01*
X0519224Y0020166D01*
X0519247Y0020221D01*
X0519267Y0020278D01*
X0519283Y0020337D01*
X0519296Y0020396D01*
X0519305Y0020455D01*
X0519310Y0020516D01*
X0519312Y0020576D01*
X0519312Y0047576D01*
X0519310Y0047636D01*
X0519305Y0047697D01*
X0519296Y0047756D01*
X0519283Y0047815D01*
X0519267Y0047874D01*
X0519247Y0047931D01*
X0519224Y0047986D01*
X0519197Y0048041D01*
X0519168Y0048093D01*
X0519135Y0048144D01*
X0519099Y0048193D01*
X0519061Y0048239D01*
X0519019Y0048283D01*
X0518975Y0048325D01*
X0518929Y0048363D01*
X0518880Y0048399D01*
X0518829Y0048432D01*
X0518777Y0048461D01*
X0518722Y0048488D01*
X0518667Y0048511D01*
X0518610Y0048531D01*
X0518551Y0048547D01*
X0518492Y0048560D01*
X0518433Y0048569D01*
X0518372Y0048574D01*
X0518312Y0048576D01*
X0510312Y0048576D01*
X0510252Y0048574D01*
X0510191Y0048569D01*
X0510132Y0048560D01*
X0510073Y0048547D01*
X0510014Y0048531D01*
X0509957Y0048511D01*
X0509902Y0048488D01*
X0509847Y0048461D01*
X0509795Y0048432D01*
X0509744Y0048399D01*
X0509695Y0048363D01*
X0509649Y0048325D01*
X0509605Y0048283D01*
X0509563Y0048239D01*
X0509525Y0048193D01*
X0509489Y0048144D01*
X0509456Y0048093D01*
X0509427Y0048041D01*
X0509400Y0047986D01*
X0509377Y0047931D01*
X0509357Y0047874D01*
X0509341Y0047815D01*
X0509328Y0047756D01*
X0509319Y0047697D01*
X0509314Y0047636D01*
X0509312Y0047576D01*
X0514312Y0040076D02*
X0514312Y0035376D01*
X0514312Y0032876D02*
X0514312Y0028076D01*
X0365206Y0177379D02*
X0365206Y0204379D01*
X0365204Y0204439D01*
X0365199Y0204500D01*
X0365190Y0204559D01*
X0365177Y0204618D01*
X0365161Y0204677D01*
X0365141Y0204734D01*
X0365118Y0204789D01*
X0365091Y0204844D01*
X0365062Y0204896D01*
X0365029Y0204947D01*
X0364993Y0204996D01*
X0364955Y0205042D01*
X0364913Y0205086D01*
X0364869Y0205128D01*
X0364823Y0205166D01*
X0364774Y0205202D01*
X0364723Y0205235D01*
X0364671Y0205264D01*
X0364616Y0205291D01*
X0364561Y0205314D01*
X0364504Y0205334D01*
X0364445Y0205350D01*
X0364386Y0205363D01*
X0364327Y0205372D01*
X0364266Y0205377D01*
X0364206Y0205379D01*
X0356206Y0205379D01*
X0356146Y0205377D01*
X0356085Y0205372D01*
X0356026Y0205363D01*
X0355967Y0205350D01*
X0355908Y0205334D01*
X0355851Y0205314D01*
X0355796Y0205291D01*
X0355741Y0205264D01*
X0355689Y0205235D01*
X0355638Y0205202D01*
X0355589Y0205166D01*
X0355543Y0205128D01*
X0355499Y0205086D01*
X0355457Y0205042D01*
X0355419Y0204996D01*
X0355383Y0204947D01*
X0355350Y0204896D01*
X0355321Y0204844D01*
X0355294Y0204789D01*
X0355271Y0204734D01*
X0355251Y0204677D01*
X0355235Y0204618D01*
X0355222Y0204559D01*
X0355213Y0204500D01*
X0355208Y0204439D01*
X0355206Y0204379D01*
X0355206Y0177379D01*
X0355208Y0177319D01*
X0355213Y0177258D01*
X0355222Y0177199D01*
X0355235Y0177140D01*
X0355251Y0177081D01*
X0355271Y0177024D01*
X0355294Y0176969D01*
X0355321Y0176914D01*
X0355350Y0176862D01*
X0355383Y0176811D01*
X0355419Y0176762D01*
X0355457Y0176716D01*
X0355499Y0176672D01*
X0355543Y0176630D01*
X0355589Y0176592D01*
X0355638Y0176556D01*
X0355689Y0176523D01*
X0355741Y0176494D01*
X0355796Y0176467D01*
X0355851Y0176444D01*
X0355908Y0176424D01*
X0355967Y0176408D01*
X0356026Y0176395D01*
X0356085Y0176386D01*
X0356146Y0176381D01*
X0356206Y0176379D01*
X0364206Y0176379D01*
X0364266Y0176381D01*
X0364327Y0176386D01*
X0364386Y0176395D01*
X0364445Y0176408D01*
X0364504Y0176424D01*
X0364561Y0176444D01*
X0364616Y0176467D01*
X0364671Y0176494D01*
X0364723Y0176523D01*
X0364774Y0176556D01*
X0364823Y0176592D01*
X0364869Y0176630D01*
X0364913Y0176672D01*
X0364955Y0176716D01*
X0364993Y0176762D01*
X0365029Y0176811D01*
X0365062Y0176862D01*
X0365091Y0176914D01*
X0365118Y0176969D01*
X0365141Y0177024D01*
X0365161Y0177081D01*
X0365177Y0177140D01*
X0365190Y0177199D01*
X0365199Y0177258D01*
X0365204Y0177319D01*
X0365206Y0177379D01*
X0360206Y0184879D02*
X0360206Y0189679D01*
X0360206Y0192179D02*
X0360206Y0196879D01*
D12*
X0456905Y0119110D02*
X0456907Y0119274D01*
X0456913Y0119438D01*
X0456923Y0119602D01*
X0456937Y0119766D01*
X0456955Y0119929D01*
X0456977Y0120092D01*
X0457004Y0120254D01*
X0457034Y0120416D01*
X0457068Y0120576D01*
X0457106Y0120736D01*
X0457147Y0120895D01*
X0457193Y0121053D01*
X0457243Y0121209D01*
X0457296Y0121365D01*
X0457353Y0121519D01*
X0457414Y0121671D01*
X0457479Y0121822D01*
X0457548Y0121972D01*
X0457620Y0122119D01*
X0457695Y0122265D01*
X0457775Y0122409D01*
X0457857Y0122551D01*
X0457943Y0122691D01*
X0458033Y0122828D01*
X0458126Y0122964D01*
X0458222Y0123097D01*
X0458322Y0123228D01*
X0458424Y0123356D01*
X0458530Y0123482D01*
X0458639Y0123605D01*
X0458751Y0123725D01*
X0458865Y0123843D01*
X0458983Y0123957D01*
X0459103Y0124069D01*
X0459226Y0124178D01*
X0459352Y0124284D01*
X0459480Y0124386D01*
X0459611Y0124486D01*
X0459744Y0124582D01*
X0459880Y0124675D01*
X0460017Y0124765D01*
X0460157Y0124851D01*
X0460299Y0124933D01*
X0460443Y0125013D01*
X0460589Y0125088D01*
X0460736Y0125160D01*
X0460886Y0125229D01*
X0461037Y0125294D01*
X0461189Y0125355D01*
X0461343Y0125412D01*
X0461499Y0125465D01*
X0461655Y0125515D01*
X0461813Y0125561D01*
X0461972Y0125602D01*
X0462132Y0125640D01*
X0462292Y0125674D01*
X0462454Y0125704D01*
X0462616Y0125731D01*
X0462779Y0125753D01*
X0462942Y0125771D01*
X0463106Y0125785D01*
X0463270Y0125795D01*
X0463434Y0125801D01*
X0463598Y0125803D01*
X0463762Y0125801D01*
X0463926Y0125795D01*
X0464090Y0125785D01*
X0464254Y0125771D01*
X0464417Y0125753D01*
X0464580Y0125731D01*
X0464742Y0125704D01*
X0464904Y0125674D01*
X0465064Y0125640D01*
X0465224Y0125602D01*
X0465383Y0125561D01*
X0465541Y0125515D01*
X0465697Y0125465D01*
X0465853Y0125412D01*
X0466007Y0125355D01*
X0466159Y0125294D01*
X0466310Y0125229D01*
X0466460Y0125160D01*
X0466607Y0125088D01*
X0466753Y0125013D01*
X0466897Y0124933D01*
X0467039Y0124851D01*
X0467179Y0124765D01*
X0467316Y0124675D01*
X0467452Y0124582D01*
X0467585Y0124486D01*
X0467716Y0124386D01*
X0467844Y0124284D01*
X0467970Y0124178D01*
X0468093Y0124069D01*
X0468213Y0123957D01*
X0468331Y0123843D01*
X0468445Y0123725D01*
X0468557Y0123605D01*
X0468666Y0123482D01*
X0468772Y0123356D01*
X0468874Y0123228D01*
X0468974Y0123097D01*
X0469070Y0122964D01*
X0469163Y0122828D01*
X0469253Y0122691D01*
X0469339Y0122551D01*
X0469421Y0122409D01*
X0469501Y0122265D01*
X0469576Y0122119D01*
X0469648Y0121972D01*
X0469717Y0121822D01*
X0469782Y0121671D01*
X0469843Y0121519D01*
X0469900Y0121365D01*
X0469953Y0121209D01*
X0470003Y0121053D01*
X0470049Y0120895D01*
X0470090Y0120736D01*
X0470128Y0120576D01*
X0470162Y0120416D01*
X0470192Y0120254D01*
X0470219Y0120092D01*
X0470241Y0119929D01*
X0470259Y0119766D01*
X0470273Y0119602D01*
X0470283Y0119438D01*
X0470289Y0119274D01*
X0470291Y0119110D01*
X0470289Y0118946D01*
X0470283Y0118782D01*
X0470273Y0118618D01*
X0470259Y0118454D01*
X0470241Y0118291D01*
X0470219Y0118128D01*
X0470192Y0117966D01*
X0470162Y0117804D01*
X0470128Y0117644D01*
X0470090Y0117484D01*
X0470049Y0117325D01*
X0470003Y0117167D01*
X0469953Y0117011D01*
X0469900Y0116855D01*
X0469843Y0116701D01*
X0469782Y0116549D01*
X0469717Y0116398D01*
X0469648Y0116248D01*
X0469576Y0116101D01*
X0469501Y0115955D01*
X0469421Y0115811D01*
X0469339Y0115669D01*
X0469253Y0115529D01*
X0469163Y0115392D01*
X0469070Y0115256D01*
X0468974Y0115123D01*
X0468874Y0114992D01*
X0468772Y0114864D01*
X0468666Y0114738D01*
X0468557Y0114615D01*
X0468445Y0114495D01*
X0468331Y0114377D01*
X0468213Y0114263D01*
X0468093Y0114151D01*
X0467970Y0114042D01*
X0467844Y0113936D01*
X0467716Y0113834D01*
X0467585Y0113734D01*
X0467452Y0113638D01*
X0467316Y0113545D01*
X0467179Y0113455D01*
X0467039Y0113369D01*
X0466897Y0113287D01*
X0466753Y0113207D01*
X0466607Y0113132D01*
X0466460Y0113060D01*
X0466310Y0112991D01*
X0466159Y0112926D01*
X0466007Y0112865D01*
X0465853Y0112808D01*
X0465697Y0112755D01*
X0465541Y0112705D01*
X0465383Y0112659D01*
X0465224Y0112618D01*
X0465064Y0112580D01*
X0464904Y0112546D01*
X0464742Y0112516D01*
X0464580Y0112489D01*
X0464417Y0112467D01*
X0464254Y0112449D01*
X0464090Y0112435D01*
X0463926Y0112425D01*
X0463762Y0112419D01*
X0463598Y0112417D01*
X0463434Y0112419D01*
X0463270Y0112425D01*
X0463106Y0112435D01*
X0462942Y0112449D01*
X0462779Y0112467D01*
X0462616Y0112489D01*
X0462454Y0112516D01*
X0462292Y0112546D01*
X0462132Y0112580D01*
X0461972Y0112618D01*
X0461813Y0112659D01*
X0461655Y0112705D01*
X0461499Y0112755D01*
X0461343Y0112808D01*
X0461189Y0112865D01*
X0461037Y0112926D01*
X0460886Y0112991D01*
X0460736Y0113060D01*
X0460589Y0113132D01*
X0460443Y0113207D01*
X0460299Y0113287D01*
X0460157Y0113369D01*
X0460017Y0113455D01*
X0459880Y0113545D01*
X0459744Y0113638D01*
X0459611Y0113734D01*
X0459480Y0113834D01*
X0459352Y0113936D01*
X0459226Y0114042D01*
X0459103Y0114151D01*
X0458983Y0114263D01*
X0458865Y0114377D01*
X0458751Y0114495D01*
X0458639Y0114615D01*
X0458530Y0114738D01*
X0458424Y0114864D01*
X0458322Y0114992D01*
X0458222Y0115123D01*
X0458126Y0115256D01*
X0458033Y0115392D01*
X0457943Y0115529D01*
X0457857Y0115669D01*
X0457775Y0115811D01*
X0457695Y0115955D01*
X0457620Y0116101D01*
X0457548Y0116248D01*
X0457479Y0116398D01*
X0457414Y0116549D01*
X0457353Y0116701D01*
X0457296Y0116855D01*
X0457243Y0117011D01*
X0457193Y0117167D01*
X0457147Y0117325D01*
X0457106Y0117484D01*
X0457068Y0117644D01*
X0457034Y0117804D01*
X0457004Y0117966D01*
X0456977Y0118128D01*
X0456955Y0118291D01*
X0456937Y0118454D01*
X0456923Y0118618D01*
X0456913Y0118782D01*
X0456907Y0118946D01*
X0456905Y0119110D01*
X0456905Y0276591D02*
X0456907Y0276755D01*
X0456913Y0276919D01*
X0456923Y0277083D01*
X0456937Y0277247D01*
X0456955Y0277410D01*
X0456977Y0277573D01*
X0457004Y0277735D01*
X0457034Y0277897D01*
X0457068Y0278057D01*
X0457106Y0278217D01*
X0457147Y0278376D01*
X0457193Y0278534D01*
X0457243Y0278690D01*
X0457296Y0278846D01*
X0457353Y0279000D01*
X0457414Y0279152D01*
X0457479Y0279303D01*
X0457548Y0279453D01*
X0457620Y0279600D01*
X0457695Y0279746D01*
X0457775Y0279890D01*
X0457857Y0280032D01*
X0457943Y0280172D01*
X0458033Y0280309D01*
X0458126Y0280445D01*
X0458222Y0280578D01*
X0458322Y0280709D01*
X0458424Y0280837D01*
X0458530Y0280963D01*
X0458639Y0281086D01*
X0458751Y0281206D01*
X0458865Y0281324D01*
X0458983Y0281438D01*
X0459103Y0281550D01*
X0459226Y0281659D01*
X0459352Y0281765D01*
X0459480Y0281867D01*
X0459611Y0281967D01*
X0459744Y0282063D01*
X0459880Y0282156D01*
X0460017Y0282246D01*
X0460157Y0282332D01*
X0460299Y0282414D01*
X0460443Y0282494D01*
X0460589Y0282569D01*
X0460736Y0282641D01*
X0460886Y0282710D01*
X0461037Y0282775D01*
X0461189Y0282836D01*
X0461343Y0282893D01*
X0461499Y0282946D01*
X0461655Y0282996D01*
X0461813Y0283042D01*
X0461972Y0283083D01*
X0462132Y0283121D01*
X0462292Y0283155D01*
X0462454Y0283185D01*
X0462616Y0283212D01*
X0462779Y0283234D01*
X0462942Y0283252D01*
X0463106Y0283266D01*
X0463270Y0283276D01*
X0463434Y0283282D01*
X0463598Y0283284D01*
X0463762Y0283282D01*
X0463926Y0283276D01*
X0464090Y0283266D01*
X0464254Y0283252D01*
X0464417Y0283234D01*
X0464580Y0283212D01*
X0464742Y0283185D01*
X0464904Y0283155D01*
X0465064Y0283121D01*
X0465224Y0283083D01*
X0465383Y0283042D01*
X0465541Y0282996D01*
X0465697Y0282946D01*
X0465853Y0282893D01*
X0466007Y0282836D01*
X0466159Y0282775D01*
X0466310Y0282710D01*
X0466460Y0282641D01*
X0466607Y0282569D01*
X0466753Y0282494D01*
X0466897Y0282414D01*
X0467039Y0282332D01*
X0467179Y0282246D01*
X0467316Y0282156D01*
X0467452Y0282063D01*
X0467585Y0281967D01*
X0467716Y0281867D01*
X0467844Y0281765D01*
X0467970Y0281659D01*
X0468093Y0281550D01*
X0468213Y0281438D01*
X0468331Y0281324D01*
X0468445Y0281206D01*
X0468557Y0281086D01*
X0468666Y0280963D01*
X0468772Y0280837D01*
X0468874Y0280709D01*
X0468974Y0280578D01*
X0469070Y0280445D01*
X0469163Y0280309D01*
X0469253Y0280172D01*
X0469339Y0280032D01*
X0469421Y0279890D01*
X0469501Y0279746D01*
X0469576Y0279600D01*
X0469648Y0279453D01*
X0469717Y0279303D01*
X0469782Y0279152D01*
X0469843Y0279000D01*
X0469900Y0278846D01*
X0469953Y0278690D01*
X0470003Y0278534D01*
X0470049Y0278376D01*
X0470090Y0278217D01*
X0470128Y0278057D01*
X0470162Y0277897D01*
X0470192Y0277735D01*
X0470219Y0277573D01*
X0470241Y0277410D01*
X0470259Y0277247D01*
X0470273Y0277083D01*
X0470283Y0276919D01*
X0470289Y0276755D01*
X0470291Y0276591D01*
X0470289Y0276427D01*
X0470283Y0276263D01*
X0470273Y0276099D01*
X0470259Y0275935D01*
X0470241Y0275772D01*
X0470219Y0275609D01*
X0470192Y0275447D01*
X0470162Y0275285D01*
X0470128Y0275125D01*
X0470090Y0274965D01*
X0470049Y0274806D01*
X0470003Y0274648D01*
X0469953Y0274492D01*
X0469900Y0274336D01*
X0469843Y0274182D01*
X0469782Y0274030D01*
X0469717Y0273879D01*
X0469648Y0273729D01*
X0469576Y0273582D01*
X0469501Y0273436D01*
X0469421Y0273292D01*
X0469339Y0273150D01*
X0469253Y0273010D01*
X0469163Y0272873D01*
X0469070Y0272737D01*
X0468974Y0272604D01*
X0468874Y0272473D01*
X0468772Y0272345D01*
X0468666Y0272219D01*
X0468557Y0272096D01*
X0468445Y0271976D01*
X0468331Y0271858D01*
X0468213Y0271744D01*
X0468093Y0271632D01*
X0467970Y0271523D01*
X0467844Y0271417D01*
X0467716Y0271315D01*
X0467585Y0271215D01*
X0467452Y0271119D01*
X0467316Y0271026D01*
X0467179Y0270936D01*
X0467039Y0270850D01*
X0466897Y0270768D01*
X0466753Y0270688D01*
X0466607Y0270613D01*
X0466460Y0270541D01*
X0466310Y0270472D01*
X0466159Y0270407D01*
X0466007Y0270346D01*
X0465853Y0270289D01*
X0465697Y0270236D01*
X0465541Y0270186D01*
X0465383Y0270140D01*
X0465224Y0270099D01*
X0465064Y0270061D01*
X0464904Y0270027D01*
X0464742Y0269997D01*
X0464580Y0269970D01*
X0464417Y0269948D01*
X0464254Y0269930D01*
X0464090Y0269916D01*
X0463926Y0269906D01*
X0463762Y0269900D01*
X0463598Y0269898D01*
X0463434Y0269900D01*
X0463270Y0269906D01*
X0463106Y0269916D01*
X0462942Y0269930D01*
X0462779Y0269948D01*
X0462616Y0269970D01*
X0462454Y0269997D01*
X0462292Y0270027D01*
X0462132Y0270061D01*
X0461972Y0270099D01*
X0461813Y0270140D01*
X0461655Y0270186D01*
X0461499Y0270236D01*
X0461343Y0270289D01*
X0461189Y0270346D01*
X0461037Y0270407D01*
X0460886Y0270472D01*
X0460736Y0270541D01*
X0460589Y0270613D01*
X0460443Y0270688D01*
X0460299Y0270768D01*
X0460157Y0270850D01*
X0460017Y0270936D01*
X0459880Y0271026D01*
X0459744Y0271119D01*
X0459611Y0271215D01*
X0459480Y0271315D01*
X0459352Y0271417D01*
X0459226Y0271523D01*
X0459103Y0271632D01*
X0458983Y0271744D01*
X0458865Y0271858D01*
X0458751Y0271976D01*
X0458639Y0272096D01*
X0458530Y0272219D01*
X0458424Y0272345D01*
X0458322Y0272473D01*
X0458222Y0272604D01*
X0458126Y0272737D01*
X0458033Y0272873D01*
X0457943Y0273010D01*
X0457857Y0273150D01*
X0457775Y0273292D01*
X0457695Y0273436D01*
X0457620Y0273582D01*
X0457548Y0273729D01*
X0457479Y0273879D01*
X0457414Y0274030D01*
X0457353Y0274182D01*
X0457296Y0274336D01*
X0457243Y0274492D01*
X0457193Y0274648D01*
X0457147Y0274806D01*
X0457106Y0274965D01*
X0457068Y0275125D01*
X0457034Y0275285D01*
X0457004Y0275447D01*
X0456977Y0275609D01*
X0456955Y0275772D01*
X0456937Y0275935D01*
X0456923Y0276099D01*
X0456913Y0276263D01*
X0456907Y0276427D01*
X0456905Y0276591D01*
X0141945Y0276591D02*
X0141947Y0276755D01*
X0141953Y0276919D01*
X0141963Y0277083D01*
X0141977Y0277247D01*
X0141995Y0277410D01*
X0142017Y0277573D01*
X0142044Y0277735D01*
X0142074Y0277897D01*
X0142108Y0278057D01*
X0142146Y0278217D01*
X0142187Y0278376D01*
X0142233Y0278534D01*
X0142283Y0278690D01*
X0142336Y0278846D01*
X0142393Y0279000D01*
X0142454Y0279152D01*
X0142519Y0279303D01*
X0142588Y0279453D01*
X0142660Y0279600D01*
X0142735Y0279746D01*
X0142815Y0279890D01*
X0142897Y0280032D01*
X0142983Y0280172D01*
X0143073Y0280309D01*
X0143166Y0280445D01*
X0143262Y0280578D01*
X0143362Y0280709D01*
X0143464Y0280837D01*
X0143570Y0280963D01*
X0143679Y0281086D01*
X0143791Y0281206D01*
X0143905Y0281324D01*
X0144023Y0281438D01*
X0144143Y0281550D01*
X0144266Y0281659D01*
X0144392Y0281765D01*
X0144520Y0281867D01*
X0144651Y0281967D01*
X0144784Y0282063D01*
X0144920Y0282156D01*
X0145057Y0282246D01*
X0145197Y0282332D01*
X0145339Y0282414D01*
X0145483Y0282494D01*
X0145629Y0282569D01*
X0145776Y0282641D01*
X0145926Y0282710D01*
X0146077Y0282775D01*
X0146229Y0282836D01*
X0146383Y0282893D01*
X0146539Y0282946D01*
X0146695Y0282996D01*
X0146853Y0283042D01*
X0147012Y0283083D01*
X0147172Y0283121D01*
X0147332Y0283155D01*
X0147494Y0283185D01*
X0147656Y0283212D01*
X0147819Y0283234D01*
X0147982Y0283252D01*
X0148146Y0283266D01*
X0148310Y0283276D01*
X0148474Y0283282D01*
X0148638Y0283284D01*
X0148802Y0283282D01*
X0148966Y0283276D01*
X0149130Y0283266D01*
X0149294Y0283252D01*
X0149457Y0283234D01*
X0149620Y0283212D01*
X0149782Y0283185D01*
X0149944Y0283155D01*
X0150104Y0283121D01*
X0150264Y0283083D01*
X0150423Y0283042D01*
X0150581Y0282996D01*
X0150737Y0282946D01*
X0150893Y0282893D01*
X0151047Y0282836D01*
X0151199Y0282775D01*
X0151350Y0282710D01*
X0151500Y0282641D01*
X0151647Y0282569D01*
X0151793Y0282494D01*
X0151937Y0282414D01*
X0152079Y0282332D01*
X0152219Y0282246D01*
X0152356Y0282156D01*
X0152492Y0282063D01*
X0152625Y0281967D01*
X0152756Y0281867D01*
X0152884Y0281765D01*
X0153010Y0281659D01*
X0153133Y0281550D01*
X0153253Y0281438D01*
X0153371Y0281324D01*
X0153485Y0281206D01*
X0153597Y0281086D01*
X0153706Y0280963D01*
X0153812Y0280837D01*
X0153914Y0280709D01*
X0154014Y0280578D01*
X0154110Y0280445D01*
X0154203Y0280309D01*
X0154293Y0280172D01*
X0154379Y0280032D01*
X0154461Y0279890D01*
X0154541Y0279746D01*
X0154616Y0279600D01*
X0154688Y0279453D01*
X0154757Y0279303D01*
X0154822Y0279152D01*
X0154883Y0279000D01*
X0154940Y0278846D01*
X0154993Y0278690D01*
X0155043Y0278534D01*
X0155089Y0278376D01*
X0155130Y0278217D01*
X0155168Y0278057D01*
X0155202Y0277897D01*
X0155232Y0277735D01*
X0155259Y0277573D01*
X0155281Y0277410D01*
X0155299Y0277247D01*
X0155313Y0277083D01*
X0155323Y0276919D01*
X0155329Y0276755D01*
X0155331Y0276591D01*
X0155329Y0276427D01*
X0155323Y0276263D01*
X0155313Y0276099D01*
X0155299Y0275935D01*
X0155281Y0275772D01*
X0155259Y0275609D01*
X0155232Y0275447D01*
X0155202Y0275285D01*
X0155168Y0275125D01*
X0155130Y0274965D01*
X0155089Y0274806D01*
X0155043Y0274648D01*
X0154993Y0274492D01*
X0154940Y0274336D01*
X0154883Y0274182D01*
X0154822Y0274030D01*
X0154757Y0273879D01*
X0154688Y0273729D01*
X0154616Y0273582D01*
X0154541Y0273436D01*
X0154461Y0273292D01*
X0154379Y0273150D01*
X0154293Y0273010D01*
X0154203Y0272873D01*
X0154110Y0272737D01*
X0154014Y0272604D01*
X0153914Y0272473D01*
X0153812Y0272345D01*
X0153706Y0272219D01*
X0153597Y0272096D01*
X0153485Y0271976D01*
X0153371Y0271858D01*
X0153253Y0271744D01*
X0153133Y0271632D01*
X0153010Y0271523D01*
X0152884Y0271417D01*
X0152756Y0271315D01*
X0152625Y0271215D01*
X0152492Y0271119D01*
X0152356Y0271026D01*
X0152219Y0270936D01*
X0152079Y0270850D01*
X0151937Y0270768D01*
X0151793Y0270688D01*
X0151647Y0270613D01*
X0151500Y0270541D01*
X0151350Y0270472D01*
X0151199Y0270407D01*
X0151047Y0270346D01*
X0150893Y0270289D01*
X0150737Y0270236D01*
X0150581Y0270186D01*
X0150423Y0270140D01*
X0150264Y0270099D01*
X0150104Y0270061D01*
X0149944Y0270027D01*
X0149782Y0269997D01*
X0149620Y0269970D01*
X0149457Y0269948D01*
X0149294Y0269930D01*
X0149130Y0269916D01*
X0148966Y0269906D01*
X0148802Y0269900D01*
X0148638Y0269898D01*
X0148474Y0269900D01*
X0148310Y0269906D01*
X0148146Y0269916D01*
X0147982Y0269930D01*
X0147819Y0269948D01*
X0147656Y0269970D01*
X0147494Y0269997D01*
X0147332Y0270027D01*
X0147172Y0270061D01*
X0147012Y0270099D01*
X0146853Y0270140D01*
X0146695Y0270186D01*
X0146539Y0270236D01*
X0146383Y0270289D01*
X0146229Y0270346D01*
X0146077Y0270407D01*
X0145926Y0270472D01*
X0145776Y0270541D01*
X0145629Y0270613D01*
X0145483Y0270688D01*
X0145339Y0270768D01*
X0145197Y0270850D01*
X0145057Y0270936D01*
X0144920Y0271026D01*
X0144784Y0271119D01*
X0144651Y0271215D01*
X0144520Y0271315D01*
X0144392Y0271417D01*
X0144266Y0271523D01*
X0144143Y0271632D01*
X0144023Y0271744D01*
X0143905Y0271858D01*
X0143791Y0271976D01*
X0143679Y0272096D01*
X0143570Y0272219D01*
X0143464Y0272345D01*
X0143362Y0272473D01*
X0143262Y0272604D01*
X0143166Y0272737D01*
X0143073Y0272873D01*
X0142983Y0273010D01*
X0142897Y0273150D01*
X0142815Y0273292D01*
X0142735Y0273436D01*
X0142660Y0273582D01*
X0142588Y0273729D01*
X0142519Y0273879D01*
X0142454Y0274030D01*
X0142393Y0274182D01*
X0142336Y0274336D01*
X0142283Y0274492D01*
X0142233Y0274648D01*
X0142187Y0274806D01*
X0142146Y0274965D01*
X0142108Y0275125D01*
X0142074Y0275285D01*
X0142044Y0275447D01*
X0142017Y0275609D01*
X0141995Y0275772D01*
X0141977Y0275935D01*
X0141963Y0276099D01*
X0141953Y0276263D01*
X0141947Y0276427D01*
X0141945Y0276591D01*
X0141945Y0119110D02*
X0141947Y0119274D01*
X0141953Y0119438D01*
X0141963Y0119602D01*
X0141977Y0119766D01*
X0141995Y0119929D01*
X0142017Y0120092D01*
X0142044Y0120254D01*
X0142074Y0120416D01*
X0142108Y0120576D01*
X0142146Y0120736D01*
X0142187Y0120895D01*
X0142233Y0121053D01*
X0142283Y0121209D01*
X0142336Y0121365D01*
X0142393Y0121519D01*
X0142454Y0121671D01*
X0142519Y0121822D01*
X0142588Y0121972D01*
X0142660Y0122119D01*
X0142735Y0122265D01*
X0142815Y0122409D01*
X0142897Y0122551D01*
X0142983Y0122691D01*
X0143073Y0122828D01*
X0143166Y0122964D01*
X0143262Y0123097D01*
X0143362Y0123228D01*
X0143464Y0123356D01*
X0143570Y0123482D01*
X0143679Y0123605D01*
X0143791Y0123725D01*
X0143905Y0123843D01*
X0144023Y0123957D01*
X0144143Y0124069D01*
X0144266Y0124178D01*
X0144392Y0124284D01*
X0144520Y0124386D01*
X0144651Y0124486D01*
X0144784Y0124582D01*
X0144920Y0124675D01*
X0145057Y0124765D01*
X0145197Y0124851D01*
X0145339Y0124933D01*
X0145483Y0125013D01*
X0145629Y0125088D01*
X0145776Y0125160D01*
X0145926Y0125229D01*
X0146077Y0125294D01*
X0146229Y0125355D01*
X0146383Y0125412D01*
X0146539Y0125465D01*
X0146695Y0125515D01*
X0146853Y0125561D01*
X0147012Y0125602D01*
X0147172Y0125640D01*
X0147332Y0125674D01*
X0147494Y0125704D01*
X0147656Y0125731D01*
X0147819Y0125753D01*
X0147982Y0125771D01*
X0148146Y0125785D01*
X0148310Y0125795D01*
X0148474Y0125801D01*
X0148638Y0125803D01*
X0148802Y0125801D01*
X0148966Y0125795D01*
X0149130Y0125785D01*
X0149294Y0125771D01*
X0149457Y0125753D01*
X0149620Y0125731D01*
X0149782Y0125704D01*
X0149944Y0125674D01*
X0150104Y0125640D01*
X0150264Y0125602D01*
X0150423Y0125561D01*
X0150581Y0125515D01*
X0150737Y0125465D01*
X0150893Y0125412D01*
X0151047Y0125355D01*
X0151199Y0125294D01*
X0151350Y0125229D01*
X0151500Y0125160D01*
X0151647Y0125088D01*
X0151793Y0125013D01*
X0151937Y0124933D01*
X0152079Y0124851D01*
X0152219Y0124765D01*
X0152356Y0124675D01*
X0152492Y0124582D01*
X0152625Y0124486D01*
X0152756Y0124386D01*
X0152884Y0124284D01*
X0153010Y0124178D01*
X0153133Y0124069D01*
X0153253Y0123957D01*
X0153371Y0123843D01*
X0153485Y0123725D01*
X0153597Y0123605D01*
X0153706Y0123482D01*
X0153812Y0123356D01*
X0153914Y0123228D01*
X0154014Y0123097D01*
X0154110Y0122964D01*
X0154203Y0122828D01*
X0154293Y0122691D01*
X0154379Y0122551D01*
X0154461Y0122409D01*
X0154541Y0122265D01*
X0154616Y0122119D01*
X0154688Y0121972D01*
X0154757Y0121822D01*
X0154822Y0121671D01*
X0154883Y0121519D01*
X0154940Y0121365D01*
X0154993Y0121209D01*
X0155043Y0121053D01*
X0155089Y0120895D01*
X0155130Y0120736D01*
X0155168Y0120576D01*
X0155202Y0120416D01*
X0155232Y0120254D01*
X0155259Y0120092D01*
X0155281Y0119929D01*
X0155299Y0119766D01*
X0155313Y0119602D01*
X0155323Y0119438D01*
X0155329Y0119274D01*
X0155331Y0119110D01*
X0155329Y0118946D01*
X0155323Y0118782D01*
X0155313Y0118618D01*
X0155299Y0118454D01*
X0155281Y0118291D01*
X0155259Y0118128D01*
X0155232Y0117966D01*
X0155202Y0117804D01*
X0155168Y0117644D01*
X0155130Y0117484D01*
X0155089Y0117325D01*
X0155043Y0117167D01*
X0154993Y0117011D01*
X0154940Y0116855D01*
X0154883Y0116701D01*
X0154822Y0116549D01*
X0154757Y0116398D01*
X0154688Y0116248D01*
X0154616Y0116101D01*
X0154541Y0115955D01*
X0154461Y0115811D01*
X0154379Y0115669D01*
X0154293Y0115529D01*
X0154203Y0115392D01*
X0154110Y0115256D01*
X0154014Y0115123D01*
X0153914Y0114992D01*
X0153812Y0114864D01*
X0153706Y0114738D01*
X0153597Y0114615D01*
X0153485Y0114495D01*
X0153371Y0114377D01*
X0153253Y0114263D01*
X0153133Y0114151D01*
X0153010Y0114042D01*
X0152884Y0113936D01*
X0152756Y0113834D01*
X0152625Y0113734D01*
X0152492Y0113638D01*
X0152356Y0113545D01*
X0152219Y0113455D01*
X0152079Y0113369D01*
X0151937Y0113287D01*
X0151793Y0113207D01*
X0151647Y0113132D01*
X0151500Y0113060D01*
X0151350Y0112991D01*
X0151199Y0112926D01*
X0151047Y0112865D01*
X0150893Y0112808D01*
X0150737Y0112755D01*
X0150581Y0112705D01*
X0150423Y0112659D01*
X0150264Y0112618D01*
X0150104Y0112580D01*
X0149944Y0112546D01*
X0149782Y0112516D01*
X0149620Y0112489D01*
X0149457Y0112467D01*
X0149294Y0112449D01*
X0149130Y0112435D01*
X0148966Y0112425D01*
X0148802Y0112419D01*
X0148638Y0112417D01*
X0148474Y0112419D01*
X0148310Y0112425D01*
X0148146Y0112435D01*
X0147982Y0112449D01*
X0147819Y0112467D01*
X0147656Y0112489D01*
X0147494Y0112516D01*
X0147332Y0112546D01*
X0147172Y0112580D01*
X0147012Y0112618D01*
X0146853Y0112659D01*
X0146695Y0112705D01*
X0146539Y0112755D01*
X0146383Y0112808D01*
X0146229Y0112865D01*
X0146077Y0112926D01*
X0145926Y0112991D01*
X0145776Y0113060D01*
X0145629Y0113132D01*
X0145483Y0113207D01*
X0145339Y0113287D01*
X0145197Y0113369D01*
X0145057Y0113455D01*
X0144920Y0113545D01*
X0144784Y0113638D01*
X0144651Y0113734D01*
X0144520Y0113834D01*
X0144392Y0113936D01*
X0144266Y0114042D01*
X0144143Y0114151D01*
X0144023Y0114263D01*
X0143905Y0114377D01*
X0143791Y0114495D01*
X0143679Y0114615D01*
X0143570Y0114738D01*
X0143464Y0114864D01*
X0143362Y0114992D01*
X0143262Y0115123D01*
X0143166Y0115256D01*
X0143073Y0115392D01*
X0142983Y0115529D01*
X0142897Y0115669D01*
X0142815Y0115811D01*
X0142735Y0115955D01*
X0142660Y0116101D01*
X0142588Y0116248D01*
X0142519Y0116398D01*
X0142454Y0116549D01*
X0142393Y0116701D01*
X0142336Y0116855D01*
X0142283Y0117011D01*
X0142233Y0117167D01*
X0142187Y0117325D01*
X0142146Y0117484D01*
X0142108Y0117644D01*
X0142074Y0117804D01*
X0142044Y0117966D01*
X0142017Y0118128D01*
X0141995Y0118291D01*
X0141977Y0118454D01*
X0141963Y0118618D01*
X0141953Y0118782D01*
X0141947Y0118946D01*
X0141945Y0119110D01*
D13*
X0206419Y0147040D02*
X0207170Y0146289D01*
X0210173Y0146289D01*
X0210923Y0147040D01*
X0210923Y0148541D01*
X0210173Y0149292D01*
X0210923Y0150893D02*
X0210923Y0153896D01*
X0210923Y0152395D02*
X0206419Y0152395D01*
X0207921Y0150893D01*
X0207170Y0149292D02*
X0206419Y0148541D01*
X0206419Y0147040D01*
X0207170Y0155497D02*
X0206419Y0156248D01*
X0206419Y0157749D01*
X0207170Y0158500D01*
X0207921Y0158500D01*
X0208671Y0157749D01*
X0209422Y0158500D01*
X0210173Y0158500D01*
X0210923Y0157749D01*
X0210923Y0156248D01*
X0210173Y0155497D01*
X0208671Y0156998D02*
X0208671Y0157749D01*
X0193722Y0177708D02*
X0194473Y0178459D01*
X0194473Y0179960D01*
X0193722Y0180711D01*
X0193722Y0182312D02*
X0194473Y0183063D01*
X0194473Y0184564D01*
X0193722Y0185314D01*
X0192972Y0185314D01*
X0192221Y0184564D01*
X0192221Y0182312D01*
X0193722Y0182312D01*
X0192221Y0182312D02*
X0190720Y0183813D01*
X0189969Y0185314D01*
X0190720Y0180711D02*
X0189969Y0179960D01*
X0189969Y0178459D01*
X0190720Y0177708D01*
X0193722Y0177708D01*
X0217535Y0188008D02*
X0217535Y0204150D01*
X0221079Y0207693D01*
X0222260Y0208874D01*
X0220685Y0210449D01*
X0217535Y0207693D01*
X0221079Y0207693D01*
X0237220Y0207693D01*
X0237220Y0188008D01*
X0217535Y0188008D01*
X0220605Y0197850D02*
X0220607Y0198016D01*
X0220613Y0198182D01*
X0220623Y0198348D01*
X0220638Y0198514D01*
X0220656Y0198679D01*
X0220678Y0198844D01*
X0220705Y0199008D01*
X0220735Y0199171D01*
X0220770Y0199334D01*
X0220808Y0199496D01*
X0220850Y0199656D01*
X0220897Y0199816D01*
X0220947Y0199975D01*
X0221001Y0200132D01*
X0221059Y0200288D01*
X0221121Y0200442D01*
X0221186Y0200595D01*
X0221255Y0200746D01*
X0221328Y0200895D01*
X0221405Y0201043D01*
X0221485Y0201188D01*
X0221569Y0201332D01*
X0221656Y0201474D01*
X0221746Y0201613D01*
X0221840Y0201750D01*
X0221938Y0201885D01*
X0222039Y0202017D01*
X0222142Y0202147D01*
X0222249Y0202274D01*
X0222360Y0202398D01*
X0222473Y0202520D01*
X0222589Y0202639D01*
X0222708Y0202755D01*
X0222830Y0202868D01*
X0222954Y0202979D01*
X0223081Y0203086D01*
X0223211Y0203189D01*
X0223343Y0203290D01*
X0223478Y0203388D01*
X0223615Y0203482D01*
X0223754Y0203572D01*
X0223896Y0203659D01*
X0224040Y0203743D01*
X0224185Y0203823D01*
X0224333Y0203900D01*
X0224482Y0203973D01*
X0224633Y0204042D01*
X0224786Y0204107D01*
X0224940Y0204169D01*
X0225096Y0204227D01*
X0225253Y0204281D01*
X0225412Y0204331D01*
X0225572Y0204378D01*
X0225732Y0204420D01*
X0225894Y0204458D01*
X0226057Y0204493D01*
X0226220Y0204523D01*
X0226384Y0204550D01*
X0226549Y0204572D01*
X0226714Y0204590D01*
X0226880Y0204605D01*
X0227046Y0204615D01*
X0227212Y0204621D01*
X0227378Y0204623D01*
X0227544Y0204621D01*
X0227710Y0204615D01*
X0227876Y0204605D01*
X0228042Y0204590D01*
X0228207Y0204572D01*
X0228372Y0204550D01*
X0228536Y0204523D01*
X0228699Y0204493D01*
X0228862Y0204458D01*
X0229024Y0204420D01*
X0229184Y0204378D01*
X0229344Y0204331D01*
X0229503Y0204281D01*
X0229660Y0204227D01*
X0229816Y0204169D01*
X0229970Y0204107D01*
X0230123Y0204042D01*
X0230274Y0203973D01*
X0230423Y0203900D01*
X0230571Y0203823D01*
X0230716Y0203743D01*
X0230860Y0203659D01*
X0231002Y0203572D01*
X0231141Y0203482D01*
X0231278Y0203388D01*
X0231413Y0203290D01*
X0231545Y0203189D01*
X0231675Y0203086D01*
X0231802Y0202979D01*
X0231926Y0202868D01*
X0232048Y0202755D01*
X0232167Y0202639D01*
X0232283Y0202520D01*
X0232396Y0202398D01*
X0232507Y0202274D01*
X0232614Y0202147D01*
X0232717Y0202017D01*
X0232818Y0201885D01*
X0232916Y0201750D01*
X0233010Y0201613D01*
X0233100Y0201474D01*
X0233187Y0201332D01*
X0233271Y0201188D01*
X0233351Y0201043D01*
X0233428Y0200895D01*
X0233501Y0200746D01*
X0233570Y0200595D01*
X0233635Y0200442D01*
X0233697Y0200288D01*
X0233755Y0200132D01*
X0233809Y0199975D01*
X0233859Y0199816D01*
X0233906Y0199656D01*
X0233948Y0199496D01*
X0233986Y0199334D01*
X0234021Y0199171D01*
X0234051Y0199008D01*
X0234078Y0198844D01*
X0234100Y0198679D01*
X0234118Y0198514D01*
X0234133Y0198348D01*
X0234143Y0198182D01*
X0234149Y0198016D01*
X0234151Y0197850D01*
X0234149Y0197684D01*
X0234143Y0197518D01*
X0234133Y0197352D01*
X0234118Y0197186D01*
X0234100Y0197021D01*
X0234078Y0196856D01*
X0234051Y0196692D01*
X0234021Y0196529D01*
X0233986Y0196366D01*
X0233948Y0196204D01*
X0233906Y0196044D01*
X0233859Y0195884D01*
X0233809Y0195725D01*
X0233755Y0195568D01*
X0233697Y0195412D01*
X0233635Y0195258D01*
X0233570Y0195105D01*
X0233501Y0194954D01*
X0233428Y0194805D01*
X0233351Y0194657D01*
X0233271Y0194512D01*
X0233187Y0194368D01*
X0233100Y0194226D01*
X0233010Y0194087D01*
X0232916Y0193950D01*
X0232818Y0193815D01*
X0232717Y0193683D01*
X0232614Y0193553D01*
X0232507Y0193426D01*
X0232396Y0193302D01*
X0232283Y0193180D01*
X0232167Y0193061D01*
X0232048Y0192945D01*
X0231926Y0192832D01*
X0231802Y0192721D01*
X0231675Y0192614D01*
X0231545Y0192511D01*
X0231413Y0192410D01*
X0231278Y0192312D01*
X0231141Y0192218D01*
X0231002Y0192128D01*
X0230860Y0192041D01*
X0230716Y0191957D01*
X0230571Y0191877D01*
X0230423Y0191800D01*
X0230274Y0191727D01*
X0230123Y0191658D01*
X0229970Y0191593D01*
X0229816Y0191531D01*
X0229660Y0191473D01*
X0229503Y0191419D01*
X0229344Y0191369D01*
X0229184Y0191322D01*
X0229024Y0191280D01*
X0228862Y0191242D01*
X0228699Y0191207D01*
X0228536Y0191177D01*
X0228372Y0191150D01*
X0228207Y0191128D01*
X0228042Y0191110D01*
X0227876Y0191095D01*
X0227710Y0191085D01*
X0227544Y0191079D01*
X0227378Y0191077D01*
X0227212Y0191079D01*
X0227046Y0191085D01*
X0226880Y0191095D01*
X0226714Y0191110D01*
X0226549Y0191128D01*
X0226384Y0191150D01*
X0226220Y0191177D01*
X0226057Y0191207D01*
X0225894Y0191242D01*
X0225732Y0191280D01*
X0225572Y0191322D01*
X0225412Y0191369D01*
X0225253Y0191419D01*
X0225096Y0191473D01*
X0224940Y0191531D01*
X0224786Y0191593D01*
X0224633Y0191658D01*
X0224482Y0191727D01*
X0224333Y0191800D01*
X0224185Y0191877D01*
X0224040Y0191957D01*
X0223896Y0192041D01*
X0223754Y0192128D01*
X0223615Y0192218D01*
X0223478Y0192312D01*
X0223343Y0192410D01*
X0223211Y0192511D01*
X0223081Y0192614D01*
X0222954Y0192721D01*
X0222830Y0192832D01*
X0222708Y0192945D01*
X0222589Y0193061D01*
X0222473Y0193180D01*
X0222360Y0193302D01*
X0222249Y0193426D01*
X0222142Y0193553D01*
X0222039Y0193683D01*
X0221938Y0193815D01*
X0221840Y0193950D01*
X0221746Y0194087D01*
X0221656Y0194226D01*
X0221569Y0194368D01*
X0221485Y0194512D01*
X0221405Y0194657D01*
X0221328Y0194805D01*
X0221255Y0194954D01*
X0221186Y0195105D01*
X0221121Y0195258D01*
X0221059Y0195412D01*
X0221001Y0195568D01*
X0220947Y0195725D01*
X0220897Y0195884D01*
X0220850Y0196044D01*
X0220808Y0196204D01*
X0220770Y0196366D01*
X0220735Y0196529D01*
X0220705Y0196692D01*
X0220678Y0196856D01*
X0220656Y0197021D01*
X0220638Y0197186D01*
X0220623Y0197352D01*
X0220613Y0197518D01*
X0220607Y0197684D01*
X0220605Y0197850D01*
X0217535Y0204150D02*
X0217535Y0207693D01*
X0240938Y0142175D02*
X0240187Y0141424D01*
X0240187Y0138422D01*
X0240938Y0137671D01*
X0242439Y0137671D01*
X0243190Y0138422D01*
X0244791Y0138422D02*
X0245542Y0137671D01*
X0247043Y0137671D01*
X0247793Y0138422D01*
X0247793Y0141424D01*
X0247043Y0142175D01*
X0245542Y0142175D01*
X0244791Y0141424D01*
X0244791Y0138422D01*
X0243190Y0141424D02*
X0242439Y0142175D01*
X0240938Y0142175D01*
X0249395Y0142175D02*
X0249395Y0137671D01*
X0252397Y0137671D02*
X0249395Y0142175D01*
X0252397Y0142175D02*
X0252397Y0137671D01*
X0253999Y0137671D02*
X0257001Y0140674D01*
X0257001Y0141424D01*
X0256251Y0142175D01*
X0254749Y0142175D01*
X0253999Y0141424D01*
X0253999Y0137671D02*
X0257001Y0137671D01*
X0236688Y0133175D02*
X0236688Y0128671D01*
X0235187Y0128671D02*
X0238190Y0128671D01*
X0235187Y0131674D02*
X0236688Y0133175D01*
X0348952Y0178380D02*
X0349703Y0177629D01*
X0352705Y0177629D01*
X0353456Y0178380D01*
X0353456Y0179881D01*
X0352705Y0180632D01*
X0352705Y0182233D02*
X0353456Y0182233D01*
X0352705Y0182233D02*
X0349703Y0185236D01*
X0348952Y0185236D01*
X0348952Y0182233D01*
X0349703Y0180632D02*
X0348952Y0179881D01*
X0348952Y0178380D01*
X0375016Y0188008D02*
X0375016Y0204150D01*
X0378559Y0207693D01*
X0379740Y0208874D01*
X0378165Y0210449D01*
X0375016Y0207693D01*
X0378559Y0207693D01*
X0394701Y0207693D01*
X0394701Y0188008D01*
X0375016Y0188008D01*
X0378085Y0197850D02*
X0378087Y0198016D01*
X0378093Y0198182D01*
X0378103Y0198348D01*
X0378118Y0198514D01*
X0378136Y0198679D01*
X0378158Y0198844D01*
X0378185Y0199008D01*
X0378215Y0199171D01*
X0378250Y0199334D01*
X0378288Y0199496D01*
X0378330Y0199656D01*
X0378377Y0199816D01*
X0378427Y0199975D01*
X0378481Y0200132D01*
X0378539Y0200288D01*
X0378601Y0200442D01*
X0378666Y0200595D01*
X0378735Y0200746D01*
X0378808Y0200895D01*
X0378885Y0201043D01*
X0378965Y0201188D01*
X0379049Y0201332D01*
X0379136Y0201474D01*
X0379226Y0201613D01*
X0379320Y0201750D01*
X0379418Y0201885D01*
X0379519Y0202017D01*
X0379622Y0202147D01*
X0379729Y0202274D01*
X0379840Y0202398D01*
X0379953Y0202520D01*
X0380069Y0202639D01*
X0380188Y0202755D01*
X0380310Y0202868D01*
X0380434Y0202979D01*
X0380561Y0203086D01*
X0380691Y0203189D01*
X0380823Y0203290D01*
X0380958Y0203388D01*
X0381095Y0203482D01*
X0381234Y0203572D01*
X0381376Y0203659D01*
X0381520Y0203743D01*
X0381665Y0203823D01*
X0381813Y0203900D01*
X0381962Y0203973D01*
X0382113Y0204042D01*
X0382266Y0204107D01*
X0382420Y0204169D01*
X0382576Y0204227D01*
X0382733Y0204281D01*
X0382892Y0204331D01*
X0383052Y0204378D01*
X0383212Y0204420D01*
X0383374Y0204458D01*
X0383537Y0204493D01*
X0383700Y0204523D01*
X0383864Y0204550D01*
X0384029Y0204572D01*
X0384194Y0204590D01*
X0384360Y0204605D01*
X0384526Y0204615D01*
X0384692Y0204621D01*
X0384858Y0204623D01*
X0385024Y0204621D01*
X0385190Y0204615D01*
X0385356Y0204605D01*
X0385522Y0204590D01*
X0385687Y0204572D01*
X0385852Y0204550D01*
X0386016Y0204523D01*
X0386179Y0204493D01*
X0386342Y0204458D01*
X0386504Y0204420D01*
X0386664Y0204378D01*
X0386824Y0204331D01*
X0386983Y0204281D01*
X0387140Y0204227D01*
X0387296Y0204169D01*
X0387450Y0204107D01*
X0387603Y0204042D01*
X0387754Y0203973D01*
X0387903Y0203900D01*
X0388051Y0203823D01*
X0388196Y0203743D01*
X0388340Y0203659D01*
X0388482Y0203572D01*
X0388621Y0203482D01*
X0388758Y0203388D01*
X0388893Y0203290D01*
X0389025Y0203189D01*
X0389155Y0203086D01*
X0389282Y0202979D01*
X0389406Y0202868D01*
X0389528Y0202755D01*
X0389647Y0202639D01*
X0389763Y0202520D01*
X0389876Y0202398D01*
X0389987Y0202274D01*
X0390094Y0202147D01*
X0390197Y0202017D01*
X0390298Y0201885D01*
X0390396Y0201750D01*
X0390490Y0201613D01*
X0390580Y0201474D01*
X0390667Y0201332D01*
X0390751Y0201188D01*
X0390831Y0201043D01*
X0390908Y0200895D01*
X0390981Y0200746D01*
X0391050Y0200595D01*
X0391115Y0200442D01*
X0391177Y0200288D01*
X0391235Y0200132D01*
X0391289Y0199975D01*
X0391339Y0199816D01*
X0391386Y0199656D01*
X0391428Y0199496D01*
X0391466Y0199334D01*
X0391501Y0199171D01*
X0391531Y0199008D01*
X0391558Y0198844D01*
X0391580Y0198679D01*
X0391598Y0198514D01*
X0391613Y0198348D01*
X0391623Y0198182D01*
X0391629Y0198016D01*
X0391631Y0197850D01*
X0391629Y0197684D01*
X0391623Y0197518D01*
X0391613Y0197352D01*
X0391598Y0197186D01*
X0391580Y0197021D01*
X0391558Y0196856D01*
X0391531Y0196692D01*
X0391501Y0196529D01*
X0391466Y0196366D01*
X0391428Y0196204D01*
X0391386Y0196044D01*
X0391339Y0195884D01*
X0391289Y0195725D01*
X0391235Y0195568D01*
X0391177Y0195412D01*
X0391115Y0195258D01*
X0391050Y0195105D01*
X0390981Y0194954D01*
X0390908Y0194805D01*
X0390831Y0194657D01*
X0390751Y0194512D01*
X0390667Y0194368D01*
X0390580Y0194226D01*
X0390490Y0194087D01*
X0390396Y0193950D01*
X0390298Y0193815D01*
X0390197Y0193683D01*
X0390094Y0193553D01*
X0389987Y0193426D01*
X0389876Y0193302D01*
X0389763Y0193180D01*
X0389647Y0193061D01*
X0389528Y0192945D01*
X0389406Y0192832D01*
X0389282Y0192721D01*
X0389155Y0192614D01*
X0389025Y0192511D01*
X0388893Y0192410D01*
X0388758Y0192312D01*
X0388621Y0192218D01*
X0388482Y0192128D01*
X0388340Y0192041D01*
X0388196Y0191957D01*
X0388051Y0191877D01*
X0387903Y0191800D01*
X0387754Y0191727D01*
X0387603Y0191658D01*
X0387450Y0191593D01*
X0387296Y0191531D01*
X0387140Y0191473D01*
X0386983Y0191419D01*
X0386824Y0191369D01*
X0386664Y0191322D01*
X0386504Y0191280D01*
X0386342Y0191242D01*
X0386179Y0191207D01*
X0386016Y0191177D01*
X0385852Y0191150D01*
X0385687Y0191128D01*
X0385522Y0191110D01*
X0385356Y0191095D01*
X0385190Y0191085D01*
X0385024Y0191079D01*
X0384858Y0191077D01*
X0384692Y0191079D01*
X0384526Y0191085D01*
X0384360Y0191095D01*
X0384194Y0191110D01*
X0384029Y0191128D01*
X0383864Y0191150D01*
X0383700Y0191177D01*
X0383537Y0191207D01*
X0383374Y0191242D01*
X0383212Y0191280D01*
X0383052Y0191322D01*
X0382892Y0191369D01*
X0382733Y0191419D01*
X0382576Y0191473D01*
X0382420Y0191531D01*
X0382266Y0191593D01*
X0382113Y0191658D01*
X0381962Y0191727D01*
X0381813Y0191800D01*
X0381665Y0191877D01*
X0381520Y0191957D01*
X0381376Y0192041D01*
X0381234Y0192128D01*
X0381095Y0192218D01*
X0380958Y0192312D01*
X0380823Y0192410D01*
X0380691Y0192511D01*
X0380561Y0192614D01*
X0380434Y0192721D01*
X0380310Y0192832D01*
X0380188Y0192945D01*
X0380069Y0193061D01*
X0379953Y0193180D01*
X0379840Y0193302D01*
X0379729Y0193426D01*
X0379622Y0193553D01*
X0379519Y0193683D01*
X0379418Y0193815D01*
X0379320Y0193950D01*
X0379226Y0194087D01*
X0379136Y0194226D01*
X0379049Y0194368D01*
X0378965Y0194512D01*
X0378885Y0194657D01*
X0378808Y0194805D01*
X0378735Y0194954D01*
X0378666Y0195105D01*
X0378601Y0195258D01*
X0378539Y0195412D01*
X0378481Y0195568D01*
X0378427Y0195725D01*
X0378377Y0195884D01*
X0378330Y0196044D01*
X0378288Y0196204D01*
X0378250Y0196366D01*
X0378215Y0196529D01*
X0378185Y0196692D01*
X0378158Y0196856D01*
X0378136Y0197021D01*
X0378118Y0197186D01*
X0378103Y0197352D01*
X0378093Y0197518D01*
X0378087Y0197684D01*
X0378085Y0197850D01*
X0375016Y0204150D02*
X0375016Y0207693D01*
X0506473Y0184232D02*
X0507224Y0184983D01*
X0507974Y0184983D01*
X0508725Y0184232D01*
X0508725Y0182731D01*
X0507974Y0181980D01*
X0507224Y0181980D01*
X0506473Y0182731D01*
X0506473Y0184232D01*
X0508725Y0184232D02*
X0509476Y0184983D01*
X0510226Y0184983D01*
X0510977Y0184232D01*
X0510977Y0182731D01*
X0510226Y0181980D01*
X0509476Y0181980D01*
X0508725Y0182731D01*
X0507224Y0180379D02*
X0506473Y0179628D01*
X0506473Y0178127D01*
X0507224Y0177376D01*
X0510226Y0177376D01*
X0510977Y0178127D01*
X0510977Y0179628D01*
X0510226Y0180379D01*
X0532496Y0188008D02*
X0532496Y0204150D01*
X0536039Y0207693D01*
X0537220Y0208874D01*
X0535646Y0210449D01*
X0532496Y0207693D01*
X0536039Y0207693D01*
X0552181Y0207693D01*
X0552181Y0188008D01*
X0532496Y0188008D01*
X0535566Y0197850D02*
X0535568Y0198016D01*
X0535574Y0198182D01*
X0535584Y0198348D01*
X0535599Y0198514D01*
X0535617Y0198679D01*
X0535639Y0198844D01*
X0535666Y0199008D01*
X0535696Y0199171D01*
X0535731Y0199334D01*
X0535769Y0199496D01*
X0535811Y0199656D01*
X0535858Y0199816D01*
X0535908Y0199975D01*
X0535962Y0200132D01*
X0536020Y0200288D01*
X0536082Y0200442D01*
X0536147Y0200595D01*
X0536216Y0200746D01*
X0536289Y0200895D01*
X0536366Y0201043D01*
X0536446Y0201188D01*
X0536530Y0201332D01*
X0536617Y0201474D01*
X0536707Y0201613D01*
X0536801Y0201750D01*
X0536899Y0201885D01*
X0537000Y0202017D01*
X0537103Y0202147D01*
X0537210Y0202274D01*
X0537321Y0202398D01*
X0537434Y0202520D01*
X0537550Y0202639D01*
X0537669Y0202755D01*
X0537791Y0202868D01*
X0537915Y0202979D01*
X0538042Y0203086D01*
X0538172Y0203189D01*
X0538304Y0203290D01*
X0538439Y0203388D01*
X0538576Y0203482D01*
X0538715Y0203572D01*
X0538857Y0203659D01*
X0539001Y0203743D01*
X0539146Y0203823D01*
X0539294Y0203900D01*
X0539443Y0203973D01*
X0539594Y0204042D01*
X0539747Y0204107D01*
X0539901Y0204169D01*
X0540057Y0204227D01*
X0540214Y0204281D01*
X0540373Y0204331D01*
X0540533Y0204378D01*
X0540693Y0204420D01*
X0540855Y0204458D01*
X0541018Y0204493D01*
X0541181Y0204523D01*
X0541345Y0204550D01*
X0541510Y0204572D01*
X0541675Y0204590D01*
X0541841Y0204605D01*
X0542007Y0204615D01*
X0542173Y0204621D01*
X0542339Y0204623D01*
X0542505Y0204621D01*
X0542671Y0204615D01*
X0542837Y0204605D01*
X0543003Y0204590D01*
X0543168Y0204572D01*
X0543333Y0204550D01*
X0543497Y0204523D01*
X0543660Y0204493D01*
X0543823Y0204458D01*
X0543985Y0204420D01*
X0544145Y0204378D01*
X0544305Y0204331D01*
X0544464Y0204281D01*
X0544621Y0204227D01*
X0544777Y0204169D01*
X0544931Y0204107D01*
X0545084Y0204042D01*
X0545235Y0203973D01*
X0545384Y0203900D01*
X0545532Y0203823D01*
X0545677Y0203743D01*
X0545821Y0203659D01*
X0545963Y0203572D01*
X0546102Y0203482D01*
X0546239Y0203388D01*
X0546374Y0203290D01*
X0546506Y0203189D01*
X0546636Y0203086D01*
X0546763Y0202979D01*
X0546887Y0202868D01*
X0547009Y0202755D01*
X0547128Y0202639D01*
X0547244Y0202520D01*
X0547357Y0202398D01*
X0547468Y0202274D01*
X0547575Y0202147D01*
X0547678Y0202017D01*
X0547779Y0201885D01*
X0547877Y0201750D01*
X0547971Y0201613D01*
X0548061Y0201474D01*
X0548148Y0201332D01*
X0548232Y0201188D01*
X0548312Y0201043D01*
X0548389Y0200895D01*
X0548462Y0200746D01*
X0548531Y0200595D01*
X0548596Y0200442D01*
X0548658Y0200288D01*
X0548716Y0200132D01*
X0548770Y0199975D01*
X0548820Y0199816D01*
X0548867Y0199656D01*
X0548909Y0199496D01*
X0548947Y0199334D01*
X0548982Y0199171D01*
X0549012Y0199008D01*
X0549039Y0198844D01*
X0549061Y0198679D01*
X0549079Y0198514D01*
X0549094Y0198348D01*
X0549104Y0198182D01*
X0549110Y0198016D01*
X0549112Y0197850D01*
X0549110Y0197684D01*
X0549104Y0197518D01*
X0549094Y0197352D01*
X0549079Y0197186D01*
X0549061Y0197021D01*
X0549039Y0196856D01*
X0549012Y0196692D01*
X0548982Y0196529D01*
X0548947Y0196366D01*
X0548909Y0196204D01*
X0548867Y0196044D01*
X0548820Y0195884D01*
X0548770Y0195725D01*
X0548716Y0195568D01*
X0548658Y0195412D01*
X0548596Y0195258D01*
X0548531Y0195105D01*
X0548462Y0194954D01*
X0548389Y0194805D01*
X0548312Y0194657D01*
X0548232Y0194512D01*
X0548148Y0194368D01*
X0548061Y0194226D01*
X0547971Y0194087D01*
X0547877Y0193950D01*
X0547779Y0193815D01*
X0547678Y0193683D01*
X0547575Y0193553D01*
X0547468Y0193426D01*
X0547357Y0193302D01*
X0547244Y0193180D01*
X0547128Y0193061D01*
X0547009Y0192945D01*
X0546887Y0192832D01*
X0546763Y0192721D01*
X0546636Y0192614D01*
X0546506Y0192511D01*
X0546374Y0192410D01*
X0546239Y0192312D01*
X0546102Y0192218D01*
X0545963Y0192128D01*
X0545821Y0192041D01*
X0545677Y0191957D01*
X0545532Y0191877D01*
X0545384Y0191800D01*
X0545235Y0191727D01*
X0545084Y0191658D01*
X0544931Y0191593D01*
X0544777Y0191531D01*
X0544621Y0191473D01*
X0544464Y0191419D01*
X0544305Y0191369D01*
X0544145Y0191322D01*
X0543985Y0191280D01*
X0543823Y0191242D01*
X0543660Y0191207D01*
X0543497Y0191177D01*
X0543333Y0191150D01*
X0543168Y0191128D01*
X0543003Y0191110D01*
X0542837Y0191095D01*
X0542671Y0191085D01*
X0542505Y0191079D01*
X0542339Y0191077D01*
X0542173Y0191079D01*
X0542007Y0191085D01*
X0541841Y0191095D01*
X0541675Y0191110D01*
X0541510Y0191128D01*
X0541345Y0191150D01*
X0541181Y0191177D01*
X0541018Y0191207D01*
X0540855Y0191242D01*
X0540693Y0191280D01*
X0540533Y0191322D01*
X0540373Y0191369D01*
X0540214Y0191419D01*
X0540057Y0191473D01*
X0539901Y0191531D01*
X0539747Y0191593D01*
X0539594Y0191658D01*
X0539443Y0191727D01*
X0539294Y0191800D01*
X0539146Y0191877D01*
X0539001Y0191957D01*
X0538857Y0192041D01*
X0538715Y0192128D01*
X0538576Y0192218D01*
X0538439Y0192312D01*
X0538304Y0192410D01*
X0538172Y0192511D01*
X0538042Y0192614D01*
X0537915Y0192721D01*
X0537791Y0192832D01*
X0537669Y0192945D01*
X0537550Y0193061D01*
X0537434Y0193180D01*
X0537321Y0193302D01*
X0537210Y0193426D01*
X0537103Y0193553D01*
X0537000Y0193683D01*
X0536899Y0193815D01*
X0536801Y0193950D01*
X0536707Y0194087D01*
X0536617Y0194226D01*
X0536530Y0194368D01*
X0536446Y0194512D01*
X0536366Y0194657D01*
X0536289Y0194805D01*
X0536216Y0194954D01*
X0536147Y0195105D01*
X0536082Y0195258D01*
X0536020Y0195412D01*
X0535962Y0195568D01*
X0535908Y0195725D01*
X0535858Y0195884D01*
X0535811Y0196044D01*
X0535769Y0196204D01*
X0535731Y0196366D01*
X0535696Y0196529D01*
X0535666Y0196692D01*
X0535639Y0196856D01*
X0535617Y0197021D01*
X0535599Y0197186D01*
X0535584Y0197352D01*
X0535574Y0197518D01*
X0535568Y0197684D01*
X0535566Y0197850D01*
X0532496Y0204150D02*
X0532496Y0207693D01*
X0510305Y0335659D02*
X0507302Y0335659D01*
X0506552Y0336410D01*
X0506552Y0337911D01*
X0507302Y0338662D01*
X0508804Y0340263D02*
X0506552Y0342515D01*
X0511056Y0342515D01*
X0508804Y0343266D02*
X0508804Y0340263D01*
X0510305Y0338662D02*
X0511056Y0337911D01*
X0511056Y0336410D01*
X0510305Y0335659D01*
X0532496Y0345488D02*
X0532496Y0361630D01*
X0536039Y0365173D01*
X0537220Y0366354D01*
X0535646Y0367929D01*
X0532496Y0365173D01*
X0536039Y0365173D01*
X0552181Y0365173D01*
X0552181Y0345488D01*
X0532496Y0345488D01*
X0535566Y0355331D02*
X0535568Y0355497D01*
X0535574Y0355663D01*
X0535584Y0355829D01*
X0535599Y0355995D01*
X0535617Y0356160D01*
X0535639Y0356325D01*
X0535666Y0356489D01*
X0535696Y0356652D01*
X0535731Y0356815D01*
X0535769Y0356977D01*
X0535811Y0357137D01*
X0535858Y0357297D01*
X0535908Y0357456D01*
X0535962Y0357613D01*
X0536020Y0357769D01*
X0536082Y0357923D01*
X0536147Y0358076D01*
X0536216Y0358227D01*
X0536289Y0358376D01*
X0536366Y0358524D01*
X0536446Y0358669D01*
X0536530Y0358813D01*
X0536617Y0358955D01*
X0536707Y0359094D01*
X0536801Y0359231D01*
X0536899Y0359366D01*
X0537000Y0359498D01*
X0537103Y0359628D01*
X0537210Y0359755D01*
X0537321Y0359879D01*
X0537434Y0360001D01*
X0537550Y0360120D01*
X0537669Y0360236D01*
X0537791Y0360349D01*
X0537915Y0360460D01*
X0538042Y0360567D01*
X0538172Y0360670D01*
X0538304Y0360771D01*
X0538439Y0360869D01*
X0538576Y0360963D01*
X0538715Y0361053D01*
X0538857Y0361140D01*
X0539001Y0361224D01*
X0539146Y0361304D01*
X0539294Y0361381D01*
X0539443Y0361454D01*
X0539594Y0361523D01*
X0539747Y0361588D01*
X0539901Y0361650D01*
X0540057Y0361708D01*
X0540214Y0361762D01*
X0540373Y0361812D01*
X0540533Y0361859D01*
X0540693Y0361901D01*
X0540855Y0361939D01*
X0541018Y0361974D01*
X0541181Y0362004D01*
X0541345Y0362031D01*
X0541510Y0362053D01*
X0541675Y0362071D01*
X0541841Y0362086D01*
X0542007Y0362096D01*
X0542173Y0362102D01*
X0542339Y0362104D01*
X0542505Y0362102D01*
X0542671Y0362096D01*
X0542837Y0362086D01*
X0543003Y0362071D01*
X0543168Y0362053D01*
X0543333Y0362031D01*
X0543497Y0362004D01*
X0543660Y0361974D01*
X0543823Y0361939D01*
X0543985Y0361901D01*
X0544145Y0361859D01*
X0544305Y0361812D01*
X0544464Y0361762D01*
X0544621Y0361708D01*
X0544777Y0361650D01*
X0544931Y0361588D01*
X0545084Y0361523D01*
X0545235Y0361454D01*
X0545384Y0361381D01*
X0545532Y0361304D01*
X0545677Y0361224D01*
X0545821Y0361140D01*
X0545963Y0361053D01*
X0546102Y0360963D01*
X0546239Y0360869D01*
X0546374Y0360771D01*
X0546506Y0360670D01*
X0546636Y0360567D01*
X0546763Y0360460D01*
X0546887Y0360349D01*
X0547009Y0360236D01*
X0547128Y0360120D01*
X0547244Y0360001D01*
X0547357Y0359879D01*
X0547468Y0359755D01*
X0547575Y0359628D01*
X0547678Y0359498D01*
X0547779Y0359366D01*
X0547877Y0359231D01*
X0547971Y0359094D01*
X0548061Y0358955D01*
X0548148Y0358813D01*
X0548232Y0358669D01*
X0548312Y0358524D01*
X0548389Y0358376D01*
X0548462Y0358227D01*
X0548531Y0358076D01*
X0548596Y0357923D01*
X0548658Y0357769D01*
X0548716Y0357613D01*
X0548770Y0357456D01*
X0548820Y0357297D01*
X0548867Y0357137D01*
X0548909Y0356977D01*
X0548947Y0356815D01*
X0548982Y0356652D01*
X0549012Y0356489D01*
X0549039Y0356325D01*
X0549061Y0356160D01*
X0549079Y0355995D01*
X0549094Y0355829D01*
X0549104Y0355663D01*
X0549110Y0355497D01*
X0549112Y0355331D01*
X0549110Y0355165D01*
X0549104Y0354999D01*
X0549094Y0354833D01*
X0549079Y0354667D01*
X0549061Y0354502D01*
X0549039Y0354337D01*
X0549012Y0354173D01*
X0548982Y0354010D01*
X0548947Y0353847D01*
X0548909Y0353685D01*
X0548867Y0353525D01*
X0548820Y0353365D01*
X0548770Y0353206D01*
X0548716Y0353049D01*
X0548658Y0352893D01*
X0548596Y0352739D01*
X0548531Y0352586D01*
X0548462Y0352435D01*
X0548389Y0352286D01*
X0548312Y0352138D01*
X0548232Y0351993D01*
X0548148Y0351849D01*
X0548061Y0351707D01*
X0547971Y0351568D01*
X0547877Y0351431D01*
X0547779Y0351296D01*
X0547678Y0351164D01*
X0547575Y0351034D01*
X0547468Y0350907D01*
X0547357Y0350783D01*
X0547244Y0350661D01*
X0547128Y0350542D01*
X0547009Y0350426D01*
X0546887Y0350313D01*
X0546763Y0350202D01*
X0546636Y0350095D01*
X0546506Y0349992D01*
X0546374Y0349891D01*
X0546239Y0349793D01*
X0546102Y0349699D01*
X0545963Y0349609D01*
X0545821Y0349522D01*
X0545677Y0349438D01*
X0545532Y0349358D01*
X0545384Y0349281D01*
X0545235Y0349208D01*
X0545084Y0349139D01*
X0544931Y0349074D01*
X0544777Y0349012D01*
X0544621Y0348954D01*
X0544464Y0348900D01*
X0544305Y0348850D01*
X0544145Y0348803D01*
X0543985Y0348761D01*
X0543823Y0348723D01*
X0543660Y0348688D01*
X0543497Y0348658D01*
X0543333Y0348631D01*
X0543168Y0348609D01*
X0543003Y0348591D01*
X0542837Y0348576D01*
X0542671Y0348566D01*
X0542505Y0348560D01*
X0542339Y0348558D01*
X0542173Y0348560D01*
X0542007Y0348566D01*
X0541841Y0348576D01*
X0541675Y0348591D01*
X0541510Y0348609D01*
X0541345Y0348631D01*
X0541181Y0348658D01*
X0541018Y0348688D01*
X0540855Y0348723D01*
X0540693Y0348761D01*
X0540533Y0348803D01*
X0540373Y0348850D01*
X0540214Y0348900D01*
X0540057Y0348954D01*
X0539901Y0349012D01*
X0539747Y0349074D01*
X0539594Y0349139D01*
X0539443Y0349208D01*
X0539294Y0349281D01*
X0539146Y0349358D01*
X0539001Y0349438D01*
X0538857Y0349522D01*
X0538715Y0349609D01*
X0538576Y0349699D01*
X0538439Y0349793D01*
X0538304Y0349891D01*
X0538172Y0349992D01*
X0538042Y0350095D01*
X0537915Y0350202D01*
X0537791Y0350313D01*
X0537669Y0350426D01*
X0537550Y0350542D01*
X0537434Y0350661D01*
X0537321Y0350783D01*
X0537210Y0350907D01*
X0537103Y0351034D01*
X0537000Y0351164D01*
X0536899Y0351296D01*
X0536801Y0351431D01*
X0536707Y0351568D01*
X0536617Y0351707D01*
X0536530Y0351849D01*
X0536446Y0351993D01*
X0536366Y0352138D01*
X0536289Y0352286D01*
X0536216Y0352435D01*
X0536147Y0352586D01*
X0536082Y0352739D01*
X0536020Y0352893D01*
X0535962Y0353049D01*
X0535908Y0353206D01*
X0535858Y0353365D01*
X0535811Y0353525D01*
X0535769Y0353685D01*
X0535731Y0353847D01*
X0535696Y0354010D01*
X0535666Y0354173D01*
X0535639Y0354337D01*
X0535617Y0354502D01*
X0535599Y0354667D01*
X0535584Y0354833D01*
X0535574Y0354999D01*
X0535568Y0355165D01*
X0535566Y0355331D01*
X0532496Y0361630D02*
X0532496Y0365173D01*
X0394701Y0365173D02*
X0394701Y0345488D01*
X0375016Y0345488D01*
X0375016Y0361630D01*
X0378559Y0365173D01*
X0379740Y0366354D01*
X0378165Y0367929D01*
X0375016Y0365173D01*
X0378559Y0365173D01*
X0394701Y0365173D01*
X0378085Y0355331D02*
X0378087Y0355497D01*
X0378093Y0355663D01*
X0378103Y0355829D01*
X0378118Y0355995D01*
X0378136Y0356160D01*
X0378158Y0356325D01*
X0378185Y0356489D01*
X0378215Y0356652D01*
X0378250Y0356815D01*
X0378288Y0356977D01*
X0378330Y0357137D01*
X0378377Y0357297D01*
X0378427Y0357456D01*
X0378481Y0357613D01*
X0378539Y0357769D01*
X0378601Y0357923D01*
X0378666Y0358076D01*
X0378735Y0358227D01*
X0378808Y0358376D01*
X0378885Y0358524D01*
X0378965Y0358669D01*
X0379049Y0358813D01*
X0379136Y0358955D01*
X0379226Y0359094D01*
X0379320Y0359231D01*
X0379418Y0359366D01*
X0379519Y0359498D01*
X0379622Y0359628D01*
X0379729Y0359755D01*
X0379840Y0359879D01*
X0379953Y0360001D01*
X0380069Y0360120D01*
X0380188Y0360236D01*
X0380310Y0360349D01*
X0380434Y0360460D01*
X0380561Y0360567D01*
X0380691Y0360670D01*
X0380823Y0360771D01*
X0380958Y0360869D01*
X0381095Y0360963D01*
X0381234Y0361053D01*
X0381376Y0361140D01*
X0381520Y0361224D01*
X0381665Y0361304D01*
X0381813Y0361381D01*
X0381962Y0361454D01*
X0382113Y0361523D01*
X0382266Y0361588D01*
X0382420Y0361650D01*
X0382576Y0361708D01*
X0382733Y0361762D01*
X0382892Y0361812D01*
X0383052Y0361859D01*
X0383212Y0361901D01*
X0383374Y0361939D01*
X0383537Y0361974D01*
X0383700Y0362004D01*
X0383864Y0362031D01*
X0384029Y0362053D01*
X0384194Y0362071D01*
X0384360Y0362086D01*
X0384526Y0362096D01*
X0384692Y0362102D01*
X0384858Y0362104D01*
X0385024Y0362102D01*
X0385190Y0362096D01*
X0385356Y0362086D01*
X0385522Y0362071D01*
X0385687Y0362053D01*
X0385852Y0362031D01*
X0386016Y0362004D01*
X0386179Y0361974D01*
X0386342Y0361939D01*
X0386504Y0361901D01*
X0386664Y0361859D01*
X0386824Y0361812D01*
X0386983Y0361762D01*
X0387140Y0361708D01*
X0387296Y0361650D01*
X0387450Y0361588D01*
X0387603Y0361523D01*
X0387754Y0361454D01*
X0387903Y0361381D01*
X0388051Y0361304D01*
X0388196Y0361224D01*
X0388340Y0361140D01*
X0388482Y0361053D01*
X0388621Y0360963D01*
X0388758Y0360869D01*
X0388893Y0360771D01*
X0389025Y0360670D01*
X0389155Y0360567D01*
X0389282Y0360460D01*
X0389406Y0360349D01*
X0389528Y0360236D01*
X0389647Y0360120D01*
X0389763Y0360001D01*
X0389876Y0359879D01*
X0389987Y0359755D01*
X0390094Y0359628D01*
X0390197Y0359498D01*
X0390298Y0359366D01*
X0390396Y0359231D01*
X0390490Y0359094D01*
X0390580Y0358955D01*
X0390667Y0358813D01*
X0390751Y0358669D01*
X0390831Y0358524D01*
X0390908Y0358376D01*
X0390981Y0358227D01*
X0391050Y0358076D01*
X0391115Y0357923D01*
X0391177Y0357769D01*
X0391235Y0357613D01*
X0391289Y0357456D01*
X0391339Y0357297D01*
X0391386Y0357137D01*
X0391428Y0356977D01*
X0391466Y0356815D01*
X0391501Y0356652D01*
X0391531Y0356489D01*
X0391558Y0356325D01*
X0391580Y0356160D01*
X0391598Y0355995D01*
X0391613Y0355829D01*
X0391623Y0355663D01*
X0391629Y0355497D01*
X0391631Y0355331D01*
X0391629Y0355165D01*
X0391623Y0354999D01*
X0391613Y0354833D01*
X0391598Y0354667D01*
X0391580Y0354502D01*
X0391558Y0354337D01*
X0391531Y0354173D01*
X0391501Y0354010D01*
X0391466Y0353847D01*
X0391428Y0353685D01*
X0391386Y0353525D01*
X0391339Y0353365D01*
X0391289Y0353206D01*
X0391235Y0353049D01*
X0391177Y0352893D01*
X0391115Y0352739D01*
X0391050Y0352586D01*
X0390981Y0352435D01*
X0390908Y0352286D01*
X0390831Y0352138D01*
X0390751Y0351993D01*
X0390667Y0351849D01*
X0390580Y0351707D01*
X0390490Y0351568D01*
X0390396Y0351431D01*
X0390298Y0351296D01*
X0390197Y0351164D01*
X0390094Y0351034D01*
X0389987Y0350907D01*
X0389876Y0350783D01*
X0389763Y0350661D01*
X0389647Y0350542D01*
X0389528Y0350426D01*
X0389406Y0350313D01*
X0389282Y0350202D01*
X0389155Y0350095D01*
X0389025Y0349992D01*
X0388893Y0349891D01*
X0388758Y0349793D01*
X0388621Y0349699D01*
X0388482Y0349609D01*
X0388340Y0349522D01*
X0388196Y0349438D01*
X0388051Y0349358D01*
X0387903Y0349281D01*
X0387754Y0349208D01*
X0387603Y0349139D01*
X0387450Y0349074D01*
X0387296Y0349012D01*
X0387140Y0348954D01*
X0386983Y0348900D01*
X0386824Y0348850D01*
X0386664Y0348803D01*
X0386504Y0348761D01*
X0386342Y0348723D01*
X0386179Y0348688D01*
X0386016Y0348658D01*
X0385852Y0348631D01*
X0385687Y0348609D01*
X0385522Y0348591D01*
X0385356Y0348576D01*
X0385190Y0348566D01*
X0385024Y0348560D01*
X0384858Y0348558D01*
X0384692Y0348560D01*
X0384526Y0348566D01*
X0384360Y0348576D01*
X0384194Y0348591D01*
X0384029Y0348609D01*
X0383864Y0348631D01*
X0383700Y0348658D01*
X0383537Y0348688D01*
X0383374Y0348723D01*
X0383212Y0348761D01*
X0383052Y0348803D01*
X0382892Y0348850D01*
X0382733Y0348900D01*
X0382576Y0348954D01*
X0382420Y0349012D01*
X0382266Y0349074D01*
X0382113Y0349139D01*
X0381962Y0349208D01*
X0381813Y0349281D01*
X0381665Y0349358D01*
X0381520Y0349438D01*
X0381376Y0349522D01*
X0381234Y0349609D01*
X0381095Y0349699D01*
X0380958Y0349793D01*
X0380823Y0349891D01*
X0380691Y0349992D01*
X0380561Y0350095D01*
X0380434Y0350202D01*
X0380310Y0350313D01*
X0380188Y0350426D01*
X0380069Y0350542D01*
X0379953Y0350661D01*
X0379840Y0350783D01*
X0379729Y0350907D01*
X0379622Y0351034D01*
X0379519Y0351164D01*
X0379418Y0351296D01*
X0379320Y0351431D01*
X0379226Y0351568D01*
X0379136Y0351707D01*
X0379049Y0351849D01*
X0378965Y0351993D01*
X0378885Y0352138D01*
X0378808Y0352286D01*
X0378735Y0352435D01*
X0378666Y0352586D01*
X0378601Y0352739D01*
X0378539Y0352893D01*
X0378481Y0353049D01*
X0378427Y0353206D01*
X0378377Y0353365D01*
X0378330Y0353525D01*
X0378288Y0353685D01*
X0378250Y0353847D01*
X0378215Y0354010D01*
X0378185Y0354173D01*
X0378158Y0354337D01*
X0378136Y0354502D01*
X0378118Y0354667D01*
X0378103Y0354833D01*
X0378093Y0354999D01*
X0378087Y0355165D01*
X0378085Y0355331D01*
X0375016Y0361630D02*
X0375016Y0365173D01*
X0352607Y0342957D02*
X0353357Y0342207D01*
X0353357Y0340706D01*
X0352607Y0339955D01*
X0352607Y0338354D02*
X0353357Y0337603D01*
X0353357Y0336102D01*
X0352607Y0335351D01*
X0349604Y0335351D01*
X0348853Y0336102D01*
X0348853Y0337603D01*
X0349604Y0338354D01*
X0349604Y0339955D02*
X0348853Y0340706D01*
X0348853Y0342207D01*
X0349604Y0342957D01*
X0350355Y0342957D01*
X0351105Y0342207D01*
X0351856Y0342957D01*
X0352607Y0342957D01*
X0351105Y0342207D02*
X0351105Y0341456D01*
X0237220Y0345488D02*
X0237220Y0365173D01*
X0221079Y0365173D01*
X0222260Y0366354D01*
X0220685Y0367929D01*
X0217535Y0365173D01*
X0221079Y0365173D01*
X0217535Y0361630D01*
X0217535Y0365173D01*
X0217535Y0361630D02*
X0217535Y0345488D01*
X0237220Y0345488D01*
X0220605Y0355331D02*
X0220607Y0355497D01*
X0220613Y0355663D01*
X0220623Y0355829D01*
X0220638Y0355995D01*
X0220656Y0356160D01*
X0220678Y0356325D01*
X0220705Y0356489D01*
X0220735Y0356652D01*
X0220770Y0356815D01*
X0220808Y0356977D01*
X0220850Y0357137D01*
X0220897Y0357297D01*
X0220947Y0357456D01*
X0221001Y0357613D01*
X0221059Y0357769D01*
X0221121Y0357923D01*
X0221186Y0358076D01*
X0221255Y0358227D01*
X0221328Y0358376D01*
X0221405Y0358524D01*
X0221485Y0358669D01*
X0221569Y0358813D01*
X0221656Y0358955D01*
X0221746Y0359094D01*
X0221840Y0359231D01*
X0221938Y0359366D01*
X0222039Y0359498D01*
X0222142Y0359628D01*
X0222249Y0359755D01*
X0222360Y0359879D01*
X0222473Y0360001D01*
X0222589Y0360120D01*
X0222708Y0360236D01*
X0222830Y0360349D01*
X0222954Y0360460D01*
X0223081Y0360567D01*
X0223211Y0360670D01*
X0223343Y0360771D01*
X0223478Y0360869D01*
X0223615Y0360963D01*
X0223754Y0361053D01*
X0223896Y0361140D01*
X0224040Y0361224D01*
X0224185Y0361304D01*
X0224333Y0361381D01*
X0224482Y0361454D01*
X0224633Y0361523D01*
X0224786Y0361588D01*
X0224940Y0361650D01*
X0225096Y0361708D01*
X0225253Y0361762D01*
X0225412Y0361812D01*
X0225572Y0361859D01*
X0225732Y0361901D01*
X0225894Y0361939D01*
X0226057Y0361974D01*
X0226220Y0362004D01*
X0226384Y0362031D01*
X0226549Y0362053D01*
X0226714Y0362071D01*
X0226880Y0362086D01*
X0227046Y0362096D01*
X0227212Y0362102D01*
X0227378Y0362104D01*
X0227544Y0362102D01*
X0227710Y0362096D01*
X0227876Y0362086D01*
X0228042Y0362071D01*
X0228207Y0362053D01*
X0228372Y0362031D01*
X0228536Y0362004D01*
X0228699Y0361974D01*
X0228862Y0361939D01*
X0229024Y0361901D01*
X0229184Y0361859D01*
X0229344Y0361812D01*
X0229503Y0361762D01*
X0229660Y0361708D01*
X0229816Y0361650D01*
X0229970Y0361588D01*
X0230123Y0361523D01*
X0230274Y0361454D01*
X0230423Y0361381D01*
X0230571Y0361304D01*
X0230716Y0361224D01*
X0230860Y0361140D01*
X0231002Y0361053D01*
X0231141Y0360963D01*
X0231278Y0360869D01*
X0231413Y0360771D01*
X0231545Y0360670D01*
X0231675Y0360567D01*
X0231802Y0360460D01*
X0231926Y0360349D01*
X0232048Y0360236D01*
X0232167Y0360120D01*
X0232283Y0360001D01*
X0232396Y0359879D01*
X0232507Y0359755D01*
X0232614Y0359628D01*
X0232717Y0359498D01*
X0232818Y0359366D01*
X0232916Y0359231D01*
X0233010Y0359094D01*
X0233100Y0358955D01*
X0233187Y0358813D01*
X0233271Y0358669D01*
X0233351Y0358524D01*
X0233428Y0358376D01*
X0233501Y0358227D01*
X0233570Y0358076D01*
X0233635Y0357923D01*
X0233697Y0357769D01*
X0233755Y0357613D01*
X0233809Y0357456D01*
X0233859Y0357297D01*
X0233906Y0357137D01*
X0233948Y0356977D01*
X0233986Y0356815D01*
X0234021Y0356652D01*
X0234051Y0356489D01*
X0234078Y0356325D01*
X0234100Y0356160D01*
X0234118Y0355995D01*
X0234133Y0355829D01*
X0234143Y0355663D01*
X0234149Y0355497D01*
X0234151Y0355331D01*
X0234149Y0355165D01*
X0234143Y0354999D01*
X0234133Y0354833D01*
X0234118Y0354667D01*
X0234100Y0354502D01*
X0234078Y0354337D01*
X0234051Y0354173D01*
X0234021Y0354010D01*
X0233986Y0353847D01*
X0233948Y0353685D01*
X0233906Y0353525D01*
X0233859Y0353365D01*
X0233809Y0353206D01*
X0233755Y0353049D01*
X0233697Y0352893D01*
X0233635Y0352739D01*
X0233570Y0352586D01*
X0233501Y0352435D01*
X0233428Y0352286D01*
X0233351Y0352138D01*
X0233271Y0351993D01*
X0233187Y0351849D01*
X0233100Y0351707D01*
X0233010Y0351568D01*
X0232916Y0351431D01*
X0232818Y0351296D01*
X0232717Y0351164D01*
X0232614Y0351034D01*
X0232507Y0350907D01*
X0232396Y0350783D01*
X0232283Y0350661D01*
X0232167Y0350542D01*
X0232048Y0350426D01*
X0231926Y0350313D01*
X0231802Y0350202D01*
X0231675Y0350095D01*
X0231545Y0349992D01*
X0231413Y0349891D01*
X0231278Y0349793D01*
X0231141Y0349699D01*
X0231002Y0349609D01*
X0230860Y0349522D01*
X0230716Y0349438D01*
X0230571Y0349358D01*
X0230423Y0349281D01*
X0230274Y0349208D01*
X0230123Y0349139D01*
X0229970Y0349074D01*
X0229816Y0349012D01*
X0229660Y0348954D01*
X0229503Y0348900D01*
X0229344Y0348850D01*
X0229184Y0348803D01*
X0229024Y0348761D01*
X0228862Y0348723D01*
X0228699Y0348688D01*
X0228536Y0348658D01*
X0228372Y0348631D01*
X0228207Y0348609D01*
X0228042Y0348591D01*
X0227876Y0348576D01*
X0227710Y0348566D01*
X0227544Y0348560D01*
X0227378Y0348558D01*
X0227212Y0348560D01*
X0227046Y0348566D01*
X0226880Y0348576D01*
X0226714Y0348591D01*
X0226549Y0348609D01*
X0226384Y0348631D01*
X0226220Y0348658D01*
X0226057Y0348688D01*
X0225894Y0348723D01*
X0225732Y0348761D01*
X0225572Y0348803D01*
X0225412Y0348850D01*
X0225253Y0348900D01*
X0225096Y0348954D01*
X0224940Y0349012D01*
X0224786Y0349074D01*
X0224633Y0349139D01*
X0224482Y0349208D01*
X0224333Y0349281D01*
X0224185Y0349358D01*
X0224040Y0349438D01*
X0223896Y0349522D01*
X0223754Y0349609D01*
X0223615Y0349699D01*
X0223478Y0349793D01*
X0223343Y0349891D01*
X0223211Y0349992D01*
X0223081Y0350095D01*
X0222954Y0350202D01*
X0222830Y0350313D01*
X0222708Y0350426D01*
X0222589Y0350542D01*
X0222473Y0350661D01*
X0222360Y0350783D01*
X0222249Y0350907D01*
X0222142Y0351034D01*
X0222039Y0351164D01*
X0221938Y0351296D01*
X0221840Y0351431D01*
X0221746Y0351568D01*
X0221656Y0351707D01*
X0221569Y0351849D01*
X0221485Y0351993D01*
X0221405Y0352138D01*
X0221328Y0352286D01*
X0221255Y0352435D01*
X0221186Y0352586D01*
X0221121Y0352739D01*
X0221059Y0352893D01*
X0221001Y0353049D01*
X0220947Y0353206D01*
X0220897Y0353365D01*
X0220850Y0353525D01*
X0220808Y0353685D01*
X0220770Y0353847D01*
X0220735Y0354010D01*
X0220705Y0354173D01*
X0220678Y0354337D01*
X0220656Y0354502D01*
X0220638Y0354667D01*
X0220623Y0354833D01*
X0220613Y0354999D01*
X0220607Y0355165D01*
X0220605Y0355331D01*
X0196183Y0343106D02*
X0196183Y0340103D01*
X0193180Y0343106D01*
X0192429Y0343106D01*
X0191679Y0342355D01*
X0191679Y0340854D01*
X0192429Y0340103D01*
X0192429Y0338502D02*
X0191679Y0337751D01*
X0191679Y0336250D01*
X0192429Y0335499D01*
X0195432Y0335499D01*
X0196183Y0336250D01*
X0196183Y0337751D01*
X0195432Y0338502D01*
X0090048Y0371182D02*
X0090048Y0372683D01*
X0089297Y0373434D01*
X0090048Y0375035D02*
X0090048Y0378038D01*
X0090048Y0376536D02*
X0085544Y0376536D01*
X0087045Y0375035D01*
X0086295Y0373434D02*
X0085544Y0372683D01*
X0085544Y0371182D01*
X0086295Y0370431D01*
X0089297Y0370431D01*
X0090048Y0371182D01*
X0079740Y0365173D02*
X0079740Y0345488D01*
X0060055Y0345488D01*
X0060055Y0361630D01*
X0063598Y0365173D01*
X0064780Y0366354D01*
X0063205Y0367929D01*
X0060055Y0365173D01*
X0063598Y0365173D01*
X0079740Y0365173D01*
X0063125Y0355331D02*
X0063127Y0355497D01*
X0063133Y0355663D01*
X0063143Y0355829D01*
X0063158Y0355995D01*
X0063176Y0356160D01*
X0063198Y0356325D01*
X0063225Y0356489D01*
X0063255Y0356652D01*
X0063290Y0356815D01*
X0063328Y0356977D01*
X0063370Y0357137D01*
X0063417Y0357297D01*
X0063467Y0357456D01*
X0063521Y0357613D01*
X0063579Y0357769D01*
X0063641Y0357923D01*
X0063706Y0358076D01*
X0063775Y0358227D01*
X0063848Y0358376D01*
X0063925Y0358524D01*
X0064005Y0358669D01*
X0064089Y0358813D01*
X0064176Y0358955D01*
X0064266Y0359094D01*
X0064360Y0359231D01*
X0064458Y0359366D01*
X0064559Y0359498D01*
X0064662Y0359628D01*
X0064769Y0359755D01*
X0064880Y0359879D01*
X0064993Y0360001D01*
X0065109Y0360120D01*
X0065228Y0360236D01*
X0065350Y0360349D01*
X0065474Y0360460D01*
X0065601Y0360567D01*
X0065731Y0360670D01*
X0065863Y0360771D01*
X0065998Y0360869D01*
X0066135Y0360963D01*
X0066274Y0361053D01*
X0066416Y0361140D01*
X0066560Y0361224D01*
X0066705Y0361304D01*
X0066853Y0361381D01*
X0067002Y0361454D01*
X0067153Y0361523D01*
X0067306Y0361588D01*
X0067460Y0361650D01*
X0067616Y0361708D01*
X0067773Y0361762D01*
X0067932Y0361812D01*
X0068092Y0361859D01*
X0068252Y0361901D01*
X0068414Y0361939D01*
X0068577Y0361974D01*
X0068740Y0362004D01*
X0068904Y0362031D01*
X0069069Y0362053D01*
X0069234Y0362071D01*
X0069400Y0362086D01*
X0069566Y0362096D01*
X0069732Y0362102D01*
X0069898Y0362104D01*
X0070064Y0362102D01*
X0070230Y0362096D01*
X0070396Y0362086D01*
X0070562Y0362071D01*
X0070727Y0362053D01*
X0070892Y0362031D01*
X0071056Y0362004D01*
X0071219Y0361974D01*
X0071382Y0361939D01*
X0071544Y0361901D01*
X0071704Y0361859D01*
X0071864Y0361812D01*
X0072023Y0361762D01*
X0072180Y0361708D01*
X0072336Y0361650D01*
X0072490Y0361588D01*
X0072643Y0361523D01*
X0072794Y0361454D01*
X0072943Y0361381D01*
X0073091Y0361304D01*
X0073236Y0361224D01*
X0073380Y0361140D01*
X0073522Y0361053D01*
X0073661Y0360963D01*
X0073798Y0360869D01*
X0073933Y0360771D01*
X0074065Y0360670D01*
X0074195Y0360567D01*
X0074322Y0360460D01*
X0074446Y0360349D01*
X0074568Y0360236D01*
X0074687Y0360120D01*
X0074803Y0360001D01*
X0074916Y0359879D01*
X0075027Y0359755D01*
X0075134Y0359628D01*
X0075237Y0359498D01*
X0075338Y0359366D01*
X0075436Y0359231D01*
X0075530Y0359094D01*
X0075620Y0358955D01*
X0075707Y0358813D01*
X0075791Y0358669D01*
X0075871Y0358524D01*
X0075948Y0358376D01*
X0076021Y0358227D01*
X0076090Y0358076D01*
X0076155Y0357923D01*
X0076217Y0357769D01*
X0076275Y0357613D01*
X0076329Y0357456D01*
X0076379Y0357297D01*
X0076426Y0357137D01*
X0076468Y0356977D01*
X0076506Y0356815D01*
X0076541Y0356652D01*
X0076571Y0356489D01*
X0076598Y0356325D01*
X0076620Y0356160D01*
X0076638Y0355995D01*
X0076653Y0355829D01*
X0076663Y0355663D01*
X0076669Y0355497D01*
X0076671Y0355331D01*
X0076669Y0355165D01*
X0076663Y0354999D01*
X0076653Y0354833D01*
X0076638Y0354667D01*
X0076620Y0354502D01*
X0076598Y0354337D01*
X0076571Y0354173D01*
X0076541Y0354010D01*
X0076506Y0353847D01*
X0076468Y0353685D01*
X0076426Y0353525D01*
X0076379Y0353365D01*
X0076329Y0353206D01*
X0076275Y0353049D01*
X0076217Y0352893D01*
X0076155Y0352739D01*
X0076090Y0352586D01*
X0076021Y0352435D01*
X0075948Y0352286D01*
X0075871Y0352138D01*
X0075791Y0351993D01*
X0075707Y0351849D01*
X0075620Y0351707D01*
X0075530Y0351568D01*
X0075436Y0351431D01*
X0075338Y0351296D01*
X0075237Y0351164D01*
X0075134Y0351034D01*
X0075027Y0350907D01*
X0074916Y0350783D01*
X0074803Y0350661D01*
X0074687Y0350542D01*
X0074568Y0350426D01*
X0074446Y0350313D01*
X0074322Y0350202D01*
X0074195Y0350095D01*
X0074065Y0349992D01*
X0073933Y0349891D01*
X0073798Y0349793D01*
X0073661Y0349699D01*
X0073522Y0349609D01*
X0073380Y0349522D01*
X0073236Y0349438D01*
X0073091Y0349358D01*
X0072943Y0349281D01*
X0072794Y0349208D01*
X0072643Y0349139D01*
X0072490Y0349074D01*
X0072336Y0349012D01*
X0072180Y0348954D01*
X0072023Y0348900D01*
X0071864Y0348850D01*
X0071704Y0348803D01*
X0071544Y0348761D01*
X0071382Y0348723D01*
X0071219Y0348688D01*
X0071056Y0348658D01*
X0070892Y0348631D01*
X0070727Y0348609D01*
X0070562Y0348591D01*
X0070396Y0348576D01*
X0070230Y0348566D01*
X0070064Y0348560D01*
X0069898Y0348558D01*
X0069732Y0348560D01*
X0069566Y0348566D01*
X0069400Y0348576D01*
X0069234Y0348591D01*
X0069069Y0348609D01*
X0068904Y0348631D01*
X0068740Y0348658D01*
X0068577Y0348688D01*
X0068414Y0348723D01*
X0068252Y0348761D01*
X0068092Y0348803D01*
X0067932Y0348850D01*
X0067773Y0348900D01*
X0067616Y0348954D01*
X0067460Y0349012D01*
X0067306Y0349074D01*
X0067153Y0349139D01*
X0067002Y0349208D01*
X0066853Y0349281D01*
X0066705Y0349358D01*
X0066560Y0349438D01*
X0066416Y0349522D01*
X0066274Y0349609D01*
X0066135Y0349699D01*
X0065998Y0349793D01*
X0065863Y0349891D01*
X0065731Y0349992D01*
X0065601Y0350095D01*
X0065474Y0350202D01*
X0065350Y0350313D01*
X0065228Y0350426D01*
X0065109Y0350542D01*
X0064993Y0350661D01*
X0064880Y0350783D01*
X0064769Y0350907D01*
X0064662Y0351034D01*
X0064559Y0351164D01*
X0064458Y0351296D01*
X0064360Y0351431D01*
X0064266Y0351568D01*
X0064176Y0351707D01*
X0064089Y0351849D01*
X0064005Y0351993D01*
X0063925Y0352138D01*
X0063848Y0352286D01*
X0063775Y0352435D01*
X0063706Y0352586D01*
X0063641Y0352739D01*
X0063579Y0352893D01*
X0063521Y0353049D01*
X0063467Y0353206D01*
X0063417Y0353365D01*
X0063370Y0353525D01*
X0063328Y0353685D01*
X0063290Y0353847D01*
X0063255Y0354010D01*
X0063225Y0354173D01*
X0063198Y0354337D01*
X0063176Y0354502D01*
X0063158Y0354667D01*
X0063143Y0354833D01*
X0063133Y0354999D01*
X0063127Y0355165D01*
X0063125Y0355331D01*
X0060055Y0361630D02*
X0060055Y0365173D01*
X0044605Y0339402D02*
X0044605Y0336399D01*
X0044605Y0337901D02*
X0040101Y0337901D01*
X0041602Y0336399D01*
X0064963Y0328059D02*
X0069466Y0328059D01*
X0069466Y0326558D02*
X0069466Y0329561D01*
X0066464Y0326558D02*
X0064963Y0328059D01*
X0065713Y0324957D02*
X0067214Y0324957D01*
X0067965Y0324206D01*
X0067965Y0321954D01*
X0069466Y0321954D02*
X0064963Y0321954D01*
X0064963Y0324206D01*
X0065713Y0324957D01*
X0067965Y0323455D02*
X0069466Y0324957D01*
X0054118Y0309691D02*
X0054118Y0306688D01*
X0054118Y0308190D02*
X0049614Y0308190D01*
X0051115Y0306688D01*
X0049614Y0305087D02*
X0054118Y0305087D01*
X0049614Y0302084D01*
X0054118Y0302084D01*
X0053367Y0300483D02*
X0050365Y0300483D01*
X0049614Y0299732D01*
X0049614Y0298231D01*
X0050365Y0297480D01*
X0053367Y0297480D01*
X0054118Y0298231D01*
X0054118Y0299732D01*
X0053367Y0300483D01*
X0053367Y0295879D02*
X0054118Y0295128D01*
X0054118Y0293627D01*
X0053367Y0292877D01*
X0050365Y0292877D01*
X0049614Y0293627D01*
X0049614Y0295128D01*
X0050365Y0295879D01*
X0086264Y0220466D02*
X0086264Y0217463D01*
X0088516Y0217463D01*
X0087765Y0218965D01*
X0087765Y0219715D01*
X0088516Y0220466D01*
X0090017Y0220466D01*
X0090768Y0219715D01*
X0090768Y0218214D01*
X0090017Y0217463D01*
X0090017Y0215862D02*
X0090768Y0215111D01*
X0090768Y0213610D01*
X0090017Y0212860D01*
X0087014Y0212860D01*
X0086264Y0213610D01*
X0086264Y0215111D01*
X0087014Y0215862D01*
X0079740Y0207693D02*
X0079740Y0188008D01*
X0060055Y0188008D01*
X0060055Y0204150D01*
X0063598Y0207693D01*
X0064780Y0208874D01*
X0063205Y0210449D01*
X0060055Y0207693D01*
X0063598Y0207693D01*
X0079740Y0207693D01*
X0063125Y0197850D02*
X0063127Y0198016D01*
X0063133Y0198182D01*
X0063143Y0198348D01*
X0063158Y0198514D01*
X0063176Y0198679D01*
X0063198Y0198844D01*
X0063225Y0199008D01*
X0063255Y0199171D01*
X0063290Y0199334D01*
X0063328Y0199496D01*
X0063370Y0199656D01*
X0063417Y0199816D01*
X0063467Y0199975D01*
X0063521Y0200132D01*
X0063579Y0200288D01*
X0063641Y0200442D01*
X0063706Y0200595D01*
X0063775Y0200746D01*
X0063848Y0200895D01*
X0063925Y0201043D01*
X0064005Y0201188D01*
X0064089Y0201332D01*
X0064176Y0201474D01*
X0064266Y0201613D01*
X0064360Y0201750D01*
X0064458Y0201885D01*
X0064559Y0202017D01*
X0064662Y0202147D01*
X0064769Y0202274D01*
X0064880Y0202398D01*
X0064993Y0202520D01*
X0065109Y0202639D01*
X0065228Y0202755D01*
X0065350Y0202868D01*
X0065474Y0202979D01*
X0065601Y0203086D01*
X0065731Y0203189D01*
X0065863Y0203290D01*
X0065998Y0203388D01*
X0066135Y0203482D01*
X0066274Y0203572D01*
X0066416Y0203659D01*
X0066560Y0203743D01*
X0066705Y0203823D01*
X0066853Y0203900D01*
X0067002Y0203973D01*
X0067153Y0204042D01*
X0067306Y0204107D01*
X0067460Y0204169D01*
X0067616Y0204227D01*
X0067773Y0204281D01*
X0067932Y0204331D01*
X0068092Y0204378D01*
X0068252Y0204420D01*
X0068414Y0204458D01*
X0068577Y0204493D01*
X0068740Y0204523D01*
X0068904Y0204550D01*
X0069069Y0204572D01*
X0069234Y0204590D01*
X0069400Y0204605D01*
X0069566Y0204615D01*
X0069732Y0204621D01*
X0069898Y0204623D01*
X0070064Y0204621D01*
X0070230Y0204615D01*
X0070396Y0204605D01*
X0070562Y0204590D01*
X0070727Y0204572D01*
X0070892Y0204550D01*
X0071056Y0204523D01*
X0071219Y0204493D01*
X0071382Y0204458D01*
X0071544Y0204420D01*
X0071704Y0204378D01*
X0071864Y0204331D01*
X0072023Y0204281D01*
X0072180Y0204227D01*
X0072336Y0204169D01*
X0072490Y0204107D01*
X0072643Y0204042D01*
X0072794Y0203973D01*
X0072943Y0203900D01*
X0073091Y0203823D01*
X0073236Y0203743D01*
X0073380Y0203659D01*
X0073522Y0203572D01*
X0073661Y0203482D01*
X0073798Y0203388D01*
X0073933Y0203290D01*
X0074065Y0203189D01*
X0074195Y0203086D01*
X0074322Y0202979D01*
X0074446Y0202868D01*
X0074568Y0202755D01*
X0074687Y0202639D01*
X0074803Y0202520D01*
X0074916Y0202398D01*
X0075027Y0202274D01*
X0075134Y0202147D01*
X0075237Y0202017D01*
X0075338Y0201885D01*
X0075436Y0201750D01*
X0075530Y0201613D01*
X0075620Y0201474D01*
X0075707Y0201332D01*
X0075791Y0201188D01*
X0075871Y0201043D01*
X0075948Y0200895D01*
X0076021Y0200746D01*
X0076090Y0200595D01*
X0076155Y0200442D01*
X0076217Y0200288D01*
X0076275Y0200132D01*
X0076329Y0199975D01*
X0076379Y0199816D01*
X0076426Y0199656D01*
X0076468Y0199496D01*
X0076506Y0199334D01*
X0076541Y0199171D01*
X0076571Y0199008D01*
X0076598Y0198844D01*
X0076620Y0198679D01*
X0076638Y0198514D01*
X0076653Y0198348D01*
X0076663Y0198182D01*
X0076669Y0198016D01*
X0076671Y0197850D01*
X0076669Y0197684D01*
X0076663Y0197518D01*
X0076653Y0197352D01*
X0076638Y0197186D01*
X0076620Y0197021D01*
X0076598Y0196856D01*
X0076571Y0196692D01*
X0076541Y0196529D01*
X0076506Y0196366D01*
X0076468Y0196204D01*
X0076426Y0196044D01*
X0076379Y0195884D01*
X0076329Y0195725D01*
X0076275Y0195568D01*
X0076217Y0195412D01*
X0076155Y0195258D01*
X0076090Y0195105D01*
X0076021Y0194954D01*
X0075948Y0194805D01*
X0075871Y0194657D01*
X0075791Y0194512D01*
X0075707Y0194368D01*
X0075620Y0194226D01*
X0075530Y0194087D01*
X0075436Y0193950D01*
X0075338Y0193815D01*
X0075237Y0193683D01*
X0075134Y0193553D01*
X0075027Y0193426D01*
X0074916Y0193302D01*
X0074803Y0193180D01*
X0074687Y0193061D01*
X0074568Y0192945D01*
X0074446Y0192832D01*
X0074322Y0192721D01*
X0074195Y0192614D01*
X0074065Y0192511D01*
X0073933Y0192410D01*
X0073798Y0192312D01*
X0073661Y0192218D01*
X0073522Y0192128D01*
X0073380Y0192041D01*
X0073236Y0191957D01*
X0073091Y0191877D01*
X0072943Y0191800D01*
X0072794Y0191727D01*
X0072643Y0191658D01*
X0072490Y0191593D01*
X0072336Y0191531D01*
X0072180Y0191473D01*
X0072023Y0191419D01*
X0071864Y0191369D01*
X0071704Y0191322D01*
X0071544Y0191280D01*
X0071382Y0191242D01*
X0071219Y0191207D01*
X0071056Y0191177D01*
X0070892Y0191150D01*
X0070727Y0191128D01*
X0070562Y0191110D01*
X0070396Y0191095D01*
X0070230Y0191085D01*
X0070064Y0191079D01*
X0069898Y0191077D01*
X0069732Y0191079D01*
X0069566Y0191085D01*
X0069400Y0191095D01*
X0069234Y0191110D01*
X0069069Y0191128D01*
X0068904Y0191150D01*
X0068740Y0191177D01*
X0068577Y0191207D01*
X0068414Y0191242D01*
X0068252Y0191280D01*
X0068092Y0191322D01*
X0067932Y0191369D01*
X0067773Y0191419D01*
X0067616Y0191473D01*
X0067460Y0191531D01*
X0067306Y0191593D01*
X0067153Y0191658D01*
X0067002Y0191727D01*
X0066853Y0191800D01*
X0066705Y0191877D01*
X0066560Y0191957D01*
X0066416Y0192041D01*
X0066274Y0192128D01*
X0066135Y0192218D01*
X0065998Y0192312D01*
X0065863Y0192410D01*
X0065731Y0192511D01*
X0065601Y0192614D01*
X0065474Y0192721D01*
X0065350Y0192832D01*
X0065228Y0192945D01*
X0065109Y0193061D01*
X0064993Y0193180D01*
X0064880Y0193302D01*
X0064769Y0193426D01*
X0064662Y0193553D01*
X0064559Y0193683D01*
X0064458Y0193815D01*
X0064360Y0193950D01*
X0064266Y0194087D01*
X0064176Y0194226D01*
X0064089Y0194368D01*
X0064005Y0194512D01*
X0063925Y0194657D01*
X0063848Y0194805D01*
X0063775Y0194954D01*
X0063706Y0195105D01*
X0063641Y0195258D01*
X0063579Y0195412D01*
X0063521Y0195568D01*
X0063467Y0195725D01*
X0063417Y0195884D01*
X0063370Y0196044D01*
X0063328Y0196204D01*
X0063290Y0196366D01*
X0063255Y0196529D01*
X0063225Y0196692D01*
X0063198Y0196856D01*
X0063176Y0197021D01*
X0063158Y0197186D01*
X0063143Y0197352D01*
X0063133Y0197518D01*
X0063127Y0197684D01*
X0063125Y0197850D01*
X0060055Y0204150D02*
X0060055Y0207693D01*
X0085919Y0062664D02*
X0085169Y0061913D01*
X0085169Y0060412D01*
X0085919Y0059661D01*
X0086670Y0059661D01*
X0087421Y0060412D01*
X0087421Y0062664D01*
X0088922Y0062664D02*
X0085919Y0062664D01*
X0088922Y0062664D02*
X0089673Y0061913D01*
X0089673Y0060412D01*
X0088922Y0059661D01*
X0088922Y0058060D02*
X0089673Y0057309D01*
X0089673Y0055808D01*
X0088922Y0055057D01*
X0085919Y0055057D01*
X0085169Y0055808D01*
X0085169Y0057309D01*
X0085919Y0058060D01*
X0079740Y0050213D02*
X0079740Y0030528D01*
X0060055Y0030528D01*
X0060055Y0046669D01*
X0063598Y0050213D01*
X0064780Y0051394D01*
X0063205Y0052969D01*
X0060055Y0050213D01*
X0063598Y0050213D01*
X0079740Y0050213D01*
X0063125Y0040370D02*
X0063127Y0040536D01*
X0063133Y0040702D01*
X0063143Y0040868D01*
X0063158Y0041034D01*
X0063176Y0041199D01*
X0063198Y0041364D01*
X0063225Y0041528D01*
X0063255Y0041691D01*
X0063290Y0041854D01*
X0063328Y0042016D01*
X0063370Y0042176D01*
X0063417Y0042336D01*
X0063467Y0042495D01*
X0063521Y0042652D01*
X0063579Y0042808D01*
X0063641Y0042962D01*
X0063706Y0043115D01*
X0063775Y0043266D01*
X0063848Y0043415D01*
X0063925Y0043563D01*
X0064005Y0043708D01*
X0064089Y0043852D01*
X0064176Y0043994D01*
X0064266Y0044133D01*
X0064360Y0044270D01*
X0064458Y0044405D01*
X0064559Y0044537D01*
X0064662Y0044667D01*
X0064769Y0044794D01*
X0064880Y0044918D01*
X0064993Y0045040D01*
X0065109Y0045159D01*
X0065228Y0045275D01*
X0065350Y0045388D01*
X0065474Y0045499D01*
X0065601Y0045606D01*
X0065731Y0045709D01*
X0065863Y0045810D01*
X0065998Y0045908D01*
X0066135Y0046002D01*
X0066274Y0046092D01*
X0066416Y0046179D01*
X0066560Y0046263D01*
X0066705Y0046343D01*
X0066853Y0046420D01*
X0067002Y0046493D01*
X0067153Y0046562D01*
X0067306Y0046627D01*
X0067460Y0046689D01*
X0067616Y0046747D01*
X0067773Y0046801D01*
X0067932Y0046851D01*
X0068092Y0046898D01*
X0068252Y0046940D01*
X0068414Y0046978D01*
X0068577Y0047013D01*
X0068740Y0047043D01*
X0068904Y0047070D01*
X0069069Y0047092D01*
X0069234Y0047110D01*
X0069400Y0047125D01*
X0069566Y0047135D01*
X0069732Y0047141D01*
X0069898Y0047143D01*
X0070064Y0047141D01*
X0070230Y0047135D01*
X0070396Y0047125D01*
X0070562Y0047110D01*
X0070727Y0047092D01*
X0070892Y0047070D01*
X0071056Y0047043D01*
X0071219Y0047013D01*
X0071382Y0046978D01*
X0071544Y0046940D01*
X0071704Y0046898D01*
X0071864Y0046851D01*
X0072023Y0046801D01*
X0072180Y0046747D01*
X0072336Y0046689D01*
X0072490Y0046627D01*
X0072643Y0046562D01*
X0072794Y0046493D01*
X0072943Y0046420D01*
X0073091Y0046343D01*
X0073236Y0046263D01*
X0073380Y0046179D01*
X0073522Y0046092D01*
X0073661Y0046002D01*
X0073798Y0045908D01*
X0073933Y0045810D01*
X0074065Y0045709D01*
X0074195Y0045606D01*
X0074322Y0045499D01*
X0074446Y0045388D01*
X0074568Y0045275D01*
X0074687Y0045159D01*
X0074803Y0045040D01*
X0074916Y0044918D01*
X0075027Y0044794D01*
X0075134Y0044667D01*
X0075237Y0044537D01*
X0075338Y0044405D01*
X0075436Y0044270D01*
X0075530Y0044133D01*
X0075620Y0043994D01*
X0075707Y0043852D01*
X0075791Y0043708D01*
X0075871Y0043563D01*
X0075948Y0043415D01*
X0076021Y0043266D01*
X0076090Y0043115D01*
X0076155Y0042962D01*
X0076217Y0042808D01*
X0076275Y0042652D01*
X0076329Y0042495D01*
X0076379Y0042336D01*
X0076426Y0042176D01*
X0076468Y0042016D01*
X0076506Y0041854D01*
X0076541Y0041691D01*
X0076571Y0041528D01*
X0076598Y0041364D01*
X0076620Y0041199D01*
X0076638Y0041034D01*
X0076653Y0040868D01*
X0076663Y0040702D01*
X0076669Y0040536D01*
X0076671Y0040370D01*
X0076669Y0040204D01*
X0076663Y0040038D01*
X0076653Y0039872D01*
X0076638Y0039706D01*
X0076620Y0039541D01*
X0076598Y0039376D01*
X0076571Y0039212D01*
X0076541Y0039049D01*
X0076506Y0038886D01*
X0076468Y0038724D01*
X0076426Y0038564D01*
X0076379Y0038404D01*
X0076329Y0038245D01*
X0076275Y0038088D01*
X0076217Y0037932D01*
X0076155Y0037778D01*
X0076090Y0037625D01*
X0076021Y0037474D01*
X0075948Y0037325D01*
X0075871Y0037177D01*
X0075791Y0037032D01*
X0075707Y0036888D01*
X0075620Y0036746D01*
X0075530Y0036607D01*
X0075436Y0036470D01*
X0075338Y0036335D01*
X0075237Y0036203D01*
X0075134Y0036073D01*
X0075027Y0035946D01*
X0074916Y0035822D01*
X0074803Y0035700D01*
X0074687Y0035581D01*
X0074568Y0035465D01*
X0074446Y0035352D01*
X0074322Y0035241D01*
X0074195Y0035134D01*
X0074065Y0035031D01*
X0073933Y0034930D01*
X0073798Y0034832D01*
X0073661Y0034738D01*
X0073522Y0034648D01*
X0073380Y0034561D01*
X0073236Y0034477D01*
X0073091Y0034397D01*
X0072943Y0034320D01*
X0072794Y0034247D01*
X0072643Y0034178D01*
X0072490Y0034113D01*
X0072336Y0034051D01*
X0072180Y0033993D01*
X0072023Y0033939D01*
X0071864Y0033889D01*
X0071704Y0033842D01*
X0071544Y0033800D01*
X0071382Y0033762D01*
X0071219Y0033727D01*
X0071056Y0033697D01*
X0070892Y0033670D01*
X0070727Y0033648D01*
X0070562Y0033630D01*
X0070396Y0033615D01*
X0070230Y0033605D01*
X0070064Y0033599D01*
X0069898Y0033597D01*
X0069732Y0033599D01*
X0069566Y0033605D01*
X0069400Y0033615D01*
X0069234Y0033630D01*
X0069069Y0033648D01*
X0068904Y0033670D01*
X0068740Y0033697D01*
X0068577Y0033727D01*
X0068414Y0033762D01*
X0068252Y0033800D01*
X0068092Y0033842D01*
X0067932Y0033889D01*
X0067773Y0033939D01*
X0067616Y0033993D01*
X0067460Y0034051D01*
X0067306Y0034113D01*
X0067153Y0034178D01*
X0067002Y0034247D01*
X0066853Y0034320D01*
X0066705Y0034397D01*
X0066560Y0034477D01*
X0066416Y0034561D01*
X0066274Y0034648D01*
X0066135Y0034738D01*
X0065998Y0034832D01*
X0065863Y0034930D01*
X0065731Y0035031D01*
X0065601Y0035134D01*
X0065474Y0035241D01*
X0065350Y0035352D01*
X0065228Y0035465D01*
X0065109Y0035581D01*
X0064993Y0035700D01*
X0064880Y0035822D01*
X0064769Y0035946D01*
X0064662Y0036073D01*
X0064559Y0036203D01*
X0064458Y0036335D01*
X0064360Y0036470D01*
X0064266Y0036607D01*
X0064176Y0036746D01*
X0064089Y0036888D01*
X0064005Y0037032D01*
X0063925Y0037177D01*
X0063848Y0037325D01*
X0063775Y0037474D01*
X0063706Y0037625D01*
X0063641Y0037778D01*
X0063579Y0037932D01*
X0063521Y0038088D01*
X0063467Y0038245D01*
X0063417Y0038404D01*
X0063370Y0038564D01*
X0063328Y0038724D01*
X0063290Y0038886D01*
X0063255Y0039049D01*
X0063225Y0039212D01*
X0063198Y0039376D01*
X0063176Y0039541D01*
X0063158Y0039706D01*
X0063143Y0039872D01*
X0063133Y0040038D01*
X0063127Y0040204D01*
X0063125Y0040370D01*
X0060055Y0046669D02*
X0060055Y0050213D01*
X0188631Y0031612D02*
X0189381Y0032363D01*
X0192384Y0029360D01*
X0193135Y0030111D01*
X0193135Y0031612D01*
X0192384Y0032363D01*
X0189381Y0032363D01*
X0188631Y0031612D02*
X0188631Y0030111D01*
X0189381Y0029360D01*
X0192384Y0029360D01*
X0193135Y0027759D02*
X0193135Y0024756D01*
X0193135Y0026258D02*
X0188631Y0026258D01*
X0190132Y0024756D01*
X0189381Y0023155D02*
X0188631Y0022404D01*
X0188631Y0020903D01*
X0189381Y0020153D01*
X0192384Y0020153D01*
X0193135Y0020903D01*
X0193135Y0022404D01*
X0192384Y0023155D01*
X0217535Y0030528D02*
X0217535Y0046669D01*
X0221079Y0050213D01*
X0222260Y0051394D01*
X0220685Y0052969D01*
X0217535Y0050213D01*
X0221079Y0050213D01*
X0237220Y0050213D01*
X0237220Y0030528D01*
X0217535Y0030528D01*
X0220605Y0040370D02*
X0220607Y0040536D01*
X0220613Y0040702D01*
X0220623Y0040868D01*
X0220638Y0041034D01*
X0220656Y0041199D01*
X0220678Y0041364D01*
X0220705Y0041528D01*
X0220735Y0041691D01*
X0220770Y0041854D01*
X0220808Y0042016D01*
X0220850Y0042176D01*
X0220897Y0042336D01*
X0220947Y0042495D01*
X0221001Y0042652D01*
X0221059Y0042808D01*
X0221121Y0042962D01*
X0221186Y0043115D01*
X0221255Y0043266D01*
X0221328Y0043415D01*
X0221405Y0043563D01*
X0221485Y0043708D01*
X0221569Y0043852D01*
X0221656Y0043994D01*
X0221746Y0044133D01*
X0221840Y0044270D01*
X0221938Y0044405D01*
X0222039Y0044537D01*
X0222142Y0044667D01*
X0222249Y0044794D01*
X0222360Y0044918D01*
X0222473Y0045040D01*
X0222589Y0045159D01*
X0222708Y0045275D01*
X0222830Y0045388D01*
X0222954Y0045499D01*
X0223081Y0045606D01*
X0223211Y0045709D01*
X0223343Y0045810D01*
X0223478Y0045908D01*
X0223615Y0046002D01*
X0223754Y0046092D01*
X0223896Y0046179D01*
X0224040Y0046263D01*
X0224185Y0046343D01*
X0224333Y0046420D01*
X0224482Y0046493D01*
X0224633Y0046562D01*
X0224786Y0046627D01*
X0224940Y0046689D01*
X0225096Y0046747D01*
X0225253Y0046801D01*
X0225412Y0046851D01*
X0225572Y0046898D01*
X0225732Y0046940D01*
X0225894Y0046978D01*
X0226057Y0047013D01*
X0226220Y0047043D01*
X0226384Y0047070D01*
X0226549Y0047092D01*
X0226714Y0047110D01*
X0226880Y0047125D01*
X0227046Y0047135D01*
X0227212Y0047141D01*
X0227378Y0047143D01*
X0227544Y0047141D01*
X0227710Y0047135D01*
X0227876Y0047125D01*
X0228042Y0047110D01*
X0228207Y0047092D01*
X0228372Y0047070D01*
X0228536Y0047043D01*
X0228699Y0047013D01*
X0228862Y0046978D01*
X0229024Y0046940D01*
X0229184Y0046898D01*
X0229344Y0046851D01*
X0229503Y0046801D01*
X0229660Y0046747D01*
X0229816Y0046689D01*
X0229970Y0046627D01*
X0230123Y0046562D01*
X0230274Y0046493D01*
X0230423Y0046420D01*
X0230571Y0046343D01*
X0230716Y0046263D01*
X0230860Y0046179D01*
X0231002Y0046092D01*
X0231141Y0046002D01*
X0231278Y0045908D01*
X0231413Y0045810D01*
X0231545Y0045709D01*
X0231675Y0045606D01*
X0231802Y0045499D01*
X0231926Y0045388D01*
X0232048Y0045275D01*
X0232167Y0045159D01*
X0232283Y0045040D01*
X0232396Y0044918D01*
X0232507Y0044794D01*
X0232614Y0044667D01*
X0232717Y0044537D01*
X0232818Y0044405D01*
X0232916Y0044270D01*
X0233010Y0044133D01*
X0233100Y0043994D01*
X0233187Y0043852D01*
X0233271Y0043708D01*
X0233351Y0043563D01*
X0233428Y0043415D01*
X0233501Y0043266D01*
X0233570Y0043115D01*
X0233635Y0042962D01*
X0233697Y0042808D01*
X0233755Y0042652D01*
X0233809Y0042495D01*
X0233859Y0042336D01*
X0233906Y0042176D01*
X0233948Y0042016D01*
X0233986Y0041854D01*
X0234021Y0041691D01*
X0234051Y0041528D01*
X0234078Y0041364D01*
X0234100Y0041199D01*
X0234118Y0041034D01*
X0234133Y0040868D01*
X0234143Y0040702D01*
X0234149Y0040536D01*
X0234151Y0040370D01*
X0234149Y0040204D01*
X0234143Y0040038D01*
X0234133Y0039872D01*
X0234118Y0039706D01*
X0234100Y0039541D01*
X0234078Y0039376D01*
X0234051Y0039212D01*
X0234021Y0039049D01*
X0233986Y0038886D01*
X0233948Y0038724D01*
X0233906Y0038564D01*
X0233859Y0038404D01*
X0233809Y0038245D01*
X0233755Y0038088D01*
X0233697Y0037932D01*
X0233635Y0037778D01*
X0233570Y0037625D01*
X0233501Y0037474D01*
X0233428Y0037325D01*
X0233351Y0037177D01*
X0233271Y0037032D01*
X0233187Y0036888D01*
X0233100Y0036746D01*
X0233010Y0036607D01*
X0232916Y0036470D01*
X0232818Y0036335D01*
X0232717Y0036203D01*
X0232614Y0036073D01*
X0232507Y0035946D01*
X0232396Y0035822D01*
X0232283Y0035700D01*
X0232167Y0035581D01*
X0232048Y0035465D01*
X0231926Y0035352D01*
X0231802Y0035241D01*
X0231675Y0035134D01*
X0231545Y0035031D01*
X0231413Y0034930D01*
X0231278Y0034832D01*
X0231141Y0034738D01*
X0231002Y0034648D01*
X0230860Y0034561D01*
X0230716Y0034477D01*
X0230571Y0034397D01*
X0230423Y0034320D01*
X0230274Y0034247D01*
X0230123Y0034178D01*
X0229970Y0034113D01*
X0229816Y0034051D01*
X0229660Y0033993D01*
X0229503Y0033939D01*
X0229344Y0033889D01*
X0229184Y0033842D01*
X0229024Y0033800D01*
X0228862Y0033762D01*
X0228699Y0033727D01*
X0228536Y0033697D01*
X0228372Y0033670D01*
X0228207Y0033648D01*
X0228042Y0033630D01*
X0227876Y0033615D01*
X0227710Y0033605D01*
X0227544Y0033599D01*
X0227378Y0033597D01*
X0227212Y0033599D01*
X0227046Y0033605D01*
X0226880Y0033615D01*
X0226714Y0033630D01*
X0226549Y0033648D01*
X0226384Y0033670D01*
X0226220Y0033697D01*
X0226057Y0033727D01*
X0225894Y0033762D01*
X0225732Y0033800D01*
X0225572Y0033842D01*
X0225412Y0033889D01*
X0225253Y0033939D01*
X0225096Y0033993D01*
X0224940Y0034051D01*
X0224786Y0034113D01*
X0224633Y0034178D01*
X0224482Y0034247D01*
X0224333Y0034320D01*
X0224185Y0034397D01*
X0224040Y0034477D01*
X0223896Y0034561D01*
X0223754Y0034648D01*
X0223615Y0034738D01*
X0223478Y0034832D01*
X0223343Y0034930D01*
X0223211Y0035031D01*
X0223081Y0035134D01*
X0222954Y0035241D01*
X0222830Y0035352D01*
X0222708Y0035465D01*
X0222589Y0035581D01*
X0222473Y0035700D01*
X0222360Y0035822D01*
X0222249Y0035946D01*
X0222142Y0036073D01*
X0222039Y0036203D01*
X0221938Y0036335D01*
X0221840Y0036470D01*
X0221746Y0036607D01*
X0221656Y0036746D01*
X0221569Y0036888D01*
X0221485Y0037032D01*
X0221405Y0037177D01*
X0221328Y0037325D01*
X0221255Y0037474D01*
X0221186Y0037625D01*
X0221121Y0037778D01*
X0221059Y0037932D01*
X0221001Y0038088D01*
X0220947Y0038245D01*
X0220897Y0038404D01*
X0220850Y0038564D01*
X0220808Y0038724D01*
X0220770Y0038886D01*
X0220735Y0039049D01*
X0220705Y0039212D01*
X0220678Y0039376D01*
X0220656Y0039541D01*
X0220638Y0039706D01*
X0220623Y0039872D01*
X0220613Y0040038D01*
X0220607Y0040204D01*
X0220605Y0040370D01*
X0217535Y0046669D02*
X0217535Y0050213D01*
X0344755Y0030912D02*
X0349259Y0030912D01*
X0349259Y0032413D02*
X0349259Y0029410D01*
X0349259Y0027809D02*
X0349259Y0024806D01*
X0349259Y0026308D02*
X0344755Y0026308D01*
X0346257Y0024806D01*
X0345506Y0023205D02*
X0344755Y0022454D01*
X0344755Y0020953D01*
X0345506Y0020203D01*
X0348509Y0020203D01*
X0349259Y0020953D01*
X0349259Y0022454D01*
X0348509Y0023205D01*
X0346257Y0029410D02*
X0344755Y0030912D01*
X0375016Y0030528D02*
X0375016Y0046669D01*
X0378559Y0050213D01*
X0379740Y0051394D01*
X0378165Y0052969D01*
X0375016Y0050213D01*
X0378559Y0050213D01*
X0394701Y0050213D01*
X0394701Y0030528D01*
X0375016Y0030528D01*
X0378085Y0040370D02*
X0378087Y0040536D01*
X0378093Y0040702D01*
X0378103Y0040868D01*
X0378118Y0041034D01*
X0378136Y0041199D01*
X0378158Y0041364D01*
X0378185Y0041528D01*
X0378215Y0041691D01*
X0378250Y0041854D01*
X0378288Y0042016D01*
X0378330Y0042176D01*
X0378377Y0042336D01*
X0378427Y0042495D01*
X0378481Y0042652D01*
X0378539Y0042808D01*
X0378601Y0042962D01*
X0378666Y0043115D01*
X0378735Y0043266D01*
X0378808Y0043415D01*
X0378885Y0043563D01*
X0378965Y0043708D01*
X0379049Y0043852D01*
X0379136Y0043994D01*
X0379226Y0044133D01*
X0379320Y0044270D01*
X0379418Y0044405D01*
X0379519Y0044537D01*
X0379622Y0044667D01*
X0379729Y0044794D01*
X0379840Y0044918D01*
X0379953Y0045040D01*
X0380069Y0045159D01*
X0380188Y0045275D01*
X0380310Y0045388D01*
X0380434Y0045499D01*
X0380561Y0045606D01*
X0380691Y0045709D01*
X0380823Y0045810D01*
X0380958Y0045908D01*
X0381095Y0046002D01*
X0381234Y0046092D01*
X0381376Y0046179D01*
X0381520Y0046263D01*
X0381665Y0046343D01*
X0381813Y0046420D01*
X0381962Y0046493D01*
X0382113Y0046562D01*
X0382266Y0046627D01*
X0382420Y0046689D01*
X0382576Y0046747D01*
X0382733Y0046801D01*
X0382892Y0046851D01*
X0383052Y0046898D01*
X0383212Y0046940D01*
X0383374Y0046978D01*
X0383537Y0047013D01*
X0383700Y0047043D01*
X0383864Y0047070D01*
X0384029Y0047092D01*
X0384194Y0047110D01*
X0384360Y0047125D01*
X0384526Y0047135D01*
X0384692Y0047141D01*
X0384858Y0047143D01*
X0385024Y0047141D01*
X0385190Y0047135D01*
X0385356Y0047125D01*
X0385522Y0047110D01*
X0385687Y0047092D01*
X0385852Y0047070D01*
X0386016Y0047043D01*
X0386179Y0047013D01*
X0386342Y0046978D01*
X0386504Y0046940D01*
X0386664Y0046898D01*
X0386824Y0046851D01*
X0386983Y0046801D01*
X0387140Y0046747D01*
X0387296Y0046689D01*
X0387450Y0046627D01*
X0387603Y0046562D01*
X0387754Y0046493D01*
X0387903Y0046420D01*
X0388051Y0046343D01*
X0388196Y0046263D01*
X0388340Y0046179D01*
X0388482Y0046092D01*
X0388621Y0046002D01*
X0388758Y0045908D01*
X0388893Y0045810D01*
X0389025Y0045709D01*
X0389155Y0045606D01*
X0389282Y0045499D01*
X0389406Y0045388D01*
X0389528Y0045275D01*
X0389647Y0045159D01*
X0389763Y0045040D01*
X0389876Y0044918D01*
X0389987Y0044794D01*
X0390094Y0044667D01*
X0390197Y0044537D01*
X0390298Y0044405D01*
X0390396Y0044270D01*
X0390490Y0044133D01*
X0390580Y0043994D01*
X0390667Y0043852D01*
X0390751Y0043708D01*
X0390831Y0043563D01*
X0390908Y0043415D01*
X0390981Y0043266D01*
X0391050Y0043115D01*
X0391115Y0042962D01*
X0391177Y0042808D01*
X0391235Y0042652D01*
X0391289Y0042495D01*
X0391339Y0042336D01*
X0391386Y0042176D01*
X0391428Y0042016D01*
X0391466Y0041854D01*
X0391501Y0041691D01*
X0391531Y0041528D01*
X0391558Y0041364D01*
X0391580Y0041199D01*
X0391598Y0041034D01*
X0391613Y0040868D01*
X0391623Y0040702D01*
X0391629Y0040536D01*
X0391631Y0040370D01*
X0391629Y0040204D01*
X0391623Y0040038D01*
X0391613Y0039872D01*
X0391598Y0039706D01*
X0391580Y0039541D01*
X0391558Y0039376D01*
X0391531Y0039212D01*
X0391501Y0039049D01*
X0391466Y0038886D01*
X0391428Y0038724D01*
X0391386Y0038564D01*
X0391339Y0038404D01*
X0391289Y0038245D01*
X0391235Y0038088D01*
X0391177Y0037932D01*
X0391115Y0037778D01*
X0391050Y0037625D01*
X0390981Y0037474D01*
X0390908Y0037325D01*
X0390831Y0037177D01*
X0390751Y0037032D01*
X0390667Y0036888D01*
X0390580Y0036746D01*
X0390490Y0036607D01*
X0390396Y0036470D01*
X0390298Y0036335D01*
X0390197Y0036203D01*
X0390094Y0036073D01*
X0389987Y0035946D01*
X0389876Y0035822D01*
X0389763Y0035700D01*
X0389647Y0035581D01*
X0389528Y0035465D01*
X0389406Y0035352D01*
X0389282Y0035241D01*
X0389155Y0035134D01*
X0389025Y0035031D01*
X0388893Y0034930D01*
X0388758Y0034832D01*
X0388621Y0034738D01*
X0388482Y0034648D01*
X0388340Y0034561D01*
X0388196Y0034477D01*
X0388051Y0034397D01*
X0387903Y0034320D01*
X0387754Y0034247D01*
X0387603Y0034178D01*
X0387450Y0034113D01*
X0387296Y0034051D01*
X0387140Y0033993D01*
X0386983Y0033939D01*
X0386824Y0033889D01*
X0386664Y0033842D01*
X0386504Y0033800D01*
X0386342Y0033762D01*
X0386179Y0033727D01*
X0386016Y0033697D01*
X0385852Y0033670D01*
X0385687Y0033648D01*
X0385522Y0033630D01*
X0385356Y0033615D01*
X0385190Y0033605D01*
X0385024Y0033599D01*
X0384858Y0033597D01*
X0384692Y0033599D01*
X0384526Y0033605D01*
X0384360Y0033615D01*
X0384194Y0033630D01*
X0384029Y0033648D01*
X0383864Y0033670D01*
X0383700Y0033697D01*
X0383537Y0033727D01*
X0383374Y0033762D01*
X0383212Y0033800D01*
X0383052Y0033842D01*
X0382892Y0033889D01*
X0382733Y0033939D01*
X0382576Y0033993D01*
X0382420Y0034051D01*
X0382266Y0034113D01*
X0382113Y0034178D01*
X0381962Y0034247D01*
X0381813Y0034320D01*
X0381665Y0034397D01*
X0381520Y0034477D01*
X0381376Y0034561D01*
X0381234Y0034648D01*
X0381095Y0034738D01*
X0380958Y0034832D01*
X0380823Y0034930D01*
X0380691Y0035031D01*
X0380561Y0035134D01*
X0380434Y0035241D01*
X0380310Y0035352D01*
X0380188Y0035465D01*
X0380069Y0035581D01*
X0379953Y0035700D01*
X0379840Y0035822D01*
X0379729Y0035946D01*
X0379622Y0036073D01*
X0379519Y0036203D01*
X0379418Y0036335D01*
X0379320Y0036470D01*
X0379226Y0036607D01*
X0379136Y0036746D01*
X0379049Y0036888D01*
X0378965Y0037032D01*
X0378885Y0037177D01*
X0378808Y0037325D01*
X0378735Y0037474D01*
X0378666Y0037625D01*
X0378601Y0037778D01*
X0378539Y0037932D01*
X0378481Y0038088D01*
X0378427Y0038245D01*
X0378377Y0038404D01*
X0378330Y0038564D01*
X0378288Y0038724D01*
X0378250Y0038886D01*
X0378215Y0039049D01*
X0378185Y0039212D01*
X0378158Y0039376D01*
X0378136Y0039541D01*
X0378118Y0039706D01*
X0378103Y0039872D01*
X0378093Y0040038D01*
X0378087Y0040204D01*
X0378085Y0040370D01*
X0375016Y0046669D02*
X0375016Y0050213D01*
X0503058Y0032285D02*
X0503058Y0030784D01*
X0503808Y0030033D01*
X0503058Y0032285D02*
X0503808Y0033036D01*
X0504559Y0033036D01*
X0507562Y0030033D01*
X0507562Y0033036D01*
X0507562Y0028432D02*
X0507562Y0025429D01*
X0507562Y0026931D02*
X0503058Y0026931D01*
X0504559Y0025429D01*
X0503808Y0023828D02*
X0503058Y0023077D01*
X0503058Y0021576D01*
X0503808Y0020826D01*
X0506811Y0020826D01*
X0507562Y0021576D01*
X0507562Y0023077D01*
X0506811Y0023828D01*
X0532496Y0030528D02*
X0532496Y0046669D01*
X0536039Y0050213D01*
X0537220Y0051394D01*
X0535646Y0052969D01*
X0532496Y0050213D01*
X0536039Y0050213D01*
X0552181Y0050213D01*
X0552181Y0030528D01*
X0532496Y0030528D01*
X0535566Y0040370D02*
X0535568Y0040536D01*
X0535574Y0040702D01*
X0535584Y0040868D01*
X0535599Y0041034D01*
X0535617Y0041199D01*
X0535639Y0041364D01*
X0535666Y0041528D01*
X0535696Y0041691D01*
X0535731Y0041854D01*
X0535769Y0042016D01*
X0535811Y0042176D01*
X0535858Y0042336D01*
X0535908Y0042495D01*
X0535962Y0042652D01*
X0536020Y0042808D01*
X0536082Y0042962D01*
X0536147Y0043115D01*
X0536216Y0043266D01*
X0536289Y0043415D01*
X0536366Y0043563D01*
X0536446Y0043708D01*
X0536530Y0043852D01*
X0536617Y0043994D01*
X0536707Y0044133D01*
X0536801Y0044270D01*
X0536899Y0044405D01*
X0537000Y0044537D01*
X0537103Y0044667D01*
X0537210Y0044794D01*
X0537321Y0044918D01*
X0537434Y0045040D01*
X0537550Y0045159D01*
X0537669Y0045275D01*
X0537791Y0045388D01*
X0537915Y0045499D01*
X0538042Y0045606D01*
X0538172Y0045709D01*
X0538304Y0045810D01*
X0538439Y0045908D01*
X0538576Y0046002D01*
X0538715Y0046092D01*
X0538857Y0046179D01*
X0539001Y0046263D01*
X0539146Y0046343D01*
X0539294Y0046420D01*
X0539443Y0046493D01*
X0539594Y0046562D01*
X0539747Y0046627D01*
X0539901Y0046689D01*
X0540057Y0046747D01*
X0540214Y0046801D01*
X0540373Y0046851D01*
X0540533Y0046898D01*
X0540693Y0046940D01*
X0540855Y0046978D01*
X0541018Y0047013D01*
X0541181Y0047043D01*
X0541345Y0047070D01*
X0541510Y0047092D01*
X0541675Y0047110D01*
X0541841Y0047125D01*
X0542007Y0047135D01*
X0542173Y0047141D01*
X0542339Y0047143D01*
X0542505Y0047141D01*
X0542671Y0047135D01*
X0542837Y0047125D01*
X0543003Y0047110D01*
X0543168Y0047092D01*
X0543333Y0047070D01*
X0543497Y0047043D01*
X0543660Y0047013D01*
X0543823Y0046978D01*
X0543985Y0046940D01*
X0544145Y0046898D01*
X0544305Y0046851D01*
X0544464Y0046801D01*
X0544621Y0046747D01*
X0544777Y0046689D01*
X0544931Y0046627D01*
X0545084Y0046562D01*
X0545235Y0046493D01*
X0545384Y0046420D01*
X0545532Y0046343D01*
X0545677Y0046263D01*
X0545821Y0046179D01*
X0545963Y0046092D01*
X0546102Y0046002D01*
X0546239Y0045908D01*
X0546374Y0045810D01*
X0546506Y0045709D01*
X0546636Y0045606D01*
X0546763Y0045499D01*
X0546887Y0045388D01*
X0547009Y0045275D01*
X0547128Y0045159D01*
X0547244Y0045040D01*
X0547357Y0044918D01*
X0547468Y0044794D01*
X0547575Y0044667D01*
X0547678Y0044537D01*
X0547779Y0044405D01*
X0547877Y0044270D01*
X0547971Y0044133D01*
X0548061Y0043994D01*
X0548148Y0043852D01*
X0548232Y0043708D01*
X0548312Y0043563D01*
X0548389Y0043415D01*
X0548462Y0043266D01*
X0548531Y0043115D01*
X0548596Y0042962D01*
X0548658Y0042808D01*
X0548716Y0042652D01*
X0548770Y0042495D01*
X0548820Y0042336D01*
X0548867Y0042176D01*
X0548909Y0042016D01*
X0548947Y0041854D01*
X0548982Y0041691D01*
X0549012Y0041528D01*
X0549039Y0041364D01*
X0549061Y0041199D01*
X0549079Y0041034D01*
X0549094Y0040868D01*
X0549104Y0040702D01*
X0549110Y0040536D01*
X0549112Y0040370D01*
X0549110Y0040204D01*
X0549104Y0040038D01*
X0549094Y0039872D01*
X0549079Y0039706D01*
X0549061Y0039541D01*
X0549039Y0039376D01*
X0549012Y0039212D01*
X0548982Y0039049D01*
X0548947Y0038886D01*
X0548909Y0038724D01*
X0548867Y0038564D01*
X0548820Y0038404D01*
X0548770Y0038245D01*
X0548716Y0038088D01*
X0548658Y0037932D01*
X0548596Y0037778D01*
X0548531Y0037625D01*
X0548462Y0037474D01*
X0548389Y0037325D01*
X0548312Y0037177D01*
X0548232Y0037032D01*
X0548148Y0036888D01*
X0548061Y0036746D01*
X0547971Y0036607D01*
X0547877Y0036470D01*
X0547779Y0036335D01*
X0547678Y0036203D01*
X0547575Y0036073D01*
X0547468Y0035946D01*
X0547357Y0035822D01*
X0547244Y0035700D01*
X0547128Y0035581D01*
X0547009Y0035465D01*
X0546887Y0035352D01*
X0546763Y0035241D01*
X0546636Y0035134D01*
X0546506Y0035031D01*
X0546374Y0034930D01*
X0546239Y0034832D01*
X0546102Y0034738D01*
X0545963Y0034648D01*
X0545821Y0034561D01*
X0545677Y0034477D01*
X0545532Y0034397D01*
X0545384Y0034320D01*
X0545235Y0034247D01*
X0545084Y0034178D01*
X0544931Y0034113D01*
X0544777Y0034051D01*
X0544621Y0033993D01*
X0544464Y0033939D01*
X0544305Y0033889D01*
X0544145Y0033842D01*
X0543985Y0033800D01*
X0543823Y0033762D01*
X0543660Y0033727D01*
X0543497Y0033697D01*
X0543333Y0033670D01*
X0543168Y0033648D01*
X0543003Y0033630D01*
X0542837Y0033615D01*
X0542671Y0033605D01*
X0542505Y0033599D01*
X0542339Y0033597D01*
X0542173Y0033599D01*
X0542007Y0033605D01*
X0541841Y0033615D01*
X0541675Y0033630D01*
X0541510Y0033648D01*
X0541345Y0033670D01*
X0541181Y0033697D01*
X0541018Y0033727D01*
X0540855Y0033762D01*
X0540693Y0033800D01*
X0540533Y0033842D01*
X0540373Y0033889D01*
X0540214Y0033939D01*
X0540057Y0033993D01*
X0539901Y0034051D01*
X0539747Y0034113D01*
X0539594Y0034178D01*
X0539443Y0034247D01*
X0539294Y0034320D01*
X0539146Y0034397D01*
X0539001Y0034477D01*
X0538857Y0034561D01*
X0538715Y0034648D01*
X0538576Y0034738D01*
X0538439Y0034832D01*
X0538304Y0034930D01*
X0538172Y0035031D01*
X0538042Y0035134D01*
X0537915Y0035241D01*
X0537791Y0035352D01*
X0537669Y0035465D01*
X0537550Y0035581D01*
X0537434Y0035700D01*
X0537321Y0035822D01*
X0537210Y0035946D01*
X0537103Y0036073D01*
X0537000Y0036203D01*
X0536899Y0036335D01*
X0536801Y0036470D01*
X0536707Y0036607D01*
X0536617Y0036746D01*
X0536530Y0036888D01*
X0536446Y0037032D01*
X0536366Y0037177D01*
X0536289Y0037325D01*
X0536216Y0037474D01*
X0536147Y0037625D01*
X0536082Y0037778D01*
X0536020Y0037932D01*
X0535962Y0038088D01*
X0535908Y0038245D01*
X0535858Y0038404D01*
X0535811Y0038564D01*
X0535769Y0038724D01*
X0535731Y0038886D01*
X0535696Y0039049D01*
X0535666Y0039212D01*
X0535639Y0039376D01*
X0535617Y0039541D01*
X0535599Y0039706D01*
X0535584Y0039872D01*
X0535574Y0040038D01*
X0535568Y0040204D01*
X0535566Y0040370D01*
X0532496Y0046669D02*
X0532496Y0050213D01*
D14*
X0556236Y0045275D02*
X0556236Y0044307D01*
X0556720Y0043824D01*
X0556236Y0045275D02*
X0556720Y0045759D01*
X0557204Y0045759D01*
X0559139Y0043824D01*
X0559139Y0045759D01*
X0559139Y0042812D02*
X0559139Y0040877D01*
X0559139Y0041845D02*
X0556236Y0041845D01*
X0557204Y0040877D01*
X0556720Y0039866D02*
X0558655Y0039866D01*
X0559139Y0039382D01*
X0559139Y0037931D01*
X0556236Y0037931D01*
X0556236Y0039382D01*
X0556720Y0039866D01*
X0556236Y0036919D02*
X0556236Y0034984D01*
X0559139Y0034984D01*
X0559139Y0036919D01*
X0557687Y0035951D02*
X0557687Y0034984D01*
X0559139Y0033972D02*
X0559139Y0032037D01*
X0556236Y0032037D01*
X0401658Y0032037D02*
X0401658Y0033972D01*
X0401658Y0034984D02*
X0401658Y0036919D01*
X0401658Y0037931D02*
X0401658Y0039382D01*
X0401175Y0039866D01*
X0399240Y0039866D01*
X0398756Y0039382D01*
X0398756Y0037931D01*
X0401658Y0037931D01*
X0400207Y0035951D02*
X0400207Y0034984D01*
X0398756Y0034984D02*
X0401658Y0034984D01*
X0398756Y0034984D02*
X0398756Y0036919D01*
X0399723Y0040877D02*
X0398756Y0041845D01*
X0401658Y0041845D01*
X0401658Y0042812D02*
X0401658Y0040877D01*
X0401658Y0043824D02*
X0401658Y0045759D01*
X0401658Y0044791D02*
X0398756Y0044791D01*
X0399723Y0043824D01*
X0398756Y0032037D02*
X0401658Y0032037D01*
X0244178Y0032037D02*
X0244178Y0033972D01*
X0244178Y0034984D02*
X0244178Y0036919D01*
X0244178Y0037931D02*
X0244178Y0039382D01*
X0243694Y0039866D01*
X0241759Y0039866D01*
X0241275Y0039382D01*
X0241275Y0037931D01*
X0244178Y0037931D01*
X0242727Y0035951D02*
X0242727Y0034984D01*
X0244178Y0034984D02*
X0241275Y0034984D01*
X0241275Y0036919D01*
X0242243Y0040877D02*
X0241275Y0041845D01*
X0244178Y0041845D01*
X0244178Y0042812D02*
X0244178Y0040877D01*
X0243694Y0043824D02*
X0241759Y0045759D01*
X0243694Y0045759D01*
X0244178Y0045275D01*
X0244178Y0044307D01*
X0243694Y0043824D01*
X0241759Y0043824D01*
X0241275Y0044307D01*
X0241275Y0045275D01*
X0241759Y0045759D01*
X0241275Y0032037D02*
X0244178Y0032037D01*
X0086698Y0034984D02*
X0086698Y0036919D01*
X0086698Y0037931D02*
X0086698Y0039866D01*
X0086698Y0040877D02*
X0086698Y0042328D01*
X0086214Y0042812D01*
X0084279Y0042812D01*
X0083795Y0042328D01*
X0083795Y0040877D01*
X0086698Y0040877D01*
X0085246Y0038898D02*
X0085246Y0037931D01*
X0083795Y0037931D02*
X0086698Y0037931D01*
X0083795Y0037931D02*
X0083795Y0039866D01*
X0084279Y0043824D02*
X0084763Y0043824D01*
X0085246Y0044307D01*
X0085246Y0045759D01*
X0084279Y0045759D02*
X0083795Y0045275D01*
X0083795Y0044307D01*
X0084279Y0043824D01*
X0084279Y0045759D02*
X0086214Y0045759D01*
X0086698Y0045275D01*
X0086698Y0044307D01*
X0086214Y0043824D01*
X0086698Y0034984D02*
X0083795Y0034984D01*
X0083795Y0192464D02*
X0086698Y0192464D01*
X0086698Y0194399D01*
X0086698Y0195411D02*
X0086698Y0197346D01*
X0086698Y0198357D02*
X0083795Y0198357D01*
X0083795Y0199809D01*
X0084279Y0200292D01*
X0086214Y0200292D01*
X0086698Y0199809D01*
X0086698Y0198357D01*
X0085246Y0196378D02*
X0085246Y0195411D01*
X0083795Y0195411D02*
X0086698Y0195411D01*
X0083795Y0195411D02*
X0083795Y0197346D01*
X0083795Y0201304D02*
X0085246Y0201304D01*
X0084763Y0202271D01*
X0084763Y0202755D01*
X0085246Y0203239D01*
X0086214Y0203239D01*
X0086698Y0202755D01*
X0086698Y0201788D01*
X0086214Y0201304D01*
X0083795Y0201304D02*
X0083795Y0203239D01*
X0241275Y0203239D02*
X0241759Y0202271D01*
X0242727Y0201304D01*
X0242727Y0202755D01*
X0243210Y0203239D01*
X0243694Y0203239D01*
X0244178Y0202755D01*
X0244178Y0201788D01*
X0243694Y0201304D01*
X0242727Y0201304D01*
X0243694Y0200292D02*
X0241759Y0200292D01*
X0241275Y0199809D01*
X0241275Y0198357D01*
X0244178Y0198357D01*
X0244178Y0199809D01*
X0243694Y0200292D01*
X0244178Y0197346D02*
X0244178Y0195411D01*
X0241275Y0195411D01*
X0241275Y0197346D01*
X0242727Y0196378D02*
X0242727Y0195411D01*
X0244178Y0194399D02*
X0244178Y0192464D01*
X0241275Y0192464D01*
X0398756Y0192464D02*
X0401658Y0192464D01*
X0401658Y0194399D01*
X0401658Y0195411D02*
X0401658Y0197346D01*
X0401658Y0198357D02*
X0401658Y0199809D01*
X0401175Y0200292D01*
X0399240Y0200292D01*
X0398756Y0199809D01*
X0398756Y0198357D01*
X0401658Y0198357D01*
X0400207Y0196378D02*
X0400207Y0195411D01*
X0398756Y0195411D02*
X0401658Y0195411D01*
X0398756Y0195411D02*
X0398756Y0197346D01*
X0398756Y0201304D02*
X0398756Y0203239D01*
X0399240Y0203239D01*
X0401175Y0201304D01*
X0401658Y0201304D01*
X0556236Y0201788D02*
X0556236Y0202755D01*
X0556720Y0203239D01*
X0557204Y0203239D01*
X0557687Y0202755D01*
X0557687Y0201788D01*
X0557204Y0201304D01*
X0556720Y0201304D01*
X0556236Y0201788D01*
X0557687Y0201788D02*
X0558171Y0201304D01*
X0558655Y0201304D01*
X0559139Y0201788D01*
X0559139Y0202755D01*
X0558655Y0203239D01*
X0558171Y0203239D01*
X0557687Y0202755D01*
X0556720Y0200292D02*
X0556236Y0199809D01*
X0556236Y0198357D01*
X0559139Y0198357D01*
X0559139Y0199809D01*
X0558655Y0200292D01*
X0556720Y0200292D01*
X0556236Y0197346D02*
X0556236Y0195411D01*
X0559139Y0195411D01*
X0559139Y0197346D01*
X0557687Y0196378D02*
X0557687Y0195411D01*
X0559139Y0194399D02*
X0559139Y0192464D01*
X0556236Y0192464D01*
X0556236Y0349945D02*
X0559139Y0349945D01*
X0559139Y0351880D01*
X0559139Y0352891D02*
X0556236Y0352891D01*
X0556236Y0354826D01*
X0556236Y0355838D02*
X0556236Y0357289D01*
X0556720Y0357773D01*
X0558655Y0357773D01*
X0559139Y0357289D01*
X0559139Y0355838D01*
X0556236Y0355838D01*
X0557687Y0353859D02*
X0557687Y0352891D01*
X0559139Y0352891D02*
X0559139Y0354826D01*
X0557687Y0358784D02*
X0557687Y0360719D01*
X0556236Y0360235D02*
X0559139Y0360235D01*
X0557687Y0358784D02*
X0556236Y0360235D01*
X0401658Y0360235D02*
X0401658Y0359268D01*
X0401175Y0358784D01*
X0401175Y0357773D02*
X0399240Y0357773D01*
X0398756Y0357289D01*
X0398756Y0355838D01*
X0401658Y0355838D01*
X0401658Y0357289D01*
X0401175Y0357773D01*
X0399240Y0358784D02*
X0398756Y0359268D01*
X0398756Y0360235D01*
X0399240Y0360719D01*
X0399723Y0360719D01*
X0400207Y0360235D01*
X0400691Y0360719D01*
X0401175Y0360719D01*
X0401658Y0360235D01*
X0400207Y0360235D02*
X0400207Y0359752D01*
X0398756Y0354826D02*
X0398756Y0352891D01*
X0401658Y0352891D01*
X0401658Y0354826D01*
X0400207Y0353859D02*
X0400207Y0352891D01*
X0401658Y0351880D02*
X0401658Y0349945D01*
X0398756Y0349945D01*
X0244178Y0349945D02*
X0244178Y0351880D01*
X0244178Y0352891D02*
X0244178Y0354826D01*
X0244178Y0355838D02*
X0244178Y0357289D01*
X0243694Y0357773D01*
X0241759Y0357773D01*
X0241275Y0357289D01*
X0241275Y0355838D01*
X0244178Y0355838D01*
X0242727Y0353859D02*
X0242727Y0352891D01*
X0244178Y0352891D02*
X0241275Y0352891D01*
X0241275Y0354826D01*
X0241759Y0358784D02*
X0241275Y0359268D01*
X0241275Y0360235D01*
X0241759Y0360719D01*
X0242243Y0360719D01*
X0244178Y0358784D01*
X0244178Y0360719D01*
X0244178Y0349945D02*
X0241275Y0349945D01*
X0086698Y0349945D02*
X0086698Y0351880D01*
X0086698Y0352891D02*
X0083795Y0352891D01*
X0083795Y0354826D01*
X0083795Y0355838D02*
X0083795Y0357289D01*
X0084279Y0357773D01*
X0086214Y0357773D01*
X0086698Y0357289D01*
X0086698Y0355838D01*
X0083795Y0355838D01*
X0085246Y0353859D02*
X0085246Y0352891D01*
X0086698Y0352891D02*
X0086698Y0354826D01*
X0086698Y0358784D02*
X0086698Y0360719D01*
X0086698Y0359752D02*
X0083795Y0359752D01*
X0084763Y0358784D01*
X0083795Y0349945D02*
X0086698Y0349945D01*
D15*
X0094298Y0364764D02*
X0096798Y0364764D01*
X0099298Y0364764D01*
X0099298Y0367264D02*
X0096798Y0367264D01*
X0094298Y0367264D01*
X0200433Y0350049D02*
X0202933Y0350049D01*
X0205433Y0350049D01*
X0205433Y0347549D02*
X0202933Y0347549D01*
X0200433Y0347549D01*
X0357607Y0347401D02*
X0360107Y0347401D01*
X0362607Y0347401D01*
X0362607Y0349901D02*
X0360107Y0349901D01*
X0357607Y0349901D01*
X0515306Y0350209D02*
X0517806Y0350209D01*
X0520306Y0350209D01*
X0520306Y0347709D02*
X0517806Y0347709D01*
X0515306Y0347709D01*
X0515227Y0191926D02*
X0517727Y0191926D01*
X0520227Y0191926D01*
X0520227Y0189426D02*
X0517727Y0189426D01*
X0515227Y0189426D01*
X0362706Y0189679D02*
X0360206Y0189679D01*
X0357706Y0189679D01*
X0357706Y0192179D02*
X0360206Y0192179D01*
X0362706Y0192179D01*
X0203723Y0192258D02*
X0201223Y0192258D01*
X0198723Y0192258D01*
X0198723Y0189758D02*
X0201223Y0189758D01*
X0203723Y0189758D01*
X0100018Y0207193D02*
X0097518Y0207193D01*
X0095018Y0207193D01*
X0095018Y0209693D02*
X0097518Y0209693D01*
X0100018Y0209693D01*
X0098923Y0051891D02*
X0096423Y0051891D01*
X0093923Y0051891D01*
X0093923Y0049391D02*
X0096423Y0049391D01*
X0098923Y0049391D01*
X0197385Y0034703D02*
X0199885Y0034703D01*
X0202385Y0034703D01*
X0202385Y0032203D02*
X0199885Y0032203D01*
X0197385Y0032203D01*
X0353509Y0032253D02*
X0356009Y0032253D01*
X0358509Y0032253D01*
X0358509Y0034753D02*
X0356009Y0034753D01*
X0353509Y0034753D01*
X0511812Y0035376D02*
X0514312Y0035376D01*
X0516812Y0035376D01*
X0516812Y0032876D02*
X0514312Y0032876D01*
X0511812Y0032876D01*
M02*
