G75*
%MOIN*%
%OFA0B0*%
%FSLAX25Y25*%
%IPPOS*%
%LPD*%
%AMOC8*
5,1,8,0,0,1.08239X$1,22.5*
%
%ADD10C,0.00000*%
%ADD11C,0.00600*%
%ADD12C,0.00800*%
%ADD13C,0.00500*%
%ADD14C,0.01600*%
%ADD15R,0.02300X0.01600*%
%ADD16C,0.01000*%
%ADD17C,0.01200*%
D10*
X0002160Y0001252D02*
X0002160Y0129205D01*
X0199010Y0129205D01*
X0199010Y0001252D01*
X0002160Y0001252D01*
X0011609Y0017000D02*
X0011611Y0017158D01*
X0011617Y0017316D01*
X0011627Y0017474D01*
X0011641Y0017632D01*
X0011659Y0017789D01*
X0011680Y0017946D01*
X0011706Y0018102D01*
X0011736Y0018258D01*
X0011769Y0018413D01*
X0011807Y0018566D01*
X0011848Y0018719D01*
X0011893Y0018871D01*
X0011942Y0019022D01*
X0011995Y0019171D01*
X0012051Y0019319D01*
X0012111Y0019465D01*
X0012175Y0019610D01*
X0012243Y0019753D01*
X0012314Y0019895D01*
X0012388Y0020035D01*
X0012466Y0020172D01*
X0012548Y0020308D01*
X0012632Y0020442D01*
X0012721Y0020573D01*
X0012812Y0020702D01*
X0012907Y0020829D01*
X0013004Y0020954D01*
X0013105Y0021076D01*
X0013209Y0021195D01*
X0013316Y0021312D01*
X0013426Y0021426D01*
X0013539Y0021537D01*
X0013654Y0021646D01*
X0013772Y0021751D01*
X0013893Y0021853D01*
X0014016Y0021953D01*
X0014142Y0022049D01*
X0014270Y0022142D01*
X0014400Y0022232D01*
X0014533Y0022318D01*
X0014668Y0022402D01*
X0014804Y0022481D01*
X0014943Y0022558D01*
X0015084Y0022630D01*
X0015226Y0022700D01*
X0015370Y0022765D01*
X0015516Y0022827D01*
X0015663Y0022885D01*
X0015812Y0022940D01*
X0015962Y0022991D01*
X0016113Y0023038D01*
X0016265Y0023081D01*
X0016418Y0023120D01*
X0016573Y0023156D01*
X0016728Y0023187D01*
X0016884Y0023215D01*
X0017040Y0023239D01*
X0017197Y0023259D01*
X0017355Y0023275D01*
X0017512Y0023287D01*
X0017671Y0023295D01*
X0017829Y0023299D01*
X0017987Y0023299D01*
X0018145Y0023295D01*
X0018304Y0023287D01*
X0018461Y0023275D01*
X0018619Y0023259D01*
X0018776Y0023239D01*
X0018932Y0023215D01*
X0019088Y0023187D01*
X0019243Y0023156D01*
X0019398Y0023120D01*
X0019551Y0023081D01*
X0019703Y0023038D01*
X0019854Y0022991D01*
X0020004Y0022940D01*
X0020153Y0022885D01*
X0020300Y0022827D01*
X0020446Y0022765D01*
X0020590Y0022700D01*
X0020732Y0022630D01*
X0020873Y0022558D01*
X0021012Y0022481D01*
X0021148Y0022402D01*
X0021283Y0022318D01*
X0021416Y0022232D01*
X0021546Y0022142D01*
X0021674Y0022049D01*
X0021800Y0021953D01*
X0021923Y0021853D01*
X0022044Y0021751D01*
X0022162Y0021646D01*
X0022277Y0021537D01*
X0022390Y0021426D01*
X0022500Y0021312D01*
X0022607Y0021195D01*
X0022711Y0021076D01*
X0022812Y0020954D01*
X0022909Y0020829D01*
X0023004Y0020702D01*
X0023095Y0020573D01*
X0023184Y0020442D01*
X0023268Y0020308D01*
X0023350Y0020172D01*
X0023428Y0020035D01*
X0023502Y0019895D01*
X0023573Y0019753D01*
X0023641Y0019610D01*
X0023705Y0019465D01*
X0023765Y0019319D01*
X0023821Y0019171D01*
X0023874Y0019022D01*
X0023923Y0018871D01*
X0023968Y0018719D01*
X0024009Y0018566D01*
X0024047Y0018413D01*
X0024080Y0018258D01*
X0024110Y0018102D01*
X0024136Y0017946D01*
X0024157Y0017789D01*
X0024175Y0017632D01*
X0024189Y0017474D01*
X0024199Y0017316D01*
X0024205Y0017158D01*
X0024207Y0017000D01*
X0024205Y0016842D01*
X0024199Y0016684D01*
X0024189Y0016526D01*
X0024175Y0016368D01*
X0024157Y0016211D01*
X0024136Y0016054D01*
X0024110Y0015898D01*
X0024080Y0015742D01*
X0024047Y0015587D01*
X0024009Y0015434D01*
X0023968Y0015281D01*
X0023923Y0015129D01*
X0023874Y0014978D01*
X0023821Y0014829D01*
X0023765Y0014681D01*
X0023705Y0014535D01*
X0023641Y0014390D01*
X0023573Y0014247D01*
X0023502Y0014105D01*
X0023428Y0013965D01*
X0023350Y0013828D01*
X0023268Y0013692D01*
X0023184Y0013558D01*
X0023095Y0013427D01*
X0023004Y0013298D01*
X0022909Y0013171D01*
X0022812Y0013046D01*
X0022711Y0012924D01*
X0022607Y0012805D01*
X0022500Y0012688D01*
X0022390Y0012574D01*
X0022277Y0012463D01*
X0022162Y0012354D01*
X0022044Y0012249D01*
X0021923Y0012147D01*
X0021800Y0012047D01*
X0021674Y0011951D01*
X0021546Y0011858D01*
X0021416Y0011768D01*
X0021283Y0011682D01*
X0021148Y0011598D01*
X0021012Y0011519D01*
X0020873Y0011442D01*
X0020732Y0011370D01*
X0020590Y0011300D01*
X0020446Y0011235D01*
X0020300Y0011173D01*
X0020153Y0011115D01*
X0020004Y0011060D01*
X0019854Y0011009D01*
X0019703Y0010962D01*
X0019551Y0010919D01*
X0019398Y0010880D01*
X0019243Y0010844D01*
X0019088Y0010813D01*
X0018932Y0010785D01*
X0018776Y0010761D01*
X0018619Y0010741D01*
X0018461Y0010725D01*
X0018304Y0010713D01*
X0018145Y0010705D01*
X0017987Y0010701D01*
X0017829Y0010701D01*
X0017671Y0010705D01*
X0017512Y0010713D01*
X0017355Y0010725D01*
X0017197Y0010741D01*
X0017040Y0010761D01*
X0016884Y0010785D01*
X0016728Y0010813D01*
X0016573Y0010844D01*
X0016418Y0010880D01*
X0016265Y0010919D01*
X0016113Y0010962D01*
X0015962Y0011009D01*
X0015812Y0011060D01*
X0015663Y0011115D01*
X0015516Y0011173D01*
X0015370Y0011235D01*
X0015226Y0011300D01*
X0015084Y0011370D01*
X0014943Y0011442D01*
X0014804Y0011519D01*
X0014668Y0011598D01*
X0014533Y0011682D01*
X0014400Y0011768D01*
X0014270Y0011858D01*
X0014142Y0011951D01*
X0014016Y0012047D01*
X0013893Y0012147D01*
X0013772Y0012249D01*
X0013654Y0012354D01*
X0013539Y0012463D01*
X0013426Y0012574D01*
X0013316Y0012688D01*
X0013209Y0012805D01*
X0013105Y0012924D01*
X0013004Y0013046D01*
X0012907Y0013171D01*
X0012812Y0013298D01*
X0012721Y0013427D01*
X0012632Y0013558D01*
X0012548Y0013692D01*
X0012466Y0013828D01*
X0012388Y0013965D01*
X0012314Y0014105D01*
X0012243Y0014247D01*
X0012175Y0014390D01*
X0012111Y0014535D01*
X0012051Y0014681D01*
X0011995Y0014829D01*
X0011942Y0014978D01*
X0011893Y0015129D01*
X0011848Y0015281D01*
X0011807Y0015434D01*
X0011769Y0015587D01*
X0011736Y0015742D01*
X0011706Y0015898D01*
X0011680Y0016054D01*
X0011659Y0016211D01*
X0011641Y0016368D01*
X0011627Y0016526D01*
X0011617Y0016684D01*
X0011611Y0016842D01*
X0011609Y0017000D01*
X0176963Y0017000D02*
X0176965Y0017158D01*
X0176971Y0017316D01*
X0176981Y0017474D01*
X0176995Y0017632D01*
X0177013Y0017789D01*
X0177034Y0017946D01*
X0177060Y0018102D01*
X0177090Y0018258D01*
X0177123Y0018413D01*
X0177161Y0018566D01*
X0177202Y0018719D01*
X0177247Y0018871D01*
X0177296Y0019022D01*
X0177349Y0019171D01*
X0177405Y0019319D01*
X0177465Y0019465D01*
X0177529Y0019610D01*
X0177597Y0019753D01*
X0177668Y0019895D01*
X0177742Y0020035D01*
X0177820Y0020172D01*
X0177902Y0020308D01*
X0177986Y0020442D01*
X0178075Y0020573D01*
X0178166Y0020702D01*
X0178261Y0020829D01*
X0178358Y0020954D01*
X0178459Y0021076D01*
X0178563Y0021195D01*
X0178670Y0021312D01*
X0178780Y0021426D01*
X0178893Y0021537D01*
X0179008Y0021646D01*
X0179126Y0021751D01*
X0179247Y0021853D01*
X0179370Y0021953D01*
X0179496Y0022049D01*
X0179624Y0022142D01*
X0179754Y0022232D01*
X0179887Y0022318D01*
X0180022Y0022402D01*
X0180158Y0022481D01*
X0180297Y0022558D01*
X0180438Y0022630D01*
X0180580Y0022700D01*
X0180724Y0022765D01*
X0180870Y0022827D01*
X0181017Y0022885D01*
X0181166Y0022940D01*
X0181316Y0022991D01*
X0181467Y0023038D01*
X0181619Y0023081D01*
X0181772Y0023120D01*
X0181927Y0023156D01*
X0182082Y0023187D01*
X0182238Y0023215D01*
X0182394Y0023239D01*
X0182551Y0023259D01*
X0182709Y0023275D01*
X0182866Y0023287D01*
X0183025Y0023295D01*
X0183183Y0023299D01*
X0183341Y0023299D01*
X0183499Y0023295D01*
X0183658Y0023287D01*
X0183815Y0023275D01*
X0183973Y0023259D01*
X0184130Y0023239D01*
X0184286Y0023215D01*
X0184442Y0023187D01*
X0184597Y0023156D01*
X0184752Y0023120D01*
X0184905Y0023081D01*
X0185057Y0023038D01*
X0185208Y0022991D01*
X0185358Y0022940D01*
X0185507Y0022885D01*
X0185654Y0022827D01*
X0185800Y0022765D01*
X0185944Y0022700D01*
X0186086Y0022630D01*
X0186227Y0022558D01*
X0186366Y0022481D01*
X0186502Y0022402D01*
X0186637Y0022318D01*
X0186770Y0022232D01*
X0186900Y0022142D01*
X0187028Y0022049D01*
X0187154Y0021953D01*
X0187277Y0021853D01*
X0187398Y0021751D01*
X0187516Y0021646D01*
X0187631Y0021537D01*
X0187744Y0021426D01*
X0187854Y0021312D01*
X0187961Y0021195D01*
X0188065Y0021076D01*
X0188166Y0020954D01*
X0188263Y0020829D01*
X0188358Y0020702D01*
X0188449Y0020573D01*
X0188538Y0020442D01*
X0188622Y0020308D01*
X0188704Y0020172D01*
X0188782Y0020035D01*
X0188856Y0019895D01*
X0188927Y0019753D01*
X0188995Y0019610D01*
X0189059Y0019465D01*
X0189119Y0019319D01*
X0189175Y0019171D01*
X0189228Y0019022D01*
X0189277Y0018871D01*
X0189322Y0018719D01*
X0189363Y0018566D01*
X0189401Y0018413D01*
X0189434Y0018258D01*
X0189464Y0018102D01*
X0189490Y0017946D01*
X0189511Y0017789D01*
X0189529Y0017632D01*
X0189543Y0017474D01*
X0189553Y0017316D01*
X0189559Y0017158D01*
X0189561Y0017000D01*
X0189559Y0016842D01*
X0189553Y0016684D01*
X0189543Y0016526D01*
X0189529Y0016368D01*
X0189511Y0016211D01*
X0189490Y0016054D01*
X0189464Y0015898D01*
X0189434Y0015742D01*
X0189401Y0015587D01*
X0189363Y0015434D01*
X0189322Y0015281D01*
X0189277Y0015129D01*
X0189228Y0014978D01*
X0189175Y0014829D01*
X0189119Y0014681D01*
X0189059Y0014535D01*
X0188995Y0014390D01*
X0188927Y0014247D01*
X0188856Y0014105D01*
X0188782Y0013965D01*
X0188704Y0013828D01*
X0188622Y0013692D01*
X0188538Y0013558D01*
X0188449Y0013427D01*
X0188358Y0013298D01*
X0188263Y0013171D01*
X0188166Y0013046D01*
X0188065Y0012924D01*
X0187961Y0012805D01*
X0187854Y0012688D01*
X0187744Y0012574D01*
X0187631Y0012463D01*
X0187516Y0012354D01*
X0187398Y0012249D01*
X0187277Y0012147D01*
X0187154Y0012047D01*
X0187028Y0011951D01*
X0186900Y0011858D01*
X0186770Y0011768D01*
X0186637Y0011682D01*
X0186502Y0011598D01*
X0186366Y0011519D01*
X0186227Y0011442D01*
X0186086Y0011370D01*
X0185944Y0011300D01*
X0185800Y0011235D01*
X0185654Y0011173D01*
X0185507Y0011115D01*
X0185358Y0011060D01*
X0185208Y0011009D01*
X0185057Y0010962D01*
X0184905Y0010919D01*
X0184752Y0010880D01*
X0184597Y0010844D01*
X0184442Y0010813D01*
X0184286Y0010785D01*
X0184130Y0010761D01*
X0183973Y0010741D01*
X0183815Y0010725D01*
X0183658Y0010713D01*
X0183499Y0010705D01*
X0183341Y0010701D01*
X0183183Y0010701D01*
X0183025Y0010705D01*
X0182866Y0010713D01*
X0182709Y0010725D01*
X0182551Y0010741D01*
X0182394Y0010761D01*
X0182238Y0010785D01*
X0182082Y0010813D01*
X0181927Y0010844D01*
X0181772Y0010880D01*
X0181619Y0010919D01*
X0181467Y0010962D01*
X0181316Y0011009D01*
X0181166Y0011060D01*
X0181017Y0011115D01*
X0180870Y0011173D01*
X0180724Y0011235D01*
X0180580Y0011300D01*
X0180438Y0011370D01*
X0180297Y0011442D01*
X0180158Y0011519D01*
X0180022Y0011598D01*
X0179887Y0011682D01*
X0179754Y0011768D01*
X0179624Y0011858D01*
X0179496Y0011951D01*
X0179370Y0012047D01*
X0179247Y0012147D01*
X0179126Y0012249D01*
X0179008Y0012354D01*
X0178893Y0012463D01*
X0178780Y0012574D01*
X0178670Y0012688D01*
X0178563Y0012805D01*
X0178459Y0012924D01*
X0178358Y0013046D01*
X0178261Y0013171D01*
X0178166Y0013298D01*
X0178075Y0013427D01*
X0177986Y0013558D01*
X0177902Y0013692D01*
X0177820Y0013828D01*
X0177742Y0013965D01*
X0177668Y0014105D01*
X0177597Y0014247D01*
X0177529Y0014390D01*
X0177465Y0014535D01*
X0177405Y0014681D01*
X0177349Y0014829D01*
X0177296Y0014978D01*
X0177247Y0015129D01*
X0177202Y0015281D01*
X0177161Y0015434D01*
X0177123Y0015587D01*
X0177090Y0015742D01*
X0177060Y0015898D01*
X0177034Y0016054D01*
X0177013Y0016211D01*
X0176995Y0016368D01*
X0176981Y0016526D01*
X0176971Y0016684D01*
X0176965Y0016842D01*
X0176963Y0017000D01*
X0176963Y0113457D02*
X0176965Y0113615D01*
X0176971Y0113773D01*
X0176981Y0113931D01*
X0176995Y0114089D01*
X0177013Y0114246D01*
X0177034Y0114403D01*
X0177060Y0114559D01*
X0177090Y0114715D01*
X0177123Y0114870D01*
X0177161Y0115023D01*
X0177202Y0115176D01*
X0177247Y0115328D01*
X0177296Y0115479D01*
X0177349Y0115628D01*
X0177405Y0115776D01*
X0177465Y0115922D01*
X0177529Y0116067D01*
X0177597Y0116210D01*
X0177668Y0116352D01*
X0177742Y0116492D01*
X0177820Y0116629D01*
X0177902Y0116765D01*
X0177986Y0116899D01*
X0178075Y0117030D01*
X0178166Y0117159D01*
X0178261Y0117286D01*
X0178358Y0117411D01*
X0178459Y0117533D01*
X0178563Y0117652D01*
X0178670Y0117769D01*
X0178780Y0117883D01*
X0178893Y0117994D01*
X0179008Y0118103D01*
X0179126Y0118208D01*
X0179247Y0118310D01*
X0179370Y0118410D01*
X0179496Y0118506D01*
X0179624Y0118599D01*
X0179754Y0118689D01*
X0179887Y0118775D01*
X0180022Y0118859D01*
X0180158Y0118938D01*
X0180297Y0119015D01*
X0180438Y0119087D01*
X0180580Y0119157D01*
X0180724Y0119222D01*
X0180870Y0119284D01*
X0181017Y0119342D01*
X0181166Y0119397D01*
X0181316Y0119448D01*
X0181467Y0119495D01*
X0181619Y0119538D01*
X0181772Y0119577D01*
X0181927Y0119613D01*
X0182082Y0119644D01*
X0182238Y0119672D01*
X0182394Y0119696D01*
X0182551Y0119716D01*
X0182709Y0119732D01*
X0182866Y0119744D01*
X0183025Y0119752D01*
X0183183Y0119756D01*
X0183341Y0119756D01*
X0183499Y0119752D01*
X0183658Y0119744D01*
X0183815Y0119732D01*
X0183973Y0119716D01*
X0184130Y0119696D01*
X0184286Y0119672D01*
X0184442Y0119644D01*
X0184597Y0119613D01*
X0184752Y0119577D01*
X0184905Y0119538D01*
X0185057Y0119495D01*
X0185208Y0119448D01*
X0185358Y0119397D01*
X0185507Y0119342D01*
X0185654Y0119284D01*
X0185800Y0119222D01*
X0185944Y0119157D01*
X0186086Y0119087D01*
X0186227Y0119015D01*
X0186366Y0118938D01*
X0186502Y0118859D01*
X0186637Y0118775D01*
X0186770Y0118689D01*
X0186900Y0118599D01*
X0187028Y0118506D01*
X0187154Y0118410D01*
X0187277Y0118310D01*
X0187398Y0118208D01*
X0187516Y0118103D01*
X0187631Y0117994D01*
X0187744Y0117883D01*
X0187854Y0117769D01*
X0187961Y0117652D01*
X0188065Y0117533D01*
X0188166Y0117411D01*
X0188263Y0117286D01*
X0188358Y0117159D01*
X0188449Y0117030D01*
X0188538Y0116899D01*
X0188622Y0116765D01*
X0188704Y0116629D01*
X0188782Y0116492D01*
X0188856Y0116352D01*
X0188927Y0116210D01*
X0188995Y0116067D01*
X0189059Y0115922D01*
X0189119Y0115776D01*
X0189175Y0115628D01*
X0189228Y0115479D01*
X0189277Y0115328D01*
X0189322Y0115176D01*
X0189363Y0115023D01*
X0189401Y0114870D01*
X0189434Y0114715D01*
X0189464Y0114559D01*
X0189490Y0114403D01*
X0189511Y0114246D01*
X0189529Y0114089D01*
X0189543Y0113931D01*
X0189553Y0113773D01*
X0189559Y0113615D01*
X0189561Y0113457D01*
X0189559Y0113299D01*
X0189553Y0113141D01*
X0189543Y0112983D01*
X0189529Y0112825D01*
X0189511Y0112668D01*
X0189490Y0112511D01*
X0189464Y0112355D01*
X0189434Y0112199D01*
X0189401Y0112044D01*
X0189363Y0111891D01*
X0189322Y0111738D01*
X0189277Y0111586D01*
X0189228Y0111435D01*
X0189175Y0111286D01*
X0189119Y0111138D01*
X0189059Y0110992D01*
X0188995Y0110847D01*
X0188927Y0110704D01*
X0188856Y0110562D01*
X0188782Y0110422D01*
X0188704Y0110285D01*
X0188622Y0110149D01*
X0188538Y0110015D01*
X0188449Y0109884D01*
X0188358Y0109755D01*
X0188263Y0109628D01*
X0188166Y0109503D01*
X0188065Y0109381D01*
X0187961Y0109262D01*
X0187854Y0109145D01*
X0187744Y0109031D01*
X0187631Y0108920D01*
X0187516Y0108811D01*
X0187398Y0108706D01*
X0187277Y0108604D01*
X0187154Y0108504D01*
X0187028Y0108408D01*
X0186900Y0108315D01*
X0186770Y0108225D01*
X0186637Y0108139D01*
X0186502Y0108055D01*
X0186366Y0107976D01*
X0186227Y0107899D01*
X0186086Y0107827D01*
X0185944Y0107757D01*
X0185800Y0107692D01*
X0185654Y0107630D01*
X0185507Y0107572D01*
X0185358Y0107517D01*
X0185208Y0107466D01*
X0185057Y0107419D01*
X0184905Y0107376D01*
X0184752Y0107337D01*
X0184597Y0107301D01*
X0184442Y0107270D01*
X0184286Y0107242D01*
X0184130Y0107218D01*
X0183973Y0107198D01*
X0183815Y0107182D01*
X0183658Y0107170D01*
X0183499Y0107162D01*
X0183341Y0107158D01*
X0183183Y0107158D01*
X0183025Y0107162D01*
X0182866Y0107170D01*
X0182709Y0107182D01*
X0182551Y0107198D01*
X0182394Y0107218D01*
X0182238Y0107242D01*
X0182082Y0107270D01*
X0181927Y0107301D01*
X0181772Y0107337D01*
X0181619Y0107376D01*
X0181467Y0107419D01*
X0181316Y0107466D01*
X0181166Y0107517D01*
X0181017Y0107572D01*
X0180870Y0107630D01*
X0180724Y0107692D01*
X0180580Y0107757D01*
X0180438Y0107827D01*
X0180297Y0107899D01*
X0180158Y0107976D01*
X0180022Y0108055D01*
X0179887Y0108139D01*
X0179754Y0108225D01*
X0179624Y0108315D01*
X0179496Y0108408D01*
X0179370Y0108504D01*
X0179247Y0108604D01*
X0179126Y0108706D01*
X0179008Y0108811D01*
X0178893Y0108920D01*
X0178780Y0109031D01*
X0178670Y0109145D01*
X0178563Y0109262D01*
X0178459Y0109381D01*
X0178358Y0109503D01*
X0178261Y0109628D01*
X0178166Y0109755D01*
X0178075Y0109884D01*
X0177986Y0110015D01*
X0177902Y0110149D01*
X0177820Y0110285D01*
X0177742Y0110422D01*
X0177668Y0110562D01*
X0177597Y0110704D01*
X0177529Y0110847D01*
X0177465Y0110992D01*
X0177405Y0111138D01*
X0177349Y0111286D01*
X0177296Y0111435D01*
X0177247Y0111586D01*
X0177202Y0111738D01*
X0177161Y0111891D01*
X0177123Y0112044D01*
X0177090Y0112199D01*
X0177060Y0112355D01*
X0177034Y0112511D01*
X0177013Y0112668D01*
X0176995Y0112825D01*
X0176981Y0112983D01*
X0176971Y0113141D01*
X0176965Y0113299D01*
X0176963Y0113457D01*
D11*
X0169762Y0113457D02*
X0169766Y0113788D01*
X0169778Y0114119D01*
X0169799Y0114450D01*
X0169827Y0114780D01*
X0169864Y0115110D01*
X0169908Y0115438D01*
X0169961Y0115765D01*
X0170021Y0116091D01*
X0170090Y0116415D01*
X0170167Y0116737D01*
X0170251Y0117058D01*
X0170343Y0117376D01*
X0170443Y0117692D01*
X0170551Y0118005D01*
X0170667Y0118316D01*
X0170790Y0118623D01*
X0170920Y0118928D01*
X0171058Y0119229D01*
X0171203Y0119527D01*
X0171356Y0119821D01*
X0171516Y0120111D01*
X0171683Y0120397D01*
X0171856Y0120679D01*
X0172037Y0120957D01*
X0172225Y0121230D01*
X0172419Y0121499D01*
X0172619Y0121763D01*
X0172826Y0122021D01*
X0173040Y0122275D01*
X0173259Y0122523D01*
X0173485Y0122766D01*
X0173716Y0123003D01*
X0173953Y0123234D01*
X0174196Y0123460D01*
X0174444Y0123679D01*
X0174698Y0123893D01*
X0174956Y0124100D01*
X0175220Y0124300D01*
X0175489Y0124494D01*
X0175762Y0124682D01*
X0176040Y0124863D01*
X0176322Y0125036D01*
X0176608Y0125203D01*
X0176898Y0125363D01*
X0177192Y0125516D01*
X0177490Y0125661D01*
X0177791Y0125799D01*
X0178096Y0125929D01*
X0178403Y0126052D01*
X0178714Y0126168D01*
X0179027Y0126276D01*
X0179343Y0126376D01*
X0179661Y0126468D01*
X0179982Y0126552D01*
X0180304Y0126629D01*
X0180628Y0126698D01*
X0180954Y0126758D01*
X0181281Y0126811D01*
X0181609Y0126855D01*
X0181939Y0126892D01*
X0182269Y0126920D01*
X0182600Y0126941D01*
X0182931Y0126953D01*
X0183262Y0126957D01*
X0183593Y0126953D01*
X0183924Y0126941D01*
X0184255Y0126920D01*
X0184585Y0126892D01*
X0184915Y0126855D01*
X0185243Y0126811D01*
X0185570Y0126758D01*
X0185896Y0126698D01*
X0186220Y0126629D01*
X0186542Y0126552D01*
X0186863Y0126468D01*
X0187181Y0126376D01*
X0187497Y0126276D01*
X0187810Y0126168D01*
X0188121Y0126052D01*
X0188428Y0125929D01*
X0188733Y0125799D01*
X0189034Y0125661D01*
X0189332Y0125516D01*
X0189626Y0125363D01*
X0189916Y0125203D01*
X0190202Y0125036D01*
X0190484Y0124863D01*
X0190762Y0124682D01*
X0191035Y0124494D01*
X0191304Y0124300D01*
X0191568Y0124100D01*
X0191826Y0123893D01*
X0192080Y0123679D01*
X0192328Y0123460D01*
X0192571Y0123234D01*
X0192808Y0123003D01*
X0193039Y0122766D01*
X0193265Y0122523D01*
X0193484Y0122275D01*
X0193698Y0122021D01*
X0193905Y0121763D01*
X0194105Y0121499D01*
X0194299Y0121230D01*
X0194487Y0120957D01*
X0194668Y0120679D01*
X0194841Y0120397D01*
X0195008Y0120111D01*
X0195168Y0119821D01*
X0195321Y0119527D01*
X0195466Y0119229D01*
X0195604Y0118928D01*
X0195734Y0118623D01*
X0195857Y0118316D01*
X0195973Y0118005D01*
X0196081Y0117692D01*
X0196181Y0117376D01*
X0196273Y0117058D01*
X0196357Y0116737D01*
X0196434Y0116415D01*
X0196503Y0116091D01*
X0196563Y0115765D01*
X0196616Y0115438D01*
X0196660Y0115110D01*
X0196697Y0114780D01*
X0196725Y0114450D01*
X0196746Y0114119D01*
X0196758Y0113788D01*
X0196762Y0113457D01*
X0196758Y0113126D01*
X0196746Y0112795D01*
X0196725Y0112464D01*
X0196697Y0112134D01*
X0196660Y0111804D01*
X0196616Y0111476D01*
X0196563Y0111149D01*
X0196503Y0110823D01*
X0196434Y0110499D01*
X0196357Y0110177D01*
X0196273Y0109856D01*
X0196181Y0109538D01*
X0196081Y0109222D01*
X0195973Y0108909D01*
X0195857Y0108598D01*
X0195734Y0108291D01*
X0195604Y0107986D01*
X0195466Y0107685D01*
X0195321Y0107387D01*
X0195168Y0107093D01*
X0195008Y0106803D01*
X0194841Y0106517D01*
X0194668Y0106235D01*
X0194487Y0105957D01*
X0194299Y0105684D01*
X0194105Y0105415D01*
X0193905Y0105151D01*
X0193698Y0104893D01*
X0193484Y0104639D01*
X0193265Y0104391D01*
X0193039Y0104148D01*
X0192808Y0103911D01*
X0192571Y0103680D01*
X0192328Y0103454D01*
X0192080Y0103235D01*
X0191826Y0103021D01*
X0191568Y0102814D01*
X0191304Y0102614D01*
X0191035Y0102420D01*
X0190762Y0102232D01*
X0190484Y0102051D01*
X0190202Y0101878D01*
X0189916Y0101711D01*
X0189626Y0101551D01*
X0189332Y0101398D01*
X0189034Y0101253D01*
X0188733Y0101115D01*
X0188428Y0100985D01*
X0188121Y0100862D01*
X0187810Y0100746D01*
X0187497Y0100638D01*
X0187181Y0100538D01*
X0186863Y0100446D01*
X0186542Y0100362D01*
X0186220Y0100285D01*
X0185896Y0100216D01*
X0185570Y0100156D01*
X0185243Y0100103D01*
X0184915Y0100059D01*
X0184585Y0100022D01*
X0184255Y0099994D01*
X0183924Y0099973D01*
X0183593Y0099961D01*
X0183262Y0099957D01*
X0182931Y0099961D01*
X0182600Y0099973D01*
X0182269Y0099994D01*
X0181939Y0100022D01*
X0181609Y0100059D01*
X0181281Y0100103D01*
X0180954Y0100156D01*
X0180628Y0100216D01*
X0180304Y0100285D01*
X0179982Y0100362D01*
X0179661Y0100446D01*
X0179343Y0100538D01*
X0179027Y0100638D01*
X0178714Y0100746D01*
X0178403Y0100862D01*
X0178096Y0100985D01*
X0177791Y0101115D01*
X0177490Y0101253D01*
X0177192Y0101398D01*
X0176898Y0101551D01*
X0176608Y0101711D01*
X0176322Y0101878D01*
X0176040Y0102051D01*
X0175762Y0102232D01*
X0175489Y0102420D01*
X0175220Y0102614D01*
X0174956Y0102814D01*
X0174698Y0103021D01*
X0174444Y0103235D01*
X0174196Y0103454D01*
X0173953Y0103680D01*
X0173716Y0103911D01*
X0173485Y0104148D01*
X0173259Y0104391D01*
X0173040Y0104639D01*
X0172826Y0104893D01*
X0172619Y0105151D01*
X0172419Y0105415D01*
X0172225Y0105684D01*
X0172037Y0105957D01*
X0171856Y0106235D01*
X0171683Y0106517D01*
X0171516Y0106803D01*
X0171356Y0107093D01*
X0171203Y0107387D01*
X0171058Y0107685D01*
X0170920Y0107986D01*
X0170790Y0108291D01*
X0170667Y0108598D01*
X0170551Y0108909D01*
X0170443Y0109222D01*
X0170343Y0109538D01*
X0170251Y0109856D01*
X0170167Y0110177D01*
X0170090Y0110499D01*
X0170021Y0110823D01*
X0169961Y0111149D01*
X0169908Y0111476D01*
X0169864Y0111804D01*
X0169827Y0112134D01*
X0169799Y0112464D01*
X0169778Y0112795D01*
X0169766Y0113126D01*
X0169762Y0113457D01*
X0165200Y0113992D02*
X0165200Y0108992D01*
X0162700Y0106492D01*
X0157700Y0106492D01*
X0155200Y0108992D01*
X0152700Y0106492D01*
X0147700Y0106492D01*
X0145200Y0108992D01*
X0142700Y0106492D01*
X0137700Y0106492D01*
X0135200Y0108992D01*
X0132700Y0106492D01*
X0127700Y0106492D01*
X0125200Y0108992D01*
X0122700Y0106492D01*
X0117700Y0106492D01*
X0115200Y0108992D01*
X0115200Y0113992D01*
X0117700Y0116492D01*
X0122700Y0116492D01*
X0125200Y0113992D01*
X0127700Y0116492D01*
X0132700Y0116492D01*
X0135200Y0113992D01*
X0137700Y0116492D01*
X0142700Y0116492D01*
X0145200Y0113992D01*
X0147700Y0116492D01*
X0152700Y0116492D01*
X0155200Y0113992D01*
X0157700Y0116492D01*
X0162700Y0116492D01*
X0165200Y0113992D01*
X0146730Y0103922D02*
X0145230Y0103922D01*
X0144730Y0103422D01*
X0125730Y0103422D01*
X0125230Y0103922D01*
X0123730Y0103922D01*
X0123670Y0103920D01*
X0123609Y0103915D01*
X0123550Y0103906D01*
X0123491Y0103893D01*
X0123432Y0103877D01*
X0123375Y0103857D01*
X0123320Y0103834D01*
X0123265Y0103807D01*
X0123213Y0103778D01*
X0123162Y0103745D01*
X0123113Y0103709D01*
X0123067Y0103671D01*
X0123023Y0103629D01*
X0122981Y0103585D01*
X0122943Y0103539D01*
X0122907Y0103490D01*
X0122874Y0103439D01*
X0122845Y0103387D01*
X0122818Y0103332D01*
X0122795Y0103277D01*
X0122775Y0103220D01*
X0122759Y0103161D01*
X0122746Y0103102D01*
X0122737Y0103043D01*
X0122732Y0102982D01*
X0122730Y0102922D01*
X0122730Y0095922D02*
X0122732Y0095862D01*
X0122737Y0095801D01*
X0122746Y0095742D01*
X0122759Y0095683D01*
X0122775Y0095624D01*
X0122795Y0095567D01*
X0122818Y0095512D01*
X0122845Y0095457D01*
X0122874Y0095405D01*
X0122907Y0095354D01*
X0122943Y0095305D01*
X0122981Y0095259D01*
X0123023Y0095215D01*
X0123067Y0095173D01*
X0123113Y0095135D01*
X0123162Y0095099D01*
X0123213Y0095066D01*
X0123265Y0095037D01*
X0123320Y0095010D01*
X0123375Y0094987D01*
X0123432Y0094967D01*
X0123491Y0094951D01*
X0123550Y0094938D01*
X0123609Y0094929D01*
X0123670Y0094924D01*
X0123730Y0094922D01*
X0125230Y0094922D01*
X0125730Y0095422D01*
X0144730Y0095422D01*
X0145230Y0094922D01*
X0146730Y0094922D01*
X0146790Y0094924D01*
X0146851Y0094929D01*
X0146910Y0094938D01*
X0146969Y0094951D01*
X0147028Y0094967D01*
X0147085Y0094987D01*
X0147140Y0095010D01*
X0147195Y0095037D01*
X0147247Y0095066D01*
X0147298Y0095099D01*
X0147347Y0095135D01*
X0147393Y0095173D01*
X0147437Y0095215D01*
X0147479Y0095259D01*
X0147517Y0095305D01*
X0147553Y0095354D01*
X0147586Y0095405D01*
X0147615Y0095457D01*
X0147642Y0095512D01*
X0147665Y0095567D01*
X0147685Y0095624D01*
X0147701Y0095683D01*
X0147714Y0095742D01*
X0147723Y0095801D01*
X0147728Y0095862D01*
X0147730Y0095922D01*
X0154730Y0093952D02*
X0135730Y0093952D01*
X0135230Y0094452D01*
X0133730Y0094452D01*
X0133670Y0094450D01*
X0133609Y0094445D01*
X0133550Y0094436D01*
X0133491Y0094423D01*
X0133432Y0094407D01*
X0133375Y0094387D01*
X0133320Y0094364D01*
X0133265Y0094337D01*
X0133213Y0094308D01*
X0133162Y0094275D01*
X0133113Y0094239D01*
X0133067Y0094201D01*
X0133023Y0094159D01*
X0132981Y0094115D01*
X0132943Y0094069D01*
X0132907Y0094020D01*
X0132874Y0093969D01*
X0132845Y0093917D01*
X0132818Y0093862D01*
X0132795Y0093807D01*
X0132775Y0093750D01*
X0132759Y0093691D01*
X0132746Y0093632D01*
X0132737Y0093573D01*
X0132732Y0093512D01*
X0132730Y0093452D01*
X0132730Y0086452D02*
X0132732Y0086392D01*
X0132737Y0086331D01*
X0132746Y0086272D01*
X0132759Y0086213D01*
X0132775Y0086154D01*
X0132795Y0086097D01*
X0132818Y0086042D01*
X0132845Y0085987D01*
X0132874Y0085935D01*
X0132907Y0085884D01*
X0132943Y0085835D01*
X0132981Y0085789D01*
X0133023Y0085745D01*
X0133067Y0085703D01*
X0133113Y0085665D01*
X0133162Y0085629D01*
X0133213Y0085596D01*
X0133265Y0085567D01*
X0133320Y0085540D01*
X0133375Y0085517D01*
X0133432Y0085497D01*
X0133491Y0085481D01*
X0133550Y0085468D01*
X0133609Y0085459D01*
X0133670Y0085454D01*
X0133730Y0085452D01*
X0135230Y0085452D01*
X0135730Y0085952D01*
X0154730Y0085952D01*
X0155230Y0085452D01*
X0156730Y0085452D01*
X0156790Y0085454D01*
X0156851Y0085459D01*
X0156910Y0085468D01*
X0156969Y0085481D01*
X0157028Y0085497D01*
X0157085Y0085517D01*
X0157140Y0085540D01*
X0157195Y0085567D01*
X0157247Y0085596D01*
X0157298Y0085629D01*
X0157347Y0085665D01*
X0157393Y0085703D01*
X0157437Y0085745D01*
X0157479Y0085789D01*
X0157517Y0085835D01*
X0157553Y0085884D01*
X0157586Y0085935D01*
X0157615Y0085987D01*
X0157642Y0086042D01*
X0157665Y0086097D01*
X0157685Y0086154D01*
X0157701Y0086213D01*
X0157714Y0086272D01*
X0157723Y0086331D01*
X0157728Y0086392D01*
X0157730Y0086452D01*
X0164790Y0084022D02*
X0145790Y0084022D01*
X0145290Y0084522D01*
X0143790Y0084522D01*
X0143730Y0084520D01*
X0143669Y0084515D01*
X0143610Y0084506D01*
X0143551Y0084493D01*
X0143492Y0084477D01*
X0143435Y0084457D01*
X0143380Y0084434D01*
X0143325Y0084407D01*
X0143273Y0084378D01*
X0143222Y0084345D01*
X0143173Y0084309D01*
X0143127Y0084271D01*
X0143083Y0084229D01*
X0143041Y0084185D01*
X0143003Y0084139D01*
X0142967Y0084090D01*
X0142934Y0084039D01*
X0142905Y0083987D01*
X0142878Y0083932D01*
X0142855Y0083877D01*
X0142835Y0083820D01*
X0142819Y0083761D01*
X0142806Y0083702D01*
X0142797Y0083643D01*
X0142792Y0083582D01*
X0142790Y0083522D01*
X0142790Y0076522D02*
X0142792Y0076462D01*
X0142797Y0076401D01*
X0142806Y0076342D01*
X0142819Y0076283D01*
X0142835Y0076224D01*
X0142855Y0076167D01*
X0142878Y0076112D01*
X0142905Y0076057D01*
X0142934Y0076005D01*
X0142967Y0075954D01*
X0143003Y0075905D01*
X0143041Y0075859D01*
X0143083Y0075815D01*
X0143127Y0075773D01*
X0143173Y0075735D01*
X0143222Y0075699D01*
X0143273Y0075666D01*
X0143325Y0075637D01*
X0143380Y0075610D01*
X0143435Y0075587D01*
X0143492Y0075567D01*
X0143551Y0075551D01*
X0143610Y0075538D01*
X0143669Y0075529D01*
X0143730Y0075524D01*
X0143790Y0075522D01*
X0145290Y0075522D01*
X0145790Y0076022D01*
X0164790Y0076022D01*
X0165290Y0075522D01*
X0166790Y0075522D01*
X0166850Y0075524D01*
X0166911Y0075529D01*
X0166970Y0075538D01*
X0167029Y0075551D01*
X0167088Y0075567D01*
X0167145Y0075587D01*
X0167200Y0075610D01*
X0167255Y0075637D01*
X0167307Y0075666D01*
X0167358Y0075699D01*
X0167407Y0075735D01*
X0167453Y0075773D01*
X0167497Y0075815D01*
X0167539Y0075859D01*
X0167577Y0075905D01*
X0167613Y0075954D01*
X0167646Y0076005D01*
X0167675Y0076057D01*
X0167702Y0076112D01*
X0167725Y0076167D01*
X0167745Y0076224D01*
X0167761Y0076283D01*
X0167774Y0076342D01*
X0167783Y0076401D01*
X0167788Y0076462D01*
X0167790Y0076522D01*
X0167790Y0083522D02*
X0167788Y0083582D01*
X0167783Y0083643D01*
X0167774Y0083702D01*
X0167761Y0083761D01*
X0167745Y0083820D01*
X0167725Y0083877D01*
X0167702Y0083932D01*
X0167675Y0083987D01*
X0167646Y0084039D01*
X0167613Y0084090D01*
X0167577Y0084139D01*
X0167539Y0084185D01*
X0167497Y0084229D01*
X0167453Y0084271D01*
X0167407Y0084309D01*
X0167358Y0084345D01*
X0167307Y0084378D01*
X0167255Y0084407D01*
X0167200Y0084434D01*
X0167145Y0084457D01*
X0167088Y0084477D01*
X0167029Y0084493D01*
X0166970Y0084506D01*
X0166911Y0084515D01*
X0166850Y0084520D01*
X0166790Y0084522D01*
X0165290Y0084522D01*
X0164790Y0084022D01*
X0157730Y0093452D02*
X0157728Y0093512D01*
X0157723Y0093573D01*
X0157714Y0093632D01*
X0157701Y0093691D01*
X0157685Y0093750D01*
X0157665Y0093807D01*
X0157642Y0093862D01*
X0157615Y0093917D01*
X0157586Y0093969D01*
X0157553Y0094020D01*
X0157517Y0094069D01*
X0157479Y0094115D01*
X0157437Y0094159D01*
X0157393Y0094201D01*
X0157347Y0094239D01*
X0157298Y0094275D01*
X0157247Y0094308D01*
X0157195Y0094337D01*
X0157140Y0094364D01*
X0157085Y0094387D01*
X0157028Y0094407D01*
X0156969Y0094423D01*
X0156910Y0094436D01*
X0156851Y0094445D01*
X0156790Y0094450D01*
X0156730Y0094452D01*
X0155230Y0094452D01*
X0154730Y0093952D01*
X0147730Y0102922D02*
X0147728Y0102982D01*
X0147723Y0103043D01*
X0147714Y0103102D01*
X0147701Y0103161D01*
X0147685Y0103220D01*
X0147665Y0103277D01*
X0147642Y0103332D01*
X0147615Y0103387D01*
X0147586Y0103439D01*
X0147553Y0103490D01*
X0147517Y0103539D01*
X0147479Y0103585D01*
X0147437Y0103629D01*
X0147393Y0103671D01*
X0147347Y0103709D01*
X0147298Y0103745D01*
X0147247Y0103778D01*
X0147195Y0103807D01*
X0147140Y0103834D01*
X0147085Y0103857D01*
X0147028Y0103877D01*
X0146969Y0103893D01*
X0146910Y0103906D01*
X0146851Y0103915D01*
X0146790Y0103920D01*
X0146730Y0103922D01*
X0165110Y0063482D02*
X0125110Y0063482D01*
X0125110Y0054982D01*
X0125208Y0054980D01*
X0125306Y0054974D01*
X0125404Y0054965D01*
X0125501Y0054951D01*
X0125598Y0054934D01*
X0125694Y0054913D01*
X0125789Y0054888D01*
X0125883Y0054860D01*
X0125975Y0054827D01*
X0126067Y0054792D01*
X0126157Y0054752D01*
X0126245Y0054710D01*
X0126332Y0054663D01*
X0126416Y0054614D01*
X0126499Y0054561D01*
X0126579Y0054505D01*
X0126658Y0054445D01*
X0126734Y0054383D01*
X0126807Y0054318D01*
X0126878Y0054250D01*
X0126946Y0054179D01*
X0127011Y0054106D01*
X0127073Y0054030D01*
X0127133Y0053951D01*
X0127189Y0053871D01*
X0127242Y0053788D01*
X0127291Y0053704D01*
X0127338Y0053617D01*
X0127380Y0053529D01*
X0127420Y0053439D01*
X0127455Y0053347D01*
X0127488Y0053255D01*
X0127516Y0053161D01*
X0127541Y0053066D01*
X0127562Y0052970D01*
X0127579Y0052873D01*
X0127593Y0052776D01*
X0127602Y0052678D01*
X0127608Y0052580D01*
X0127610Y0052482D01*
X0127608Y0052384D01*
X0127602Y0052286D01*
X0127593Y0052188D01*
X0127579Y0052091D01*
X0127562Y0051994D01*
X0127541Y0051898D01*
X0127516Y0051803D01*
X0127488Y0051709D01*
X0127455Y0051617D01*
X0127420Y0051525D01*
X0127380Y0051435D01*
X0127338Y0051347D01*
X0127291Y0051260D01*
X0127242Y0051176D01*
X0127189Y0051093D01*
X0127133Y0051013D01*
X0127073Y0050934D01*
X0127011Y0050858D01*
X0126946Y0050785D01*
X0126878Y0050714D01*
X0126807Y0050646D01*
X0126734Y0050581D01*
X0126658Y0050519D01*
X0126579Y0050459D01*
X0126499Y0050403D01*
X0126416Y0050350D01*
X0126332Y0050301D01*
X0126245Y0050254D01*
X0126157Y0050212D01*
X0126067Y0050172D01*
X0125975Y0050137D01*
X0125883Y0050104D01*
X0125789Y0050076D01*
X0125694Y0050051D01*
X0125598Y0050030D01*
X0125501Y0050013D01*
X0125404Y0049999D01*
X0125306Y0049990D01*
X0125208Y0049984D01*
X0125110Y0049982D01*
X0125110Y0041482D01*
X0165110Y0041482D01*
X0165110Y0063482D01*
X0169200Y0061572D02*
X0169200Y0034572D01*
X0169202Y0034512D01*
X0169207Y0034451D01*
X0169216Y0034392D01*
X0169229Y0034333D01*
X0169245Y0034274D01*
X0169265Y0034217D01*
X0169288Y0034162D01*
X0169315Y0034107D01*
X0169344Y0034055D01*
X0169377Y0034004D01*
X0169413Y0033955D01*
X0169451Y0033909D01*
X0169493Y0033865D01*
X0169537Y0033823D01*
X0169583Y0033785D01*
X0169632Y0033749D01*
X0169683Y0033716D01*
X0169735Y0033687D01*
X0169790Y0033660D01*
X0169845Y0033637D01*
X0169902Y0033617D01*
X0169961Y0033601D01*
X0170020Y0033588D01*
X0170079Y0033579D01*
X0170140Y0033574D01*
X0170200Y0033572D01*
X0178200Y0033572D01*
X0178260Y0033574D01*
X0178321Y0033579D01*
X0178380Y0033588D01*
X0178439Y0033601D01*
X0178498Y0033617D01*
X0178555Y0033637D01*
X0178610Y0033660D01*
X0178665Y0033687D01*
X0178717Y0033716D01*
X0178768Y0033749D01*
X0178817Y0033785D01*
X0178863Y0033823D01*
X0178907Y0033865D01*
X0178949Y0033909D01*
X0178987Y0033955D01*
X0179023Y0034004D01*
X0179056Y0034055D01*
X0179085Y0034107D01*
X0179112Y0034162D01*
X0179135Y0034217D01*
X0179155Y0034274D01*
X0179171Y0034333D01*
X0179184Y0034392D01*
X0179193Y0034451D01*
X0179198Y0034512D01*
X0179200Y0034572D01*
X0179200Y0061572D01*
X0179198Y0061632D01*
X0179193Y0061693D01*
X0179184Y0061752D01*
X0179171Y0061811D01*
X0179155Y0061870D01*
X0179135Y0061927D01*
X0179112Y0061982D01*
X0179085Y0062037D01*
X0179056Y0062089D01*
X0179023Y0062140D01*
X0178987Y0062189D01*
X0178949Y0062235D01*
X0178907Y0062279D01*
X0178863Y0062321D01*
X0178817Y0062359D01*
X0178768Y0062395D01*
X0178717Y0062428D01*
X0178665Y0062457D01*
X0178610Y0062484D01*
X0178555Y0062507D01*
X0178498Y0062527D01*
X0178439Y0062543D01*
X0178380Y0062556D01*
X0178321Y0062565D01*
X0178260Y0062570D01*
X0178200Y0062572D01*
X0170200Y0062572D01*
X0170140Y0062570D01*
X0170079Y0062565D01*
X0170020Y0062556D01*
X0169961Y0062543D01*
X0169902Y0062527D01*
X0169845Y0062507D01*
X0169790Y0062484D01*
X0169735Y0062457D01*
X0169683Y0062428D01*
X0169632Y0062395D01*
X0169583Y0062359D01*
X0169537Y0062321D01*
X0169493Y0062279D01*
X0169451Y0062235D01*
X0169413Y0062189D01*
X0169377Y0062140D01*
X0169344Y0062089D01*
X0169315Y0062037D01*
X0169288Y0061982D01*
X0169265Y0061927D01*
X0169245Y0061870D01*
X0169229Y0061811D01*
X0169216Y0061752D01*
X0169207Y0061693D01*
X0169202Y0061632D01*
X0169200Y0061572D01*
X0174200Y0054072D02*
X0174200Y0049272D01*
X0174200Y0046772D02*
X0174200Y0042072D01*
X0169762Y0017000D02*
X0169766Y0017331D01*
X0169778Y0017662D01*
X0169799Y0017993D01*
X0169827Y0018323D01*
X0169864Y0018653D01*
X0169908Y0018981D01*
X0169961Y0019308D01*
X0170021Y0019634D01*
X0170090Y0019958D01*
X0170167Y0020280D01*
X0170251Y0020601D01*
X0170343Y0020919D01*
X0170443Y0021235D01*
X0170551Y0021548D01*
X0170667Y0021859D01*
X0170790Y0022166D01*
X0170920Y0022471D01*
X0171058Y0022772D01*
X0171203Y0023070D01*
X0171356Y0023364D01*
X0171516Y0023654D01*
X0171683Y0023940D01*
X0171856Y0024222D01*
X0172037Y0024500D01*
X0172225Y0024773D01*
X0172419Y0025042D01*
X0172619Y0025306D01*
X0172826Y0025564D01*
X0173040Y0025818D01*
X0173259Y0026066D01*
X0173485Y0026309D01*
X0173716Y0026546D01*
X0173953Y0026777D01*
X0174196Y0027003D01*
X0174444Y0027222D01*
X0174698Y0027436D01*
X0174956Y0027643D01*
X0175220Y0027843D01*
X0175489Y0028037D01*
X0175762Y0028225D01*
X0176040Y0028406D01*
X0176322Y0028579D01*
X0176608Y0028746D01*
X0176898Y0028906D01*
X0177192Y0029059D01*
X0177490Y0029204D01*
X0177791Y0029342D01*
X0178096Y0029472D01*
X0178403Y0029595D01*
X0178714Y0029711D01*
X0179027Y0029819D01*
X0179343Y0029919D01*
X0179661Y0030011D01*
X0179982Y0030095D01*
X0180304Y0030172D01*
X0180628Y0030241D01*
X0180954Y0030301D01*
X0181281Y0030354D01*
X0181609Y0030398D01*
X0181939Y0030435D01*
X0182269Y0030463D01*
X0182600Y0030484D01*
X0182931Y0030496D01*
X0183262Y0030500D01*
X0183593Y0030496D01*
X0183924Y0030484D01*
X0184255Y0030463D01*
X0184585Y0030435D01*
X0184915Y0030398D01*
X0185243Y0030354D01*
X0185570Y0030301D01*
X0185896Y0030241D01*
X0186220Y0030172D01*
X0186542Y0030095D01*
X0186863Y0030011D01*
X0187181Y0029919D01*
X0187497Y0029819D01*
X0187810Y0029711D01*
X0188121Y0029595D01*
X0188428Y0029472D01*
X0188733Y0029342D01*
X0189034Y0029204D01*
X0189332Y0029059D01*
X0189626Y0028906D01*
X0189916Y0028746D01*
X0190202Y0028579D01*
X0190484Y0028406D01*
X0190762Y0028225D01*
X0191035Y0028037D01*
X0191304Y0027843D01*
X0191568Y0027643D01*
X0191826Y0027436D01*
X0192080Y0027222D01*
X0192328Y0027003D01*
X0192571Y0026777D01*
X0192808Y0026546D01*
X0193039Y0026309D01*
X0193265Y0026066D01*
X0193484Y0025818D01*
X0193698Y0025564D01*
X0193905Y0025306D01*
X0194105Y0025042D01*
X0194299Y0024773D01*
X0194487Y0024500D01*
X0194668Y0024222D01*
X0194841Y0023940D01*
X0195008Y0023654D01*
X0195168Y0023364D01*
X0195321Y0023070D01*
X0195466Y0022772D01*
X0195604Y0022471D01*
X0195734Y0022166D01*
X0195857Y0021859D01*
X0195973Y0021548D01*
X0196081Y0021235D01*
X0196181Y0020919D01*
X0196273Y0020601D01*
X0196357Y0020280D01*
X0196434Y0019958D01*
X0196503Y0019634D01*
X0196563Y0019308D01*
X0196616Y0018981D01*
X0196660Y0018653D01*
X0196697Y0018323D01*
X0196725Y0017993D01*
X0196746Y0017662D01*
X0196758Y0017331D01*
X0196762Y0017000D01*
X0196758Y0016669D01*
X0196746Y0016338D01*
X0196725Y0016007D01*
X0196697Y0015677D01*
X0196660Y0015347D01*
X0196616Y0015019D01*
X0196563Y0014692D01*
X0196503Y0014366D01*
X0196434Y0014042D01*
X0196357Y0013720D01*
X0196273Y0013399D01*
X0196181Y0013081D01*
X0196081Y0012765D01*
X0195973Y0012452D01*
X0195857Y0012141D01*
X0195734Y0011834D01*
X0195604Y0011529D01*
X0195466Y0011228D01*
X0195321Y0010930D01*
X0195168Y0010636D01*
X0195008Y0010346D01*
X0194841Y0010060D01*
X0194668Y0009778D01*
X0194487Y0009500D01*
X0194299Y0009227D01*
X0194105Y0008958D01*
X0193905Y0008694D01*
X0193698Y0008436D01*
X0193484Y0008182D01*
X0193265Y0007934D01*
X0193039Y0007691D01*
X0192808Y0007454D01*
X0192571Y0007223D01*
X0192328Y0006997D01*
X0192080Y0006778D01*
X0191826Y0006564D01*
X0191568Y0006357D01*
X0191304Y0006157D01*
X0191035Y0005963D01*
X0190762Y0005775D01*
X0190484Y0005594D01*
X0190202Y0005421D01*
X0189916Y0005254D01*
X0189626Y0005094D01*
X0189332Y0004941D01*
X0189034Y0004796D01*
X0188733Y0004658D01*
X0188428Y0004528D01*
X0188121Y0004405D01*
X0187810Y0004289D01*
X0187497Y0004181D01*
X0187181Y0004081D01*
X0186863Y0003989D01*
X0186542Y0003905D01*
X0186220Y0003828D01*
X0185896Y0003759D01*
X0185570Y0003699D01*
X0185243Y0003646D01*
X0184915Y0003602D01*
X0184585Y0003565D01*
X0184255Y0003537D01*
X0183924Y0003516D01*
X0183593Y0003504D01*
X0183262Y0003500D01*
X0182931Y0003504D01*
X0182600Y0003516D01*
X0182269Y0003537D01*
X0181939Y0003565D01*
X0181609Y0003602D01*
X0181281Y0003646D01*
X0180954Y0003699D01*
X0180628Y0003759D01*
X0180304Y0003828D01*
X0179982Y0003905D01*
X0179661Y0003989D01*
X0179343Y0004081D01*
X0179027Y0004181D01*
X0178714Y0004289D01*
X0178403Y0004405D01*
X0178096Y0004528D01*
X0177791Y0004658D01*
X0177490Y0004796D01*
X0177192Y0004941D01*
X0176898Y0005094D01*
X0176608Y0005254D01*
X0176322Y0005421D01*
X0176040Y0005594D01*
X0175762Y0005775D01*
X0175489Y0005963D01*
X0175220Y0006157D01*
X0174956Y0006357D01*
X0174698Y0006564D01*
X0174444Y0006778D01*
X0174196Y0006997D01*
X0173953Y0007223D01*
X0173716Y0007454D01*
X0173485Y0007691D01*
X0173259Y0007934D01*
X0173040Y0008182D01*
X0172826Y0008436D01*
X0172619Y0008694D01*
X0172419Y0008958D01*
X0172225Y0009227D01*
X0172037Y0009500D01*
X0171856Y0009778D01*
X0171683Y0010060D01*
X0171516Y0010346D01*
X0171356Y0010636D01*
X0171203Y0010930D01*
X0171058Y0011228D01*
X0170920Y0011529D01*
X0170790Y0011834D01*
X0170667Y0012141D01*
X0170551Y0012452D01*
X0170443Y0012765D01*
X0170343Y0013081D01*
X0170251Y0013399D01*
X0170167Y0013720D01*
X0170090Y0014042D01*
X0170021Y0014366D01*
X0169961Y0014692D01*
X0169908Y0015019D01*
X0169864Y0015347D01*
X0169827Y0015677D01*
X0169799Y0016007D01*
X0169778Y0016338D01*
X0169766Y0016669D01*
X0169762Y0017000D01*
X0126550Y0014092D02*
X0125050Y0014092D01*
X0125050Y0025092D01*
X0125050Y0025592D01*
X0095050Y0025592D01*
X0094990Y0025590D01*
X0094929Y0025585D01*
X0094870Y0025576D01*
X0094811Y0025563D01*
X0094752Y0025547D01*
X0094695Y0025527D01*
X0094640Y0025504D01*
X0094585Y0025477D01*
X0094533Y0025448D01*
X0094482Y0025415D01*
X0094433Y0025379D01*
X0094387Y0025341D01*
X0094343Y0025299D01*
X0094301Y0025255D01*
X0094263Y0025209D01*
X0094227Y0025160D01*
X0094194Y0025109D01*
X0094165Y0025057D01*
X0094138Y0025002D01*
X0094115Y0024947D01*
X0094095Y0024890D01*
X0094079Y0024831D01*
X0094066Y0024772D01*
X0094057Y0024713D01*
X0094052Y0024652D01*
X0094050Y0024592D01*
X0094050Y0014592D01*
X0094052Y0014532D01*
X0094057Y0014471D01*
X0094066Y0014412D01*
X0094079Y0014353D01*
X0094095Y0014294D01*
X0094115Y0014237D01*
X0094138Y0014182D01*
X0094165Y0014127D01*
X0094194Y0014075D01*
X0094227Y0014024D01*
X0094263Y0013975D01*
X0094301Y0013929D01*
X0094343Y0013885D01*
X0094387Y0013843D01*
X0094433Y0013805D01*
X0094482Y0013769D01*
X0094533Y0013736D01*
X0094585Y0013707D01*
X0094640Y0013680D01*
X0094695Y0013657D01*
X0094752Y0013637D01*
X0094811Y0013621D01*
X0094870Y0013608D01*
X0094929Y0013599D01*
X0094990Y0013594D01*
X0095050Y0013592D01*
X0125050Y0013592D01*
X0125050Y0014092D01*
X0126550Y0014092D02*
X0126550Y0025092D01*
X0125050Y0025092D01*
X0116050Y0019592D02*
X0114050Y0019592D01*
X0114050Y0022592D01*
X0112550Y0022592D02*
X0111050Y0022592D01*
X0111050Y0016592D01*
X0112550Y0016592D01*
X0112550Y0022592D01*
X0109550Y0022592D02*
X0109550Y0019592D01*
X0107550Y0019592D01*
X0109550Y0019592D02*
X0109550Y0016592D01*
X0114050Y0016592D02*
X0114050Y0019592D01*
X0004408Y0017000D02*
X0004412Y0017331D01*
X0004424Y0017662D01*
X0004445Y0017993D01*
X0004473Y0018323D01*
X0004510Y0018653D01*
X0004554Y0018981D01*
X0004607Y0019308D01*
X0004667Y0019634D01*
X0004736Y0019958D01*
X0004813Y0020280D01*
X0004897Y0020601D01*
X0004989Y0020919D01*
X0005089Y0021235D01*
X0005197Y0021548D01*
X0005313Y0021859D01*
X0005436Y0022166D01*
X0005566Y0022471D01*
X0005704Y0022772D01*
X0005849Y0023070D01*
X0006002Y0023364D01*
X0006162Y0023654D01*
X0006329Y0023940D01*
X0006502Y0024222D01*
X0006683Y0024500D01*
X0006871Y0024773D01*
X0007065Y0025042D01*
X0007265Y0025306D01*
X0007472Y0025564D01*
X0007686Y0025818D01*
X0007905Y0026066D01*
X0008131Y0026309D01*
X0008362Y0026546D01*
X0008599Y0026777D01*
X0008842Y0027003D01*
X0009090Y0027222D01*
X0009344Y0027436D01*
X0009602Y0027643D01*
X0009866Y0027843D01*
X0010135Y0028037D01*
X0010408Y0028225D01*
X0010686Y0028406D01*
X0010968Y0028579D01*
X0011254Y0028746D01*
X0011544Y0028906D01*
X0011838Y0029059D01*
X0012136Y0029204D01*
X0012437Y0029342D01*
X0012742Y0029472D01*
X0013049Y0029595D01*
X0013360Y0029711D01*
X0013673Y0029819D01*
X0013989Y0029919D01*
X0014307Y0030011D01*
X0014628Y0030095D01*
X0014950Y0030172D01*
X0015274Y0030241D01*
X0015600Y0030301D01*
X0015927Y0030354D01*
X0016255Y0030398D01*
X0016585Y0030435D01*
X0016915Y0030463D01*
X0017246Y0030484D01*
X0017577Y0030496D01*
X0017908Y0030500D01*
X0018239Y0030496D01*
X0018570Y0030484D01*
X0018901Y0030463D01*
X0019231Y0030435D01*
X0019561Y0030398D01*
X0019889Y0030354D01*
X0020216Y0030301D01*
X0020542Y0030241D01*
X0020866Y0030172D01*
X0021188Y0030095D01*
X0021509Y0030011D01*
X0021827Y0029919D01*
X0022143Y0029819D01*
X0022456Y0029711D01*
X0022767Y0029595D01*
X0023074Y0029472D01*
X0023379Y0029342D01*
X0023680Y0029204D01*
X0023978Y0029059D01*
X0024272Y0028906D01*
X0024562Y0028746D01*
X0024848Y0028579D01*
X0025130Y0028406D01*
X0025408Y0028225D01*
X0025681Y0028037D01*
X0025950Y0027843D01*
X0026214Y0027643D01*
X0026472Y0027436D01*
X0026726Y0027222D01*
X0026974Y0027003D01*
X0027217Y0026777D01*
X0027454Y0026546D01*
X0027685Y0026309D01*
X0027911Y0026066D01*
X0028130Y0025818D01*
X0028344Y0025564D01*
X0028551Y0025306D01*
X0028751Y0025042D01*
X0028945Y0024773D01*
X0029133Y0024500D01*
X0029314Y0024222D01*
X0029487Y0023940D01*
X0029654Y0023654D01*
X0029814Y0023364D01*
X0029967Y0023070D01*
X0030112Y0022772D01*
X0030250Y0022471D01*
X0030380Y0022166D01*
X0030503Y0021859D01*
X0030619Y0021548D01*
X0030727Y0021235D01*
X0030827Y0020919D01*
X0030919Y0020601D01*
X0031003Y0020280D01*
X0031080Y0019958D01*
X0031149Y0019634D01*
X0031209Y0019308D01*
X0031262Y0018981D01*
X0031306Y0018653D01*
X0031343Y0018323D01*
X0031371Y0017993D01*
X0031392Y0017662D01*
X0031404Y0017331D01*
X0031408Y0017000D01*
X0031404Y0016669D01*
X0031392Y0016338D01*
X0031371Y0016007D01*
X0031343Y0015677D01*
X0031306Y0015347D01*
X0031262Y0015019D01*
X0031209Y0014692D01*
X0031149Y0014366D01*
X0031080Y0014042D01*
X0031003Y0013720D01*
X0030919Y0013399D01*
X0030827Y0013081D01*
X0030727Y0012765D01*
X0030619Y0012452D01*
X0030503Y0012141D01*
X0030380Y0011834D01*
X0030250Y0011529D01*
X0030112Y0011228D01*
X0029967Y0010930D01*
X0029814Y0010636D01*
X0029654Y0010346D01*
X0029487Y0010060D01*
X0029314Y0009778D01*
X0029133Y0009500D01*
X0028945Y0009227D01*
X0028751Y0008958D01*
X0028551Y0008694D01*
X0028344Y0008436D01*
X0028130Y0008182D01*
X0027911Y0007934D01*
X0027685Y0007691D01*
X0027454Y0007454D01*
X0027217Y0007223D01*
X0026974Y0006997D01*
X0026726Y0006778D01*
X0026472Y0006564D01*
X0026214Y0006357D01*
X0025950Y0006157D01*
X0025681Y0005963D01*
X0025408Y0005775D01*
X0025130Y0005594D01*
X0024848Y0005421D01*
X0024562Y0005254D01*
X0024272Y0005094D01*
X0023978Y0004941D01*
X0023680Y0004796D01*
X0023379Y0004658D01*
X0023074Y0004528D01*
X0022767Y0004405D01*
X0022456Y0004289D01*
X0022143Y0004181D01*
X0021827Y0004081D01*
X0021509Y0003989D01*
X0021188Y0003905D01*
X0020866Y0003828D01*
X0020542Y0003759D01*
X0020216Y0003699D01*
X0019889Y0003646D01*
X0019561Y0003602D01*
X0019231Y0003565D01*
X0018901Y0003537D01*
X0018570Y0003516D01*
X0018239Y0003504D01*
X0017908Y0003500D01*
X0017577Y0003504D01*
X0017246Y0003516D01*
X0016915Y0003537D01*
X0016585Y0003565D01*
X0016255Y0003602D01*
X0015927Y0003646D01*
X0015600Y0003699D01*
X0015274Y0003759D01*
X0014950Y0003828D01*
X0014628Y0003905D01*
X0014307Y0003989D01*
X0013989Y0004081D01*
X0013673Y0004181D01*
X0013360Y0004289D01*
X0013049Y0004405D01*
X0012742Y0004528D01*
X0012437Y0004658D01*
X0012136Y0004796D01*
X0011838Y0004941D01*
X0011544Y0005094D01*
X0011254Y0005254D01*
X0010968Y0005421D01*
X0010686Y0005594D01*
X0010408Y0005775D01*
X0010135Y0005963D01*
X0009866Y0006157D01*
X0009602Y0006357D01*
X0009344Y0006564D01*
X0009090Y0006778D01*
X0008842Y0006997D01*
X0008599Y0007223D01*
X0008362Y0007454D01*
X0008131Y0007691D01*
X0007905Y0007934D01*
X0007686Y0008182D01*
X0007472Y0008436D01*
X0007265Y0008694D01*
X0007065Y0008958D01*
X0006871Y0009227D01*
X0006683Y0009500D01*
X0006502Y0009778D01*
X0006329Y0010060D01*
X0006162Y0010346D01*
X0006002Y0010636D01*
X0005849Y0010930D01*
X0005704Y0011228D01*
X0005566Y0011529D01*
X0005436Y0011834D01*
X0005313Y0012141D01*
X0005197Y0012452D01*
X0005089Y0012765D01*
X0004989Y0013081D01*
X0004897Y0013399D01*
X0004813Y0013720D01*
X0004736Y0014042D01*
X0004667Y0014366D01*
X0004607Y0014692D01*
X0004554Y0015019D01*
X0004510Y0015347D01*
X0004473Y0015677D01*
X0004445Y0016007D01*
X0004424Y0016338D01*
X0004412Y0016669D01*
X0004408Y0017000D01*
D12*
X0011215Y0017000D02*
X0011217Y0017164D01*
X0011223Y0017328D01*
X0011233Y0017492D01*
X0011247Y0017656D01*
X0011265Y0017819D01*
X0011287Y0017982D01*
X0011314Y0018144D01*
X0011344Y0018306D01*
X0011378Y0018466D01*
X0011416Y0018626D01*
X0011457Y0018785D01*
X0011503Y0018943D01*
X0011553Y0019099D01*
X0011606Y0019255D01*
X0011663Y0019409D01*
X0011724Y0019561D01*
X0011789Y0019712D01*
X0011858Y0019862D01*
X0011930Y0020009D01*
X0012005Y0020155D01*
X0012085Y0020299D01*
X0012167Y0020441D01*
X0012253Y0020581D01*
X0012343Y0020718D01*
X0012436Y0020854D01*
X0012532Y0020987D01*
X0012632Y0021118D01*
X0012734Y0021246D01*
X0012840Y0021372D01*
X0012949Y0021495D01*
X0013061Y0021615D01*
X0013175Y0021733D01*
X0013293Y0021847D01*
X0013413Y0021959D01*
X0013536Y0022068D01*
X0013662Y0022174D01*
X0013790Y0022276D01*
X0013921Y0022376D01*
X0014054Y0022472D01*
X0014190Y0022565D01*
X0014327Y0022655D01*
X0014467Y0022741D01*
X0014609Y0022823D01*
X0014753Y0022903D01*
X0014899Y0022978D01*
X0015046Y0023050D01*
X0015196Y0023119D01*
X0015347Y0023184D01*
X0015499Y0023245D01*
X0015653Y0023302D01*
X0015809Y0023355D01*
X0015965Y0023405D01*
X0016123Y0023451D01*
X0016282Y0023492D01*
X0016442Y0023530D01*
X0016602Y0023564D01*
X0016764Y0023594D01*
X0016926Y0023621D01*
X0017089Y0023643D01*
X0017252Y0023661D01*
X0017416Y0023675D01*
X0017580Y0023685D01*
X0017744Y0023691D01*
X0017908Y0023693D01*
X0018072Y0023691D01*
X0018236Y0023685D01*
X0018400Y0023675D01*
X0018564Y0023661D01*
X0018727Y0023643D01*
X0018890Y0023621D01*
X0019052Y0023594D01*
X0019214Y0023564D01*
X0019374Y0023530D01*
X0019534Y0023492D01*
X0019693Y0023451D01*
X0019851Y0023405D01*
X0020007Y0023355D01*
X0020163Y0023302D01*
X0020317Y0023245D01*
X0020469Y0023184D01*
X0020620Y0023119D01*
X0020770Y0023050D01*
X0020917Y0022978D01*
X0021063Y0022903D01*
X0021207Y0022823D01*
X0021349Y0022741D01*
X0021489Y0022655D01*
X0021626Y0022565D01*
X0021762Y0022472D01*
X0021895Y0022376D01*
X0022026Y0022276D01*
X0022154Y0022174D01*
X0022280Y0022068D01*
X0022403Y0021959D01*
X0022523Y0021847D01*
X0022641Y0021733D01*
X0022755Y0021615D01*
X0022867Y0021495D01*
X0022976Y0021372D01*
X0023082Y0021246D01*
X0023184Y0021118D01*
X0023284Y0020987D01*
X0023380Y0020854D01*
X0023473Y0020718D01*
X0023563Y0020581D01*
X0023649Y0020441D01*
X0023731Y0020299D01*
X0023811Y0020155D01*
X0023886Y0020009D01*
X0023958Y0019862D01*
X0024027Y0019712D01*
X0024092Y0019561D01*
X0024153Y0019409D01*
X0024210Y0019255D01*
X0024263Y0019099D01*
X0024313Y0018943D01*
X0024359Y0018785D01*
X0024400Y0018626D01*
X0024438Y0018466D01*
X0024472Y0018306D01*
X0024502Y0018144D01*
X0024529Y0017982D01*
X0024551Y0017819D01*
X0024569Y0017656D01*
X0024583Y0017492D01*
X0024593Y0017328D01*
X0024599Y0017164D01*
X0024601Y0017000D01*
X0024599Y0016836D01*
X0024593Y0016672D01*
X0024583Y0016508D01*
X0024569Y0016344D01*
X0024551Y0016181D01*
X0024529Y0016018D01*
X0024502Y0015856D01*
X0024472Y0015694D01*
X0024438Y0015534D01*
X0024400Y0015374D01*
X0024359Y0015215D01*
X0024313Y0015057D01*
X0024263Y0014901D01*
X0024210Y0014745D01*
X0024153Y0014591D01*
X0024092Y0014439D01*
X0024027Y0014288D01*
X0023958Y0014138D01*
X0023886Y0013991D01*
X0023811Y0013845D01*
X0023731Y0013701D01*
X0023649Y0013559D01*
X0023563Y0013419D01*
X0023473Y0013282D01*
X0023380Y0013146D01*
X0023284Y0013013D01*
X0023184Y0012882D01*
X0023082Y0012754D01*
X0022976Y0012628D01*
X0022867Y0012505D01*
X0022755Y0012385D01*
X0022641Y0012267D01*
X0022523Y0012153D01*
X0022403Y0012041D01*
X0022280Y0011932D01*
X0022154Y0011826D01*
X0022026Y0011724D01*
X0021895Y0011624D01*
X0021762Y0011528D01*
X0021626Y0011435D01*
X0021489Y0011345D01*
X0021349Y0011259D01*
X0021207Y0011177D01*
X0021063Y0011097D01*
X0020917Y0011022D01*
X0020770Y0010950D01*
X0020620Y0010881D01*
X0020469Y0010816D01*
X0020317Y0010755D01*
X0020163Y0010698D01*
X0020007Y0010645D01*
X0019851Y0010595D01*
X0019693Y0010549D01*
X0019534Y0010508D01*
X0019374Y0010470D01*
X0019214Y0010436D01*
X0019052Y0010406D01*
X0018890Y0010379D01*
X0018727Y0010357D01*
X0018564Y0010339D01*
X0018400Y0010325D01*
X0018236Y0010315D01*
X0018072Y0010309D01*
X0017908Y0010307D01*
X0017744Y0010309D01*
X0017580Y0010315D01*
X0017416Y0010325D01*
X0017252Y0010339D01*
X0017089Y0010357D01*
X0016926Y0010379D01*
X0016764Y0010406D01*
X0016602Y0010436D01*
X0016442Y0010470D01*
X0016282Y0010508D01*
X0016123Y0010549D01*
X0015965Y0010595D01*
X0015809Y0010645D01*
X0015653Y0010698D01*
X0015499Y0010755D01*
X0015347Y0010816D01*
X0015196Y0010881D01*
X0015046Y0010950D01*
X0014899Y0011022D01*
X0014753Y0011097D01*
X0014609Y0011177D01*
X0014467Y0011259D01*
X0014327Y0011345D01*
X0014190Y0011435D01*
X0014054Y0011528D01*
X0013921Y0011624D01*
X0013790Y0011724D01*
X0013662Y0011826D01*
X0013536Y0011932D01*
X0013413Y0012041D01*
X0013293Y0012153D01*
X0013175Y0012267D01*
X0013061Y0012385D01*
X0012949Y0012505D01*
X0012840Y0012628D01*
X0012734Y0012754D01*
X0012632Y0012882D01*
X0012532Y0013013D01*
X0012436Y0013146D01*
X0012343Y0013282D01*
X0012253Y0013419D01*
X0012167Y0013559D01*
X0012085Y0013701D01*
X0012005Y0013845D01*
X0011930Y0013991D01*
X0011858Y0014138D01*
X0011789Y0014288D01*
X0011724Y0014439D01*
X0011663Y0014591D01*
X0011606Y0014745D01*
X0011553Y0014901D01*
X0011503Y0015057D01*
X0011457Y0015215D01*
X0011416Y0015374D01*
X0011378Y0015534D01*
X0011344Y0015694D01*
X0011314Y0015856D01*
X0011287Y0016018D01*
X0011265Y0016181D01*
X0011247Y0016344D01*
X0011233Y0016508D01*
X0011223Y0016672D01*
X0011217Y0016836D01*
X0011215Y0017000D01*
X0176569Y0017000D02*
X0176571Y0017164D01*
X0176577Y0017328D01*
X0176587Y0017492D01*
X0176601Y0017656D01*
X0176619Y0017819D01*
X0176641Y0017982D01*
X0176668Y0018144D01*
X0176698Y0018306D01*
X0176732Y0018466D01*
X0176770Y0018626D01*
X0176811Y0018785D01*
X0176857Y0018943D01*
X0176907Y0019099D01*
X0176960Y0019255D01*
X0177017Y0019409D01*
X0177078Y0019561D01*
X0177143Y0019712D01*
X0177212Y0019862D01*
X0177284Y0020009D01*
X0177359Y0020155D01*
X0177439Y0020299D01*
X0177521Y0020441D01*
X0177607Y0020581D01*
X0177697Y0020718D01*
X0177790Y0020854D01*
X0177886Y0020987D01*
X0177986Y0021118D01*
X0178088Y0021246D01*
X0178194Y0021372D01*
X0178303Y0021495D01*
X0178415Y0021615D01*
X0178529Y0021733D01*
X0178647Y0021847D01*
X0178767Y0021959D01*
X0178890Y0022068D01*
X0179016Y0022174D01*
X0179144Y0022276D01*
X0179275Y0022376D01*
X0179408Y0022472D01*
X0179544Y0022565D01*
X0179681Y0022655D01*
X0179821Y0022741D01*
X0179963Y0022823D01*
X0180107Y0022903D01*
X0180253Y0022978D01*
X0180400Y0023050D01*
X0180550Y0023119D01*
X0180701Y0023184D01*
X0180853Y0023245D01*
X0181007Y0023302D01*
X0181163Y0023355D01*
X0181319Y0023405D01*
X0181477Y0023451D01*
X0181636Y0023492D01*
X0181796Y0023530D01*
X0181956Y0023564D01*
X0182118Y0023594D01*
X0182280Y0023621D01*
X0182443Y0023643D01*
X0182606Y0023661D01*
X0182770Y0023675D01*
X0182934Y0023685D01*
X0183098Y0023691D01*
X0183262Y0023693D01*
X0183426Y0023691D01*
X0183590Y0023685D01*
X0183754Y0023675D01*
X0183918Y0023661D01*
X0184081Y0023643D01*
X0184244Y0023621D01*
X0184406Y0023594D01*
X0184568Y0023564D01*
X0184728Y0023530D01*
X0184888Y0023492D01*
X0185047Y0023451D01*
X0185205Y0023405D01*
X0185361Y0023355D01*
X0185517Y0023302D01*
X0185671Y0023245D01*
X0185823Y0023184D01*
X0185974Y0023119D01*
X0186124Y0023050D01*
X0186271Y0022978D01*
X0186417Y0022903D01*
X0186561Y0022823D01*
X0186703Y0022741D01*
X0186843Y0022655D01*
X0186980Y0022565D01*
X0187116Y0022472D01*
X0187249Y0022376D01*
X0187380Y0022276D01*
X0187508Y0022174D01*
X0187634Y0022068D01*
X0187757Y0021959D01*
X0187877Y0021847D01*
X0187995Y0021733D01*
X0188109Y0021615D01*
X0188221Y0021495D01*
X0188330Y0021372D01*
X0188436Y0021246D01*
X0188538Y0021118D01*
X0188638Y0020987D01*
X0188734Y0020854D01*
X0188827Y0020718D01*
X0188917Y0020581D01*
X0189003Y0020441D01*
X0189085Y0020299D01*
X0189165Y0020155D01*
X0189240Y0020009D01*
X0189312Y0019862D01*
X0189381Y0019712D01*
X0189446Y0019561D01*
X0189507Y0019409D01*
X0189564Y0019255D01*
X0189617Y0019099D01*
X0189667Y0018943D01*
X0189713Y0018785D01*
X0189754Y0018626D01*
X0189792Y0018466D01*
X0189826Y0018306D01*
X0189856Y0018144D01*
X0189883Y0017982D01*
X0189905Y0017819D01*
X0189923Y0017656D01*
X0189937Y0017492D01*
X0189947Y0017328D01*
X0189953Y0017164D01*
X0189955Y0017000D01*
X0189953Y0016836D01*
X0189947Y0016672D01*
X0189937Y0016508D01*
X0189923Y0016344D01*
X0189905Y0016181D01*
X0189883Y0016018D01*
X0189856Y0015856D01*
X0189826Y0015694D01*
X0189792Y0015534D01*
X0189754Y0015374D01*
X0189713Y0015215D01*
X0189667Y0015057D01*
X0189617Y0014901D01*
X0189564Y0014745D01*
X0189507Y0014591D01*
X0189446Y0014439D01*
X0189381Y0014288D01*
X0189312Y0014138D01*
X0189240Y0013991D01*
X0189165Y0013845D01*
X0189085Y0013701D01*
X0189003Y0013559D01*
X0188917Y0013419D01*
X0188827Y0013282D01*
X0188734Y0013146D01*
X0188638Y0013013D01*
X0188538Y0012882D01*
X0188436Y0012754D01*
X0188330Y0012628D01*
X0188221Y0012505D01*
X0188109Y0012385D01*
X0187995Y0012267D01*
X0187877Y0012153D01*
X0187757Y0012041D01*
X0187634Y0011932D01*
X0187508Y0011826D01*
X0187380Y0011724D01*
X0187249Y0011624D01*
X0187116Y0011528D01*
X0186980Y0011435D01*
X0186843Y0011345D01*
X0186703Y0011259D01*
X0186561Y0011177D01*
X0186417Y0011097D01*
X0186271Y0011022D01*
X0186124Y0010950D01*
X0185974Y0010881D01*
X0185823Y0010816D01*
X0185671Y0010755D01*
X0185517Y0010698D01*
X0185361Y0010645D01*
X0185205Y0010595D01*
X0185047Y0010549D01*
X0184888Y0010508D01*
X0184728Y0010470D01*
X0184568Y0010436D01*
X0184406Y0010406D01*
X0184244Y0010379D01*
X0184081Y0010357D01*
X0183918Y0010339D01*
X0183754Y0010325D01*
X0183590Y0010315D01*
X0183426Y0010309D01*
X0183262Y0010307D01*
X0183098Y0010309D01*
X0182934Y0010315D01*
X0182770Y0010325D01*
X0182606Y0010339D01*
X0182443Y0010357D01*
X0182280Y0010379D01*
X0182118Y0010406D01*
X0181956Y0010436D01*
X0181796Y0010470D01*
X0181636Y0010508D01*
X0181477Y0010549D01*
X0181319Y0010595D01*
X0181163Y0010645D01*
X0181007Y0010698D01*
X0180853Y0010755D01*
X0180701Y0010816D01*
X0180550Y0010881D01*
X0180400Y0010950D01*
X0180253Y0011022D01*
X0180107Y0011097D01*
X0179963Y0011177D01*
X0179821Y0011259D01*
X0179681Y0011345D01*
X0179544Y0011435D01*
X0179408Y0011528D01*
X0179275Y0011624D01*
X0179144Y0011724D01*
X0179016Y0011826D01*
X0178890Y0011932D01*
X0178767Y0012041D01*
X0178647Y0012153D01*
X0178529Y0012267D01*
X0178415Y0012385D01*
X0178303Y0012505D01*
X0178194Y0012628D01*
X0178088Y0012754D01*
X0177986Y0012882D01*
X0177886Y0013013D01*
X0177790Y0013146D01*
X0177697Y0013282D01*
X0177607Y0013419D01*
X0177521Y0013559D01*
X0177439Y0013701D01*
X0177359Y0013845D01*
X0177284Y0013991D01*
X0177212Y0014138D01*
X0177143Y0014288D01*
X0177078Y0014439D01*
X0177017Y0014591D01*
X0176960Y0014745D01*
X0176907Y0014901D01*
X0176857Y0015057D01*
X0176811Y0015215D01*
X0176770Y0015374D01*
X0176732Y0015534D01*
X0176698Y0015694D01*
X0176668Y0015856D01*
X0176641Y0016018D01*
X0176619Y0016181D01*
X0176601Y0016344D01*
X0176587Y0016508D01*
X0176577Y0016672D01*
X0176571Y0016836D01*
X0176569Y0017000D01*
X0176569Y0113457D02*
X0176571Y0113621D01*
X0176577Y0113785D01*
X0176587Y0113949D01*
X0176601Y0114113D01*
X0176619Y0114276D01*
X0176641Y0114439D01*
X0176668Y0114601D01*
X0176698Y0114763D01*
X0176732Y0114923D01*
X0176770Y0115083D01*
X0176811Y0115242D01*
X0176857Y0115400D01*
X0176907Y0115556D01*
X0176960Y0115712D01*
X0177017Y0115866D01*
X0177078Y0116018D01*
X0177143Y0116169D01*
X0177212Y0116319D01*
X0177284Y0116466D01*
X0177359Y0116612D01*
X0177439Y0116756D01*
X0177521Y0116898D01*
X0177607Y0117038D01*
X0177697Y0117175D01*
X0177790Y0117311D01*
X0177886Y0117444D01*
X0177986Y0117575D01*
X0178088Y0117703D01*
X0178194Y0117829D01*
X0178303Y0117952D01*
X0178415Y0118072D01*
X0178529Y0118190D01*
X0178647Y0118304D01*
X0178767Y0118416D01*
X0178890Y0118525D01*
X0179016Y0118631D01*
X0179144Y0118733D01*
X0179275Y0118833D01*
X0179408Y0118929D01*
X0179544Y0119022D01*
X0179681Y0119112D01*
X0179821Y0119198D01*
X0179963Y0119280D01*
X0180107Y0119360D01*
X0180253Y0119435D01*
X0180400Y0119507D01*
X0180550Y0119576D01*
X0180701Y0119641D01*
X0180853Y0119702D01*
X0181007Y0119759D01*
X0181163Y0119812D01*
X0181319Y0119862D01*
X0181477Y0119908D01*
X0181636Y0119949D01*
X0181796Y0119987D01*
X0181956Y0120021D01*
X0182118Y0120051D01*
X0182280Y0120078D01*
X0182443Y0120100D01*
X0182606Y0120118D01*
X0182770Y0120132D01*
X0182934Y0120142D01*
X0183098Y0120148D01*
X0183262Y0120150D01*
X0183426Y0120148D01*
X0183590Y0120142D01*
X0183754Y0120132D01*
X0183918Y0120118D01*
X0184081Y0120100D01*
X0184244Y0120078D01*
X0184406Y0120051D01*
X0184568Y0120021D01*
X0184728Y0119987D01*
X0184888Y0119949D01*
X0185047Y0119908D01*
X0185205Y0119862D01*
X0185361Y0119812D01*
X0185517Y0119759D01*
X0185671Y0119702D01*
X0185823Y0119641D01*
X0185974Y0119576D01*
X0186124Y0119507D01*
X0186271Y0119435D01*
X0186417Y0119360D01*
X0186561Y0119280D01*
X0186703Y0119198D01*
X0186843Y0119112D01*
X0186980Y0119022D01*
X0187116Y0118929D01*
X0187249Y0118833D01*
X0187380Y0118733D01*
X0187508Y0118631D01*
X0187634Y0118525D01*
X0187757Y0118416D01*
X0187877Y0118304D01*
X0187995Y0118190D01*
X0188109Y0118072D01*
X0188221Y0117952D01*
X0188330Y0117829D01*
X0188436Y0117703D01*
X0188538Y0117575D01*
X0188638Y0117444D01*
X0188734Y0117311D01*
X0188827Y0117175D01*
X0188917Y0117038D01*
X0189003Y0116898D01*
X0189085Y0116756D01*
X0189165Y0116612D01*
X0189240Y0116466D01*
X0189312Y0116319D01*
X0189381Y0116169D01*
X0189446Y0116018D01*
X0189507Y0115866D01*
X0189564Y0115712D01*
X0189617Y0115556D01*
X0189667Y0115400D01*
X0189713Y0115242D01*
X0189754Y0115083D01*
X0189792Y0114923D01*
X0189826Y0114763D01*
X0189856Y0114601D01*
X0189883Y0114439D01*
X0189905Y0114276D01*
X0189923Y0114113D01*
X0189937Y0113949D01*
X0189947Y0113785D01*
X0189953Y0113621D01*
X0189955Y0113457D01*
X0189953Y0113293D01*
X0189947Y0113129D01*
X0189937Y0112965D01*
X0189923Y0112801D01*
X0189905Y0112638D01*
X0189883Y0112475D01*
X0189856Y0112313D01*
X0189826Y0112151D01*
X0189792Y0111991D01*
X0189754Y0111831D01*
X0189713Y0111672D01*
X0189667Y0111514D01*
X0189617Y0111358D01*
X0189564Y0111202D01*
X0189507Y0111048D01*
X0189446Y0110896D01*
X0189381Y0110745D01*
X0189312Y0110595D01*
X0189240Y0110448D01*
X0189165Y0110302D01*
X0189085Y0110158D01*
X0189003Y0110016D01*
X0188917Y0109876D01*
X0188827Y0109739D01*
X0188734Y0109603D01*
X0188638Y0109470D01*
X0188538Y0109339D01*
X0188436Y0109211D01*
X0188330Y0109085D01*
X0188221Y0108962D01*
X0188109Y0108842D01*
X0187995Y0108724D01*
X0187877Y0108610D01*
X0187757Y0108498D01*
X0187634Y0108389D01*
X0187508Y0108283D01*
X0187380Y0108181D01*
X0187249Y0108081D01*
X0187116Y0107985D01*
X0186980Y0107892D01*
X0186843Y0107802D01*
X0186703Y0107716D01*
X0186561Y0107634D01*
X0186417Y0107554D01*
X0186271Y0107479D01*
X0186124Y0107407D01*
X0185974Y0107338D01*
X0185823Y0107273D01*
X0185671Y0107212D01*
X0185517Y0107155D01*
X0185361Y0107102D01*
X0185205Y0107052D01*
X0185047Y0107006D01*
X0184888Y0106965D01*
X0184728Y0106927D01*
X0184568Y0106893D01*
X0184406Y0106863D01*
X0184244Y0106836D01*
X0184081Y0106814D01*
X0183918Y0106796D01*
X0183754Y0106782D01*
X0183590Y0106772D01*
X0183426Y0106766D01*
X0183262Y0106764D01*
X0183098Y0106766D01*
X0182934Y0106772D01*
X0182770Y0106782D01*
X0182606Y0106796D01*
X0182443Y0106814D01*
X0182280Y0106836D01*
X0182118Y0106863D01*
X0181956Y0106893D01*
X0181796Y0106927D01*
X0181636Y0106965D01*
X0181477Y0107006D01*
X0181319Y0107052D01*
X0181163Y0107102D01*
X0181007Y0107155D01*
X0180853Y0107212D01*
X0180701Y0107273D01*
X0180550Y0107338D01*
X0180400Y0107407D01*
X0180253Y0107479D01*
X0180107Y0107554D01*
X0179963Y0107634D01*
X0179821Y0107716D01*
X0179681Y0107802D01*
X0179544Y0107892D01*
X0179408Y0107985D01*
X0179275Y0108081D01*
X0179144Y0108181D01*
X0179016Y0108283D01*
X0178890Y0108389D01*
X0178767Y0108498D01*
X0178647Y0108610D01*
X0178529Y0108724D01*
X0178415Y0108842D01*
X0178303Y0108962D01*
X0178194Y0109085D01*
X0178088Y0109211D01*
X0177986Y0109339D01*
X0177886Y0109470D01*
X0177790Y0109603D01*
X0177697Y0109739D01*
X0177607Y0109876D01*
X0177521Y0110016D01*
X0177439Y0110158D01*
X0177359Y0110302D01*
X0177284Y0110448D01*
X0177212Y0110595D01*
X0177143Y0110745D01*
X0177078Y0110896D01*
X0177017Y0111048D01*
X0176960Y0111202D01*
X0176907Y0111358D01*
X0176857Y0111514D01*
X0176811Y0111672D01*
X0176770Y0111831D01*
X0176732Y0111991D01*
X0176698Y0112151D01*
X0176668Y0112313D01*
X0176641Y0112475D01*
X0176619Y0112638D01*
X0176601Y0112801D01*
X0176587Y0112965D01*
X0176577Y0113129D01*
X0176571Y0113293D01*
X0176569Y0113457D01*
D13*
X0160953Y0118993D02*
X0160202Y0118242D01*
X0158701Y0118242D01*
X0157950Y0118993D01*
X0157950Y0120494D02*
X0159451Y0121245D01*
X0160202Y0121245D01*
X0160953Y0120494D01*
X0160953Y0118993D01*
X0157950Y0120494D02*
X0157950Y0122746D01*
X0160953Y0122746D01*
X0120953Y0100242D02*
X0117950Y0100242D01*
X0119451Y0100242D02*
X0119451Y0104746D01*
X0117950Y0103245D01*
X0115907Y0102726D02*
X0115907Y0098222D01*
X0114406Y0098222D02*
X0117409Y0098222D01*
X0114406Y0101225D02*
X0115907Y0102726D01*
X0112805Y0101975D02*
X0112805Y0100474D01*
X0112054Y0099723D01*
X0109802Y0099723D01*
X0109802Y0098222D02*
X0109802Y0102726D01*
X0112054Y0102726D01*
X0112805Y0101975D01*
X0111303Y0099723D02*
X0112805Y0098222D01*
X0118582Y0091906D02*
X0120834Y0091906D01*
X0121585Y0091155D01*
X0121585Y0089654D01*
X0120834Y0088903D01*
X0118582Y0088903D01*
X0118582Y0087402D02*
X0118582Y0091906D01*
X0120083Y0088903D02*
X0121585Y0087402D01*
X0123186Y0087402D02*
X0126189Y0090405D01*
X0126189Y0091155D01*
X0125438Y0091906D01*
X0123937Y0091906D01*
X0123186Y0091155D01*
X0123186Y0087402D02*
X0126189Y0087402D01*
X0128920Y0082036D02*
X0131172Y0082036D01*
X0131923Y0081285D01*
X0131923Y0079784D01*
X0131172Y0079033D01*
X0128920Y0079033D01*
X0128920Y0077532D02*
X0128920Y0082036D01*
X0133524Y0081285D02*
X0134275Y0082036D01*
X0135776Y0082036D01*
X0136527Y0081285D01*
X0136527Y0080535D01*
X0135776Y0079784D01*
X0136527Y0079033D01*
X0136527Y0078283D01*
X0135776Y0077532D01*
X0134275Y0077532D01*
X0133524Y0078283D01*
X0131923Y0077532D02*
X0130421Y0079033D01*
X0135025Y0079784D02*
X0135776Y0079784D01*
X0139383Y0058486D02*
X0140884Y0058486D01*
X0140134Y0058486D02*
X0140134Y0053982D01*
X0140884Y0053982D02*
X0139383Y0053982D01*
X0142452Y0054733D02*
X0143203Y0053982D01*
X0144704Y0053982D01*
X0145455Y0054733D01*
X0147056Y0053982D02*
X0150059Y0053982D01*
X0148557Y0053982D02*
X0148557Y0058486D01*
X0147056Y0056985D01*
X0145455Y0057735D02*
X0144704Y0058486D01*
X0143203Y0058486D01*
X0142452Y0057735D01*
X0142452Y0054733D01*
X0181216Y0039799D02*
X0185720Y0039799D01*
X0185720Y0038298D02*
X0185720Y0041301D01*
X0182717Y0038298D02*
X0181216Y0039799D01*
X0181967Y0036697D02*
X0181216Y0035946D01*
X0181216Y0034445D01*
X0181967Y0033694D01*
X0184969Y0033694D01*
X0185720Y0034445D01*
X0185720Y0035946D01*
X0184969Y0036697D01*
X0104519Y0017212D02*
X0101516Y0017212D01*
X0103017Y0017212D02*
X0103017Y0021716D01*
X0101516Y0020215D01*
X0099915Y0021716D02*
X0096912Y0017212D01*
X0099915Y0017212D02*
X0096912Y0021716D01*
X0070110Y0016982D02*
X0070110Y0004482D01*
X0050110Y0004482D01*
X0050110Y0016982D01*
X0055110Y0059482D01*
X0055179Y0059614D01*
X0055251Y0059745D01*
X0055326Y0059874D01*
X0055405Y0060000D01*
X0055487Y0060125D01*
X0055573Y0060247D01*
X0055661Y0060367D01*
X0055753Y0060484D01*
X0055848Y0060599D01*
X0055946Y0060712D01*
X0056047Y0060821D01*
X0056151Y0060928D01*
X0056258Y0061033D01*
X0056367Y0061134D01*
X0056479Y0061232D01*
X0056594Y0061328D01*
X0056711Y0061420D01*
X0056831Y0061509D01*
X0056952Y0061595D01*
X0057077Y0061677D01*
X0057203Y0061757D01*
X0057331Y0061832D01*
X0057462Y0061905D01*
X0057594Y0061974D01*
X0057728Y0062039D01*
X0057864Y0062101D01*
X0058001Y0062159D01*
X0058140Y0062213D01*
X0058280Y0062264D01*
X0058422Y0062311D01*
X0058565Y0062354D01*
X0058708Y0062393D01*
X0058853Y0062429D01*
X0058999Y0062460D01*
X0059145Y0062488D01*
X0059293Y0062512D01*
X0059441Y0062532D01*
X0059589Y0062548D01*
X0059737Y0062560D01*
X0059886Y0062568D01*
X0060035Y0062572D01*
X0060185Y0062572D01*
X0060334Y0062568D01*
X0060483Y0062560D01*
X0060631Y0062548D01*
X0060779Y0062532D01*
X0060927Y0062512D01*
X0061075Y0062488D01*
X0061221Y0062460D01*
X0061367Y0062429D01*
X0061512Y0062393D01*
X0061655Y0062354D01*
X0061798Y0062311D01*
X0061940Y0062264D01*
X0062080Y0062213D01*
X0062219Y0062159D01*
X0062356Y0062101D01*
X0062492Y0062039D01*
X0062626Y0061974D01*
X0062758Y0061905D01*
X0062889Y0061832D01*
X0063017Y0061757D01*
X0063143Y0061677D01*
X0063268Y0061595D01*
X0063389Y0061509D01*
X0063509Y0061420D01*
X0063626Y0061328D01*
X0063741Y0061232D01*
X0063853Y0061134D01*
X0063962Y0061033D01*
X0064069Y0060928D01*
X0064173Y0060821D01*
X0064274Y0060712D01*
X0064372Y0060599D01*
X0064467Y0060484D01*
X0064559Y0060367D01*
X0064647Y0060247D01*
X0064733Y0060125D01*
X0064815Y0060000D01*
X0064894Y0059874D01*
X0064969Y0059745D01*
X0065041Y0059614D01*
X0065110Y0059482D01*
X0070110Y0016982D01*
X0074060Y0070142D02*
X0076312Y0070142D01*
X0077063Y0070893D01*
X0077063Y0071643D01*
X0076312Y0072394D01*
X0074060Y0072394D01*
X0074060Y0070142D02*
X0074060Y0074646D01*
X0076312Y0074646D01*
X0077063Y0073895D01*
X0077063Y0073145D01*
X0076312Y0072394D01*
X0078664Y0072394D02*
X0081666Y0072394D01*
X0081666Y0073145D02*
X0081666Y0070142D01*
X0078664Y0070142D02*
X0078664Y0073145D01*
X0080165Y0074646D01*
X0081666Y0073145D01*
X0083268Y0074646D02*
X0086270Y0074646D01*
X0084769Y0074646D02*
X0084769Y0070142D01*
X0087872Y0070142D02*
X0090874Y0070142D01*
X0089373Y0070142D02*
X0089373Y0074646D01*
X0087872Y0073145D01*
X0004164Y0071982D02*
X0004181Y0073355D01*
X0004231Y0074727D01*
X0004316Y0076098D01*
X0004433Y0077466D01*
X0004585Y0078830D01*
X0004770Y0080191D01*
X0004988Y0081547D01*
X0005239Y0082897D01*
X0005523Y0084240D01*
X0005841Y0085576D01*
X0006191Y0086904D01*
X0006573Y0088222D01*
X0006988Y0089531D01*
X0007434Y0090830D01*
X0007913Y0092117D01*
X0008423Y0093392D01*
X0008964Y0094654D01*
X0009535Y0095902D01*
X0010138Y0097136D01*
X0010770Y0098355D01*
X0011432Y0099558D01*
X0012124Y0100744D01*
X0012844Y0101913D01*
X0013593Y0103064D01*
X0014369Y0104196D01*
X0015174Y0105309D01*
X0016005Y0106402D01*
X0016863Y0107474D01*
X0017747Y0108524D01*
X0018657Y0109553D01*
X0019591Y0110559D01*
X0020550Y0111542D01*
X0021533Y0112501D01*
X0022539Y0113435D01*
X0023568Y0114345D01*
X0024618Y0115229D01*
X0025690Y0116087D01*
X0026783Y0116918D01*
X0027896Y0117723D01*
X0029028Y0118499D01*
X0030179Y0119248D01*
X0031348Y0119968D01*
X0032534Y0120660D01*
X0033737Y0121322D01*
X0034956Y0121954D01*
X0036190Y0122557D01*
X0037438Y0123128D01*
X0038700Y0123669D01*
X0039975Y0124179D01*
X0041262Y0124658D01*
X0042561Y0125104D01*
X0043870Y0125519D01*
X0045188Y0125901D01*
X0046516Y0126251D01*
X0047852Y0126569D01*
X0049195Y0126853D01*
X0050545Y0127104D01*
X0051901Y0127322D01*
X0053262Y0127507D01*
X0054626Y0127659D01*
X0055994Y0127776D01*
X0057365Y0127861D01*
X0058737Y0127911D01*
X0060110Y0127928D01*
X0061483Y0127911D01*
X0062855Y0127861D01*
X0064226Y0127776D01*
X0065594Y0127659D01*
X0066958Y0127507D01*
X0068319Y0127322D01*
X0069675Y0127104D01*
X0071025Y0126853D01*
X0072368Y0126569D01*
X0073704Y0126251D01*
X0075032Y0125901D01*
X0076350Y0125519D01*
X0077659Y0125104D01*
X0078958Y0124658D01*
X0080245Y0124179D01*
X0081520Y0123669D01*
X0082782Y0123128D01*
X0084030Y0122557D01*
X0085264Y0121954D01*
X0086483Y0121322D01*
X0087686Y0120660D01*
X0088872Y0119968D01*
X0090041Y0119248D01*
X0091192Y0118499D01*
X0092324Y0117723D01*
X0093437Y0116918D01*
X0094530Y0116087D01*
X0095602Y0115229D01*
X0096652Y0114345D01*
X0097681Y0113435D01*
X0098687Y0112501D01*
X0099670Y0111542D01*
X0100629Y0110559D01*
X0101563Y0109553D01*
X0102473Y0108524D01*
X0103357Y0107474D01*
X0104215Y0106402D01*
X0105046Y0105309D01*
X0105851Y0104196D01*
X0106627Y0103064D01*
X0107376Y0101913D01*
X0108096Y0100744D01*
X0108788Y0099558D01*
X0109450Y0098355D01*
X0110082Y0097136D01*
X0110685Y0095902D01*
X0111256Y0094654D01*
X0111797Y0093392D01*
X0112307Y0092117D01*
X0112786Y0090830D01*
X0113232Y0089531D01*
X0113647Y0088222D01*
X0114029Y0086904D01*
X0114379Y0085576D01*
X0114697Y0084240D01*
X0114981Y0082897D01*
X0115232Y0081547D01*
X0115450Y0080191D01*
X0115635Y0078830D01*
X0115787Y0077466D01*
X0115904Y0076098D01*
X0115989Y0074727D01*
X0116039Y0073355D01*
X0116056Y0071982D01*
X0116039Y0070609D01*
X0115989Y0069237D01*
X0115904Y0067866D01*
X0115787Y0066498D01*
X0115635Y0065134D01*
X0115450Y0063773D01*
X0115232Y0062417D01*
X0114981Y0061067D01*
X0114697Y0059724D01*
X0114379Y0058388D01*
X0114029Y0057060D01*
X0113647Y0055742D01*
X0113232Y0054433D01*
X0112786Y0053134D01*
X0112307Y0051847D01*
X0111797Y0050572D01*
X0111256Y0049310D01*
X0110685Y0048062D01*
X0110082Y0046828D01*
X0109450Y0045609D01*
X0108788Y0044406D01*
X0108096Y0043220D01*
X0107376Y0042051D01*
X0106627Y0040900D01*
X0105851Y0039768D01*
X0105046Y0038655D01*
X0104215Y0037562D01*
X0103357Y0036490D01*
X0102473Y0035440D01*
X0101563Y0034411D01*
X0100629Y0033405D01*
X0099670Y0032422D01*
X0098687Y0031463D01*
X0097681Y0030529D01*
X0096652Y0029619D01*
X0095602Y0028735D01*
X0094530Y0027877D01*
X0093437Y0027046D01*
X0092324Y0026241D01*
X0091192Y0025465D01*
X0090041Y0024716D01*
X0088872Y0023996D01*
X0087686Y0023304D01*
X0086483Y0022642D01*
X0085264Y0022010D01*
X0084030Y0021407D01*
X0082782Y0020836D01*
X0081520Y0020295D01*
X0080245Y0019785D01*
X0078958Y0019306D01*
X0077659Y0018860D01*
X0076350Y0018445D01*
X0075032Y0018063D01*
X0073704Y0017713D01*
X0072368Y0017395D01*
X0071025Y0017111D01*
X0069675Y0016860D01*
X0068319Y0016642D01*
X0066958Y0016457D01*
X0065594Y0016305D01*
X0064226Y0016188D01*
X0062855Y0016103D01*
X0061483Y0016053D01*
X0060110Y0016036D01*
X0058737Y0016053D01*
X0057365Y0016103D01*
X0055994Y0016188D01*
X0054626Y0016305D01*
X0053262Y0016457D01*
X0051901Y0016642D01*
X0050545Y0016860D01*
X0049195Y0017111D01*
X0047852Y0017395D01*
X0046516Y0017713D01*
X0045188Y0018063D01*
X0043870Y0018445D01*
X0042561Y0018860D01*
X0041262Y0019306D01*
X0039975Y0019785D01*
X0038700Y0020295D01*
X0037438Y0020836D01*
X0036190Y0021407D01*
X0034956Y0022010D01*
X0033737Y0022642D01*
X0032534Y0023304D01*
X0031348Y0023996D01*
X0030179Y0024716D01*
X0029028Y0025465D01*
X0027896Y0026241D01*
X0026783Y0027046D01*
X0025690Y0027877D01*
X0024618Y0028735D01*
X0023568Y0029619D01*
X0022539Y0030529D01*
X0021533Y0031463D01*
X0020550Y0032422D01*
X0019591Y0033405D01*
X0018657Y0034411D01*
X0017747Y0035440D01*
X0016863Y0036490D01*
X0016005Y0037562D01*
X0015174Y0038655D01*
X0014369Y0039768D01*
X0013593Y0040900D01*
X0012844Y0042051D01*
X0012124Y0043220D01*
X0011432Y0044406D01*
X0010770Y0045609D01*
X0010138Y0046828D01*
X0009535Y0048062D01*
X0008964Y0049310D01*
X0008423Y0050572D01*
X0007913Y0051847D01*
X0007434Y0053134D01*
X0006988Y0054433D01*
X0006573Y0055742D01*
X0006191Y0057060D01*
X0005841Y0058388D01*
X0005523Y0059724D01*
X0005239Y0061067D01*
X0004988Y0062417D01*
X0004770Y0063773D01*
X0004585Y0065134D01*
X0004433Y0066498D01*
X0004316Y0067866D01*
X0004231Y0069237D01*
X0004181Y0070609D01*
X0004164Y0071982D01*
X0053039Y0071982D02*
X0053041Y0072156D01*
X0053048Y0072329D01*
X0053058Y0072502D01*
X0053073Y0072675D01*
X0053092Y0072848D01*
X0053116Y0073020D01*
X0053143Y0073191D01*
X0053175Y0073361D01*
X0053211Y0073531D01*
X0053251Y0073700D01*
X0053295Y0073868D01*
X0053343Y0074035D01*
X0053396Y0074200D01*
X0053452Y0074364D01*
X0053513Y0074527D01*
X0053577Y0074688D01*
X0053646Y0074847D01*
X0053718Y0075005D01*
X0053794Y0075161D01*
X0053874Y0075315D01*
X0053958Y0075467D01*
X0054045Y0075617D01*
X0054136Y0075765D01*
X0054231Y0075910D01*
X0054329Y0076054D01*
X0054431Y0076194D01*
X0054536Y0076332D01*
X0054644Y0076468D01*
X0054756Y0076601D01*
X0054871Y0076731D01*
X0054989Y0076858D01*
X0055110Y0076982D01*
X0055234Y0077103D01*
X0055361Y0077221D01*
X0055491Y0077336D01*
X0055624Y0077448D01*
X0055760Y0077556D01*
X0055898Y0077661D01*
X0056038Y0077763D01*
X0056182Y0077861D01*
X0056327Y0077956D01*
X0056475Y0078047D01*
X0056625Y0078134D01*
X0056777Y0078218D01*
X0056931Y0078298D01*
X0057087Y0078374D01*
X0057245Y0078446D01*
X0057404Y0078515D01*
X0057565Y0078579D01*
X0057728Y0078640D01*
X0057892Y0078696D01*
X0058057Y0078749D01*
X0058224Y0078797D01*
X0058392Y0078841D01*
X0058561Y0078881D01*
X0058731Y0078917D01*
X0058901Y0078949D01*
X0059072Y0078976D01*
X0059244Y0079000D01*
X0059417Y0079019D01*
X0059590Y0079034D01*
X0059763Y0079044D01*
X0059936Y0079051D01*
X0060110Y0079053D01*
X0060284Y0079051D01*
X0060457Y0079044D01*
X0060630Y0079034D01*
X0060803Y0079019D01*
X0060976Y0079000D01*
X0061148Y0078976D01*
X0061319Y0078949D01*
X0061489Y0078917D01*
X0061659Y0078881D01*
X0061828Y0078841D01*
X0061996Y0078797D01*
X0062163Y0078749D01*
X0062328Y0078696D01*
X0062492Y0078640D01*
X0062655Y0078579D01*
X0062816Y0078515D01*
X0062975Y0078446D01*
X0063133Y0078374D01*
X0063289Y0078298D01*
X0063443Y0078218D01*
X0063595Y0078134D01*
X0063745Y0078047D01*
X0063893Y0077956D01*
X0064038Y0077861D01*
X0064182Y0077763D01*
X0064322Y0077661D01*
X0064460Y0077556D01*
X0064596Y0077448D01*
X0064729Y0077336D01*
X0064859Y0077221D01*
X0064986Y0077103D01*
X0065110Y0076982D01*
X0065231Y0076858D01*
X0065349Y0076731D01*
X0065464Y0076601D01*
X0065576Y0076468D01*
X0065684Y0076332D01*
X0065789Y0076194D01*
X0065891Y0076054D01*
X0065989Y0075910D01*
X0066084Y0075765D01*
X0066175Y0075617D01*
X0066262Y0075467D01*
X0066346Y0075315D01*
X0066426Y0075161D01*
X0066502Y0075005D01*
X0066574Y0074847D01*
X0066643Y0074688D01*
X0066707Y0074527D01*
X0066768Y0074364D01*
X0066824Y0074200D01*
X0066877Y0074035D01*
X0066925Y0073868D01*
X0066969Y0073700D01*
X0067009Y0073531D01*
X0067045Y0073361D01*
X0067077Y0073191D01*
X0067104Y0073020D01*
X0067128Y0072848D01*
X0067147Y0072675D01*
X0067162Y0072502D01*
X0067172Y0072329D01*
X0067179Y0072156D01*
X0067181Y0071982D01*
X0067179Y0071808D01*
X0067172Y0071635D01*
X0067162Y0071462D01*
X0067147Y0071289D01*
X0067128Y0071116D01*
X0067104Y0070944D01*
X0067077Y0070773D01*
X0067045Y0070603D01*
X0067009Y0070433D01*
X0066969Y0070264D01*
X0066925Y0070096D01*
X0066877Y0069929D01*
X0066824Y0069764D01*
X0066768Y0069600D01*
X0066707Y0069437D01*
X0066643Y0069276D01*
X0066574Y0069117D01*
X0066502Y0068959D01*
X0066426Y0068803D01*
X0066346Y0068649D01*
X0066262Y0068497D01*
X0066175Y0068347D01*
X0066084Y0068199D01*
X0065989Y0068054D01*
X0065891Y0067910D01*
X0065789Y0067770D01*
X0065684Y0067632D01*
X0065576Y0067496D01*
X0065464Y0067363D01*
X0065349Y0067233D01*
X0065231Y0067106D01*
X0065110Y0066982D01*
X0064986Y0066861D01*
X0064859Y0066743D01*
X0064729Y0066628D01*
X0064596Y0066516D01*
X0064460Y0066408D01*
X0064322Y0066303D01*
X0064182Y0066201D01*
X0064038Y0066103D01*
X0063893Y0066008D01*
X0063745Y0065917D01*
X0063595Y0065830D01*
X0063443Y0065746D01*
X0063289Y0065666D01*
X0063133Y0065590D01*
X0062975Y0065518D01*
X0062816Y0065449D01*
X0062655Y0065385D01*
X0062492Y0065324D01*
X0062328Y0065268D01*
X0062163Y0065215D01*
X0061996Y0065167D01*
X0061828Y0065123D01*
X0061659Y0065083D01*
X0061489Y0065047D01*
X0061319Y0065015D01*
X0061148Y0064988D01*
X0060976Y0064964D01*
X0060803Y0064945D01*
X0060630Y0064930D01*
X0060457Y0064920D01*
X0060284Y0064913D01*
X0060110Y0064911D01*
X0059936Y0064913D01*
X0059763Y0064920D01*
X0059590Y0064930D01*
X0059417Y0064945D01*
X0059244Y0064964D01*
X0059072Y0064988D01*
X0058901Y0065015D01*
X0058731Y0065047D01*
X0058561Y0065083D01*
X0058392Y0065123D01*
X0058224Y0065167D01*
X0058057Y0065215D01*
X0057892Y0065268D01*
X0057728Y0065324D01*
X0057565Y0065385D01*
X0057404Y0065449D01*
X0057245Y0065518D01*
X0057087Y0065590D01*
X0056931Y0065666D01*
X0056777Y0065746D01*
X0056625Y0065830D01*
X0056475Y0065917D01*
X0056327Y0066008D01*
X0056182Y0066103D01*
X0056038Y0066201D01*
X0055898Y0066303D01*
X0055760Y0066408D01*
X0055624Y0066516D01*
X0055491Y0066628D01*
X0055361Y0066743D01*
X0055234Y0066861D01*
X0055110Y0066982D01*
X0054989Y0067106D01*
X0054871Y0067233D01*
X0054756Y0067363D01*
X0054644Y0067496D01*
X0054536Y0067632D01*
X0054431Y0067770D01*
X0054329Y0067910D01*
X0054231Y0068054D01*
X0054136Y0068199D01*
X0054045Y0068347D01*
X0053958Y0068497D01*
X0053874Y0068649D01*
X0053794Y0068803D01*
X0053718Y0068959D01*
X0053646Y0069117D01*
X0053577Y0069276D01*
X0053513Y0069437D01*
X0053452Y0069600D01*
X0053396Y0069764D01*
X0053343Y0069929D01*
X0053295Y0070096D01*
X0053251Y0070264D01*
X0053211Y0070433D01*
X0053175Y0070603D01*
X0053143Y0070773D01*
X0053116Y0070944D01*
X0053092Y0071116D01*
X0053073Y0071289D01*
X0053058Y0071462D01*
X0053048Y0071635D01*
X0053041Y0071808D01*
X0053039Y0071982D01*
X0019799Y0071982D02*
X0019811Y0072971D01*
X0019848Y0073960D01*
X0019908Y0074947D01*
X0019993Y0075933D01*
X0020102Y0076916D01*
X0020235Y0077897D01*
X0020392Y0078874D01*
X0020574Y0079846D01*
X0020778Y0080814D01*
X0021007Y0081777D01*
X0021259Y0082733D01*
X0021535Y0083684D01*
X0021834Y0084627D01*
X0022155Y0085562D01*
X0022500Y0086490D01*
X0022867Y0087408D01*
X0023257Y0088318D01*
X0023669Y0089217D01*
X0024103Y0090106D01*
X0024559Y0090984D01*
X0025036Y0091851D01*
X0025534Y0092706D01*
X0026053Y0093548D01*
X0026593Y0094378D01*
X0027152Y0095193D01*
X0027732Y0095995D01*
X0028331Y0096783D01*
X0028949Y0097555D01*
X0029586Y0098312D01*
X0030242Y0099053D01*
X0030915Y0099778D01*
X0031606Y0100486D01*
X0032314Y0101177D01*
X0033039Y0101850D01*
X0033780Y0102506D01*
X0034537Y0103143D01*
X0035309Y0103761D01*
X0036097Y0104360D01*
X0036899Y0104940D01*
X0037714Y0105499D01*
X0038544Y0106039D01*
X0039386Y0106558D01*
X0040241Y0107056D01*
X0041108Y0107533D01*
X0041986Y0107989D01*
X0042875Y0108423D01*
X0043774Y0108835D01*
X0044684Y0109225D01*
X0045602Y0109592D01*
X0046530Y0109937D01*
X0047465Y0110258D01*
X0048408Y0110557D01*
X0049359Y0110833D01*
X0050315Y0111085D01*
X0051278Y0111314D01*
X0052246Y0111518D01*
X0053218Y0111700D01*
X0054195Y0111857D01*
X0055176Y0111990D01*
X0056159Y0112099D01*
X0057145Y0112184D01*
X0058132Y0112244D01*
X0059121Y0112281D01*
X0060110Y0112293D01*
X0061099Y0112281D01*
X0062088Y0112244D01*
X0063075Y0112184D01*
X0064061Y0112099D01*
X0065044Y0111990D01*
X0066025Y0111857D01*
X0067002Y0111700D01*
X0067974Y0111518D01*
X0068942Y0111314D01*
X0069905Y0111085D01*
X0070861Y0110833D01*
X0071812Y0110557D01*
X0072755Y0110258D01*
X0073690Y0109937D01*
X0074618Y0109592D01*
X0075536Y0109225D01*
X0076446Y0108835D01*
X0077345Y0108423D01*
X0078234Y0107989D01*
X0079112Y0107533D01*
X0079979Y0107056D01*
X0080834Y0106558D01*
X0081676Y0106039D01*
X0082506Y0105499D01*
X0083321Y0104940D01*
X0084123Y0104360D01*
X0084911Y0103761D01*
X0085683Y0103143D01*
X0086440Y0102506D01*
X0087181Y0101850D01*
X0087906Y0101177D01*
X0088614Y0100486D01*
X0089305Y0099778D01*
X0089978Y0099053D01*
X0090634Y0098312D01*
X0091271Y0097555D01*
X0091889Y0096783D01*
X0092488Y0095995D01*
X0093068Y0095193D01*
X0093627Y0094378D01*
X0094167Y0093548D01*
X0094686Y0092706D01*
X0095184Y0091851D01*
X0095661Y0090984D01*
X0096117Y0090106D01*
X0096551Y0089217D01*
X0096963Y0088318D01*
X0097353Y0087408D01*
X0097720Y0086490D01*
X0098065Y0085562D01*
X0098386Y0084627D01*
X0098685Y0083684D01*
X0098961Y0082733D01*
X0099213Y0081777D01*
X0099442Y0080814D01*
X0099646Y0079846D01*
X0099828Y0078874D01*
X0099985Y0077897D01*
X0100118Y0076916D01*
X0100227Y0075933D01*
X0100312Y0074947D01*
X0100372Y0073960D01*
X0100409Y0072971D01*
X0100421Y0071982D01*
X0100409Y0070993D01*
X0100372Y0070004D01*
X0100312Y0069017D01*
X0100227Y0068031D01*
X0100118Y0067048D01*
X0099985Y0066067D01*
X0099828Y0065090D01*
X0099646Y0064118D01*
X0099442Y0063150D01*
X0099213Y0062187D01*
X0098961Y0061231D01*
X0098685Y0060280D01*
X0098386Y0059337D01*
X0098065Y0058402D01*
X0097720Y0057474D01*
X0097353Y0056556D01*
X0096963Y0055646D01*
X0096551Y0054747D01*
X0096117Y0053858D01*
X0095661Y0052980D01*
X0095184Y0052113D01*
X0094686Y0051258D01*
X0094167Y0050416D01*
X0093627Y0049586D01*
X0093068Y0048771D01*
X0092488Y0047969D01*
X0091889Y0047181D01*
X0091271Y0046409D01*
X0090634Y0045652D01*
X0089978Y0044911D01*
X0089305Y0044186D01*
X0088614Y0043478D01*
X0087906Y0042787D01*
X0087181Y0042114D01*
X0086440Y0041458D01*
X0085683Y0040821D01*
X0084911Y0040203D01*
X0084123Y0039604D01*
X0083321Y0039024D01*
X0082506Y0038465D01*
X0081676Y0037925D01*
X0080834Y0037406D01*
X0079979Y0036908D01*
X0079112Y0036431D01*
X0078234Y0035975D01*
X0077345Y0035541D01*
X0076446Y0035129D01*
X0075536Y0034739D01*
X0074618Y0034372D01*
X0073690Y0034027D01*
X0072755Y0033706D01*
X0071812Y0033407D01*
X0070861Y0033131D01*
X0069905Y0032879D01*
X0068942Y0032650D01*
X0067974Y0032446D01*
X0067002Y0032264D01*
X0066025Y0032107D01*
X0065044Y0031974D01*
X0064061Y0031865D01*
X0063075Y0031780D01*
X0062088Y0031720D01*
X0061099Y0031683D01*
X0060110Y0031671D01*
X0059121Y0031683D01*
X0058132Y0031720D01*
X0057145Y0031780D01*
X0056159Y0031865D01*
X0055176Y0031974D01*
X0054195Y0032107D01*
X0053218Y0032264D01*
X0052246Y0032446D01*
X0051278Y0032650D01*
X0050315Y0032879D01*
X0049359Y0033131D01*
X0048408Y0033407D01*
X0047465Y0033706D01*
X0046530Y0034027D01*
X0045602Y0034372D01*
X0044684Y0034739D01*
X0043774Y0035129D01*
X0042875Y0035541D01*
X0041986Y0035975D01*
X0041108Y0036431D01*
X0040241Y0036908D01*
X0039386Y0037406D01*
X0038544Y0037925D01*
X0037714Y0038465D01*
X0036899Y0039024D01*
X0036097Y0039604D01*
X0035309Y0040203D01*
X0034537Y0040821D01*
X0033780Y0041458D01*
X0033039Y0042114D01*
X0032314Y0042787D01*
X0031606Y0043478D01*
X0030915Y0044186D01*
X0030242Y0044911D01*
X0029586Y0045652D01*
X0028949Y0046409D01*
X0028331Y0047181D01*
X0027732Y0047969D01*
X0027152Y0048771D01*
X0026593Y0049586D01*
X0026053Y0050416D01*
X0025534Y0051258D01*
X0025036Y0052113D01*
X0024559Y0052980D01*
X0024103Y0053858D01*
X0023669Y0054747D01*
X0023257Y0055646D01*
X0022867Y0056556D01*
X0022500Y0057474D01*
X0022155Y0058402D01*
X0021834Y0059337D01*
X0021535Y0060280D01*
X0021259Y0061231D01*
X0021007Y0062187D01*
X0020778Y0063150D01*
X0020574Y0064118D01*
X0020392Y0065090D01*
X0020235Y0066067D01*
X0020102Y0067048D01*
X0019993Y0068031D01*
X0019908Y0069017D01*
X0019848Y0070004D01*
X0019811Y0070993D01*
X0019799Y0071982D01*
X0006027Y0071982D02*
X0006043Y0073309D01*
X0006092Y0074636D01*
X0006174Y0075961D01*
X0006287Y0077283D01*
X0006434Y0078602D01*
X0006612Y0079918D01*
X0006823Y0081228D01*
X0007066Y0082533D01*
X0007341Y0083832D01*
X0007648Y0085123D01*
X0007986Y0086407D01*
X0008356Y0087681D01*
X0008757Y0088947D01*
X0009188Y0090202D01*
X0009651Y0091446D01*
X0010144Y0092679D01*
X0010667Y0093899D01*
X0011220Y0095105D01*
X0011802Y0096298D01*
X0012413Y0097477D01*
X0013053Y0098639D01*
X0013721Y0099786D01*
X0014418Y0100916D01*
X0015142Y0102029D01*
X0015893Y0103123D01*
X0016670Y0104199D01*
X0017474Y0105256D01*
X0018303Y0106292D01*
X0019158Y0107308D01*
X0020037Y0108302D01*
X0020941Y0109274D01*
X0021868Y0110224D01*
X0022818Y0111151D01*
X0023790Y0112055D01*
X0024784Y0112934D01*
X0025800Y0113789D01*
X0026836Y0114618D01*
X0027893Y0115422D01*
X0028969Y0116199D01*
X0030063Y0116950D01*
X0031176Y0117674D01*
X0032306Y0118371D01*
X0033453Y0119039D01*
X0034615Y0119679D01*
X0035794Y0120290D01*
X0036987Y0120872D01*
X0038193Y0121425D01*
X0039413Y0121948D01*
X0040646Y0122441D01*
X0041890Y0122904D01*
X0043145Y0123335D01*
X0044411Y0123736D01*
X0045685Y0124106D01*
X0046969Y0124444D01*
X0048260Y0124751D01*
X0049559Y0125026D01*
X0050864Y0125269D01*
X0052174Y0125480D01*
X0053490Y0125658D01*
X0054809Y0125805D01*
X0056131Y0125918D01*
X0057456Y0126000D01*
X0058783Y0126049D01*
X0060110Y0126065D01*
X0061437Y0126049D01*
X0062764Y0126000D01*
X0064089Y0125918D01*
X0065411Y0125805D01*
X0066730Y0125658D01*
X0068046Y0125480D01*
X0069356Y0125269D01*
X0070661Y0125026D01*
X0071960Y0124751D01*
X0073251Y0124444D01*
X0074535Y0124106D01*
X0075809Y0123736D01*
X0077075Y0123335D01*
X0078330Y0122904D01*
X0079574Y0122441D01*
X0080807Y0121948D01*
X0082027Y0121425D01*
X0083233Y0120872D01*
X0084426Y0120290D01*
X0085605Y0119679D01*
X0086767Y0119039D01*
X0087914Y0118371D01*
X0089044Y0117674D01*
X0090157Y0116950D01*
X0091251Y0116199D01*
X0092327Y0115422D01*
X0093384Y0114618D01*
X0094420Y0113789D01*
X0095436Y0112934D01*
X0096430Y0112055D01*
X0097402Y0111151D01*
X0098352Y0110224D01*
X0099279Y0109274D01*
X0100183Y0108302D01*
X0101062Y0107308D01*
X0101917Y0106292D01*
X0102746Y0105256D01*
X0103550Y0104199D01*
X0104327Y0103123D01*
X0105078Y0102029D01*
X0105802Y0100916D01*
X0106499Y0099786D01*
X0107167Y0098639D01*
X0107807Y0097477D01*
X0108418Y0096298D01*
X0109000Y0095105D01*
X0109553Y0093899D01*
X0110076Y0092679D01*
X0110569Y0091446D01*
X0111032Y0090202D01*
X0111463Y0088947D01*
X0111864Y0087681D01*
X0112234Y0086407D01*
X0112572Y0085123D01*
X0112879Y0083832D01*
X0113154Y0082533D01*
X0113397Y0081228D01*
X0113608Y0079918D01*
X0113786Y0078602D01*
X0113933Y0077283D01*
X0114046Y0075961D01*
X0114128Y0074636D01*
X0114177Y0073309D01*
X0114193Y0071982D01*
X0114177Y0070655D01*
X0114128Y0069328D01*
X0114046Y0068003D01*
X0113933Y0066681D01*
X0113786Y0065362D01*
X0113608Y0064046D01*
X0113397Y0062736D01*
X0113154Y0061431D01*
X0112879Y0060132D01*
X0112572Y0058841D01*
X0112234Y0057557D01*
X0111864Y0056283D01*
X0111463Y0055017D01*
X0111032Y0053762D01*
X0110569Y0052518D01*
X0110076Y0051285D01*
X0109553Y0050065D01*
X0109000Y0048859D01*
X0108418Y0047666D01*
X0107807Y0046487D01*
X0107167Y0045325D01*
X0106499Y0044178D01*
X0105802Y0043048D01*
X0105078Y0041935D01*
X0104327Y0040841D01*
X0103550Y0039765D01*
X0102746Y0038708D01*
X0101917Y0037672D01*
X0101062Y0036656D01*
X0100183Y0035662D01*
X0099279Y0034690D01*
X0098352Y0033740D01*
X0097402Y0032813D01*
X0096430Y0031909D01*
X0095436Y0031030D01*
X0094420Y0030175D01*
X0093384Y0029346D01*
X0092327Y0028542D01*
X0091251Y0027765D01*
X0090157Y0027014D01*
X0089044Y0026290D01*
X0087914Y0025593D01*
X0086767Y0024925D01*
X0085605Y0024285D01*
X0084426Y0023674D01*
X0083233Y0023092D01*
X0082027Y0022539D01*
X0080807Y0022016D01*
X0079574Y0021523D01*
X0078330Y0021060D01*
X0077075Y0020629D01*
X0075809Y0020228D01*
X0074535Y0019858D01*
X0073251Y0019520D01*
X0071960Y0019213D01*
X0070661Y0018938D01*
X0069356Y0018695D01*
X0068046Y0018484D01*
X0066730Y0018306D01*
X0065411Y0018159D01*
X0064089Y0018046D01*
X0062764Y0017964D01*
X0061437Y0017915D01*
X0060110Y0017899D01*
X0058783Y0017915D01*
X0057456Y0017964D01*
X0056131Y0018046D01*
X0054809Y0018159D01*
X0053490Y0018306D01*
X0052174Y0018484D01*
X0050864Y0018695D01*
X0049559Y0018938D01*
X0048260Y0019213D01*
X0046969Y0019520D01*
X0045685Y0019858D01*
X0044411Y0020228D01*
X0043145Y0020629D01*
X0041890Y0021060D01*
X0040646Y0021523D01*
X0039413Y0022016D01*
X0038193Y0022539D01*
X0036987Y0023092D01*
X0035794Y0023674D01*
X0034615Y0024285D01*
X0033453Y0024925D01*
X0032306Y0025593D01*
X0031176Y0026290D01*
X0030063Y0027014D01*
X0028969Y0027765D01*
X0027893Y0028542D01*
X0026836Y0029346D01*
X0025800Y0030175D01*
X0024784Y0031030D01*
X0023790Y0031909D01*
X0022818Y0032813D01*
X0021868Y0033740D01*
X0020941Y0034690D01*
X0020037Y0035662D01*
X0019158Y0036656D01*
X0018303Y0037672D01*
X0017474Y0038708D01*
X0016670Y0039765D01*
X0015893Y0040841D01*
X0015142Y0041935D01*
X0014418Y0043048D01*
X0013721Y0044178D01*
X0013053Y0045325D01*
X0012413Y0046487D01*
X0011802Y0047666D01*
X0011220Y0048859D01*
X0010667Y0050065D01*
X0010144Y0051285D01*
X0009651Y0052518D01*
X0009188Y0053762D01*
X0008757Y0055017D01*
X0008356Y0056283D01*
X0007986Y0057557D01*
X0007648Y0058841D01*
X0007341Y0060132D01*
X0007066Y0061431D01*
X0006823Y0062736D01*
X0006612Y0064046D01*
X0006434Y0065362D01*
X0006287Y0066681D01*
X0006174Y0068003D01*
X0006092Y0069328D01*
X0006043Y0070655D01*
X0006027Y0071982D01*
X0044987Y0114732D02*
X0046488Y0114732D01*
X0047239Y0115483D01*
X0048840Y0116233D02*
X0051092Y0116233D01*
X0051843Y0116984D01*
X0051843Y0118485D01*
X0051092Y0119236D01*
X0048840Y0119236D01*
X0048840Y0114732D01*
X0050342Y0116233D02*
X0051843Y0114732D01*
X0053444Y0114732D02*
X0056447Y0117735D01*
X0056447Y0118485D01*
X0055696Y0119236D01*
X0054195Y0119236D01*
X0053444Y0118485D01*
X0058048Y0118485D02*
X0058048Y0115483D01*
X0061051Y0118485D01*
X0061051Y0115483D01*
X0060300Y0114732D01*
X0058799Y0114732D01*
X0058048Y0115483D01*
X0056447Y0114732D02*
X0053444Y0114732D01*
X0058048Y0118485D02*
X0058799Y0119236D01*
X0060300Y0119236D01*
X0061051Y0118485D01*
X0062652Y0118485D02*
X0063403Y0119236D01*
X0064904Y0119236D01*
X0065655Y0118485D01*
X0065655Y0117735D01*
X0064904Y0116984D01*
X0065655Y0116233D01*
X0065655Y0115483D01*
X0064904Y0114732D01*
X0063403Y0114732D01*
X0062652Y0115483D01*
X0064153Y0116984D02*
X0064904Y0116984D01*
X0067256Y0118485D02*
X0068007Y0119236D01*
X0069508Y0119236D01*
X0070259Y0118485D01*
X0070259Y0117735D01*
X0067256Y0114732D01*
X0070259Y0114732D01*
X0047239Y0118485D02*
X0046488Y0119236D01*
X0044987Y0119236D01*
X0044236Y0118485D01*
X0044236Y0115483D01*
X0044987Y0114732D01*
X0098720Y0118633D02*
X0099471Y0117882D01*
X0100972Y0117882D01*
X0101723Y0118633D01*
X0103324Y0118633D02*
X0104075Y0117882D01*
X0105576Y0117882D01*
X0106326Y0118633D01*
X0106326Y0121635D01*
X0105576Y0122386D01*
X0104075Y0122386D01*
X0103324Y0121635D01*
X0103324Y0118633D01*
X0098720Y0118633D02*
X0098720Y0121635D01*
X0099471Y0122386D01*
X0100972Y0122386D01*
X0101723Y0121635D01*
X0107928Y0122386D02*
X0107928Y0117882D01*
X0110930Y0117882D02*
X0110930Y0122386D01*
X0112532Y0120885D02*
X0114033Y0122386D01*
X0114033Y0117882D01*
X0112532Y0117882D02*
X0115534Y0117882D01*
X0110930Y0117882D02*
X0107928Y0122386D01*
D14*
X0128550Y0021592D02*
X0130050Y0021592D01*
X0130250Y0021792D01*
X0130050Y0017592D02*
X0130250Y0017392D01*
X0130050Y0017592D02*
X0129050Y0017592D01*
D15*
X0127900Y0017592D03*
X0127900Y0021592D03*
D16*
X0062610Y0024482D02*
X0057610Y0024482D01*
X0060110Y0021982D02*
X0060110Y0026982D01*
X0062610Y0099482D02*
X0057610Y0099482D01*
D17*
X0171700Y0049272D02*
X0174200Y0049272D01*
X0176700Y0049272D01*
X0176700Y0046772D02*
X0174200Y0046772D01*
X0171700Y0046772D01*
M02*
