G75*
%MOIN*%
%OFA0B0*%
%FSLAX25Y25*%
%IPPOS*%
%LPD*%
%AMOC8*
5,1,8,0,0,1.08239X$1,22.5*
%
%ADD10C,0.13398*%
%ADD11C,0.06000*%
%ADD12C,0.07400*%
%ADD13OC8,0.15800*%
%ADD14OC8,0.06000*%
%ADD15C,0.06800*%
D10*
X0017908Y0017000D03*
X0183262Y0017000D03*
X0183262Y0113457D03*
D11*
X0160110Y0070082D02*
X0160110Y0064882D01*
X0150110Y0064882D02*
X0150110Y0070082D01*
X0140110Y0070082D02*
X0140110Y0064882D01*
X0130110Y0064882D02*
X0130110Y0070082D01*
X0130110Y0040082D02*
X0130110Y0034882D01*
X0140110Y0034882D02*
X0140110Y0040082D01*
X0150110Y0040082D02*
X0150110Y0034882D01*
X0160110Y0034882D02*
X0160110Y0040082D01*
D12*
X0133050Y0024592D03*
X0133050Y0014592D03*
D13*
X0060110Y0011982D03*
X0060110Y0087482D03*
D14*
X0120230Y0099422D03*
X0130230Y0089952D03*
X0140290Y0080022D03*
X0160230Y0089952D03*
X0150230Y0099422D03*
X0170290Y0080022D03*
X0174200Y0058072D03*
X0174200Y0038072D03*
D15*
X0160200Y0108492D02*
X0160200Y0114492D01*
X0150200Y0114492D02*
X0150200Y0108492D01*
X0140200Y0108492D02*
X0140200Y0114492D01*
X0130200Y0114492D02*
X0130200Y0108492D01*
X0120200Y0108492D02*
X0120200Y0114492D01*
M02*
