%
M48
M72
T01C0.03200
T02C0.04000
T03C0.04400
T04C0.12598
%
T01
X130110Y37482
X140110Y37482
X150110Y37482
X160110Y37482
X174200Y38072
X174200Y58072
X160110Y67482
X150110Y67482
X140110Y67482
X130110Y67482
X140290Y80022
X130230Y89952
X120230Y99422
X150230Y99422
X160230Y89952
X170290Y80022
X133050Y24592
X133050Y14592
T02
X130200Y111492
X120200Y111492
X140200Y111492
X150200Y111492
X160200Y111492
T03
X60110Y87482
X60110Y11982
T04
X17908Y17000
X183262Y17000
X183262Y113457
M30
